<?xml version="1.0" standalone="no"?>
<!DOCTYPE svg PUBLIC "-//W3C//DTD SVG 1.1//EN" "http://www.w3.org/Graphics/SVG/1.1/DTD/svg11.dtd" >
<svg xmlns="http://www.w3.org/2000/svg" xmlns:xlink="http://www.w3.org/1999/xlink" version="1.1">
<metadata>
Created by FontForge 20170731 at Thu Mar 19 21:20:35 2020
 By Aleksey,,,
Copyright (c) 2020 by Jean at Fontastica. All rights reserved.
</metadata>
<defs>
<font id="VegasNova-BlackItalic" horiz-adv-x="383" >
  <font-face 
    font-family="Vegas Nova Black"
    font-weight="900"
    font-style="italic"
    font-stretch="normal"
    units-per-em="1024"
    panose-1="0 0 10 0 0 0 0 0 0 0"
    ascent="819"
    descent="-205"
    x-height="586"
    cap-height="692"
    bbox="-304.714 -401 1933 893"
    underline-thickness="50"
    underline-position="-200"
    unicode-range="U+000D-2265"
  />
<missing-glyph horiz-adv-x="339" 
d="M30 0h279l108 683h-279zM230 377l-63 281h214zM64 70l86 544l60 -272zM297 71l-59 271l145 271zM67 25l152 282l62 -282h-214z" />
    <glyph glyph-name="f_f.liga" unicode="ff" horiz-adv-x="666" 
d="M682 350h-145l30 188q6 35 29 59.5t61 24.5q11 0 24 -6q1 0 5.5 -1.5l7.5 -2.5q6 -3 15 -4l12 -1l12 75l-8 2q-9 1 -27 5q-15 3 -30 3q-76 0 -121.5 -46.5t-54.5 -105.5l-31 -190h-227l30 188q6 34 29.5 59t60.5 25q10 0 25 -5q4 -2 14 -4q10 -4 16 -5l11 -2l12 76l-8 2
q-2 0 -28 5q-16 3 -31 3q-76 0 -122 -47t-55 -105l-31 -190h-61l-11 -70h61l-44 -280h77l44 280h227l-44 -280h76l44 280h145z" />
    <glyph glyph-name="t_t.liga" unicode="tt" horiz-adv-x="636" 
d="M564 519h144l11 68h-144l17 105h-76l-17 -105h-227l17 105h-77l-17 -105h-62l-11 -68h62l-60 -380q-9 -56 23.5 -104t105.5 -48q15 0 32 3q4 1 10.5 2t11 2t8.5 1l9 2l13 84l-16 -8q-37 -16 -57 -16q-36 0 -52 25.5t-11 58.5l60 378h227l-60 -380q-5 -35 4.5 -68.5
t41.5 -58.5t82 -25q16 0 31 3q20 4 29 5l9 2l12 76l-13 -1q-10 -2 -16 -4l-15 -5q-15 -6 -26 -6q-37 0 -52.5 25t-10.5 59z" />
    <glyph glyph-name=".notdef" horiz-adv-x="339" 
d="M30 0h279l108 683h-279zM230 377l-63 281h214zM64 70l86 544l60 -272zM297 71l-59 271l145 271zM67 25l152 282l62 -282h-214z" />
    <glyph glyph-name=".null" horiz-adv-x="0" 
 />
    <glyph glyph-name="nonmarkingreturn" horiz-adv-x="341" 
 />
    <glyph glyph-name="CR" unicode="&#xd;" horiz-adv-x="256" 
 />
    <glyph glyph-name="space" unicode=" " horiz-adv-x="231" 
 />
    <glyph glyph-name="exclam" unicode="!" horiz-adv-x="177" 
d="M158 688l-40 -251q-3 -18 -19.5 -128t-25.5 -168l-1 -8h74l1 8q6 38 24 139.5t26 156.5l40 251h-79zM90 0q22 0 37 15.5t17 30.5q3 15 -7.5 30t-32.5 15q-23 0 -38.5 -14.5t-18.5 -30.5q-3 -17 8.5 -31.5t34.5 -14.5z" />
    <glyph glyph-name="quotedbl" unicode="&#x22;" horiz-adv-x="254" 
d="M149 688l-31 -195h81l31 195h-81zM241 688l-31 -195h82l31 195h-82z" />
    <glyph glyph-name="numbersign" unicode="#" horiz-adv-x="447" 
d="M135 -52l78 249h45l-74 -249h73l78 249h90l11 71h-81l34 100h76l11 70h-21l1 1h-45l77 249h-75l-78 -249h-46l76 249h-74l-78 -249h-90l-12 -71h78l-32 -100h-75l-11 -70h21v-1h44l-75 -249h74zM267 368h46l-34 -100h-43z" />
    <glyph glyph-name="dollar" unicode="$" horiz-adv-x="386" 
d="M154 -8l-8 -47h77l8 47q60 13 94.5 55.5t42.5 91.5q9 54 -13 104t-67 112q-48 75 -60 98q-27 55 -19 100q5 33 26 54t58 21q35 0 51.5 -16t11.5 -45l-17 -108h80l17 108q7 45 -16.5 81.5t-77.5 47.5l4 26h-77l-4 -26q-60 -12 -94.5 -53.5t-41.5 -89.5q-11 -64 29 -146
q11 -20 25 -41.5t32 -46.5t27 -39q28 -45 44 -99q6 -29 4 -42q-5 -33 -27.5 -56.5t-59.5 -23.5q-34 0 -51.5 13.5t-13.5 39.5l18 117h-80l-18 -117q-7 -44 18 -76.5t78 -43.5z" />
    <glyph glyph-name="percent" unicode="%" horiz-adv-x="612" 
d="M145 638l-33 -210q-6 -38 19 -67t75 -29q52 0 85.5 28t39.5 68l33 210q6 40 -18 68t-77 28q-52 0 -84.5 -28t-39.5 -68zM676 659l-58 42l-570 -648l59 -39zM288 638l-33 -210q-5 -26 -38 -26q-30 0 -26 26l33 210q4 27 34 27q34 0 30 -27zM371 276l-34 -212
q-6 -40 18 -67.5t77 -27.5q52 0 84.5 28t38.5 67l34 212q6 40 -17.5 67t-75.5 27q-54 0 -86.5 -26.5t-38.5 -67.5zM512 276l-34 -212q-4 -25 -35 -25q-16 0 -23 6t-5 19l34 212q3 25 36 25q16 0 22.5 -6t4.5 -19z" />
    <glyph glyph-name="ampersand" unicode="&#x26;" horiz-adv-x="407" 
d="M83 272l-29 -182q-8 -48 32 -75t104 -27q63 0 111.5 27t56.5 75l33 207h23l11 69h-23l12 74h-80l-12 -74h-71q-29 0 -49 11.5t-17 30.5l22 143q6 33 27 55t58 22q54 0 59 -46q3 -20 -2 -45q-1 -8 -3.5 -22.5t-2.5 -18.5l-2 -8h80l2 8q2 15 8 47q6 41 1 63q-8 39 -42 66.5
t-86 27.5q-74 0 -120.5 -46t-56.5 -103l-22 -142q-7 -45 22 -73q-37 -24 -44 -64zM311 297l-33 -208q-2 -13 -28 -23q-21 -7 -49 -7q-27 0 -48 7q-21 8 -19 23l29 183q2 12 29 18q24 7 48 7h71z" />
    <glyph glyph-name="quotesingle" unicode="'" horiz-adv-x="161" 
d="M149 688l-31 -195h81l31 195h-81z" />
    <glyph glyph-name="parenleft" unicode="(" horiz-adv-x="277" 
d="M341 688h-78l-3 -7l-1 -2q-9 -15 -31.5 -49t-33.5 -53q-86 -149 -106 -273q-25 -161 50 -373q2 -2 1 -4q2 -2 3 -4l2 -4h80l-2 10q0 1 -3 11q-5 19 -16 55.5t-19 66t-13 56.5q-18 95 -4 186q22 138 118 285l28 43q18 26 25 47z" />
    <glyph glyph-name="parenright" unicode=")" horiz-adv-x="286" 
d="M239 688h-89l6 -12q40 -80 56.5 -183t2.5 -190q-19 -119 -119 -288q-19 -37 -34 -57q-6 -8 -12 -13l-13 -14l-10 -12h89l4 4q1 2 3 4l2 4q143 203 169 372q15 94 0 180.5t-53 199.5z" />
    <glyph glyph-name="asterisk" unicode="*" horiz-adv-x="333" 
d="M245 493l-1 3q-7 13 -25 39l-6 9l-65 -48l27 -46q-24 -8 -56 -16l-11 -2l25 -78l12 8q23 16 43 22l-10 -62h77l10 63q12 -4 32 -17q3 -2 7 -4l10 -6l47 70l-63 23l42 45l-44 48l-8 -8q-6 -5 -16.5 -15t-13.5 -13q-5 -5 -13 -15z" />
    <glyph glyph-name="plus" unicode="+" horiz-adv-x="565" 
d="M287 254l-33 -207h77l33 207h201l11 70h-201l30 190h-77l-30 -190h-207l-11 -70h207z" />
    <glyph glyph-name="comma" unicode="," horiz-adv-x="220" 
d="M112 90l-84 -168h81l85 168h-82z" />
    <glyph glyph-name="hyphen" unicode="-" horiz-adv-x="347" 
d="M105 410l-11 -70h267l11 70h-267z" />
    <glyph glyph-name="period" unicode="." horiz-adv-x="177" 
d="M90 0q22 0 37 15.5t17 30.5q3 15 -7.5 30t-32.5 15q-23 0 -38.5 -14.5t-18.5 -30.5q-3 -17 8.5 -31.5t34.5 -14.5z" />
    <glyph glyph-name="slash" unicode="/" horiz-adv-x="283" 
d="M275 688l-251 -786h77l251 786h-77z" />
    <glyph glyph-name="zero" unicode="0" horiz-adv-x="386" 
d="M127 548l-65 -408q-9 -58 22 -105t107 -47t122 47t55 105l65 408q9 59 -22 105.5t-107 46.5t-122 -47t-55 -105zM353 548l-65 -408q-5 -34 -27 -57.5t-59 -23.5q-38 0 -51.5 23t-8.5 58l65 408q5 35 26 57.5t59 22.5q72 0 61 -80z" />
    <glyph glyph-name="one" unicode="1" horiz-adv-x="251" 
d="M223 550l-87 -550h75l110 692h-75l-2 -8q-7 -48 -23.5 -61.5t-74.5 -13.5h-10l-10 -69h10q57 0 87 10z" />
    <glyph glyph-name="two" unicode="2" horiz-adv-x="393" 
d="M49 55l-9 -55h313l12 73h-233q6 15 21 39q6 10 32 48q25 37 77 107.5t57 77.5q46 65 62 91q41 63 46 94q6 25 1 54.5t-15.5 55t-39.5 43t-71 17.5q-75 0 -120.5 -47t-54.5 -104l-19 -120h79l19 120q5 34 25.5 56.5t58.5 22.5q40 0 57 -39.5t-3 -72.5q-38 -71 -101 -158
q-69 -88 -112 -151q-76 -110 -82 -152z" />
    <glyph glyph-name="three" unicode="3" horiz-adv-x="386" 
d="M88 276l-22 -138q-5 -36 3 -68t39.5 -57t82.5 -25q76 0 119.5 45.5t53.5 104.5l17 111q12 71 -27 110q50 40 61 103l14 89q10 58 -20 103.5t-105 45.5t-119 -45.5t-54 -103.5l-18 -115h76l18 115q13 77 85 77q37 0 52 -22t9 -55l-14 -89q-5 -29 -26.5 -48t-56.5 -19h-97
l-11 -69h97q37 0 51.5 -21.5t9.5 -54.5l-18 -112q-5 -33 -27 -56t-59 -23q-73 0 -60 79l23 144z" />
    <glyph glyph-name="four" unicode="4" horiz-adv-x="433" 
d="M240 178l-28 -178h78l28 178h103l11 68h-103l16 103h-78l-16 -103h-73q136 228 164 407l7 39h-79l-2 -8q-18 -116 -69 -232q-55 -118 -105 -198l-12 -19q-6 -10 -8 -22l-6 -35h172z" />
    <glyph glyph-name="five" unicode="5" horiz-adv-x="384" 
d="M161 200h-75l-2 -8q-1 -7 -4 -23t-4 -24q-9 -56 20 -107t101 -51q76 0 118 46.5t51 105.5l29 182q8 53 -24.5 87.5t-101.5 34.5q-37 0 -71 -14l32 193h200l11 70h-277l-63 -395h78l1 8q6 35 22.5 52t55.5 17q35 0 51.5 -13.5t12.5 -39.5l-29 -182q-5 -32 -27.5 -56.5
t-57.5 -24.5q-30 0 -45.5 26.5t-11.5 54.5z" />
    <glyph glyph-name="six" unicode="6" horiz-adv-x="375" 
d="M126 546l-63 -403q-9 -58 20 -106.5t103 -48.5q76 0 119 47.5t53 107.5l24 153q9 56 -23.5 92t-104.5 36q-38 0 -73 -13l21 135q6 35 27 58.5t58 23.5q51 0 58 -49q2 -26 -2 -46l-6 -41l-1 -8h76l1 8q1 7 4 23t4 24q6 25 2 53.5t-14.5 52.5t-39 39.5t-70.5 15.5
q-75 0 -119 -47.5t-54 -106.5zM306 297l-24 -154q-6 -34 -28 -59.5t-57 -25.5q-37 0 -50.5 25.5t-7.5 59.5l24 154q9 57 80 57q33 0 50 -15.5t13 -41.5z" />
    <glyph glyph-name="seven" unicode="7" horiz-adv-x="449" 
d="M405 621l-285 -618l83 6l313 683h-366l-12 -71h267z" />
    <glyph glyph-name="eight" unicode="8" horiz-adv-x="386" 
d="M79 249l-17 -111q-10 -57 22 -103.5t107 -46.5q76 0 121.5 46t55.5 104l17 111q11 71 -29 110q52 39 63 103l14 89q9 58 -22.5 103.5t-106.5 45.5q-74 0 -120.5 -46t-56.5 -103l-14 -89q-10 -61 33 -103q-56 -38 -67 -110zM356 551l-14 -89q-5 -30 -27.5 -48t-58.5 -18
q-37 0 -54 18t-12 48l14 89q6 34 27.5 55.5t60.5 21.5q38 0 54 -22t10 -55zM309 250l-18 -112q-5 -33 -28.5 -56t-60.5 -23q-38 0 -53 23t-10 56l18 112q5 32 27 53.5t60 21.5q37 0 53.5 -21.5t11.5 -53.5z" />
    <glyph glyph-name="nine" unicode="9" horiz-adv-x="375" 
d="M357 142l64 403q6 36 -1.5 69t-38.5 59.5t-82 26.5q-76 0 -119.5 -47.5t-53.5 -107.5l-24 -153q-9 -55 24.5 -91.5t104.5 -36.5q40 0 72 12l-22 -134q-5 -34 -26.5 -58.5t-57.5 -24.5q-53 0 -58 49q-3 19 1 46l7 42l1 8h-76l-10 -62q-6 -36 2 -69t39 -59t83 -26
q76 0 119 47t52 107zM178 391l24 154q6 34 27.5 59t58.5 25q36 0 49 -25t8 -59l-24 -154q-9 -57 -79 -57q-36 0 -52.5 14.5t-11.5 42.5z" />
    <glyph glyph-name="colon" unicode=":" horiz-adv-x="177" 
d="M138 303q21 0 36 14.5t18 29.5q3 16 -6.5 32t-32.5 16q-24 0 -39.5 -15.5t-18.5 -32.5q-3 -15 9 -29.5t34 -14.5zM90 0q22 0 37 15.5t17 30.5q3 15 -7.5 30t-32.5 15q-23 0 -38.5 -14.5t-18.5 -30.5q-3 -17 8.5 -31.5t34.5 -14.5z" />
    <glyph glyph-name="semicolon" unicode=";" horiz-adv-x="221" 
d="M175 303q22 0 37.5 14.5t18.5 29.5q3 17 -7 32.5t-34 15.5q-23 0 -37.5 -16t-17.5 -32q-3 -14 7.5 -29t32.5 -15zM112 90l-84 -168h81l86 168h-83z" />
    <glyph glyph-name="less" unicode="&#x3c;" horiz-adv-x="415" 
d="M88 300l304 -192l13 84l-200 129l241 126l13 85l-365 -191z" />
    <glyph glyph-name="equal" unicode="=" horiz-adv-x="411" 
d="M101 384l-11 -69h331l11 69h-331zM82 263l-11 -69h331l11 69h-331z" />
    <glyph glyph-name="greater" unicode="&#x3e;" horiz-adv-x="417" 
d="M70 192l-13 -84l368 192l6 41l-307 190l-13 -84l204 -126z" />
    <glyph glyph-name="question" unicode="?" horiz-adv-x="384" 
d="M208 557q5 31 26 51t58 20t50 -35q12 -28 6 -65q-6 -34 -55 -83q-11 -12 -83 -78l-5 -4v-6q-3 -17 -3.5 -47t-1.5 -42q-3 -39 -15 -110l-1 -8h76l1 8q19 113 22 182q87 84 88 85q50 57 57 103q6 24 1 54t-15.5 56.5t-39.5 44t-70 17.5q-73 0 -120 -43.5t-56 -99.5
l-19 -121h80zM194 0q23 0 38 14.5t18 31.5q3 16 -8.5 30.5t-33.5 14.5q-23 0 -38.5 -14.5t-18.5 -30.5q-3 -17 8.5 -31.5t34.5 -14.5z" />
    <glyph glyph-name="at" unicode="@" horiz-adv-x="690" 
d="M86 291q-5 -46 -6 -91t15 -86t43.5 -71.5t80 -49t123.5 -18.5q113 0 195 57l4 3l12 81l-20 4l-4 -6q-26 -35 -73.5 -53t-102.5 -18q-69 0 -114 20.5t-62.5 55t-23 79.5t4.5 93q7 46 20.5 91t40 94t61.5 85t88.5 60t118.5 24q193 0 160 -208q-11 -69 -40 -134
q-42 -90 -97 -90q-6 0 -9 9q-1 8 1 18l2 12l75 284h-74l-2 -9q-24 14 -59 14q-74 0 -115.5 -46.5t-57.5 -106.5q-25 -98 -28 -116q-5 -20 -2 -44t11 -45t31.5 -35.5t58.5 -14.5q57 0 102 38q17 -26 55 -26q98 0 164 120q41 78 56 173q11 48 4 97t-27.5 88.5t-71 64.5
t-126.5 25q-80 0 -147.5 -29t-111.5 -73.5t-77.5 -103t-50.5 -111.5t-25 -105zM414 236q-23 -35 -61 -35q-28 0 -36 22q-7 18 -1 47q3 17 28 113q22 90 89 90q28 0 37 -19q6 -14 2 -44q-2 -14 -28 -109q-12 -42 -30 -65z" />
    <glyph glyph-name="A" unicode="A" horiz-adv-x="438" 
d="M118 0l43 122h155l5 -122h77l-33 692h-71l-254 -692h78zM187 191l112 307l12 -307h-124z" />
    <glyph glyph-name="B" unicode="B" horiz-adv-x="395" 
d="M40 0h169q69 0 113.5 37t52.5 90l24 149q9 55 -29 88q39 33 45 74l21 128q8 55 -30.5 90.5t-109.5 35.5h-146zM214 622h71q36 0 58.5 -15t18.5 -41l-21 -130q-2 -16 -24 -27t-46 -11h-93zM167 328h94q32 0 50 -14.5t14 -37.5l-24 -149q-4 -26 -26 -41.5t-55 -15.5h-94z
" />
    <glyph glyph-name="C" unicode="C" horiz-adv-x="384" 
d="M127 549l-65 -410q-9 -58 22 -104.5t106 -46.5q76 0 121 46.5t54 104.5l21 134h-74l-21 -135q-5 -32 -29.5 -56.5t-60.5 -24.5q-37 0 -53.5 24.5t-11.5 56.5l65 413q6 33 29.5 56t61.5 23q36 0 52.5 -23.5t11.5 -55.5l-21 -136h74l21 134q9 59 -21 105t-106 46
t-121.5 -46.5t-54.5 -104.5z" />
    <glyph glyph-name="D" unicode="D" horiz-adv-x="395" 
d="M150 692l-110 -692h149q72 0 124.5 36t61.5 91l70 439q9 57 -32 91.5t-114 34.5h-149zM200 70h-74l88 552h74q39 0 63 -14.5t20 -41.5l-70 -439q-4 -26 -34 -41.5t-67 -15.5z" />
    <glyph glyph-name="E" unicode="E" horiz-adv-x="356" 
d="M214 622h200l11 70h-275l-110 -692h276l11 70h-201l41 258h201l11 70h-201z" />
    <glyph glyph-name="F" unicode="F" horiz-adv-x="356" 
d="M214 622h200l11 70h-275l-110 -692h75l52 328h201l11 70h-201z" />
    <glyph glyph-name="G" unicode="G" horiz-adv-x="394" 
d="M220 366l-11 -67h107l-25 -161q-5 -32 -29.5 -56.5t-60.5 -24.5q-37 0 -53.5 24.5t-11.5 56.5l65 413q6 34 29 56.5t62 22.5q36 0 52.5 -23.5t11.5 -55.5l-21 -136h74l21 134q9 59 -21 105t-106 46t-121.5 -46.5t-54.5 -104.5l-65 -410q-9 -58 22 -104.5t106 -46.5
q76 0 121 46.5t54 104.5l36 227h-181z" />
    <glyph glyph-name="H" unicode="H" horiz-adv-x="395" 
d="M465 692h-75l-47 -294h-165l47 294h-75l-110 -692h75l52 328h165l-52 -328h75z" />
    <glyph glyph-name="I" unicode="I" horiz-adv-x="155" 
d="M40 0h75l110 692h-75z" />
    <glyph glyph-name="J" unicode="J" horiz-adv-x="384" 
d="M366 139l88 553h-74l-88 -554q-5 -31 -30 -56t-60 -25q-37 0 -53.5 24.5t-11.5 56.5l21 135h-74l-21 -134q-9 -58 22 -104.5t106 -46.5q76 0 121 46.5t54 104.5z" />
    <glyph glyph-name="K" unicode="K" horiz-adv-x="458" 
d="M150 229l3 3q1 1 3.5 4t4.5 6l28 35l31 37l100 -314h82l-125 386l251 306h-86l-271 -329l53 329h-74l-110 -692h74l25 156q2 17 4 38q0 15 7 35z" />
    <glyph glyph-name="L" unicode="L" horiz-adv-x="346" 
d="M126 70l99 622h-75l-110 -692h266l11 70h-191z" />
    <glyph glyph-name="M" unicode="M" horiz-adv-x="475" 
d="M149 688l-109 -688h77l56 359l34 -359h61l149 361l-58 -361h76l109 688h-72l-205 -497l-46 497h-72z" />
    <glyph glyph-name="N" unicode="N" horiz-adv-x="398" 
d="M152 692l-109 -692h74l72 453l99 -453h68l110 692h-75l-73 -459l-99 459h-67z" />
    <glyph glyph-name="O" unicode="O" 
d="M127 549l-65 -410q-9 -58 22 -104.5t106 -46.5q76 0 121 46.5t54 104.5l65 410q9 59 -21 105t-106 46t-121.5 -46.5t-54.5 -104.5zM356 551l-65 -413q-5 -31 -30 -56t-60 -25q-37 0 -53.5 24.5t-11.5 56.5l65 413q6 33 29.5 56t61.5 23q36 0 52.5 -23.5t11.5 -55.5z" />
    <glyph glyph-name="P" unicode="P" horiz-adv-x="395" 
d="M150 692l-110 -692h75l52 327h94q69 0 113.5 37.5t52.5 89.5l17 111q9 53 -23.5 90t-101.5 37h-169zM370 565l-17 -111q-10 -56 -81 -56h-94l35 223h94q33 0 50 -15.5t13 -40.5z" />
    <glyph glyph-name="Q" unicode="Q" horiz-adv-x="400" 
d="M362 15l-28 45q24 34 31 79l65 410q9 59 -21 105t-106 46t-121.5 -46.5t-54.5 -104.5l-65 -410q-9 -58 22 -104.5t106 -46.5q40 0 82 20l25 -39zM204 123l32 -58q-16 -8 -35 -8q-37 0 -53.5 24.5t-11.5 56.5l65 413q6 33 29.5 56t61.5 23q36 0 52.5 -23.5t11.5 -55.5
l-66 -419l-20 32z" />
    <glyph glyph-name="R" unicode="R" horiz-adv-x="395" 
d="M115 0l52 328h94q32 0 50 -14.5t14 -37.5l-44 -276h74l44 276q9 55 -29 88q39 33 45 74l21 128q8 55 -30.5 90.5t-109.5 35.5h-146l-110 -692h75zM214 622h71q36 0 58.5 -15t18.5 -41l-21 -130q-2 -16 -24 -27t-46 -11h-93z" />
    <glyph glyph-name="S" unicode="S" horiz-adv-x="382" 
d="M158 273h-75l-1 -8q-4 -25 -11.5 -76t-11.5 -77q-9 -53 26 -88.5t105 -35.5q73 0 117 43.5t54 99.5q9 63 -11.5 116t-63.5 117q-58 94 -60 98q-26 55 -18 97q5 30 26.5 49.5t57.5 19.5q34 0 50.5 -13.5t14.5 -40.5q-5 -40 -7 -52l-13 -85l-3 -22h75l2 15q16 94 21 145
q6 54 -26 89.5t-102 35.5q-73 0 -118.5 -42.5t-53.5 -98.5q-11 -71 30 -148q12 -20 41 -62.5t42 -66.5q48 -96 40 -151q-5 -30 -27 -51t-57 -21t-52 13.5t-15 40.5l2 16q4 20 7.5 43t7.5 50t6 43z" />
    <glyph glyph-name="T" unicode="T" horiz-adv-x="430" 
d="M489 622l11 70h-350l-11 -70h139l-99 -622h72l99 622h139z" />
    <glyph glyph-name="U" unicode="U" 
d="M365 139l88 553h-74l-88 -554q-5 -31 -30 -56t-60 -25q-37 0 -53.5 24.5t-11.5 56.5l88 554h-74l-88 -553q-9 -58 22 -104.5t106 -46.5q76 0 121 46.5t54 104.5z" />
    <glyph glyph-name="V" unicode="V" horiz-adv-x="487" 
d="M557 692h-82l-205 -520l-40 520h-80l56 -692h75z" />
    <glyph glyph-name="W" unicode="W" horiz-adv-x="487" 
d="M557 692h-80l-85 -377l-4 377h-69l-124 -377l35 377h-80l-57 -692h77l142 444l5 -444h78z" />
    <glyph glyph-name="X" unicode="X" horiz-adv-x="466" 
d="M247 347l-189 -347h78l140 250l70 -250h80l-94 347l187 345h-79l-136 -250l-72 250h-82z" />
    <glyph glyph-name="Y" unicode="Y" horiz-adv-x="449" 
d="M200 0h72l37 233q2 12 3 30.5t2 25.5q2 26 11 54l194 349h-79l-136 -250l-72 250h-82l69 -239q4 -12 12 -32.5t9 -22.5q12 -34 13 -56q1 -16 -4 -54q-10 -37 -13 -57z" />
    <glyph glyph-name="Z" unicode="Z" horiz-adv-x="419" 
d="M374 624l-334 -624h328l11 68h-223l333 624h-326l-11 -68h222z" />
    <glyph glyph-name="bracketleft" unicode="[" horiz-adv-x="244" 
d="M149 688l-122 -769h164l11 70h-86l100 629h86l11 70h-164z" />
    <glyph glyph-name="backslash" unicode="\" horiz-adv-x="283" 
d="M149 688l1 -786h77l-1 786h-77z" />
    <glyph glyph-name="bracketright" unicode="]" horiz-adv-x="234" 
d="M38 -11l-11 -70h154l122 769h-154l-11 -70h74l-100 -629h-74z" />
    <glyph glyph-name="asciicircum" unicode="^" horiz-adv-x="436" 
d="M309 688l-181 -134h112l75 53l56 -53h113l-136 134h-39z" />
    <glyph glyph-name="underscore" unicode="_" horiz-adv-x="449" 
d="M39 -4l-11 -72h369l11 72h-369z" />
    <glyph glyph-name="grave" unicode="`" horiz-adv-x="299" 
d="M375 642l-172 103l-68 -59l185 -98z" />
    <glyph glyph-name="a" unicode="a" 
d="M87 295l-25 -155q-4 -26 0.5 -52t17.5 -49t41.5 -37.5t68.5 -14.5q75 0 120.5 47.5t54.5 105.5l47 293q9 59 -21.5 106t-105.5 47t-121 -47.5t-55 -105.5l-17 -106h75l17 106q5 33 29 58.5t61 25.5q36 0 52 -25.5t11 -58.5l-22 -138h-228zM304 225l-14 -85
q-5 -33 -28.5 -58.5t-60.5 -25.5q-38 0 -53.5 24.5t-10.5 59.5l14 85h153z" />
    <glyph glyph-name="b" unicode="b" 
d="M150 692l-88 -552q-9 -58 21.5 -106t106.5 -48q77 0 121.5 47.5t53.5 106.5l47 293q9 59 -21.5 106t-105.5 47q-45 0 -80 -17l20 123h-75zM337 433l-47 -293q-5 -33 -29 -58.5t-60 -25.5q-37 0 -53 25.5t-11 58.5l47 293q5 33 29 58.5t61 25.5t52.5 -25t10.5 -59z" />
    <glyph glyph-name="c" unicode="c" 
d="M320 327h75l17 106q9 59 -21.5 106t-105.5 47t-121 -47.5t-55 -105.5l-47 -293q-9 -58 21.5 -106t106.5 -48t121 48t54 107l17 105h-75l-17 -105q-5 -33 -29 -59t-60 -26q-38 0 -53.5 25t-10.5 59l47 293q5 34 28.5 59t61.5 25q36 0 52 -25.5t11 -58.5z" />
    <glyph glyph-name="d" unicode="d" 
d="M109 433l-47 -293q-9 -58 21.5 -106t106.5 -48q77 0 121.5 47.5t53.5 106.5l88 552h-75l-20 -123q-30 17 -73 17q-75 0 -121 -47.5t-55 -105.5zM337 433l-47 -293q-5 -33 -29 -58.5t-60 -25.5q-38 0 -53.5 25t-10.5 59l47 293q5 34 28.5 59t61.5 25q36 0 52 -25.5
t11 -58.5z" />
    <glyph glyph-name="e" unicode="e" 
d="M387 280l25 156q6 36 -3 69t-40.5 57.5t-83.5 24.5q-76 0 -121 -46t-55 -105l-46 -293q-10 -58 21 -106.5t106 -48.5q76 0 121 48t55 107l16 105h-75l-1 -8q-1 -6 -3.5 -24.5t-3.5 -27.5q-3 -30 -14 -61q-24 -69 -84 -69q-37 0 -53 26t-10 59l21 137h228zM170 350l14 86
q6 35 28.5 59t61.5 24q37 0 52.5 -24.5t10.5 -58.5l-14 -86h-153z" />
    <glyph glyph-name="f" unicode="f" horiz-adv-x="365" 
d="M146 280l-44 -280h77l44 280h147l11 70h-147l30 188q6 34 29.5 59t60.5 25q10 0 25 -5q4 -2 14 -4q10 -4 16 -5l11 -2l12 76l-8 2q-2 0 -28 5q-16 3 -31 3q-76 0 -122 -47t-55 -105l-31 -190h-61l-11 -70h61z" />
    <glyph glyph-name="g" unicode="g" horiz-adv-x="384" 
d="M42 -1q-3 -58 26.5 -99.5t102.5 -41.5q75 0 120 47.5t55 105.5l67 425q6 36 -3 69t-40.5 57.5t-83.5 24.5q-76 0 -121 -46t-55 -105l-46 -293q-11 -66 24.5 -110.5t102.5 -44.5q39 0 79 20q-6 -33 -29.5 -58t-59.5 -25q-66 0 -64 74h-75zM338 436l-46 -293
q-6 -33 -30 -59t-60 -26q-37 0 -53 26t-10 59l46 293q6 35 28.5 59t61.5 24q37 0 52.5 -24.5t10.5 -58.5z" />
    <glyph glyph-name="h" unicode="h" 
d="M150 692l-110 -692h75l69 433q5 33 29 58.5t61 25.5q36 0 52 -25.5t11 -58.5l-69 -433h75l69 433q9 59 -21.5 106t-105.5 47q-45 0 -80 -17l20 123h-75z" />
    <glyph glyph-name="i" unicode="i" horiz-adv-x="170" 
d="M181 601q23 0 37.5 15.5t17.5 31.5q2 16 -8.5 30t-31.5 14q-22 0 -38 -14t-19 -30q-3 -17 7.5 -32t34.5 -15zM141 587l-93 -587h74l93 587h-74z" />
    <glyph glyph-name="j" unicode="j" horiz-adv-x="161" 
d="M170 601q23 0 37.5 15.5t17.5 31.5q2 16 -8.5 30t-31.5 14q-22 0 -38 -14t-19 -30q-3 -17 7.5 -32t34.5 -15zM205 587h-75l-92 -578q-13 -86 -110 -86h-10l-11 -67h10q89 0 137 42t59 111z" />
    <glyph glyph-name="k" unicode="k" horiz-adv-x="458" 
d="M264 275l246 311l-84 1l-272 -338l71 443h-75l-110 -692h75l1 8l9 56l6 35l1 11q1 2 1 3t40 52l36 45l118 -210h91z" />
    <glyph glyph-name="l" unicode="l" horiz-adv-x="155" 
d="M40 0h75l110 692h-75z" />
    <glyph glyph-name="m" unicode="m" horiz-adv-x="611" 
d="M571 0l69 434q9 59 -21 105.5t-106 46.5q-72 0 -121 -46q-35 46 -107 46q-76 0 -121.5 -47t-54.5 -105l-69 -434h75l69 434q5 34 28 58.5t62 24.5q37 0 52.5 -24.5t10.5 -58.5l-69 -434h75l69 434q5 34 28 58.5t62 24.5q38 0 53 -24.5t10 -58.5l-69 -434h75z" />
    <glyph glyph-name="n" unicode="n" 
d="M337 434l-69 -434h75l69 434q6 37 -2.5 69.5t-40 57.5t-84.5 25q-76 0 -121.5 -47t-54.5 -105l-69 -434h75l69 434q5 34 28 58.5t62 24.5q37 0 52.5 -24.5t10.5 -58.5z" />
    <glyph glyph-name="o" unicode="o" 
d="M365 140l47 293q9 59 -21.5 106t-105.5 47t-121 -47.5t-55 -105.5l-47 -293q-9 -58 21.5 -106t106.5 -48q77 0 121.5 47.5t53.5 106.5zM137 140l47 293q5 34 28.5 59t61.5 25q36 0 52 -25.5t11 -58.5l-47 -293q-5 -33 -29 -58.5t-60 -25.5q-38 0 -53.5 25t-10.5 59z" />
    <glyph glyph-name="p" unicode="p" 
d="M366 143l46 293q6 36 -3 69t-40.5 57.5t-83.5 24.5q-76 0 -121 -46t-55 -105l-87 -552h75l19 123q32 -19 74 -19q76 0 121 48t55 107zM138 143l46 293q5 34 28.5 58.5t61.5 24.5t53 -24.5t10 -58.5l-46 -293q-6 -33 -30 -59t-60 -26q-37 0 -53 26t-10 59z" />
    <glyph glyph-name="q" unicode="q" 
d="M325 -116l87 552q6 36 -3 69t-40.5 57.5t-83.5 24.5q-76 0 -121 -46t-55 -105l-46 -293q-10 -58 21 -106.5t106 -48.5q39 0 79 20l-19 -124h75zM138 143l46 293q6 35 28.5 59t61.5 24q37 0 52.5 -24.5t10.5 -58.5l-46 -293q-6 -33 -30 -59t-60 -26q-37 0 -53 26t-10 59z
" />
    <glyph glyph-name="r" unicode="r" 
d="M109 434l-69 -434h75l69 434q5 34 28 58.5t62 24.5q35 0 51.5 -24t11.5 -55l-5 -33h75l5 33q9 57 -22 102.5t-105 45.5q-76 0 -121.5 -47t-54.5 -105z" />
    <glyph glyph-name="s" unicode="s" horiz-adv-x="380" 
d="M189 -12q74 0 118.5 44t53.5 101q7 44 -16.5 83.5t-70.5 87.5l-34 38q-15 15 -29 36q-28 38 -23 71q11 69 83 69q33 0 52.5 -15t15.5 -40l-21 -132h74l21 132q9 52 -25.5 88t-102.5 36q-73 0 -118.5 -41.5t-54.5 -96.5q-11 -71 62 -156q8 -9 28.5 -27t30.5 -29
q59 -67 53 -105q-5 -30 -28 -51.5t-58 -21.5q-34 0 -53.5 15t-15.5 39l21 135h-74l-21 -135q-9 -53 27 -89t105 -36z" />
    <glyph glyph-name="t" unicode="t" horiz-adv-x="335" 
d="M201 141l60 378h146l11 68h-146l17 105h-77l-17 -105h-62l-11 -68h62l-60 -380q-9 -56 23.5 -104t105.5 -48q15 0 32 3q4 1 10.5 2t11 2t8.5 1l9 2l13 84l-16 -8q-37 -16 -57 -16q-36 0 -52 25.5t-11 58.5z" />
    <glyph glyph-name="u" unicode="u" 
d="M436 587h-75l-71 -445q-5 -33 -29 -58.5t-60 -25.5q-38 0 -53.5 25t-10.5 59l71 445h-75l-71 -445q-6 -36 3 -69.5t41 -59t84 -25.5q77 0 121.5 47.5t53.5 106.5z" />
    <glyph glyph-name="v" unicode="v" horiz-adv-x="423" 
d="M130 587l46 -587h72l231 587h-77l-161 -405l-32 405h-79z" />
    <glyph glyph-name="w" unicode="w" horiz-adv-x="527" 
d="M133 587l-40 -587h77l131 377l17 -377h78l144 587h-78l-78 -321l-14 321h-68l-113 -318l23 318h-79z" />
    <glyph glyph-name="x" unicode="x" horiz-adv-x="458" 
d="M234 290l-190 -290h81l138 208l71 -208h80l-97 290l194 297h-80l-142 -214l-74 214h-82z" />
    <glyph glyph-name="y" unicode="y" horiz-adv-x="382" 
d="M362 587h75l-91 -576q-10 -58 -55 -105.5t-120 -47.5q-73 0 -102.5 41.5t-26.5 99.5h75q-2 -74 64 -74q36 0 59.5 25t29.5 58q-40 -20 -79 -20q-67 0 -102.5 44.5t-24.5 110.5l70 444h75l-70 -444q-6 -33 10 -59t53 -26q36 0 60 26t30 59z" />
    <glyph glyph-name="z" unicode="z" horiz-adv-x="454" 
d="M408 69h-242l341 518h-357l-11 -68h243l-342 -519h357z" />
    <glyph glyph-name="braceleft" unicode="{" horiz-adv-x="291" 
d="M146 274q-5 -46 -20 -135q-5 -29 -11 -66t-10 -60t-5 -29q-5 -32 15.5 -52.5t62.5 -20.5h59l11 68h-10q-6 0 -17 -0.5t-16 -0.5h-10q-6 0 -9 1q-5 2 -5 5l47 292q2 19 -3 32q9 14 13 33l43 273q2 2 8 3q6 2 19 2q4 0 12 -0.5t12 -0.5h17l11 70h-59q-41 0 -68.5 -21.5
t-32.5 -52.5l-43 -271q-4 0 -12 0.5t-13 0.5h-38l-11 -71h10q9 0 26.5 0.5t25.5 0.5h1z" />
    <glyph glyph-name="bar" unicode="|" horiz-adv-x="157" 
d="M149 688l-125 -786h77l125 786h-77z" />
    <glyph glyph-name="braceright" unicode="}" horiz-adv-x="291" 
d="M226 273h6h20h42l11 71h-65l43 270q5 30 -14 52t-59 22h-61l-11 -70h54q6 0 8 -1q4 0 3 -3l-43 -273q-4 -20 3 -33q-12 -16 -13 -32l-47 -292q0 -6 -9 -6q-5 0 -16 0.5t-17 0.5h-24l-11 -68h61q41 0 66.5 21.5t29.5 51.5l25 155q21 131 18 134z" />
    <glyph glyph-name="asciitilde" unicode="~" horiz-adv-x="365" 
d="M236 604l1 -1q1 -1 5 -4.5t6 -5.5q4 -4 14 -12q38 -36 77 -36q36 0 57.5 22.5t26.5 48.5q6 40 -29 61l-2 2l-3 2q-5 3 -10 3h-38l-10 -64q-12 9 -25 22q-42 36 -79 36q-15 0 -43 -13q-15 -10 -31 -24l-3 -2l-5 -32q-6 -40 29 -61l4 -3q1 0 5 -2q8 -2 11 -2h31zM342 613
l9 1l-1 -3zM217 608l-1 1q2 2 2 3q4 0 9 -3z" />
    <glyph glyph-name="exclamdown" unicode="&#xa1;" horiz-adv-x="177" 
d="M182 579q-24 0 -39.5 -15t-18.5 -32q-3 -16 9 -30t34 -14q23 0 37 14t17 30t-6.5 31.5t-32.5 15.5zM196 446h-74l-2 -8q-9 -57 -26.5 -162.5t-22.5 -133.5l-39 -251h79l39 251q9 55 24 158t20 138z" />
    <glyph glyph-name="cent" unicode="&#xa2;" 
d="M152 -8l-8 -47h77l8 47q60 14 94.5 58t42.5 93l16 101l-78 6l-17 -107q-5 -31 -25.5 -56t-51.5 -25q-30 0 -43 6q-17 7 -23 30t-2 45l46 293q5 30 26 55t52 25q48 0 60 -25.5t5 -71.5q-2 -13 -6.5 -38t-6.5 -37l-1 -8h79l16 100q8 50 -12 93t-78 54l7 44h-77l-7 -44
q-59 -12 -93.5 -55t-42.5 -92l-46 -293q-8 -49 13 -93t76 -58z" />
    <glyph glyph-name="sterling" unicode="&#xa3;" horiz-adv-x="408" 
d="M257 348l-21 245v3l1 1q19 60 78 60q44 0 54 -36q10 -27 4 -68l-2 -8h80l2 8q6 25 2.5 55.5t-13.5 56t-39.5 43t-74.5 17.5q-76 0 -118.5 -38.5t-52.5 -97.5v-2q0 -2 -1 -3l17 -236h-78l-11 -72h82l-109 -274h311l12 72h-215l83 202h123l11 72h-125z" />
    <glyph glyph-name="yen" unicode="&#xa5;" horiz-adv-x="449" 
d="M324 336l1 2l194 354h-79l-136 -250l-72 250h-82l4 -20l17 -52q6 -18 36 -124q10 -29 25 -82l21 -73l-1 -5h-128l-11 -70h128l-7 -51h-129l-11 -70h129l-23 -145h72l23 145h129l11 70h-129l7 51h130l11 70h-130z" />
    <glyph glyph-name="brokenbar" unicode="&#xa6;" horiz-adv-x="157" 
d="M149 688l-52 -329h77l52 329h-77zM79 249l-55 -347h77l55 347h-77z" />
    <glyph glyph-name="section" unicode="&#xa7;" horiz-adv-x="380" 
d="M417 489l17 102q7 47 -32.5 72.5t-100.5 25.5q-66 0 -113.5 -30t-54.5 -81q-3 -16 2.5 -33t15 -30.5t22.5 -26.5t23.5 -21t19.5 -15l8 -6q-58 -9 -95.5 -43.5t-36.5 -80.5q0 -15 11 -34q16 -29 41 -52q3 -3 6.5 -5.5t7 -5.5t5.5 -4q6 -5 20 -13q51 -36 61 -46
q37 -32 34 -50q-4 -22 -25 -34t-52 -12q-28 0 -47.5 8t-17.5 23l17 103h-81l-17 -103q-7 -46 34.5 -71.5t101.5 -25.5q65 0 112 31t55 81q10 62 -90 131q113 20 127 107q6 38 -19 69t-71 65q-6 4 -18 13t-18 13q-21 14 -31 24q-28 26 -24 44q6 44 77 44q67 0 63 -31
l-17 -102h80zM237 293q-52 0 -61 33q-9 30 22 52q23 17 57 17q54 0 65 -33q10 -30 -21 -52q-24 -17 -62 -17z" />
    <glyph glyph-name="dieresis" unicode="&#xa8;" horiz-adv-x="267" 
d="M264 617q23 0 38 15t18 32q3 15 -8.5 29.5t-33.5 14.5q-18 0 -32.5 -10t-20.5 -23q-6 34 -41 34q-23 0 -38.5 -14t-18.5 -30q-3 -17 8 -32t35 -15q35 0 50 35q6 -36 44 -36z" />
    <glyph glyph-name="copyright" unicode="&#xa9;" horiz-adv-x="443" 
d="M40 551v-417q0 -71 54 -108.5t129 -37.5q74 0 127 38t53 108v417q0 70 -53 108t-127 38q-75 0 -129 -38t-54 -108zM346 553v-420q0 -33 -34 -63q-30 -26 -89 -26q-64 0 -92 26q-33 31 -33 63v420q0 14 10 33t23 30q28 24 92 24q60 0 89 -24q13 -11 23.5 -29.5t10.5 -33.5
zM116 488v-295q0 -47 30.5 -77.5t79.5 -30.5q48 0 77 31t29 77v96h-54v-96q0 -26 -13.5 -42t-38.5 -16q-26 0 -40.5 16.5t-14.5 41.5v295q0 26 14.5 42t40.5 16h7q4 0 6 -1q12 -3 23 -14.5t14 -22.5q3 -9 3 -22v-25q0 -10 -0.5 -31.5t-0.5 -32.5v-6h54v97q0 47 -28.5 77.5
t-77.5 30.5q-50 0 -80 -30t-30 -78z" />
    <glyph glyph-name="ordfeminine" unicode="&#xaa;" horiz-adv-x="302" 
d="M103 395q-7 -43 15 -77.5t78 -34.5q57 0 89.5 34t39.5 78l29 188q7 43 -14.5 78.5t-78.5 35.5q-56 0 -89 -35.5t-40 -78.5zM198 506l1 5q0 3 1.5 17.5t3.5 28.5t6 26q9 25 17 33q9 11 23 11q20 0 25 -13q7 -11 3 -31l-12 -77h-68zM256 439l-7 -44q-7 -43 -42 -43
q-15 0 -22 13q-7 12 -3 30l7 44h67z" />
    <glyph glyph-name="guillemotleft" unicode="&#xab;" horiz-adv-x="499" 
d="M98 369l152 -157h107l-147 157l197 154h-108zM237 369l149 -157h107l-148 157l197 154h-107z" />
    <glyph glyph-name="registered" unicode="&#xae;" horiz-adv-x="443" 
d="M40 551v-417q0 -71 54 -108.5t129 -37.5q74 0 127 38t53 108v417q0 70 -53 108t-127 38q-75 0 -129 -38t-54 -108zM346 553v-420q0 -33 -34 -63q-30 -26 -89 -26q-64 0 -92 26q-33 31 -33 63v420q0 14 10 33t23 30q28 24 92 24q60 0 89 -24q13 -11 23.5 -29.5t10.5 -33.5
zM168 115v222h65q23 0 36.5 -10t13.5 -26v-186h46v186q0 36 -30 60q24 19 24 50v88q0 37 -30 60t-76 23h-96v-467h47zM168 537h49q26 0 43.5 -11t17.5 -27v-89q0 -11 -14 -19t-32 -8h-64v154z" />
    <glyph glyph-name="macron" unicode="&#xaf;" horiz-adv-x="321" 
d="M132 676l-11 -71h241l11 71h-241z" />
    <glyph glyph-name="degree" unicode="&#xb0;" horiz-adv-x="200" 
d="M139 625l-10 -65q-4 -21 8.5 -40t42.5 -19t47.5 19t21.5 40l10 65q3 21 -9 39.5t-41 18.5q-30 0 -48.5 -18t-21.5 -40z" />
    <glyph glyph-name="uni00B2" unicode="&#xb2;" horiz-adv-x="409" 
d="M169 417h115l-7 -46h-178l6 37q3 22 41 69q11 14 30.5 37t25.5 31q17 21 26.5 35t18 31t3.5 27.5t-22 13.5q-28 -4 -32 -35l-9 -54h-58l11 67q3 25 26.5 46.5t61.5 21.5h16q42 0 56.5 -24t9.5 -53v-5l-2 -7z" />
    <glyph glyph-name="uni00B3" unicode="&#xb3;" horiz-adv-x="391" 
d="M242 696q36 0 50 -19.5t10 -45.5l-8 -50q-4 -25 -21 -41q12 -15 8 -44l-9 -57q-4 -27 -24.5 -47t-56.5 -20h-18q-36 0 -49.5 20.5t-9.5 46.5l10 69l52 2l-10 -63q-5 -29 22 -34q28 4 34 34l6 41q2 14 -5.5 24t-25.5 10h-45l6 39h45q37 0 41 29l6 32q4 30 -23 33
q-29 -3 -33 -33l-9 -52h-51l10 61q4 26 24 45.5t56 19.5h18z" />
    <glyph glyph-name="acute" unicode="&#xb4;" horiz-adv-x="289" 
d="M336 752l-210 -103l40 -54l210 98z" />
    <glyph glyph-name="periodcentered" unicode="&#xb7;" horiz-adv-x="177" 
d="M127 236q22 0 37 15t18 30q2 15 -8 30.5t-32 15.5q-23 0 -39 -15t-18 -31q-3 -16 8 -30.5t34 -14.5z" />
    <glyph glyph-name="cedilla" unicode="&#xb8;" horiz-adv-x="313" 
d="M228 -1q49 -53 40 -104q-5 -33 -32.5 -63.5t-72.5 -30.5t-64.5 26.5t-14.5 60.5l12 73h63q-7 11 -6 21q3 22 11 54l1 8h75zM187 -124q8 10 10 22q2 15 -21 42l-8 10q-1 -8 -3.5 -21t-3.5 -19l-3 -15v-8t1 -7q1 -14 14 -14q8 0 14 10z" />
    <glyph glyph-name="uni00B9" unicode="&#xb9;" horiz-adv-x="262" 
d="M252 660h-9h-20h-10l-12 -71h31q6 0 9 1l-34 -217h74l51 321h-74l-1 -8l-3 -17q-2 -6 -2 -9z" />
    <glyph glyph-name="ordmasculine" unicode="&#xba;" horiz-adv-x="302" 
d="M132 584l-29 -188q-7 -44 14.5 -78.5t78.5 -34.5q58 0 90 34t39 79l29 188q7 43 -14.5 78t-78.5 35q-55 0 -88.5 -35.5t-40.5 -77.5zM278 584l-29 -189q-7 -43 -42 -43q-15 0 -22 13q-7 12 -3 30l29 189q4 19 12 30q11 13 27 13q35 0 28 -43z" />
    <glyph glyph-name="guillemotright" unicode="&#xbb;" horiz-adv-x="470" 
d="M257 369l-183 -157h104l184 157l-135 154h-104zM383 369l-182 -157h103l184 157l-135 154h-103z" />
    <glyph glyph-name="onequarter" unicode="&#xbc;" horiz-adv-x="830" 
d="M223 550l-87 -550h75l110 692h-75l-2 -8q-7 -48 -23.5 -61.5t-74.5 -13.5h-10l-10 -69h10q57 0 87 10zM635 178l-28 -178h80l28 178h103l11 68h-103l16 103h-80l-16 -103h-73q135 224 164 407l7 39h-77l-2 -8q-26 -170 -137 -366q-4 -8 -18 -30.5t-20 -35.5v-2l-11 -16
q-7 -10 -8 -21l-6 -35h170zM457 688l-251 -786h77l250 786h-76z" />
    <glyph glyph-name="onehalf" unicode="&#xbd;" horiz-adv-x="787" 
d="M446 55l-9 -55h310l12 73h-232q4 10 22 39l34 48q24 36 71.5 100.5t61.5 84.5q100 145 106 185q6 24 1.5 54t-15 55.5t-39 43t-70.5 17.5q-76 0 -121 -46.5t-54 -104.5l-19 -120h77l19 120q5 34 26.5 56.5t59.5 22.5t51 -30t7 -67q-2 -7 -8 -18t-12 -18q-53 -90 -87 -138
q-71 -92 -111 -150q-73 -105 -81 -152zM223 550l-87 -550h75l110 692h-75l-2 -8q-7 -48 -23.5 -61.5t-74.5 -13.5h-10l-10 -69h10q57 0 87 10zM457 688l-251 -786h77l250 786h-76z" />
    <glyph glyph-name="threequarters" unicode="&#xbe;" horiz-adv-x="965" 
d="M88 276l-22 -138q-5 -36 3 -68t39.5 -57t82.5 -25q76 0 119.5 45.5t53.5 104.5l17 111q12 71 -27 110q50 40 61 103l14 89q10 58 -20 103.5t-105 45.5t-119 -45.5t-54 -103.5l-18 -115h76l18 115q13 77 85 77q37 0 52 -22t9 -55l-14 -89q-5 -29 -26.5 -48t-56.5 -19h-97
l-11 -69h97q37 0 51.5 -21.5t9.5 -54.5l-18 -112q-5 -33 -27 -56t-59 -23q-73 0 -60 79l23 144zM770 178l-28 -178h80l28 178h103l11 68h-103l16 103h-80l-16 -103h-73q134 222 163 407l7 39h-77l-2 -8q-18 -120 -68 -232q-29 -66 -107 -199l-6 -9t-5 -9q-7 -12 -8 -22
l-6 -35h171zM591 688l-251 -786h77l251 786h-77z" />
    <glyph glyph-name="questiondown" unicode="&#xbf;" horiz-adv-x="384" 
d="M283 578q-24 0 -39.5 -15t-18.5 -32q-3 -16 9 -30t34 -14t37.5 14t18.5 30q3 17 -7.5 32t-33.5 15zM267 21q-5 -32 -26 -52t-57 -20q-38 0 -52 34q-10 29 -4 66q5 35 54 84q28 30 86 79l2 2l1 6q3 16 3 47t1 43q1 5 15 109l2 8h-76l-2 -8q-19 -132 -22 -183
q-133 -112 -144 -187q-6 -24 -1 -53.5t16 -56t40 -44t70 -17.5q75 0 120.5 43t53.5 100l19 120h-80z" />
    <glyph glyph-name="Agrave" unicode="&#xc0;" horiz-adv-x="422" 
d="M454 728l-173 101l-66 -57l148 -80h-69l-254 -692h78l43 122h155l5 -122h77l-34 691l34 -19zM187 191l112 307l12 -307h-124z" />
    <glyph glyph-name="Aacute" unicode="&#xc1;" horiz-adv-x="422" 
d="M420 843l-208 -101l37 -56l211 99zM118 0l43 122h155l5 -122h77l-33 692h-71l-254 -692h78zM187 191l112 307l12 -307h-124z" />
    <glyph glyph-name="Acircumflex" unicode="&#xc2;" horiz-adv-x="429" 
d="M149 688h111l76 53l56 -53h113l-136 134h-39zM125 0l43 122h155l5 -122h77l-33 692h-71l-254 -692h78zM194 191l112 307l12 -307h-124z" />
    <glyph glyph-name="Atilde" unicode="&#xc3;" horiz-adv-x="422" 
d="M364 689l34 -689h-77l-5 122h-155l-43 -122h-78l254 692h62q-24 9 -50 33q-2 2 -7.5 6.5t-7.5 7.5q-5 5 -13 11q-11 10 -20 10h-1q-1 -1 -1 -4l-1 -3q2 0 5 -0.5t4 -0.5l8 -2l-11 -68l-12 1q-73 10 -65 65l3 16q4 24 27 42.5t55 18.5q39 0 80 -39q2 -1 6.5 -5.5t7.5 -6.5
q8 -8 13 -11q2 -2 4 -2l10 64h32q11 0 22.5 -7t16.5 -13q14 -17 10 -48q-4 -26 -26 -48.5t-57 -22.5q-12 0 -24 3zM400 756l-10 -1q2 -1 8 -1h1zM187 191h124l-12 307z" />
    <glyph glyph-name="Adieresis" unicode="&#xc4;" horiz-adv-x="422" 
d="M377 703q23 0 38 14.5t18 30.5q3 17 -7.5 31.5t-33.5 14.5q-37 0 -52 -36q-1 15 -11.5 26t-30.5 11q-23 0 -38.5 -14.5t-18.5 -31.5q-3 -16 8.5 -30.5t34.5 -14.5q37 0 53 35q0 -15 10 -25.5t30 -10.5zM118 0l43 122h155l5 -122h77l-33 692h-71l-254 -692h78zM187 191
l112 307l12 -307h-124z" />
    <glyph glyph-name="Aring" unicode="&#xc5;" horiz-adv-x="422" 
d="M333 698q-36 0 -51.5 23t-11.5 49q5 27 26.5 49.5t58.5 22.5t51 -22.5t10 -49.5q-5 -27 -25.5 -49.5t-57.5 -22.5zM340 752q18 0 21 18t-15 18t-21 -18q-1 -6 3 -12t12 -6zM40 0l254 692h71l33 -692h-77l-5 122h-155l-43 -122h-78zM187 191h124l-12 307z" />
    <glyph glyph-name="AE" unicode="&#xc6;" horiz-adv-x="526" 
d="M549 398h-204l36 224h203l11 70h-301l-254 -692h78l43 122h67l-19 -122h277l11 70h-204l41 258h204zM279 444l-40 -253h-52z" />
    <glyph glyph-name="Ccedilla" unicode="&#xc7;" horiz-adv-x="384" 
d="M146 -39h-53l-1 -8q-6 -38 -8 -56q-1 -21 -0.5 -42.5t19.5 -37.5t56 -16q46 0 75 30.5t34 65.5q6 44 -38 96q59 13 93 55t42 91l21 134h-74l-21 -135q-5 -32 -29.5 -56.5t-60.5 -24.5q-37 0 -53.5 24.5t-11.5 56.5l65 413q6 33 29.5 56t61.5 23q36 0 52.5 -23.5
t11.5 -55.5l-21 -136h74l21 134q9 59 -21 105t-106 46t-121.5 -46.5t-54.5 -104.5l-65 -410q-8 -50 13 -91t76 -56zM165 -49l2 -2l21 -27q8 -16 7 -25q-2 -10 -10 -21q-5 -10 -12 -10q-16 0 -17 13l-1 15l3 16q1 6 3.5 19.5t3.5 21.5z" />
    <glyph glyph-name="Egrave" unicode="&#xc8;" horiz-adv-x="362" 
d="M424 758l-172 103l-68 -59l186 -98zM150 692l-110 -692h276l11 70h-201l41 258h201l11 70h-201l36 224h200l11 70h-275z" />
    <glyph glyph-name="Eacute" unicode="&#xc9;" horiz-adv-x="362" 
d="M214 622h200l11 70h-180l183 86l-42 57l-207 -100l30 -43h-59l-110 -692h276l11 70h-201l41 258h201l11 70h-201z" />
    <glyph glyph-name="Ecircumflex" unicode="&#xca;" horiz-adv-x="442" 
d="M332 834l-181 -133h112l75 53l56 -53h113l-136 133h-39zM250 622h201l11 70h-275l-110 -692h276l11 70h-202l41 258h202l11 70h-202z" />
    <glyph glyph-name="Edieresis" unicode="&#xcb;" horiz-adv-x="362" 
d="M338 703q22 0 37 15t17 30q3 15 -7 30.5t-32 15.5q-37 0 -54 -36q-1 15 -12 26t-31 11q-22 0 -36.5 -15.5t-16.5 -30.5q-3 -15 7 -30t32 -15q38 0 54 35q1 -14 12 -25t30 -11zM214 622h200l11 70h-275l-110 -692h276l11 70h-201l41 258h201l11 70h-201z" />
    <glyph glyph-name="Igrave" unicode="&#xcc;" horiz-adv-x="190" 
d="M299 668l55 55l-172 102l-69 -58zM58 0h74l110 692h-74z" />
    <glyph glyph-name="Iacute" unicode="&#xcd;" horiz-adv-x="186" 
d="M52 0l109 690l-31 -15l-40 56l210 100l40 -56l-175 -83h73l-110 -692h-76z" />
    <glyph glyph-name="Icircumflex" unicode="&#xce;" horiz-adv-x="249" 
d="M236 820l-181 -134h112l75 53l56 -53h113l-136 134h-39zM85 0h75l110 692h-75z" />
    <glyph glyph-name="Idieresis" unicode="&#xcf;" horiz-adv-x="156" 
d="M234 701q22 0 37.5 14.5t18.5 30.5t-8 31t-34 15q-37 0 -53 -34q-2 14 -12 24.5t-28 10.5q-23 0 -39 -15t-19 -31t8.5 -30.5t34.5 -14.5q35 0 50 33q3 -14 14 -24t30 -10zM38 0h74l110 692h-74z" />
    <glyph glyph-name="Eth" unicode="&#xd0;" horiz-adv-x="391" 
d="M371 127l70 439q9 57 -31.5 91.5t-114.5 34.5h-149l-45 -282h-95l-11 -70h95l-54 -340h149q73 0 125 35.5t61 91.5zM367 566l-70 -439q-4 -26 -33.5 -41.5t-67.5 -15.5h-74l43 270h97l11 70h-97l34 212h74q39 0 63 -14.5t20 -41.5z" />
    <glyph glyph-name="Ntilde" unicode="&#xd1;" horiz-adv-x="398" 
d="M372 766h-1q-1 1 -2 1q-4 5 -12 10l-14 14q-38 38 -82 38q-32 0 -54.5 -17.5t-26.5 -41.5l-3 -16q-7 -45 40 -61q4 0 8 -2q2 -1 6 -1q2 -1 6 -1h18l11 69h-17q0 2 1 3v3l1 2q7 0 20 -10q5 -4 14 -12.5t14 -12.5q42 -40 81 -40q7 0 11 1l-73 -459l-99 459h-67l-109 -692
h74l72 453l99 -453h68l110 692h-73q30 4 48.5 25t22.5 45q5 32 -10 48q-16 19 -40 19h-32zM392 762l1 -1l-2 -3q-5 0 -11 3z" />
    <glyph glyph-name="Ograve" unicode="&#xd2;" 
d="M435 743l-172 103l-68 -59l185 -98zM127 549l-65 -410q-9 -58 22 -104.5t106 -46.5q76 0 121 46.5t54 104.5l65 410q9 59 -21 105t-106 46t-121.5 -46.5t-54.5 -104.5zM356 551l-65 -413q-5 -31 -30 -56t-60 -25q-37 0 -53.5 24.5t-11.5 56.5l65 413q6 33 29.5 56
t61.5 23q36 0 52.5 -23.5t11.5 -55.5z" />
    <glyph glyph-name="Oacute" unicode="&#xd3;" 
d="M402 849l-210 -103l41 -54l209 98zM127 549l-65 -410q-9 -58 22 -104.5t106 -46.5q76 0 121 46.5t54 104.5l65 410q9 59 -21 105t-106 46t-121.5 -46.5t-54.5 -104.5zM356 551l-65 -413q-5 -31 -30 -56t-60 -25q-37 0 -53.5 24.5t-11.5 56.5l65 413q6 33 29.5 56t61.5 23
q36 0 52.5 -23.5t11.5 -55.5z" />
    <glyph glyph-name="Ocircumflex" unicode="&#xd4;" horiz-adv-x="436" 
d="M151 698h112l75 53l56 -53h113l-136 133h-39zM155 549l-65 -410q-9 -58 21.5 -104.5t105.5 -46.5q76 0 121.5 46.5t54.5 104.5l65 410q9 58 -21.5 104.5t-106.5 46.5t-120.5 -46t-54.5 -105zM384 551l-65 -413q-5 -31 -30 -56t-61 -25t-53 24.5t-12 56.5l65 413
q6 33 30 56t61 23t53.5 -23.5t11.5 -55.5z" />
    <glyph glyph-name="Otilde" unicode="&#xd5;" 
d="M250 765v5l2 4q6 0 19 -10q1 -1 14 -11q2 -3 7.5 -7.5t7.5 -6.5q41 -39 81 -39q35 0 57 22.5t26 48.5q5 31 -9 47q-20 20 -40 20h-32l-10 -64q-1 1 -2 1l-13 11q-9 9 -14 13q-37 39 -82 39q-32 0 -55 -18t-27 -42l-2 -16q-9 -55 65 -65l12 -1l11 69h-16zM382 769l11 1
l-2 -4q-5 0 -9 3zM127 549l-65 -410q-9 -58 22 -104.5t106 -46.5q76 0 121 46.5t54 104.5l65 410q9 59 -21 105t-106 46t-121.5 -46.5t-54.5 -104.5zM356 551l-65 -413q-5 -31 -30 -56t-60 -25q-37 0 -53.5 24.5t-11.5 56.5l65 413q6 33 29.5 56t61.5 23q36 0 52.5 -23.5
t11.5 -55.5z" />
    <glyph glyph-name="Odieresis" unicode="&#xd6;" 
d="M348 701q23 0 38.5 14.5t18.5 30.5q3 17 -8.5 31.5t-34.5 14.5q-36 0 -50 -36q-1 15 -12 26t-31 11q-24 0 -38 -15t-17 -31q-2 -16 7.5 -30.5t32.5 -14.5q38 0 55 35q1 -14 10.5 -25t28.5 -11zM127 549l-65 -410q-9 -58 22 -104.5t106 -46.5q76 0 121 46.5t54 104.5
l65 410q9 59 -21 105t-106 46t-121.5 -46.5t-54.5 -104.5zM356 551l-65 -413q-5 -31 -30 -56t-60 -25q-37 0 -53.5 24.5t-11.5 56.5l65 413q6 33 29.5 56t61.5 23q36 0 52.5 -23.5t11.5 -55.5z" />
    <glyph glyph-name="multiply" unicode="&#xd7;" horiz-adv-x="478" 
d="M63 143l45 -53l173 147l120 -138l61 53l-120 136l160 134l-46 53l-159 -134l-124 141l-61 -51l126 -143z" />
    <glyph glyph-name="Oslash" unicode="&#xd8;" 
d="M389 671l18 62h-74l-12 -34q-3 0 -8.5 0.5t-9.5 0.5q-76 0 -121.5 -46.5t-54.5 -104.5l-65 -410q-11 -75 39 -119l1 -1q1 -1 1 -2l-18 -70h73l14 42q3 0 9 -0.5t9 -0.5q76 0 121 46.5t54 104.5l65 410q14 82 -41 122zM301 630l-166 -509q0 11 1 17l65 413q6 34 29 56.5
t62 22.5h9zM356 551l-65 -413q-5 -32 -29.5 -56.5t-60.5 -24.5h-8l164 516q0 -18 -1 -22z" />
    <glyph glyph-name="Ugrave" unicode="&#xd9;" 
d="M376 677l-85 -539q-5 -31 -30 -56t-60 -25q-37 0 -53.5 24.5t-11.5 56.5l88 554h-74l-88 -553q-9 -58 22 -104.5t106 -46.5q76 0 121 46.5t54 104.5l88 553h-59l40 40l-173 100l-65 -57z" />
    <glyph glyph-name="Uacute" unicode="&#xda;" 
d="M190 -12q-75 0 -106 46.5t-22 104.5l88 553h72l-31 48l207 100l41 -57l-212 -99l-4 6l-87 -552q-5 -32 11.5 -56.5t53.5 -24.5q35 0 60 25t30 56l88 554h74l-88 -553q-9 -58 -54 -104.5t-121 -46.5z" />
    <glyph glyph-name="Ucircumflex" unicode="&#xdb;" horiz-adv-x="436" 
d="M332 834l-181 -133h112l75 53l56 -53h113l-136 133h-39zM392 139l88 553h-74l-88 -554q-5 -31 -30 -56t-61 -25t-53 24.5t-12 56.5l88 554h-73l-88 -553q-9 -58 21.5 -104.5t105.5 -46.5q76 0 121.5 46.5t54.5 104.5z" />
    <glyph glyph-name="Udieresis" unicode="&#xdc;" 
d="M348 701q23 0 38.5 14.5t18.5 30.5q3 17 -8.5 31.5t-34.5 14.5q-36 0 -50 -36q-1 15 -12 26t-31 11q-24 0 -38 -15t-17 -31q-2 -16 7.5 -30.5t32.5 -14.5q38 0 55 35q1 -14 10.5 -25t28.5 -11zM365 139l88 553h-74l-88 -554q-5 -31 -30 -56t-60 -25q-37 0 -53.5 24.5
t-11.5 56.5l88 554h-74l-88 -553q-9 -58 22 -104.5t106 -46.5q76 0 121 46.5t54 104.5z" />
    <glyph glyph-name="Yacute" unicode="&#xdd;" horiz-adv-x="449" 
d="M477 793l-41 58l-211 -102l40 -55zM200 0h72l37 233q2 12 3 30.5t2 25.5q2 26 11 54l194 349h-79l-136 -250l-72 250h-82l69 -239q4 -12 12 -32.5t9 -22.5q12 -34 13 -56q1 -16 -4 -54q-10 -37 -13 -57z" />
    <glyph glyph-name="germandbls" unicode="&#xdf;" horiz-adv-x="386" 
d="M132 578l-92 -578h80l92 578q5 35 26 57.5t59 22.5t52 -22.5t9 -57.5l-14 -85q-5 -31 -26.5 -50.5t-57.5 -19.5q-12 0 -24 2q-4 1 -11 3.5t-12 3.5l-13 5l-15 -96l15 4l19 6q8 3 14 3h16q74 0 61 -74l-18 -113q-6 -42 -29.5 -61t-76.5 -19h-10l-11 -68h10q89 0 138 39.5
t59 108.5l18 112q11 68 -29 110q51 34 63 104l14 85q5 37 -4 69.5t-41.5 56t-84.5 23.5q-77 0 -122 -45t-54 -104z" />
    <glyph glyph-name="agrave" unicode="&#xe0;" 
d="M420 642l-175 103l-61 -59l180 -98zM87 295l-25 -155q-4 -26 0.5 -52t17.5 -49t41.5 -37.5t68.5 -14.5q75 0 120.5 47.5t54.5 105.5l47 293q9 59 -21.5 106t-105.5 47t-121 -47.5t-55 -105.5l-17 -106h75l17 106q5 33 29 58.5t61 25.5q36 0 52 -25.5t11 -58.5l-22 -138
h-228zM304 225l-14 -85q-5 -33 -28.5 -58.5t-60.5 -25.5q-38 0 -53.5 24.5t-10.5 59.5l14 85h153z" />
    <glyph glyph-name="aacute" unicode="&#xe1;" 
d="M384 752l-207 -103l36 -54l212 98zM87 295l-25 -155q-4 -26 0.5 -52t17.5 -49t41.5 -37.5t68.5 -14.5q75 0 120.5 47.5t54.5 105.5l47 293q9 59 -21.5 106t-105.5 47t-121 -47.5t-55 -105.5l-17 -106h75l17 106q5 33 29 58.5t61 25.5q36 0 52 -25.5t11 -58.5l-22 -138
h-228zM304 225l-14 -85q-5 -33 -28.5 -58.5t-60.5 -25.5q-38 0 -53.5 24.5t-10.5 59.5l14 85h153z" />
    <glyph glyph-name="acircumflex" unicode="&#xe2;" horiz-adv-x="436" 
d="M134 596h112l76 53l55 -53h113l-136 133h-39zM114 295l-25 -155q-6 -37 2.5 -70t40.5 -58t84 -25q75 0 121 47.5t55 105.5l47 293q9 58 -22 105.5t-106 47.5q-76 0 -121 -47t-54 -106l-17 -106h74l17 106q5 33 29 58.5t61 25.5q36 0 52.5 -25.5t11.5 -58.5l-22 -138h-228
zM331 225l-14 -85q-5 -34 -28.5 -59t-61.5 -25t-53.5 25t-10.5 59l14 85h154z" />
    <glyph glyph-name="atilde" unicode="&#xe3;" 
d="M229 659q1 1 1 3t1 3q8 -1 18 -8l13 -10q7 -6 13 -13q40 -34 77 -34q36 0 57.5 22.5t25.5 48.5q6 40 -28 61l-4 3q-2 2 -7 3q-2 1 -7 1h-39l-5 -63q-2 1 -25 22q-41 35 -82 35q-15 0 -41 -13q-8 -4 -32 -23l-2 -2l-5 -33q-7 -36 22 -56l5 -3l4 -4q13 -5 17 -5h31l9 55
l-3 3l-5 3l-5 3q-3 0 -4 1zM349 673l3 -1q1 0 4 -0.5t5 -0.5q0 -1 2 -1v-1q0 -1 -0.5 -1t-0.5 -1l-2 1h-3zM87 295l-25 -155q-4 -26 0.5 -52t17.5 -49t41.5 -37.5t68.5 -14.5q75 0 120.5 47.5t54.5 105.5l47 293q9 59 -21.5 106t-105.5 47t-121 -47.5t-55 -105.5l-17 -106
h75l17 106q5 33 29 58.5t61 25.5q36 0 52 -25.5t11 -58.5l-22 -138h-228zM304 225l-14 -85q-5 -33 -28.5 -58.5t-60.5 -25.5q-38 0 -53.5 24.5t-10.5 59.5l14 85h153z" />
    <glyph glyph-name="adieresis" unicode="&#xe4;" 
d="M242 618q39 0 55 37q1 -15 10.5 -26.5t28.5 -11.5q24 0 39 15t18 32q3 16 -8.5 30t-34.5 14q-37 0 -50 -35q-2 14 -13.5 25t-30.5 11q-24 0 -37.5 -14t-16.5 -30q-2 -17 7 -32t33 -15zM87 295l-25 -155q-4 -26 0.5 -52t17.5 -49t41.5 -37.5t68.5 -14.5q75 0 120.5 47.5
t54.5 105.5l47 293q9 59 -21.5 106t-105.5 47t-121 -47.5t-55 -105.5l-17 -106h75l17 106q5 33 29 58.5t61 25.5q36 0 52 -25.5t11 -58.5l-22 -138h-228zM304 225l-14 -85q-5 -33 -28.5 -58.5t-60.5 -25.5q-38 0 -53.5 24.5t-10.5 59.5l14 85h153z" />
    <glyph glyph-name="aring" unicode="&#xe5;" 
d="M297 609q-36 0 -51 23t-11 49q5 27 26.5 49.5t58.5 22.5t51 -22.5t10 -49.5q-5 -27 -26 -49.5t-58 -22.5zM305 663q18 0 21 18t-15 18t-21 -18q-1 -6 3 -12t12 -6zM87 295l-25 -155q-4 -26 0.5 -52t17.5 -49t41.5 -37.5t68.5 -14.5q75 0 120.5 47.5t54.5 105.5l47 293
q9 59 -21.5 106t-105.5 47t-121 -47.5t-55 -105.5l-17 -106h75l17 106q5 33 29 58.5t61 25.5q36 0 52 -25.5t11 -58.5l-22 -138h-228zM304 225l-14 -85q-5 -33 -28.5 -58.5t-60.5 -25.5q-38 0 -53.5 24.5t-10.5 59.5l14 85h153z" />
    <glyph glyph-name="ae" unicode="&#xe6;" horiz-adv-x="609" 
d="M92 327h80l17 106q5 33 27 58t58 25q37 0 50 -24.5t8 -58.5l-22 -138h-223l-25 -155q-9 -58 21.5 -106t106.5 -48q70 0 121 48q37 -46 105 -46q76 0 121 48t55 107l16 105h-78l-16 -105q-4 -22 -18.5 -47t-34.5 -32q-18 -5 -34 -5q-37 0 -50.5 25t-7.5 59l21 137h223
l25 156q6 36 -3 69t-40.5 57.5t-83.5 24.5q-75 0 -121 -46q-38 45 -105 45q-75 0 -121 -47.5t-55 -105.5zM401 350l14 86q5 34 26.5 58t58.5 24q38 0 51 -23.5t7 -58.5l-14 -86h-143zM299 225l-14 -85q-5 -34 -26 -58.5t-58 -24.5t-50.5 24.5t-8.5 58.5l14 85h143z" />
    <glyph glyph-name="ccedilla" unicode="&#xe7;" 
d="M145 -39h-52l-12 -76q-5 -32 14.5 -58t62.5 -26q37 0 64 20q37 29 45 76q6 42 -36 94q59 14 92.5 56.5t41.5 92.5l17 106h-75l-17 -106q-5 -33 -29 -58.5t-60 -25.5q-37 0 -53 25.5t-11 58.5l47 293q5 34 28.5 59t61.5 25q37 0 52.5 -25t10.5 -59l-17 -106h75l17 106
q6 37 -2.5 70t-40.5 58t-84 25q-75 0 -121 -47.5t-55 -105.5l-47 -293q-8 -48 12.5 -92t74.5 -58zM164 -49l2 -2l21 -27q8 -16 7 -25q-2 -10 -10 -21q-5 -10 -12 -10q-15 0 -16 14q-3 10 1 30q1 6 3.5 19.5t3.5 21.5z" />
    <glyph glyph-name="egrave" unicode="&#xe8;" 
d="M420 642l-175 103l-61 -59l180 -98zM387 280l25 156q6 36 -3 69t-40.5 57.5t-83.5 24.5q-76 0 -121 -46t-55 -105l-46 -293q-10 -58 21 -106.5t106 -48.5q76 0 121 48t55 107l16 105h-75l-1 -8q-1 -6 -3.5 -24.5t-3.5 -27.5q-3 -30 -14 -61q-24 -69 -84 -69q-37 0 -53 26
t-10 59l21 137h228zM170 350l14 86q6 35 28.5 59t61.5 24q37 0 52.5 -24.5t10.5 -58.5l-14 -86h-153z" />
    <glyph glyph-name="eacute" unicode="&#xe9;" 
d="M384 752l-207 -103l36 -54l212 98zM387 280l25 156q6 36 -3 69t-40.5 57.5t-83.5 24.5q-76 0 -121 -46t-55 -105l-46 -293q-10 -58 21 -106.5t106 -48.5q76 0 121 48t55 107l16 105h-75l-1 -8q-1 -6 -3.5 -24.5t-3.5 -27.5q-3 -30 -14 -61q-24 -69 -84 -69q-37 0 -53 26
t-10 59l21 137h228zM170 350l14 86q6 35 28.5 59t61.5 24q37 0 52.5 -24.5t10.5 -58.5l-14 -86h-153z" />
    <glyph glyph-name="ecircumflex" unicode="&#xea;" horiz-adv-x="436" 
d="M134 596h112l76 53l55 -53h113l-136 133h-39zM414 280l25 156q10 58 -21 104.5t-107 46.5t-120.5 -46t-54.5 -105l-46 -293q-6 -25 -0.5 -52t17.5 -50t40.5 -38t68.5 -15q76 0 121.5 48t55.5 107l16 105h-75l-1 -8q-1 -7 -4.5 -31t-5.5 -37q-8 -47 -18 -64
q-27 -50 -78 -50q-36 0 -52.5 26t-10.5 59l21 137h229zM196 350l14 86q6 35 29 59t61 24t53.5 -24.5t10.5 -58.5l-14 -86h-154z" />
    <glyph glyph-name="edieresis" unicode="&#xeb;" 
d="M336 617q24 0 39 15t18 32q3 16 -8.5 30t-34.5 14q-37 0 -50 -35q-2 14 -13.5 25t-30.5 11q-24 0 -37.5 -14t-16.5 -30q-2 -17 7 -32t33 -15q39 0 55 37q1 -15 10.5 -26.5t28.5 -11.5zM387 280l25 156q6 36 -3 69t-40.5 57.5t-83.5 24.5q-76 0 -121 -46t-55 -105
l-46 -293q-10 -58 21 -106.5t106 -48.5q76 0 121 48t55 107l16 105h-75l-1 -8q-1 -6 -3.5 -24.5t-3.5 -27.5q-3 -30 -14 -61q-24 -69 -84 -69q-37 0 -53 26t-10 59l21 137h228zM170 350l14 86q6 35 28.5 59t61.5 24q37 0 52.5 -24.5t10.5 -58.5l-14 -86h-153z" />
    <glyph glyph-name="igrave" unicode="&#xec;" horiz-adv-x="202" 
d="M277 588l55 54l-172 103l-68 -59zM64 0h76l93 587h-76z" />
    <glyph glyph-name="iacute" unicode="&#xed;" horiz-adv-x="198" 
d="M333 693l-40 59l-210 -103l40 -54zM60 0h76l93 587h-76z" />
    <glyph glyph-name="icircumflex" unicode="&#xee;" horiz-adv-x="261" 
d="M227 729l-181 -133h112l76 53l55 -53h113l-136 133h-39zM93 0h75l93 587h-75z" />
    <glyph glyph-name="idieresis" unicode="&#xef;" horiz-adv-x="168" 
d="M230 617q23 0 38 15t18 32q3 15 -8.5 29.5t-33.5 14.5q-18 0 -32.5 -10t-20.5 -23q-6 34 -41 34q-23 0 -38.5 -14t-18.5 -30q-3 -17 8 -32t35 -15q35 0 50 35q6 -36 44 -36zM47 0h73l93 587h-73z" />
    <glyph glyph-name="eth" unicode="&#xf0;" horiz-adv-x="473" 
d="M513 503h-89l7 46q9 59 -21 105t-106 46t-122 -46.5t-55 -104.5l-10 -61h80l2 8q2 19 6 42q5 26 13 44q21 46 74 46q35 0 49.5 -23.5t9.5 -55.5l-7 -46h-97l-11 -70h97l-4 -25q-31 15 -69 15q-76 0 -122 -45t-55 -104l-21 -134q-9 -58 22 -105t107 -47q77 0 121.5 46.5
t53.5 105.5l47 293h89zM307 274l-21 -134q-5 -33 -26.5 -57t-57.5 -24q-72 0 -60 81l21 134q13 80 87 80q35 0 48.5 -24t8.5 -56z" />
    <glyph glyph-name="ntilde" unicode="&#xf1;" 
d="M350 684q-2 0 -2 2q-1 1 -14 11q-9 9 -15 13q-41 39 -79 39q-32 0 -55 -19t-27 -43l-3 -15q-4 -29 13 -44.5t54 -20.5l11 -1l10 66l-6 2q-5 0 -8 1h-1v1l1 6l1 1q8 0 19 -10q12 -9 13 -10l15 -14q43 -39 82 -39q35 0 56.5 22.5t26.5 47.5q4 30 -10 45q-4 8 -15.5 16
t-23.5 8h-32zM371 679l-2 -3q-3 0 -9 2zM337 434l-69 -434h75l69 434q6 37 -2.5 69.5t-40 57.5t-84.5 25q-76 0 -121.5 -47t-54.5 -105l-69 -434h75l69 434q5 34 28 58.5t62 24.5q37 0 52.5 -24.5t10.5 -58.5z" />
    <glyph glyph-name="ograve" unicode="&#xf2;" 
d="M364 588l56 54l-175 103l-61 -59zM365 140l47 293q9 59 -21.5 106t-105.5 47t-121 -47.5t-55 -105.5l-47 -293q-9 -58 21.5 -106t106.5 -48q77 0 121.5 47.5t53.5 106.5zM137 140l47 293q5 34 28.5 59t61.5 25q36 0 52 -25.5t11 -58.5l-47 -293q-5 -33 -29 -58.5
t-60 -25.5q-38 0 -53.5 25t-10.5 59z" />
    <glyph glyph-name="oacute" unicode="&#xf3;" 
d="M425 693l-41 59l-207 -103l36 -54zM365 140l47 293q9 59 -21.5 106t-105.5 47t-121 -47.5t-55 -105.5l-47 -293q-9 -58 21.5 -106t106.5 -48q77 0 121.5 47.5t53.5 106.5zM137 140l47 293q5 34 28.5 59t61.5 25q36 0 52 -25.5t11 -58.5l-47 -293q-5 -33 -29 -58.5
t-60 -25.5q-38 0 -53.5 25t-10.5 59z" />
    <glyph glyph-name="ocircumflex" unicode="&#xf4;" horiz-adv-x="436" 
d="M134 596h112l76 53l55 -53h113l-136 133h-39zM392 140l47 293q9 58 -22 105.5t-106 47.5q-76 0 -121 -47t-54 -106l-47 -293q-6 -36 3 -69.5t40.5 -59t83.5 -25.5q77 0 122 47.5t54 106.5zM364 433l-47 -293q-5 -33 -29 -58.5t-61 -25.5q-38 0 -53.5 25t-10.5 59l47 293
q5 34 28.5 59t61.5 25q37 0 53 -25.5t11 -58.5z" />
    <glyph glyph-name="otilde" unicode="&#xf5;" 
d="M349 684h-1l-2 1l-13 12q-9 9 -15 13q-41 39 -78 39q-32 0 -55.5 -18.5t-27.5 -43.5l-3 -15q-4 -29 13 -44.5t54 -20.5l11 -1l10 66l-6 2q-5 0 -8 1h-1l1 4l1 4q8 0 19 -10q4 -2 8.5 -6t10.5 -9.5t10 -8.5q43 -39 81 -39q35 0 56.5 22.5t26.5 47.5q4 30 -10 45
q-4 8 -15.5 16t-23.5 8h-32zM370 679l-2 -3q-3 0 -9 2zM365 140l47 293q9 59 -21.5 106t-105.5 47t-121 -47.5t-55 -105.5l-47 -293q-9 -58 21.5 -106t106.5 -48q77 0 121.5 47.5t53.5 106.5zM337 433l-47 -293q-5 -33 -29 -58.5t-60 -25.5q-38 0 -53.5 25t-10.5 59l47 293
q5 34 28.5 59t61.5 25q36 0 52 -25.5t11 -58.5z" />
    <glyph glyph-name="odieresis" unicode="&#xf6;" 
d="M336 617q24 0 39 15t18 32q3 16 -8.5 30t-34.5 14q-37 0 -50 -35q-2 14 -13.5 25t-30.5 11q-24 0 -37.5 -14t-16.5 -30q-2 -17 7 -32t33 -15q39 0 55 37q1 -15 10.5 -26.5t28.5 -11.5zM365 140l47 293q9 59 -21.5 106t-105.5 47t-121 -47.5t-55 -105.5l-47 -293
q-9 -58 21.5 -106t106.5 -48q77 0 121.5 47.5t53.5 106.5zM337 433l-47 -293q-5 -33 -29 -58.5t-60 -25.5q-38 0 -53.5 25t-10.5 59l47 293q5 34 28.5 59t61.5 25q36 0 52 -25.5t11 -58.5z" />
    <glyph glyph-name="divide" unicode="&#xf7;" horiz-adv-x="565" 
d="M334 364q22 0 37.5 14t18.5 30q3 17 -7.5 32t-34.5 15t-39 -15t-18 -32q-3 -15 9 -29.5t34 -14.5zM91 324l-11 -70h485l11 70h-485zM298 136q23 0 38 14.5t18 30.5t-7.5 31t-34.5 15t-39 -15t-18 -31t8.5 -30.5t34.5 -14.5z" />
    <glyph glyph-name="oslash" unicode="&#xf8;" 
d="M105 9l-29 -107h73l29 85q4 -1 12 -1q77 0 121.5 47.5t53.5 106.5l47 293q6 39 -5.5 76t-44.5 58l38 121h-75l-32 -102h-8q-75 0 -121 -47.5t-55 -105.5l-47 -293q-13 -92 43 -131zM270 517l-132 -410q-4 19 -1 33l47 293q5 33 27.5 58t58.5 26zM337 433l-47 -293
q-5 -33 -29 -58.5t-60 -25.5h-2l134 422q7 -20 4 -45z" />
    <glyph glyph-name="ugrave" unicode="&#xf9;" 
d="M364 588l56 54l-175 103l-61 -59zM436 587h-75l-71 -445q-5 -33 -29 -58.5t-60 -25.5q-38 0 -53.5 25t-10.5 59l71 445h-75l-71 -445q-6 -36 3 -69.5t41 -59t84 -25.5q77 0 121.5 47.5t53.5 106.5z" />
    <glyph glyph-name="uacute" unicode="&#xfa;" 
d="M425 693l-41 59l-207 -103l36 -54zM436 587h-75l-71 -445q-5 -33 -29 -58.5t-60 -25.5q-38 0 -53.5 25t-10.5 59l71 445h-75l-71 -445q-6 -36 3 -69.5t41 -59t84 -25.5q77 0 121.5 47.5t53.5 106.5z" />
    <glyph glyph-name="ucircumflex" unicode="&#xfb;" horiz-adv-x="436" 
d="M315 729l-181 -133h112l76 53l55 -53h113l-136 133h-39zM463 587h-75l-71 -445q-5 -33 -29 -58.5t-61 -25.5q-38 0 -53.5 25t-10.5 59l71 445h-74l-71 -445q-4 -27 0.5 -52.5t17.5 -49t41 -38t68 -14.5q77 0 122 47.5t54 106.5z" />
    <glyph glyph-name="udieresis" unicode="&#xfc;" 
d="M336 617q24 0 39 15t18 32q3 16 -8.5 30t-34.5 14q-37 0 -50 -35q-2 14 -13.5 25t-30.5 11q-24 0 -37.5 -14t-16.5 -30q-2 -17 7 -32t33 -15q39 0 55 37q1 -15 10.5 -26.5t28.5 -11.5zM436 587h-75l-71 -445q-5 -33 -29 -58.5t-60 -25.5q-38 0 -53.5 25t-10.5 59l71 445
h-75l-71 -445q-6 -36 3 -69.5t41 -59t84 -25.5q77 0 121.5 47.5t53.5 106.5z" />
    <glyph glyph-name="yacute" unicode="&#xfd;" horiz-adv-x="380" 
d="M424 693l-41 59l-207 -103l36 -54zM362 587h75l-91 -576q-10 -58 -55 -105.5t-120 -47.5q-73 0 -102.5 41.5t-26.5 99.5h75q-2 -74 64 -74q36 0 59.5 25t29.5 58q-40 -20 -79 -20q-67 0 -102.5 44.5t-24.5 110.5l70 444h75l-70 -444q-6 -33 10 -59t53 -26q36 0 60 26
t30 59z" />
    <glyph glyph-name="ydieresis" unicode="&#xff;" horiz-adv-x="380" 
d="M336 617q24 0 38.5 15t17.5 32q3 16 -8 30t-34 14q-36 0 -51 -35q-2 14 -13.5 25t-30.5 11q-24 0 -37.5 -14t-16.5 -30q-2 -17 7 -32t33 -15q39 0 55 37q1 -15 10.5 -26.5t29.5 -11.5zM363 587h75l-91 -576q-10 -58 -55 -105.5t-120 -47.5q-73 0 -102.5 41.5t-26.5 99.5
h75q-2 -74 64 -74q36 0 59.5 25t29.5 58q-40 -20 -79 -20q-67 0 -102.5 44.5t-24.5 110.5l70 444h75l-70 -444q-6 -33 10 -59t53 -26q36 0 60 26t30 59z" />
    <glyph glyph-name="Amacron" unicode="&#x100;" horiz-adv-x="422" 
d="M203 700h240l11 71h-240zM118 0l43 122h155l5 -122h77l-33 692h-71l-254 -692h78zM187 191l112 307l12 -307h-124z" />
    <glyph glyph-name="amacron" unicode="&#x101;" 
d="M171 605h240l11 71h-240zM87 295l-25 -155q-4 -26 0.5 -52t17.5 -49t41.5 -37.5t68.5 -14.5q75 0 120.5 47.5t54.5 105.5l47 293q9 59 -21.5 106t-105.5 47t-121 -47.5t-55 -105.5l-17 -106h75l17 106q5 33 29 58.5t61 25.5q36 0 52 -25.5t11 -58.5l-22 -138h-228z
M304 225l-14 -85q-5 -33 -28.5 -58.5t-60.5 -25.5q-38 0 -53.5 24.5t-10.5 59.5l14 85h153z" />
    <glyph glyph-name="Abreve" unicode="&#x102;" horiz-adv-x="422" 
d="M395 820l-2 -12q-6 -40 -56 -40q-30 0 -38 12.5t-4 36.5l1 3h-76l-1 -8q-9 -59 11 -87.5t95 -28.5q128 0 143 91l5 33h-78zM294 692l-254 -692h78l43 122h155l5 -122h77l-33 692h-71zM187 191l112 307l12 -307h-124z" />
    <glyph glyph-name="abreve" unicode="&#x103;" 
d="M362 718l-2 -12q-6 -40 -57 -40q-29 0 -37 12.5t-4 36.5l1 3h-76l-2 -8q-9 -59 11.5 -87.5t95.5 -28.5q128 0 142 91l6 33h-78zM87 295l-25 -155q-4 -26 0.5 -52t17.5 -49t41.5 -37.5t68.5 -14.5q75 0 120.5 47.5t54.5 105.5l47 293q9 59 -21.5 106t-105.5 47t-121 -47.5
t-55 -105.5l-17 -106h75l17 106q5 33 29 58.5t61 25.5q36 0 52 -25.5t11 -58.5l-22 -138h-228zM304 225l-14 -85q-5 -33 -28.5 -58.5t-60.5 -25.5q-38 0 -53.5 24.5t-10.5 59.5l14 85h153z" />
    <glyph glyph-name="Cacute" unicode="&#x106;" horiz-adv-x="384" 
d="M440 788l-41 58l-207 -101l36 -56zM127 549l-65 -410q-9 -58 22 -104.5t106 -46.5q76 0 121 46.5t54 104.5l21 134h-74l-21 -135q-5 -32 -29.5 -56.5t-60.5 -24.5q-37 0 -53.5 24.5t-11.5 56.5l65 413q6 33 29.5 56t61.5 23q36 0 52.5 -23.5t11.5 -55.5l-21 -136h74
l21 134q9 59 -21 105t-106 46t-121.5 -46.5t-54.5 -104.5z" />
    <glyph glyph-name="cacute" unicode="&#x107;" 
d="M213 595l212 98l-41 59l-207 -103zM320 327h75l17 106q9 59 -21.5 106t-105.5 47t-121 -47.5t-55 -105.5l-47 -293q-9 -58 21.5 -106t106.5 -48t121 48t54 107l17 105h-75l-17 -105q-5 -33 -29 -59t-60 -26q-38 0 -53.5 25t-10.5 59l47 293q5 34 28.5 59t61.5 25
q36 0 52 -25.5t11 -58.5z" />
    <glyph glyph-name="Ccircumflex" unicode="&#x108;" horiz-adv-x="437" 
d="M333 839l-181 -133h112l75 53l56 -53h113l-136 133h-39zM154 549l-65 -410q-9 -58 21.5 -104.5t105.5 -46.5q76 0 121.5 46.5t54.5 104.5l21 134h-74l-21 -135q-5 -32 -29.5 -56.5t-61.5 -24.5q-36 0 -53 24.5t-12 56.5l65 413q6 33 30 56t61 23t53.5 -23.5t11.5 -55.5
l-21 -136h74l21 134q9 58 -21.5 104.5t-106.5 46.5t-120.5 -46t-54.5 -105z" />
    <glyph glyph-name="ccircumflex" unicode="&#x109;" horiz-adv-x="436" 
d="M354 729h-39l-181 -133h112l76 53l55 -53h113zM347 327h75l17 106q9 58 -22 105.5t-106 47.5q-76 0 -121 -47t-54 -106l-47 -293q-6 -36 3 -69.5t40.5 -59t83.5 -25.5q76 0 121.5 48t54.5 107l17 105h-75l-17 -105q-5 -33 -29.5 -59t-60.5 -26q-38 0 -53.5 25t-10.5 59
l47 293q5 34 28.5 59t61.5 25q36 0 52.5 -25.5t11.5 -58.5z" />
    <glyph glyph-name="Cdotaccent" unicode="&#x10a;" horiz-adv-x="384" 
d="M307 701q23 0 37.5 14.5t17.5 30.5t-7.5 31t-33.5 15t-38.5 -14.5t-18.5 -31.5q-3 -16 8.5 -30.5t34.5 -14.5zM127 549l-65 -410q-9 -58 22 -104.5t106 -46.5q76 0 121 46.5t54 104.5l21 134h-74l-21 -135q-5 -32 -29.5 -56.5t-60.5 -24.5q-37 0 -53.5 24.5t-11.5 56.5
l65 413q6 33 29.5 56t61.5 23q36 0 52.5 -23.5t11.5 -55.5l-21 -136h74l21 134q9 59 -21 105t-106 46t-121.5 -46.5t-54.5 -104.5z" />
    <glyph glyph-name="cdotaccent" unicode="&#x10b;" 
d="M293 617q23 0 38 15t18 32q3 15 -8.5 29.5t-33.5 14.5q-23 0 -38.5 -14t-18.5 -30q-3 -17 8 -32t35 -15zM320 327h75l17 106q9 59 -21.5 106t-105.5 47t-121 -47.5t-55 -105.5l-47 -293q-9 -58 21.5 -106t106.5 -48t121 48t54 107l17 105h-75l-17 -105q-5 -33 -29 -59
t-60 -26q-38 0 -53.5 25t-10.5 59l47 293q5 34 28.5 59t61.5 25q36 0 52 -25.5t11 -58.5z" />
    <glyph glyph-name="Ccaron" unicode="&#x10c;" horiz-adv-x="437" 
d="M171 827l133 -128q-68 -6 -108 -50.5t-49 -99.5l-65 -410q-9 -58 21.5 -104.5t105.5 -46.5q76 0 121.5 46.5t54.5 104.5l21 134h-74l-21 -135q-5 -32 -29.5 -56.5t-61.5 -24.5q-36 0 -52.5 24.5t-11.5 56.5l65 413q6 33 29.5 56t60.5 23t53.5 -23.5t11.5 -55.5l-21 -136
h74l21 134q5 32 -1.5 61.5t-31 54.5t-64.5 32l174 130h-113l-72 -53l-60 53h-111z" />
    <glyph glyph-name="ccaron" unicode="&#x10d;" horiz-adv-x="436" 
d="M267 729h-112l139 -133h39l178 133h-113l-72 -53zM346 327h75l17 106q9 58 -22 105.5t-106 47.5q-76 0 -121 -47t-54 -106l-47 -293q-6 -36 3 -69.5t40.5 -59t83.5 -25.5q76 0 121.5 48t54.5 107l17 105h-75l-17 -105q-5 -33 -29.5 -59t-60.5 -26q-38 0 -53.5 25
t-10.5 59l47 293q5 34 28.5 59t61.5 25q36 0 52.5 -25.5t11.5 -58.5z" />
    <glyph glyph-name="Dcaron" unicode="&#x10e;" horiz-adv-x="436" 
d="M310 693h39l178 134h-113l-72 -53l-59 53h-112zM61 0h148q73 0 125.5 35.5t61.5 91.5l70 439q9 57 -32 91.5t-115 34.5h-148zM146 70l88 552h74q39 0 63.5 -14.5t20.5 -41.5l-70 -439q-4 -26 -34.5 -41.5t-67.5 -15.5h-74z" />
    <glyph glyph-name="dcaron" unicode="&#x10f;" horiz-adv-x="521" 
d="M429 532h81l90 168h-85zM109 433l-47 -293q-9 -58 21.5 -106t106.5 -48q77 0 121.5 47.5t53.5 106.5l88 552h-75l-20 -123q-30 17 -73 17q-75 0 -121 -47.5t-55 -105.5zM337 433l-47 -293q-5 -33 -29 -58.5t-60 -25.5q-38 0 -53.5 25t-10.5 59l47 293q5 34 28.5 59
t61.5 25q36 0 52 -25.5t11 -58.5z" />
    <glyph glyph-name="Dcroat" unicode="&#x110;" horiz-adv-x="458" 
d="M438 127l70 439q9 57 -31.5 91.5t-114.5 34.5h-149l-47 -295h-84l-12 -73h84l-51 -324h149q73 0 125 35.5t61 91.5zM278 622h73q39 0 63 -14.5t20 -41.5l-70 -439q-4 -26 -33.5 -41.5t-67.5 -15.5h-73l40 254h81l12 73h-81z" />
    <glyph glyph-name="dcroat" unicode="&#x111;" horiz-adv-x="446" 
d="M109 433l-47 -293q-9 -58 21.5 -106t106.5 -48q77 0 121.5 47.5t53.5 106.5l65 411h96l11 70h-96l12 71h-75l-12 -71h-95l-5 -36q-69 -6 -109 -52t-48 -100zM137 140l47 293q5 34 28.5 59t61.5 25q36 0 52 -25.5t11 -58.5l-47 -293q-5 -33 -29 -58.5t-60 -25.5
q-37 0 -53 25.5t-11 58.5z" />
    <glyph glyph-name="Emacron" unicode="&#x112;" horiz-adv-x="362" 
d="M177 784l-11 -70h241l11 70h-241zM214 622h200l11 70h-275l-110 -692h276l11 70h-201l41 258h201l11 70h-201z" />
    <glyph glyph-name="emacron" unicode="&#x113;" 
d="M171 605h240l11 71h-240zM387 280l25 156q6 36 -3 69t-40.5 57.5t-83.5 24.5q-76 0 -121 -46t-55 -105l-46 -293q-10 -58 21 -106.5t106 -48.5q76 0 121 48t55 107l16 105h-75l-1 -8q-1 -6 -3.5 -24.5t-3.5 -27.5q-3 -30 -14 -61q-24 -69 -84 -69q-37 0 -53 26t-10 59
l21 137h228zM170 350l14 86q6 35 28.5 59t61.5 24q37 0 52.5 -24.5t10.5 -58.5l-14 -86h-153z" />
    <glyph glyph-name="Ebreve" unicode="&#x114;" horiz-adv-x="362" 
d="M350 820l-2 -12q-6 -40 -56 -40q-30 0 -38 12.5t-4 36.5l1 3h-76l-1 -8q-9 -59 11 -87.5t95 -28.5q128 0 143 91l5 33h-78zM214 622h200l11 70h-275l-110 -692h276l11 70h-201l41 258h201l11 70h-201z" />
    <glyph glyph-name="ebreve" unicode="&#x115;" 
d="M362 718l-2 -12q-6 -40 -57 -40q-29 0 -37 12.5t-4 36.5l1 3h-76l-2 -8q-9 -59 11.5 -87.5t95.5 -28.5q128 0 142 91l6 33h-78zM387 280l25 156q6 36 -3 69t-40.5 57.5t-83.5 24.5q-76 0 -121 -46t-55 -105l-46 -293q-10 -58 21 -106.5t106 -48.5q76 0 121 48t55 107
l16 105h-75l-1 -8q-1 -6 -3.5 -24.5t-3.5 -27.5q-3 -30 -14 -61q-24 -69 -84 -69q-37 0 -53 26t-10 59l21 137h228zM170 350l14 86q6 35 28.5 59t61.5 24q37 0 52.5 -24.5t10.5 -58.5l-14 -86h-153z" />
    <glyph glyph-name="Edotaccent" unicode="&#x116;" horiz-adv-x="362" 
d="M293 701q22 0 37.5 14.5t18.5 30.5t-8 31t-34 15t-38.5 -14.5t-18.5 -31.5q-3 -16 8.5 -30.5t34.5 -14.5zM214 622h200l11 70h-275l-110 -692h276l11 70h-201l41 258h201l11 70h-201z" />
    <glyph glyph-name="edotaccent" unicode="&#x117;" 
d="M293 617q23 0 38 15t18 32q3 15 -8.5 29.5t-33.5 14.5q-23 0 -38.5 -14t-18.5 -30q-3 -17 8 -32t35 -15zM387 280l25 156q6 36 -3 69t-40.5 57.5t-83.5 24.5q-76 0 -121 -46t-55 -105l-46 -293q-10 -58 21 -106.5t106 -48.5q76 0 121 48t55 107l16 105h-75l-1 -8
q-1 -6 -3.5 -24.5t-3.5 -27.5q-3 -30 -14 -61q-24 -69 -84 -69q-37 0 -53 26t-10 59l21 137h228zM170 350l14 86q6 35 28.5 59t61.5 24q37 0 52.5 -24.5t10.5 -58.5l-14 -86h-153z" />
    <glyph glyph-name="Ecaron" unicode="&#x11a;" horiz-adv-x="442" 
d="M258 622h202l11 70h-109l163 123h-113l-72 -52l-59 52h-112l128 -123h-101l-110 -692h276l11 70h-203l41 258h203l11 70h-203z" />
    <glyph glyph-name="ecaron" unicode="&#x11b;" horiz-adv-x="436" 
d="M294 596h39l178 133h-113l-72 -53l-59 53h-112zM413 280l25 156q10 58 -21 104.5t-107 46.5t-120.5 -46t-54.5 -105l-46 -293q-6 -25 -0.5 -52t17.5 -50t40.5 -38t68.5 -15q76 0 121.5 48t55.5 107l16 105h-75l-1 -8q-1 -7 -4.5 -31t-5.5 -37q-8 -47 -18 -64
q-27 -50 -78 -50q-36 0 -52.5 26t-10.5 59l21 137h229zM195 350l14 86q6 35 29 59t61 24t53.5 -24.5t10.5 -58.5l-14 -86h-154z" />
    <glyph glyph-name="Gcircumflex" unicode="&#x11c;" horiz-adv-x="447" 
d="M152 704h112l75 53l56 -53h113l-136 133h-39zM247 366l-11 -67h107l-25 -161q-5 -32 -29.5 -56.5t-61.5 -24.5q-36 0 -53 24.5t-12 56.5l65 413q6 33 29.5 56t61.5 23q37 0 53.5 -23.5t11.5 -55.5l-21 -136h74l21 134q9 58 -21.5 104.5t-106.5 46.5t-120.5 -46
t-54.5 -105l-65 -410q-9 -58 21.5 -104.5t105.5 -46.5q76 0 121.5 46.5t54.5 104.5l36 227h-181z" />
    <glyph glyph-name="gcircumflex" unicode="&#x11d;" horiz-adv-x="430" 
d="M134 596h112l76 53l55 -53h113l-136 133h-39zM53 -1q-3 -58 26.5 -99.5t102.5 -41.5q75 0 120 47.5t55 105.5l67 425q6 36 -3 69t-40.5 57.5t-83.5 24.5q-76 0 -121 -46t-55 -105l-46 -293q-11 -66 24.5 -110.5t102.5 -44.5q39 0 79 20q-6 -33 -29.5 -58t-59.5 -25
q-66 0 -64 74h-75zM349 436l-46 -293q-6 -33 -30 -59t-60 -26q-37 0 -53 26t-10 59l46 293q6 35 28.5 59t61.5 24q37 0 52.5 -24.5t10.5 -58.5z" />
    <glyph glyph-name="Gbreve" unicode="&#x11e;" horiz-adv-x="394" 
d="M409 415h-74l21 136q5 32 -11.5 55.5t-52.5 23.5q-39 0 -62 -22.5t-29 -56.5l-65 -413q-5 -32 11.5 -56.5t53.5 -24.5q36 0 60.5 24.5t29.5 56.5l25 161h-107l11 67h181l-36 -227q-9 -58 -54 -104.5t-121 -46.5q-75 0 -106 46.5t-22 104.5l65 410q8 48 40.5 89t86.5 56
q-46 7 -61 34t-6 80l1 8h76v-3q-4 -24 3.5 -36.5t37.5 -12.5q50 0 56 40l2 12h78l-5 -33q-6 -37 -31.5 -59.5t-61.5 -28.5q53 -13 74 -55t13 -91z" />
    <glyph glyph-name="gbreve" unicode="&#x11f;" horiz-adv-x="378" 
d="M287 594q-75 0 -95.5 28.5t-11.5 87.5l2 8h76l-1 -3q-4 -24 4 -36.5t37 -12.5q51 0 57 40l2 12h78l-6 -33q-14 -91 -142 -91zM42 -1q-3 -58 26.5 -99.5t102.5 -41.5q75 0 120 47.5t55 105.5l67 425q6 36 -3 69t-40.5 57.5t-83.5 24.5q-76 0 -121 -46t-55 -105l-46 -293
q-11 -66 24.5 -110.5t102.5 -44.5q39 0 79 20q-6 -33 -29.5 -58t-59.5 -25q-66 0 -64 74h-75zM338 436l-46 -293q-6 -33 -30 -59t-60 -26q-37 0 -53 26t-10 59l46 293q6 35 28.5 59t61.5 24q37 0 52.5 -24.5t10.5 -58.5z" />
    <glyph glyph-name="Gdotaccent" unicode="&#x120;" horiz-adv-x="394" 
d="M307 701q23 0 37.5 14.5t17.5 30.5t-7.5 31t-33.5 15t-38.5 -14.5t-18.5 -31.5q-3 -16 8.5 -30.5t34.5 -14.5zM220 366l-11 -67h107l-25 -161q-5 -32 -29.5 -56.5t-60.5 -24.5q-37 0 -53.5 24.5t-11.5 56.5l65 413q6 34 29 56.5t62 22.5q36 0 52.5 -23.5t11.5 -55.5
l-21 -136h74l21 134q9 59 -21 105t-106 46t-121.5 -46.5t-54.5 -104.5l-65 -410q-9 -58 22 -104.5t106 -46.5q76 0 121 46.5t54 104.5l36 227h-181z" />
    <glyph glyph-name="gdotaccent" unicode="&#x121;" horiz-adv-x="378" 
d="M291 617q23 0 38 15t18 32q3 15 -8.5 29.5t-33.5 14.5q-23 0 -38.5 -14t-18.5 -30q-3 -17 8 -32t35 -15zM42 -1q-3 -58 26.5 -99.5t102.5 -41.5q75 0 120 47.5t55 105.5l67 425q6 36 -3 69t-40.5 57.5t-83.5 24.5q-76 0 -121 -46t-55 -105l-46 -293q-11 -66 24.5 -110.5
t102.5 -44.5q39 0 79 20q-6 -33 -29.5 -58t-59.5 -25q-66 0 -64 74h-75zM338 436l-46 -293q-6 -33 -30 -59t-60 -26q-37 0 -53 26t-10 59l46 293q6 35 28.5 59t61.5 24q37 0 52.5 -24.5t10.5 -58.5z" />
    <glyph glyph-name="Hcircumflex" unicode="&#x124;" horiz-adv-x="436" 
d="M333 841l-181 -133h112l76 53l55 -53h113l-136 133h-39zM487 692h-75l-47 -294h-166l47 294h-74l-110 -692h74l52 328h166l-52 -328h75z" />
    <glyph glyph-name="hcircumflex" unicode="&#x125;" horiz-adv-x="436" 
d="M333 841l-181 -133h112l76 53l55 -53h113l-136 133h-39zM177 692l-110 -692h74l69 433q5 33 29 58.5t61 25.5t53 -25.5t11 -58.5l-69 -433h75l69 433q9 58 -22 105.5t-106 47.5q-45 0 -80 -17l20 123h-74z" />
    <glyph glyph-name="Hbar" unicode="&#x126;" horiz-adv-x="395" 
d="M204 778l-11 -70h240l11 70h-240zM465 692h-75l-47 -294h-165l47 294h-75l-110 -692h75l52 328h165l-52 -328h75z" />
    <glyph glyph-name="hbar" unicode="&#x127;" 
d="M198 778l-11 -70h240l11 70h-240zM150 692l-110 -692h75l69 433q5 33 29 58.5t61 25.5q36 0 52 -25.5t11 -58.5l-69 -433h75l69 433q9 59 -21.5 106t-105.5 47q-45 0 -80 -17l20 123h-75z" />
    <glyph glyph-name="Itilde" unicode="&#x128;" horiz-adv-x="171" 
d="M238 788h-1l-14 12l-14 13q-41 39 -80 39q-33 0 -56.5 -18t-27.5 -43l-2 -16q-5 -31 12 -45t55 -19l11 -1l11 65l-8 2q-1 0 -3.5 0.5t-4.5 0.5q0 1 -1 1l1 4v3h2q7 0 19 -9q5 -3 28 -24q39 -39 81 -39q36 0 57.5 22t25.5 48q6 29 -9 46q-22 22 -40 22h-32zM258 783l-2 -4
q-2 0 -10 3zM36 0h75l110 692h-75z" />
    <glyph glyph-name="itilde" unicode="&#x129;" horiz-adv-x="157" 
d="M230 684q-2 2 -1 2q-3 2 -7.5 5.5t-7.5 5.5l-14 13q-44 39 -78 39q-33 0 -56.5 -18.5t-27.5 -43.5l-3 -15q-4 -30 12.5 -45t54.5 -20l12 -1l10 66l-7 2q-1 0 -4 0.5t-5 0.5v1l1 3l1 4h1q8 0 19 -10q5 -3 15 -12t13 -12q43 -39 81 -39q35 0 56.5 22t26.5 48q4 30 -9 45
q-15 24 -40 24h-32zM251 679l-2 -3q-1 0 -9 2zM44 0h75l93 587h-75z" />
    <glyph glyph-name="Imacron" unicode="&#x12a;" horiz-adv-x="153" 
d="M75 776l-11 -70h241l11 70h-241zM36 0h76l110 692h-76z" />
    <glyph glyph-name="imacron" unicode="&#x12b;" horiz-adv-x="172" 
d="M58 699l-12 -73h241l12 73h-241zM44 0h75l93 587h-75z" />
    <glyph glyph-name="Idotaccent" unicode="&#x130;" horiz-adv-x="153" 
d="M195 721q23 0 37 14.5t17 30.5q3 15 -6.5 31t-32.5 16q-24 0 -39.5 -15.5t-18.5 -31.5t8.5 -30.5t34.5 -14.5zM40 0h74l110 692h-74z" />
    <glyph glyph-name="dotlessi" unicode="&#x131;" horiz-adv-x="172" 
d="M48 0h75l93 587h-75z" />
    <glyph glyph-name="Nacute" unicode="&#x143;" horiz-adv-x="398" 
d="M447 788l-41 58l-207 -101l36 -56zM152 692l-109 -692h74l72 453l99 -453h68l110 692h-75l-73 -459l-99 459h-67z" />
    <glyph glyph-name="nacute" unicode="&#x144;" 
d="M425 693l-41 59l-207 -103l36 -54zM337 434l-69 -434h75l69 434q6 37 -2.5 69.5t-40 57.5t-84.5 25q-76 0 -121.5 -47t-54.5 -105l-69 -434h75l69 434q5 34 28 58.5t62 24.5q37 0 52.5 -24.5t10.5 -58.5z" />
    <glyph glyph-name="Ncaron" unicode="&#x147;" horiz-adv-x="440" 
d="M172 822l139 -134h39l178 134h-114l-71 -53l-59 53h-112zM173 692l-109 -692h73l72 453l100 -453h68l110 692h-75l-73 -459l-99 459h-67z" />
    <glyph glyph-name="ncaron" unicode="&#x148;" horiz-adv-x="436" 
d="M155 729l139 -133h39l178 133h-113l-72 -53l-59 53h-112zM363 434l-69 -434h75l69 434q9 59 -21 105.5t-107 46.5q-76 0 -121 -46.5t-54 -105.5l-69 -434h74l69 434q5 34 28 58.5t62 24.5q38 0 53.5 -24.5t10.5 -58.5z" />
    <glyph glyph-name="Omacron" unicode="&#x14c;" 
d="M186 703h240l12 71h-240zM127 549l-65 -410q-9 -58 22 -104.5t106 -46.5q76 0 121 46.5t54 104.5l65 410q9 59 -21 105t-106 46t-121.5 -46.5t-54.5 -104.5zM356 551l-65 -413q-5 -31 -30 -56t-60 -25q-37 0 -53.5 24.5t-11.5 56.5l65 413q6 33 29.5 56t61.5 23
q36 0 52.5 -23.5t11.5 -55.5z" />
    <glyph glyph-name="omacron" unicode="&#x14d;" 
d="M171 605h240l11 71h-240zM365 140l47 293q9 59 -21.5 106t-105.5 47t-121 -47.5t-55 -105.5l-47 -293q-9 -58 21.5 -106t106.5 -48q77 0 121.5 47.5t53.5 106.5zM337 433l-47 -293q-5 -33 -29 -58.5t-60 -25.5q-38 0 -53.5 25t-10.5 59l47 293q5 34 28.5 59t61.5 25
q36 0 52 -25.5t11 -58.5z" />
    <glyph glyph-name="Obreve" unicode="&#x14e;" 
d="M333 698q59 -10 82 -53.5t15 -95.5l-65 -410q-9 -58 -54 -104.5t-121 -46.5q-75 0 -106 46.5t-22 104.5l65 410q8 51 44.5 94.5t98.5 54.5q-55 6 -69.5 33.5t-6.5 80.5l1 8h76l-1 -3q-4 -24 4 -36.5t38 -12.5q50 0 56 40l2 12h78l-5 -33q-13 -79 -110 -89zM291 138
l65 413q5 32 -11.5 55.5t-52.5 23.5q-38 0 -61.5 -23t-29.5 -56l-65 -413q-5 -32 11.5 -56.5t53.5 -24.5q35 0 60 25t30 56z" />
    <glyph glyph-name="obreve" unicode="&#x14f;" 
d="M290 594q-75 0 -95.5 28.5t-11.5 87.5l2 8h76l-1 -3q-4 -24 4 -36.5t37 -12.5q51 0 57 40l2 12h78l-6 -33q-14 -91 -142 -91zM365 140l47 293q9 59 -21.5 106t-105.5 47t-121 -47.5t-55 -105.5l-47 -293q-9 -58 21.5 -106t106.5 -48q77 0 121.5 47.5t53.5 106.5zM337 433
l-47 -293q-5 -33 -29 -58.5t-60 -25.5q-38 0 -53.5 25t-10.5 59l47 293q5 34 28.5 59t61.5 25q36 0 52 -25.5t11 -58.5z" />
    <glyph glyph-name="Ohungarumlaut" unicode="&#x150;" horiz-adv-x="396" 
d="M385 846l-52 47l-187 -144l54 -41zM517 846l-52 47l-187 -144l54 -41zM135 549l-65 -410q-9 -58 21.5 -104.5t105.5 -46.5q76 0 121.5 46.5t54.5 104.5l65 410q9 58 -21.5 104.5t-106.5 46.5t-121 -46.5t-54 -104.5zM364 551l-65 -413q-5 -31 -30 -56t-61 -25t-52.5 24.5
t-11.5 56.5l65 413q6 33 29.5 56t60.5 23t53.5 -23.5t11.5 -55.5z" />
    <glyph glyph-name="ohungarumlaut" unicode="&#x151;" horiz-adv-x="396" 
d="M361 738l-52 47l-187 -144l54 -41zM493 738l-52 47l-187 -144l54 -41zM373 140l47 293q9 58 -22 105.5t-106 47.5t-120.5 -47.5t-54.5 -105.5l-47 -293q-9 -58 21 -106t106 -48q77 0 122 47.5t54 106.5zM145 140l47 293q5 33 28.5 58.5t60.5 25.5t53 -25.5t11 -58.5
l-47 -293q-5 -33 -29 -58.5t-61 -25.5t-52.5 25t-10.5 59z" />
    <glyph glyph-name="OE" unicode="&#x152;" horiz-adv-x="585" 
d="M608 398h-201l36 224h200l11 70h-275l-2 -12q-32 20 -74 20q-76 0 -121.5 -46.5t-54.5 -104.5l-65 -410q-9 -58 22 -104.5t106 -46.5q42 0 80 20l-1 -8h276l11 70h-201l41 258h201zM356 551l-65 -413q-5 -31 -30 -56t-60 -25q-37 0 -53.5 24.5t-11.5 56.5l65 413
q6 33 29.5 56t61.5 23q36 0 52.5 -23.5t11.5 -55.5z" />
    <glyph glyph-name="oe" unicode="&#x153;" horiz-adv-x="606" 
d="M610 280l25 156q6 36 -3 69t-40.5 57.5t-83.5 24.5q-72 0 -118 -44q-37 44 -105 44q-76 0 -121 -46t-55 -105l-46 -293q-10 -58 21 -106.5t106 -48.5q64 0 119 46q36 -46 104 -46q76 0 121 48t55 107l16 105h-78l-16 -105q-4 -22 -18.5 -47t-34.5 -32q-17 -5 -34 -5
q-37 0 -50.5 25t-7.5 59l21 137h223zM332 437l-47 -296q-5 -33 -26.5 -57.5t-57.5 -24.5q-37 0 -50.5 24t-8.5 58l47 296q14 81 85 81q37 0 50.5 -23.5t7.5 -57.5zM398 350l14 86q5 33 26.5 57.5t58.5 24.5t50.5 -23.5t7.5 -58.5l-14 -86h-143z" />
    <glyph glyph-name="Racute" unicode="&#x154;" horiz-adv-x="395" 
d="M405 843l-207 -101l32 -50h-80l-110 -692h75l52 328h94q32 0 50 -14.5t14 -37.5l-44 -276h74l44 276q9 55 -29 88q39 33 45 74l21 128q8 55 -30.5 90.5t-109.5 35.5h-49l198 93zM214 622h71q36 0 58.5 -15t18.5 -41l-21 -130q-2 -16 -24 -27t-46 -11h-93z" />
    <glyph glyph-name="racute" unicode="&#x155;" 
d="M425 693l-41 59l-207 -103l36 -54zM109 434l-69 -434h75l69 434q5 34 28 58.5t62 24.5q35 0 51.5 -24t11.5 -55l-5 -33h75l5 33q9 57 -22 102.5t-105 45.5q-76 0 -121.5 -47t-54.5 -105z" />
    <glyph glyph-name="Rcaron" unicode="&#x158;" horiz-adv-x="436" 
d="M302 692h-131l-110 -692h74l52 328h95q32 0 50 -14.5t14 -37.5l-44 -276h74l44 276q9 55 -30 88q40 33 46 74l21 128q7 47 -21.5 80.5t-83.5 42.5l174 130h-113l-73 -53l-58 53h-112zM234 622h71q37 0 59.5 -15t18.5 -41l-21 -130q-2 -16 -24 -27t-46 -11h-94z" />
    <glyph glyph-name="rcaron" unicode="&#x159;" horiz-adv-x="436" 
d="M155 729l139 -133h39l178 133h-113l-72 -53l-59 53h-112zM135 434l-69 -434h74l69 434q5 34 28 58.5t62 24.5q36 0 52.5 -24t11.5 -55l-5 -33h75l5 33q9 57 -22.5 102.5t-105.5 45.5q-76 0 -121 -46.5t-54 -105.5z" />
    <glyph glyph-name="Sacute" unicode="&#x15a;" horiz-adv-x="382" 
d="M438 785l-41 57l-207 -101l37 -55zM158 273h-75l-1 -8q-4 -25 -11.5 -76t-11.5 -77q-9 -53 26 -88.5t105 -35.5q73 0 117 43.5t54 99.5q9 63 -11.5 116t-63.5 117q-58 94 -60 98q-26 55 -18 97q5 30 26.5 49.5t57.5 19.5q34 0 50.5 -13.5t14.5 -40.5q-5 -40 -7 -52
l-13 -85l-3 -22h75l2 15q16 94 21 145q6 54 -26 89.5t-102 35.5q-73 0 -118.5 -42.5t-53.5 -98.5q-11 -71 30 -148q12 -20 41 -62.5t42 -66.5q48 -96 40 -151q-5 -30 -27 -51t-57 -21t-52 13.5t-15 40.5l2 16q4 20 7.5 43t7.5 50t6 43z" />
    <glyph glyph-name="sacute" unicode="&#x15b;" horiz-adv-x="380" 
d="M423 693l-41 59l-207 -103l36 -54zM189 -12q74 0 118.5 44t53.5 101q7 44 -16.5 83.5t-70.5 87.5l-34 38q-15 15 -29 36q-28 38 -23 71q11 69 83 69q33 0 52.5 -15t15.5 -40l-21 -132h74l21 132q9 52 -25.5 88t-102.5 36q-73 0 -118.5 -41.5t-54.5 -96.5q-11 -71 62 -156
q8 -9 28.5 -27t30.5 -29q59 -67 53 -105q-5 -30 -28 -51.5t-58 -21.5q-34 0 -53.5 15t-15.5 39l21 135h-74l-21 -135q-9 -53 27 -89t105 -36z" />
    <glyph glyph-name="Scircumflex" unicode="&#x15c;" horiz-adv-x="435" 
d="M332 832l-181 -133h112l75 53l56 -53h113l-136 133h-39zM184 273h-74l-1 -8q-4 -26 -11.5 -77t-11.5 -76q-9 -53 26 -88.5t104 -35.5q73 0 118 43.5t54 99.5q9 62 -11.5 115.5t-63.5 118.5q-42 61 -61 98q-26 54 -18 96q5 31 26.5 50t57.5 19q35 0 51.5 -13.5t14.5 -40.5
q-5 -40 -7 -52l-13 -85l-3 -22h75l2 15q16 94 21 145q6 54 -26.5 89.5t-102.5 35.5q-74 0 -118.5 -42.5t-52.5 -98.5q-12 -70 30 -149q10 -18 39.5 -60.5t42.5 -67.5q49 -94 41 -151q-5 -31 -27 -51.5t-58 -20.5q-70 0 -67 54l2 16q4 20 7.5 43t7.5 50t6 43z" />
    <glyph glyph-name="scircumflex" unicode="&#x15d;" horiz-adv-x="435" 
d="M314 729l-181 -133h112l76 53l55 -53h113l-136 133h-39zM215 -12q74 0 119 44t54 101q7 44 -16.5 83.5t-70.5 88.5l-36 38q-15 16 -28 36q-28 39 -23 70q11 69 83 69q34 0 53.5 -15t15.5 -40l-21 -132h74l21 132q9 52 -26 88t-103 36q-73 0 -118 -41t-54 -97
q-11 -73 62 -156q7 -8 28 -26.5t30 -29.5q21 -23 39 -54t15 -51q-5 -30 -28 -51.5t-59 -21.5q-33 0 -53 15t-16 39l21 135h-73l-21 -135q-9 -53 27 -89t104 -36z" />
    <glyph glyph-name="Scedilla" unicode="&#x15e;" horiz-adv-x="382" 
d="M145 -39h-52l-12 -76q-5 -32 14.5 -58t62.5 -26q37 0 64 20q37 29 45 76q6 44 -37 95q58 12 90.5 52t40.5 87q9 63 -11.5 116t-63.5 117q-58 94 -60 98q-25 56 -18 97q5 30 26.5 49.5t57.5 19.5q68 0 65 -53q-2 -28 -22 -152l-1 -8h75l23 160q8 52 -26 88.5t-102 36.5
q-73 0 -118.5 -42.5t-53.5 -98.5q-11 -68 30 -148q12 -22 41.5 -64.5t41.5 -64.5q4 -8 11.5 -25t11.5 -25q23 -59 17 -101q-5 -30 -27 -51t-57 -21t-52.5 13.5t-14.5 39.5q1 13 11 70l12 83l1 8h-75l-1 -8q-4 -25 -11.5 -76t-11.5 -77q-7 -43 16.5 -75t74.5 -44zM165 -47
l16 -22q14 -21 13 -34q-2 -10 -10 -21q-5 -10 -12 -10q-14 0 -17 14q0 10 1 16q-1 6 1 15q3 17 8 42z" />
    <glyph glyph-name="scedilla" unicode="&#x15f;" horiz-adv-x="380" 
d="M229 -8q58 12 91 52.5t41 88.5q9 54 -36 115q-18 25 -43 50l-43 45q-22 22 -38 52.5t-13 53.5q5 31 27 50t59 19q34 0 51.5 -14.5t13.5 -40.5l-21 -132h74l21 132q9 52 -25.5 88t-102.5 36q-73 0 -118.5 -41.5t-54.5 -96.5q-12 -72 62 -156q8 -9 28.5 -27t30.5 -29
q20 -22 38 -53.5t15 -51.5q-5 -30 -28 -51.5t-58 -21.5q-34 0 -53.5 15t-15.5 39l21 135h-74l-21 -135q-7 -43 17 -75.5t75 -44.5l-2 -15v-2q3 -5 11 -15h-66l-12 -76q-5 -32 14.5 -58t62.5 -26q37 0 64 20q37 29 45 76q6 44 -37 95zM163 -49l2 -2l21 -27q8 -16 7 -25
q-2 -10 -10 -21q-5 -10 -12 -10q-15 0 -16 14q-3 10 1 30q1 6 3.5 19.5t3.5 21.5z" />
    <glyph glyph-name="Scaron" unicode="&#x160;" horiz-adv-x="435" 
d="M170 822l130 -124q-61 -10 -97 -50t-44 -89q-12 -70 30 -149q10 -18 39.5 -60.5t42.5 -67.5q49 -94 41 -151q-5 -31 -27 -51.5t-58 -20.5q-70 0 -67 54l2 16q4 20 7.5 43t7.5 50t6 43l1 8h-74l-1 -8q-4 -26 -11.5 -77t-11.5 -76q-9 -53 26 -88.5t104 -35.5q73 0 118 43.5
t54 99.5q9 62 -11.5 115.5t-63.5 118.5q-42 61 -61 98q-26 54 -18 96q5 31 26.5 50t57.5 19q35 0 51.5 -13.5t14.5 -40.5q-5 -40 -7 -52l-13 -85l-3 -22h75l2 15q16 94 21 145q6 47 -19 81t-79 42l165 124h-114l-71 -53l-59 53h-112z" />
    <glyph glyph-name="scaron" unicode="&#x161;" horiz-adv-x="435" 
d="M154 729l139 -133h39l178 133h-113l-72 -53l-59 53h-112zM214 -12q74 0 119 44t54 101q7 44 -16.5 83.5t-70.5 88.5l-36 38q-15 16 -28 36q-28 39 -23 70q11 69 83 69q34 0 53.5 -15t15.5 -40l-21 -132h74l21 132q9 52 -26 88t-103 36q-73 0 -118 -41t-54 -97
q-11 -73 62 -156q7 -8 28 -26.5t30 -29.5q21 -23 39 -54t15 -51q-5 -30 -28 -51.5t-59 -21.5q-33 0 -53 15t-16 39l21 135h-73l-21 -135q-9 -53 27 -89t104 -36z" />
    <glyph glyph-name="Tcaron" unicode="&#x164;" horiz-adv-x="436" 
d="M172 831l139 -133h39l178 133h-113l-73 -53l-59 53h-111zM491 622l11 70h-350l-11 -70h139l-99 -622h72l99 622h139z" />
    <glyph glyph-name="tcaron" unicode="&#x165;" horiz-adv-x="474" 
d="M412 587h-140l17 105h-77l-17 -105h-62l-11 -68h62l-60 -380q-9 -56 23.5 -104t105.5 -48q15 0 32 3q4 1 10.5 2t11 2t8.5 1l9 2l13 84l-16 -8q-37 -16 -57 -16q-36 0 -52 25.5t-11 58.5l60 378h146l2 13h55l89 168h-85z" />
    <glyph glyph-name="Tbar" unicode="&#x166;" horiz-adv-x="430" 
d="M219 778l-11 -70h241l11 70h-241zM489 622l11 70h-350l-11 -70h139l-99 -622h72l99 622h139z" />
    <glyph glyph-name="tbar" unicode="&#x167;" horiz-adv-x="335" 
d="M160 723l-12 -70h57l-10 -66h-62l-11 -68h62l-60 -380q-9 -56 23.5 -104t105.5 -48q15 0 32 3q4 1 10.5 2t11 2t8.5 1l9 2l13 84l-16 -8q-37 -16 -57 -16q-36 0 -52 25.5t-11 58.5l60 378h146l11 68h-146l10 66h107l12 70h-241z" />
    <glyph glyph-name="Utilde" unicode="&#x168;" 
d="M246 762q1 2 1 5q8 -1 18 -8q6 -4 14 -10q8 -8 14 -12q39 -35 75 -35q35 0 57 23t27 49q3 20 -9 43.5t-40 23.5h-37l-5 -63l-25 22q-39 35 -82 35q-26 0 -53 -22q-1 0 -3 -1l-6 -3q-10 -7 -11 -8l-1 -2l-6 -35q-4 -20 8 -41q10 -27 39 -27h32l9 56l-2 3q-5 3 -14 7z
M363 776l6 -1h11v-1l-1 -2l-1 -1v-2q-7 2 -15 7zM365 139l88 553h-74l-88 -554q-5 -31 -30 -56t-60 -25q-37 0 -53.5 24.5t-11.5 56.5l88 554h-74l-88 -553q-9 -58 22 -104.5t106 -46.5q76 0 121 46.5t54 104.5z" />
    <glyph glyph-name="utilde" unicode="&#x169;" 
d="M229 659q1 2 1 5q1 0 1 1q8 -1 18 -8l13 -10q7 -6 13 -13q40 -34 77 -34q36 0 57.5 22.5t25.5 48.5q3 21 -8.5 44.5t-39.5 23.5h-37l-5 -63q-2 1 -25 22q-41 35 -82 35q-15 0 -41 -13q-15 -8 -32 -23l-2 -2l-5 -33q-4 -21 7 -41q12 -27 40 -27h32l9 55l-3 3l-5 3l-5 3
q-3 0 -4 1zM349 673h3q6 -2 11 -2v-2q0 -1 -0.5 -1t-0.5 -1l-4 1q-3 1 -9 5zM436 587h-75l-71 -445q-5 -33 -29 -58.5t-60 -25.5q-38 0 -53.5 25t-10.5 59l71 445h-75l-71 -445q-6 -36 3 -69.5t41 -59t84 -25.5q77 0 121.5 47.5t53.5 106.5z" />
    <glyph glyph-name="Umacron" unicode="&#x16a;" 
d="M184 768l-12 -71h241l12 71h-241zM365 139l88 553h-74l-88 -554q-5 -31 -30 -56t-60 -25q-37 0 -53.5 24.5t-11.5 56.5l88 554h-74l-88 -553q-9 -58 22 -104.5t106 -46.5q76 0 121 46.5t54 104.5z" />
    <glyph glyph-name="umacron" unicode="&#x16b;" 
d="M182 676l-11 -71h240l11 71h-240zM436 587h-75l-71 -445q-5 -33 -29 -58.5t-60 -25.5q-38 0 -53.5 25t-10.5 59l71 445h-75l-71 -445q-6 -36 3 -69.5t41 -59t84 -25.5q77 0 121.5 47.5t53.5 106.5z" />
    <glyph glyph-name="Ubreve" unicode="&#x16c;" 
d="M373 820l-2 -12q-6 -40 -56 -40q-30 0 -38 12.5t-4 36.5l1 3h-76l-1 -8q-9 -59 11 -87.5t95 -28.5q128 0 143 91l5 33h-78zM365 139l88 553h-74l-88 -554q-5 -31 -30 -56t-60 -25q-37 0 -53.5 24.5t-11.5 56.5l88 554h-74l-88 -553q-9 -58 22 -104.5t106 -46.5
q76 0 121 46.5t54 104.5z" />
    <glyph glyph-name="ubreve" unicode="&#x16d;" 
d="M260 718h-73l-2 -8q-9 -60 11 -88t96 -28q127 0 141 91l6 33h-78l-2 -8q-1 -11 -5 -27q-2 -10 -5 -13q-8 -6 -46 -6t-45 7q-3 3 -3 13q0 4 1.5 12.5t1.5 13.5zM436 587h-75l-71 -445q-5 -33 -29 -58.5t-60 -25.5q-38 0 -53.5 25t-10.5 59l71 445h-75l-71 -445
q-6 -36 3 -69.5t41 -59t84 -25.5q77 0 121.5 47.5t53.5 106.5z" />
    <glyph glyph-name="Uring" unicode="&#x16e;" 
d="M314 709q-36 0 -51 23t-11 49q4 27 26 49.5t59 22.5t51 -22.5t10 -49.5q-5 -27 -26 -49.5t-58 -22.5zM322 763q18 0 21 18t-15 18t-21 -18q-1 -6 3 -12t12 -6zM453 692h-74l-88 -554q-5 -31 -30 -56t-60 -25q-37 0 -53.5 24.5t-11.5 56.5l88 554h-74l-88 -553
q-9 -58 22 -104.5t106 -46.5q76 0 121 46.5t54 104.5z" />
    <glyph glyph-name="uring" unicode="&#x16f;" 
d="M297 609q-36 0 -51 23t-11 49q5 27 26.5 49.5t58.5 22.5t51 -22.5t10 -49.5q-5 -27 -26 -49.5t-58 -22.5zM305 663q18 0 21 18t-15 18t-21 -18q-1 -6 3 -12t12 -6zM436 587h-75l-71 -445q-5 -33 -29 -58.5t-60 -25.5q-38 0 -53.5 25t-10.5 59l71 445h-75l-71 -445
q-6 -36 3 -69.5t41 -59t84 -25.5q77 0 121.5 47.5t53.5 106.5z" />
    <glyph glyph-name="Uhungarumlaut" unicode="&#x170;" horiz-adv-x="396" 
d="M385 846l-52 47l-187 -144l54 -41zM517 846l-52 47l-187 -144l54 -41zM373 139l88 553h-74l-88 -554q-5 -31 -30 -56t-61 -25t-52.5 24.5t-11.5 56.5l88 554h-74l-88 -553q-9 -58 21.5 -104.5t105.5 -46.5q76 0 121.5 46.5t54.5 104.5z" />
    <glyph glyph-name="uhungarumlaut" unicode="&#x171;" horiz-adv-x="396" 
d="M361 738l-52 47l-187 -144l54 -41zM493 738l-52 47l-187 -144l54 -41zM444 587h-75l-71 -445q-5 -33 -29 -58.5t-61 -25.5t-52.5 25t-10.5 59l71 445h-75l-71 -445q-6 -36 3 -69.5t40.5 -59t83.5 -25.5q77 0 122 47.5t54 106.5z" />
    <glyph glyph-name="Uogonek" unicode="&#x172;" 
d="M205 -27q9 11 12 17q66 11 102.5 53.5t45.5 95.5l88 553h-74l-88 -554q-5 -32 -29.5 -56.5t-60.5 -24.5t-53 25t-12 56l88 554h-74l-88 -553q-7 -44 9 -84t61 -57q-49 -44 -56 -91q-5 -34 11.5 -65t60.5 -31q46 0 74 26.5t33 61.5l11 72h-64l1.5 1.5t1.5 0.5zM194 -36
l-8 -52l-2 -14q-4 -11 -5 -12q-5 -8 -19 -8q-8 0 -12 10t-2 21q3 18 36 44z" />
    <glyph glyph-name="Uogonek" unicode="&#x173;" 
d="M205 -27q9 11 12 17q66 11 102.5 53.5t45.5 95.5l88 553h-74l-88 -554q-5 -32 -29.5 -56.5t-60.5 -24.5t-53 25t-12 56l88 554h-74l-88 -553q-7 -44 9 -84t61 -57q-49 -44 -56 -91q-5 -34 11.5 -65t60.5 -31q46 0 74 26.5t33 61.5l11 72h-64l1.5 1.5t1.5 0.5zM194 -36
l-8 -52l-2 -14q-4 -11 -5 -12q-5 -8 -19 -8q-8 0 -12 10t-2 21q3 18 36 44z" />
    <glyph glyph-name="Wcircumflex" unicode="&#x174;" horiz-adv-x="487" 
d="M359 834l-184 -133h114l73 53l59 -53h111l-137 133h-36zM557 692h-80l-85 -377l-4 377h-69l-124 -377l35 377h-80l-57 -692h77l142 444l5 -444h78z" />
    <glyph glyph-name="wcircumflex" unicode="&#x175;" horiz-adv-x="487" 
d="M342 729l-184 -133h114l74 53l58 -53h111l-137 133h-36zM133 587l-40 -587h77l131 377l17 -377h78l144 587h-78l-78 -321l-14 321h-68l-113 -318l23 318h-79z" />
    <glyph glyph-name="Ycircumflex" unicode="&#x176;" horiz-adv-x="449" 
d="M340 834l-180 -133h111l76 53l56 -53h112l-136 133h-39zM200 0h72l37 233q2 12 3 30.5t2 25.5q2 26 11 54l194 349h-79l-136 -250l-72 250h-82l69 -239q4 -12 12 -32.5t9 -22.5q12 -34 13 -56q1 -16 -4 -54q-10 -37 -13 -57z" />
    <glyph glyph-name="ycircumflex" unicode="&#x177;" horiz-adv-x="432" 
d="M315 729l-181 -133h112l76 53l55 -53h113l-136 133h-39zM388 587h75l-91 -576q-10 -58 -55 -105.5t-120 -47.5q-73 0 -102.5 41.5t-26.5 99.5h75q-2 -74 64 -74q36 0 59.5 25t29.5 58q-40 -20 -79 -20q-67 0 -102.5 44.5t-24.5 110.5l70 444h75l-70 -444q-6 -33 10 -59
t53 -26q36 0 60 26t30 59z" />
    <glyph glyph-name="Ydieresis" unicode="&#x178;" horiz-adv-x="449" 
d="M384 701q23 0 38 14.5t18 30.5q3 17 -8 31.5t-34 14.5q-38 0 -51 -36q-1 15 -11.5 26t-30.5 11q-23 0 -39 -15t-19 -31t8.5 -30.5t34.5 -14.5q36 0 54 35q0 -14 10 -25t30 -11zM200 0h72l37 233q2 12 3 30.5t2 25.5q2 26 11 54l194 349h-79l-136 -250l-72 250h-82
l69 -239q4 -12 12 -32.5t9 -22.5q12 -34 13 -56q1 -16 -4 -54q-10 -37 -13 -57z" />
    <glyph glyph-name="Zacute" unicode="&#x179;" horiz-adv-x="419" 
d="M374 624l-334 -624h328l11 68h-223l333 624h-237l207 97l-41 58l-207 -101l35 -54h-83l-11 -68h222z" />
    <glyph glyph-name="zacute" unicode="&#x17a;" horiz-adv-x="424" 
d="M447 693l-41 59l-208 -103l37 -54zM408 69h-242l341 518h-357l-11 -68h243l-342 -519h357z" />
    <glyph glyph-name="Zdotaccent" unicode="&#x17b;" horiz-adv-x="419" 
d="M324 701q22 0 37 14.5t18 30.5t-7.5 31t-33.5 15t-38 -14.5t-18 -31.5q-3 -16 8.5 -30.5t33.5 -14.5zM374 624l-334 -624h328l11 68h-223l333 624h-326l-11 -68h222z" />
    <glyph glyph-name="zdotaccent" unicode="&#x17c;" horiz-adv-x="424" 
d="M314 617q24 0 38 15t17 32q3 16 -7.5 30t-33.5 14q-22 0 -37.5 -14t-18.5 -30q-3 -17 8 -32t34 -15zM408 69h-242l341 518h-357l-11 -68h243l-342 -519h357z" />
    <glyph glyph-name="Zcaron" unicode="&#x17d;" horiz-adv-x="436" 
d="M381 624l-334 -624h328l11 68h-223l333 624h-140l170 127h-113l-73 -53l-59 53h-111l132 -127h-132l-11 -68h222z" />
    <glyph glyph-name="zcaron" unicode="&#x17e;" horiz-adv-x="428" 
d="M155 729l139 -133h39l178 133h-113l-72 -53l-60 53h-111zM412 69h-242l341 518h-357l-11 -68h243l-342 -519h357z" />
    <glyph glyph-name="circumflex" unicode="&#x2c6;" horiz-adv-x="436" 
d="M315 729l-181 -133h112l76 53l55 -53h113l-136 133h-39z" />
    <glyph glyph-name="caron" unicode="&#x2c7;" horiz-adv-x="406" 
d="M135 729l139 -133h39l178 133h-113l-72 -53l-59 53h-112z" />
    <glyph glyph-name="breve" unicode="&#x2d8;" horiz-adv-x="303" 
d="M314 718l-2 -12q-6 -40 -57 -40q-29 0 -37 12.5t-4 36.5l1 3h-76l-2 -8q-9 -59 11.5 -87.5t95.5 -28.5q128 0 142 91l6 33h-78z" />
    <glyph glyph-name="dotaccent" unicode="&#x2d9;" horiz-adv-x="177" 
d="M188 617q22 0 36.5 15.5t17.5 31.5t-7 30t-33 14t-38.5 -14t-18.5 -30q-3 -17 8 -32t35 -15z" />
    <glyph glyph-name="ring" unicode="&#x2da;" horiz-adv-x="226" 
d="M195 609q-36 0 -51 23t-11 49q5 27 26.5 49.5t58.5 22.5t51 -22.5t10 -49.5q-5 -27 -26 -49.5t-58 -22.5zM203 663q18 0 21 18t-15 18t-21 -18q-1 -6 3 -12t12 -6z" />
    <glyph glyph-name="tilde" unicode="&#x2dc;" horiz-adv-x="301" 
d="M189 659l1 6q8 -1 18 -8l13 -10q7 -6 13 -13q40 -34 77 -34q36 0 57.5 22.5t25.5 48.5q6 41 -28 61l-4 3q-2 2 -7 3q-2 1 -7 1h-38l-6 -63q-8 6 -24 22q-46 35 -81 35q-36 0 -75 -36l-2 -3l-5 -32q-7 -36 22 -56q4 -2 5 -3q1 -2 6 -4q5 -5 16 -5h31l9 55l-3 3q-2 2 -5 3
l-6 3zM309 673l2 -1q1 0 4 -0.5t5 -0.5q0 -1 2 -1v-1q0 -1 -0.5 -1t-0.5 -1l-1 1h-3q-5 2 -8 5z" />
    <glyph glyph-name="hungarumlaut" unicode="&#x2dd;" horiz-adv-x="384" 
d="M358 738l-52 47l-187 -144l54 -41zM490 738l-52 47l-187 -144l54 -41z" />
    <glyph glyph-name="uni0327" unicode="&#x327;" horiz-adv-x="0" 
d="M-230 -39h-63l-10 -64q-6 -37 9 -66.5t64 -29.5q47 0 77 30.5t35 65.5q4 27 -11 56q-4 9 -17 24q-10 14 -16 20q1 3 3 14t3 17l5 28h-66l-2 -7q-12 -31 -16 -61q-3 -16 5 -27zM-221 -53l7 -9q23 -26 21 -41q-2 -10 -10 -21q-6 -10 -13 -10q-13 0 -14 14v16q0 7 2 15
q1 4 3.5 16.5t3.5 19.5z" />
    <glyph glyph-name="uni03A9" unicode="&#x3a9;" horiz-adv-x="675" 
d="M439 41h12l-2 -17l189 -2l12 75l-98 1l69 138q3 6 15.5 30.5t20.5 40.5q27 55 29 72q4 39 2.5 78t-18.5 75.5t-43.5 64.5t-72 45t-104.5 17q-74 0 -134.5 -25.5t-99 -67.5t-61.5 -90.5t-31 -99.5l-1 -2q0 -4 -1 -5l39 -271h-105l-13 -76l202 2l7 46l1 3v4l-44 310
q0 6 11 33q12 29 17 37q70 123 201 123q129 0 158 -125q8 -38 4 -72q-2 -2 -2 -3l-3 -7l-6 -12l-25 -56q-91 -197 -115 -245z" />
    <glyph glyph-name="uni03A9" unicode="&#x3c9;" horiz-adv-x="675" 
d="M439 41h12l-2 -17l189 -2l12 75l-98 1l69 138q3 6 15.5 30.5t20.5 40.5q27 55 29 72q4 39 2.5 78t-18.5 75.5t-43.5 64.5t-72 45t-104.5 17q-74 0 -134.5 -25.5t-99 -67.5t-61.5 -90.5t-31 -99.5l-1 -2q0 -4 -1 -5l39 -271h-105l-13 -76l202 2l7 46l1 3v4l-44 310
q0 6 11 33q12 29 17 37q70 123 201 123q129 0 158 -125q8 -38 4 -72q-2 -2 -2 -3l-3 -7l-6 -12l-25 -56q-91 -197 -115 -245z" />
    <glyph glyph-name="uni03BC" unicode="&#x3bc;" horiz-adv-x="391" 
d="M-24 -401h77l90 538q36 -18 77 -18q37 0 73 17l-22 -136h80l112 706h-80l-67 -422q-6 -36 -26 -63q-23 -33 -59 -33q-39 0 -54 25.5t-10 60.5l69 432h-76l-7 -46z" />
    <glyph glyph-name="pi" unicode="&#x3c0;" horiz-adv-x="368" 
d="M82 266h45l-41 -260h73l41 260h51l-41 -260h74l41 260h45l12 74h-288z" />
    <glyph glyph-name="Wgrave" unicode="&#x1e80;" horiz-adv-x="487" 
d="M413 684l56 56l-173 100l-69 -57zM557 692h-80l-85 -377l-4 377h-69l-124 -377l35 377h-80l-57 -692h77l142 444l5 -444h78z" />
    <glyph glyph-name="wgrave" unicode="&#x1e81;" horiz-adv-x="487" 
d="M417 588l57 54l-173 103l-69 -59zM133 587l-40 -587h77l131 377l17 -377h78l144 587h-78l-78 -321l-14 321h-68l-113 -318l23 318h-79z" />
    <glyph glyph-name="Wacute" unicode="&#x1e82;" horiz-adv-x="487" 
d="M557 692h-80l-85 -377l-4 377h-35l132 62l-41 59l-211 -103l41 -55l39 18l-118 -358l35 377h-80l-57 -692h77l142 444l5 -444h78z" />
    <glyph glyph-name="wacute" unicode="&#x1e83;" horiz-adv-x="487" 
d="M479 693l-42 59l-210 -103l40 -54zM133 587l-40 -587h77l131 377l17 -377h78l144 587h-78l-78 -321l-14 321h-68l-113 -318l23 318h-79z" />
    <glyph glyph-name="Wdieresis" unicode="&#x1e84;" horiz-adv-x="487" 
d="M402 701q22 0 37.5 14.5t18.5 30.5t-8 31t-34 15q-34 0 -53 -32q-2 13 -12 23t-28 10q-23 0 -39 -15t-19 -31t8.5 -30.5t34.5 -14.5q34 0 51 32q6 -33 43 -33zM557 692h-80l-85 -377l-4 377h-69l-124 -377l35 377h-80l-57 -692h77l142 444l5 -444h78z" />
    <glyph glyph-name="wdieresis" unicode="&#x1e85;" horiz-adv-x="487" 
d="M390 617q23 0 38 15t18 32q3 15 -8.5 29.5t-33.5 14.5q-35 0 -53 -32q-2 13 -12.5 23t-28.5 10q-23 0 -38.5 -14t-18.5 -30q-3 -17 8 -32t35 -15q37 0 51 33q2 -14 13 -24t30 -10zM133 587l-40 -587h77l131 377l17 -377h78l144 587h-78l-78 -321l-14 321h-68l-113 -318
l23 318h-79z" />
    <glyph glyph-name="Ygrave" unicode="&#x1ef2;" horiz-adv-x="449" 
d="M400 668l56 55l-173 102l-67 -58zM200 0h72l37 233q2 12 3 30.5t2 25.5q2 26 11 54l194 349h-79l-136 -250l-72 250h-82l69 -239q4 -12 12 -32.5t9 -22.5q12 -34 13 -56q1 -16 -4 -54q-10 -37 -13 -57z" />
    <glyph glyph-name="ygrave" unicode="&#x1ef3;" horiz-adv-x="384" 
d="M344 590l57 54l-172 103l-67 -59zM363 587h75l-91 -576q-10 -58 -55 -105.5t-120 -47.5q-73 0 -102.5 41.5t-26.5 99.5h75q-2 -74 64 -74q36 0 59.5 25t29.5 58q-40 -20 -79 -20q-67 0 -102.5 44.5t-24.5 110.5l70 444h75l-70 -444q-6 -33 10 -59t53 -26q36 0 60 26
t30 59z" />
    <glyph glyph-name="endash" unicode="&#x2013;" horiz-adv-x="449" 
d="M107 426l-11 -70h369l11 70h-369z" />
    <glyph glyph-name="emdash" unicode="&#x2014;" horiz-adv-x="564" 
d="M107 426l-11 -70h484l11 70h-484z" />
    <glyph glyph-name="quoteleft" unicode="&#x2018;" horiz-adv-x="220" 
d="M209 700l-85 -168h81l86 168h-82z" />
    <glyph glyph-name="quoteright" unicode="&#x2019;" horiz-adv-x="220" 
d="M209 700l-85 -168h81l86 168h-82z" />
    <glyph glyph-name="quotesinglbase" unicode="&#x201a;" horiz-adv-x="220" 
d="M104 41l-84 -168h81l85 168h-82z" />
    <glyph glyph-name="quotedblleft" unicode="&#x201c;" horiz-adv-x="267" 
d="M204 697l-78 -155h61l78 155h-61zM274 697l-78 -155h61l80 155h-63z" />
    <glyph glyph-name="quotedblright" unicode="&#x201d;" horiz-adv-x="267" 
d="M204 697l-78 -155h61l78 155h-61zM274 697l-78 -155h61l80 155h-63z" />
    <glyph glyph-name="quotedblbase" unicode="&#x201e;" horiz-adv-x="267" 
d="M98 26l-78 -155h61l78 155h-61zM168 26l-78 -155h61l80 155h-63z" />
    <glyph glyph-name="dagger" unicode="&#x2020;" horiz-adv-x="347" 
d="M361 340l11 70h-95l44 278h-77l-44 -278h-95l-11 -70h95l-70 -438h77l70 438h95z" />
    <glyph glyph-name="daggerdbl" unicode="&#x2021;" horiz-adv-x="282" 
d="M230 315h126l11 69h-126l48 304h-76l-48 -304h-129l-11 -69h129l-8 -52h-129l-11 -69h129l-47 -292h76l47 292h126l11 69h-126z" />
    <glyph glyph-name="bullet" unicode="&#x2022;" horiz-adv-x="177" 
d="M94 344l-11 -72q-3 -18 8.5 -28.5t35.5 -10.5q46 0 53 39l11 72q3 17 -7.5 28t-32.5 11q-23 0 -38.5 -11t-18.5 -28z" />
    <glyph glyph-name="ellipsis" unicode="&#x2026;" horiz-adv-x="545" 
d="M456 -12q22 0 37 16t17 30q3 16 -6.5 31t-32.5 15t-38.5 -14.5t-18.5 -31.5q-2 -16 8.5 -31t33.5 -15zM88 -13q22 0 37 15.5t17 30.5q3 16 -7 31t-32 15q-23 0 -39 -15t-19 -31t8.5 -31t34.5 -15zM270 -13q23 0 38 15t18 31q3 17 -7.5 31.5t-33.5 14.5q-24 0 -39 -15
t-18 -31q-2 -16 8 -31t34 -15z" />
    <glyph glyph-name="perthousand" unicode="&#x2030;" horiz-adv-x="1067" 
d="M145 637l-33 -210q-7 -37 18 -66.5t75 -29.5q53 0 86.5 28t39.5 68l33 210q6 40 -18 68t-77 28q-52 0 -84.5 -28t-39.5 -68zM676 658l-58 42l-570 -648l59 -39zM288 637l-33 -210q-4 -25 -38 -25q-15 0 -21.5 6t-4.5 19l33 210q4 27 34 27q34 0 30 -27zM852 278l-33 -210
q-6 -37 19 -66.5t75 -29.5q52 0 85.5 28t39.5 68l33 210q6 40 -18 68t-77 28q-52 0 -84.5 -28t-39.5 -68zM371 274l-33 -210q-6 -38 19 -67t75 -29q52 0 85.5 28t39.5 68l33 210q6 41 -17.5 68.5t-76.5 27.5q-52 0 -85.5 -28t-39.5 -68zM612 274l-33 -210q-6 -38 19 -67
t75 -29q52 0 85.5 28t39.5 68l33 210q6 41 -17.5 68.5t-76.5 27.5q-52 0 -85.5 -28t-39.5 -68zM995 278l-33 -210q-4 -25 -38 -25q-15 0 -21.5 6t-4.5 19l33 210q4 27 34 27q35 0 30 -27zM514 274l-33 -210q-4 -25 -38 -25q-15 0 -21.5 6t-4.5 19l33 210q4 27 35 27
q17 0 24 -6.5t5 -20.5zM755 274l-33 -210q-4 -25 -38 -25q-15 0 -21.5 6t-4.5 19l33 210q4 27 35 27q17 0 24 -6.5t5 -20.5z" />
    <glyph glyph-name="guilsinglleft" unicode="&#x2039;" horiz-adv-x="361" 
d="M98 369l149 -157h107l-147 157l197 154h-108z" />
    <glyph glyph-name="guilsinglright" unicode="&#x203a;" horiz-adv-x="344" 
d="M257 369l-183 -157h104l184 157l-135 154h-104z" />
    <glyph glyph-name="fraction" unicode="&#x2044;" horiz-adv-x="367" 
d="M-21 -9l71 -22l448 732l-74 14z" />
    <glyph glyph-name="Euro" unicode="&#x20ac;" horiz-adv-x="442" 
d="M81 260h52l-19 -121q-9 -59 20.5 -105t105.5 -46t121.5 46t55.5 105l12 78h-78l-12 -78q-5 -34 -27 -57t-61 -23q-37 0 -51.5 23t-9.5 56l19 122h234l11 69h-234l7 46h234l11 69h-234l17 105q5 33 27 56t59 23q39 0 54 -21.5t9 -55.5l-13 -83h78l13 81q10 59 -21 105
t-108 46q-76 0 -120.5 -46.5t-53.5 -104.5l-17 -105h-52l-11 -69h52l-7 -46h-52z" />
    <glyph glyph-name="trademark" unicode="&#x2122;" horiz-adv-x="392" 
d="M40 693v-52h56v-247h52v247h22v-247h56v47l10 -47h47l15 60v-60h54v299h-51l-41 -163l-37 163h-183z" />
    <glyph glyph-name="summation" unicode="&#x2211;" horiz-adv-x="528" 
d="M569 509h-287q-79 0 -127 -42.5t-58 -103.5q-11 -67 34 -109q-57 -39 -68 -108q-9 -60 25 -103t113 -43h287l11 71h-286q-41 0 -60 20.5t-14 53.5q5 31 31 52t65 21l288 1l11 71h-288q-40 0 -58.5 21t-13.5 53q5 33 31 54t67 21h286z" />
    <glyph glyph-name="minus" unicode="&#x2212;" horiz-adv-x="565" 
d="M91 324l-11 -70h485l11 70h-485z" />
    <glyph glyph-name="radical" unicode="&#x221a;" horiz-adv-x="953" 
d="M115 17l403 656l501 -2l-4 71l-539 3l-325 -531l8 50h-77l-40 -254h39q18 2 30 6z" />
    <glyph glyph-name="infinity" unicode="&#x221e;" horiz-adv-x="670" 
d="M369 509h-167q-45 0 -73 -41q-18 -26 -25 -65q-6 -37 5 -62q15 -41 60 -41h167q25 0 50 16q18 -16 43 -16h166q45 0 74 40q18 26 25 63q6 38 -4 65q-15 41 -62 41h-166q-26 0 -48 -15q-16 15 -45 15zM182 371l-1 1h-1q-2 4 -2 10q-4 16 -2 21q0 7 7 23q1 2 3 5t3 5l2 1
h166q6 0 7 -11q2 -14 0 -23q-3 -14 -8 -21q-2 -4 -7 -9l-2 -2h-165zM450 437h166q6 0 7 -11q2 -14 0 -23q-3 -14 -8 -21q-2 -4 -7 -9l-2 -2h-166l-1 1q-2 4 -4 10q-3 13 -1 21q0 7 7 23q2 4 7 9z" />
    <glyph glyph-name="integral" unicode="&#x222b;" horiz-adv-x="440" 
d="M491 804q-14 3 -30 3q-73 0 -120 -47.5t-56 -104.5l-81 -509q-13 -83 -92 -83q-13 0 -22 4q-8 2 -24 8l-13 4l-13 -78l8 -2q4 0 29 -5q17 -3 31 -3q72 0 119 48.5t56 103.5l80 509q13 83 93 83q19 0 43 -12l14 -7l13 81l-7 2q-7 1 -28 5z" />
    <glyph glyph-name="approxequal" unicode="&#x2248;" horiz-adv-x="365" 
d="M169 304q6 0 18 -9q1 -1 5.5 -4t6.5 -5t7 -6.5t7 -6.5q41 -37 77 -37q35 0 57 23t27 49q4 33 -11 49q23 23 26 50q8 39 -24 60q-10 8 -25 8h-32l-10 -64q-1 0 -1 1q-1 1 -5.5 4.5t-6.5 5.5q-1 1 -5 6t-7 7q-36 36 -78 36q-29 0 -71 -30l-4 -3l-2 -2l-6 -38q-4 -31 11 -48
q-3 -2 -9.5 -6.5t-9.5 -7.5l-2 -2l-6 -36q-6 -39 30 -61q0 -1 1 -1l2 -1l5 -2q8 -2 12 -2h31l1 7q3 24 3 29q0 21 -12 26v4l-1 3v2zM308 405h1l3 1h4h2v-1l-1 -2q-3 0 -9 2zM184 401v1l1 2q2 0 8 -2zM203 397q8 -6 12 -10l12 -12q35 -31 62 -37q2 -20 14 -28l-1 -4v-3h-1
q-6 0 -17 8q-6 4 -11 9q-7 6 -12 12q-37 30 -63 35z" />
    <glyph glyph-name="notequal" unicode="&#x2260;" horiz-adv-x="423" 
d="M390 384l66 76l-56 44l-104 -120h-195l-11 -69h151l-46 -52h-113l-11 -69h65l-67 -79l57 -40l103 119h173l11 69h-126l43 52h91l11 69h-42z" />
    <glyph glyph-name="lessequal" unicode="&#x2264;" horiz-adv-x="565" 
d="M216 641l306 -192l13 84l-200 129l241 126l13 86l-367 -192zM91 324l-11 -70h485l11 70h-485z" />
    <glyph glyph-name="greaterequal" unicode="&#x2265;" horiz-adv-x="565" 
d="M197 533l-13 -84l370 192l6 41l-309 191l-13 -85l205 -126zM91 324l-11 -70h485l11 70h-485z" />
    <glyph glyph-name="P.alt" horiz-adv-x="395" 
d="M150 692l-110 -692h75l41 256h94q70 0 113.5 37t52.5 90l28 182q9 53 -23.5 90t-101.5 37h-169zM370 565l-28 -182q-5 -26 -27 -42t-55 -16h-94l47 296h94q33 0 50 -15.5t13 -40.5z" />
    <glyph glyph-name="V.alt" horiz-adv-x="423" 
d="M150 692l26 -692h72l245 692h-81l-165 -473l-15 473h-82z" />
    <glyph glyph-name="a.alt" 
d="M343 0l69 434q6 37 -2.5 69.5t-40 57.5t-84.5 25q-75 0 -121 -47.5t-55 -105.5l-47 -293q-9 -58 21.5 -106t106.5 -48q41 0 79 19l-1 -5h75zM337 433l-47 -293q-5 -33 -29 -58.5t-60 -25.5q-38 0 -53.5 25t-10.5 59l47 293q5 34 28.5 59t61.5 25q36 0 52 -25.5t11 -58.5z
" />
    <glyph glyph-name="b.alt" 
d="M116 5q33 -19 74 -19q77 0 121.5 47.5t53.5 106.5l47 293q9 59 -21.5 106t-105.5 47q-45 0 -80 -17l20 123h-75l-110 -692h75zM337 433l-47 -293q-5 -33 -29 -58.5t-60 -25.5q-37 0 -53 25.5t-11 58.5l47 293q5 33 29 58.5t61 25.5t52.5 -25t10.5 -59z" />
    <glyph glyph-name="d.alt" 
d="M378 692l-20 -123q-30 17 -73 17q-75 0 -121 -47.5t-55 -105.5l-47 -293q-9 -58 21.5 -106t106.5 -48q41 0 79 19l-1 -5h75l110 692h-75zM137 140l47 293q5 34 28.5 59t61.5 25q36 0 52 -25.5t11 -58.5l-47 -293q-5 -33 -29 -58.5t-60 -25.5q-38 0 -53.5 25t-10.5 59z
" />
    <glyph glyph-name="g.alt" horiz-adv-x="384" 
d="M362 587h75l-91 -576q-10 -58 -55 -105.5t-120 -47.5q-73 0 -102.5 41.5t-26.5 99.5h75q-2 -74 64 -74q36 0 59.5 25t29.5 58q-40 -20 -79 -20q-67 0 -102.5 44.5t-24.5 110.5l46 293q10 59 55 105t121 46q43 0 73 -17zM202 58q36 0 60 26t30 59l46 293q5 34 -10.5 58.5
t-52.5 24.5q-39 0 -61.5 -24t-28.5 -59l-46 -293q-6 -33 10 -59t53 -26z" />
    <glyph glyph-name="m.alt" horiz-adv-x="611" 
d="M571 0l69 434q9 59 -21 105.5t-106 46.5q-72 0 -121 -46q-35 46 -107 46q-45 0 -80 -17l3 18h-75l-93 -587h75l69 434q5 34 28 58.5t62 24.5q37 0 52.5 -24.5t10.5 -58.5l-69 -434h75l69 434q5 34 28 58.5t62 24.5q38 0 53 -24.5t10 -58.5l-69 -434h75z" />
    <glyph glyph-name="n.alt" 
d="M343 0l69 434q6 37 -2.5 69.5t-40 57.5t-84.5 25q-45 0 -80 -17l3 18h-75l-93 -587h75l69 434q5 34 28 58.5t62 24.5q37 0 52.5 -24.5t10.5 -58.5l-69 -434h75z" />
    <glyph glyph-name="p.alt" 
d="M100 -129l21 137q27 -18 68 -18q77 0 122 47.5t55 106.5l46 292q6 36 -3 69.5t-41 58.5t-84 25q-42 0 -73 -16l1 7h-80l-112 -709h80zM335 435l-46 -290q-5 -34 -28 -59t-60 -25q-38 0 -51 33q-11 27 -5 63l49 308q1 0 1 1l4 6q7 9 7 11q17 20 30.5 28.5t36.5 8.5
q37 0 52 -25.5t10 -59.5z" />
    <glyph glyph-name="q.alt" 
d="M354 572q-28 17 -68 17q-76 0 -121.5 -47t-55.5 -106l-46 -292q-10 -59 20.5 -106.5t107.5 -47.5q39 0 73 18l-21 -137h80l112 709h-80zM336 464l-48 -307q-6 -35 -25 -63q-25 -33 -60 -33q-38 0 -53.5 25t-9.5 59l46 290q5 35 28 60t61 25q17 0 28 -7t16.5 -15t13.5 -25
q0 -3 2 -5q1 -2 1 -4z" />
    <glyph glyph-name="r.alt" 
d="M332 405h75l5 33q9 57 -22 102.5t-105 45.5q-45 0 -80 -17l3 18h-75l-93 -587h75l69 434q5 34 28 58.5t62 24.5q35 0 51.5 -24t11.5 -55z" />
    <glyph glyph-name="u.alt" 
d="M436 587h-75l-71 -445q-5 -33 -29 -58.5t-60 -25.5q-37 0 -53 25.5t-11 58.5l71 445h-75l-71 -445q-6 -36 3 -69.5t41 -59t84 -25.5q41 0 79 19l-1 -7h75z" />
    <glyph glyph-name="_FSHallmark" horiz-adv-x="828" 
d="M788 661v-88h-747v88h747zM627 155q-34 0 -61 8q-33 9 -52 24q-25 20 -38 43q-15 27 -15 60l87 -2q0 -4 6 -15q1 -9 12 -22q9 -11 22 -15q15 -10 43 -10t48 11q16 8 16 24q0 28 -71 41q-63 18 -108 41t-45 73q0 41 30 68q23 20 65 37q54 6 61 6q42 0 84 -17
q45 -18 61 -59q9 -24 9 -44h-89q0 11 -7 21q-8 10 -17 15l-9 4.5t-12 4.5q-3 0 -10.5 2t-11.5 2q-17 0 -41 -13q-18 -10 -18 -27q0 -27 17 -36q26 -11 38 -13l33 -9l27 -7q4 0 13 -2.5t14 -2.5q17 -4 21 -7l18 -8q21 -14 29 -24q10 -21 11 -41q1 -21 -9 -44q-21 -37 -67 -54
q-36 -13 -84 -13zM139 275v-120h-98v371h314v-83h-216v-85h181v-83h-181zM392 157q-17 0 -29 14q-16 13 -16 29q0 19 14 31q12 12 31 12q20 0 36 -13q15 -13 15 -30t-15 -32q-15 -11 -36 -11zM787 109v-88h-747v88h747z" />
    <glyph glyph-name="_Fontastica" horiz-adv-x="627" 
d="M131 270v-154h-89l-2 5v530h397v-79h-306v-221h306v-81h-306zM587 651v-535h-397v83h306v218h-306v85h306v149h91zM62 51v-21h-14v58h42v-12h-28v-13h27v-12h-27zM126 29q-9 0 -16 5q-8 1 -12 10q-4 8 -4 15t4 15q5 8 12 11q6 3 16 3q11 0 15 -3q6 -5 10 -11q6 -6 6 -15
q0 -7 -6 -15q-2 -4 -10 -10q-5 -5 -15 -5zM178 65v-35h-14v58h13l26 -35v35h15v-58h-14zM256 75v-45h-14v45h-18v13h49v-13h-17zM286 41l-3 -11h-16l24 58h16l24 -58h-16l-4 11h-25zM359 29q-5 0 -15 4q-6 1 -12 6l6 11q2 -2 10 -6q6 -3 11 -3q4 0 6 2l1 1v3q-1 1 -1 3l-3 2
q-3 0 -7 2h-5t-6 2l-2 2q-3 2 -4 4q-2 6 -2 10q0 8 2 9l9 6q3 1 12 1q8 0 13 -1q5 -2 10 -5l-6 -12q-5 5 -10 5q-3 1 -9 1h-5l-1 -3q0 -1 1 -3l3 -2q2 0 4 -1t3 -1q2 0 10 -4q6 -4 7 -6q3 -6 3 -9q0 -6 -3 -9q-5 -5 -8 -7q-8 -2 -12 -2zM417 75v-45h-15v45h-17v13h49v-13
h-17zM455 88v-58h-15v58h15zM493 29q-9 0 -15 5q-2 0 -11 10q-5 5 -5 15q0 5 5 15q3 8 11 11t15 3q9 0 14 -2l10 -7l-9 -11q-2 3 -7 6q-6 2 -7 2q-2 0 -8 -2q-2 -1 -5 -6q-2 -2 -2 -9q0 -2 2 -8q2 -5 5 -6q6 -3 8 -3q1 0 3.5 1.5t3.5 1.5q7 3 7 4l9 -9q-3 -3 -11 -7
q-7 -4 -13 -4zM537 41l-6 -11h-14l25 58h15l24 -58h-16l-5 11h-23zM126 41q5 0 8 3q1 1 2 3t2 3q3 3 3 9q0 1 -1.5 4t-1.5 5q0 5 -4 6q-6 2 -8 2q-5 0 -9 -2t-6 -6q-1 -3 -1 -9q0 -8 1 -9q3 -5 6 -6q6 -3 9 -3zM307 52l-9 21l-8 -21h17zM556 52l-8 21l-7 -21h15z" />
    <glyph glyph-name="_www.fontastica.com" horiz-adv-x="1973" 
d="M76 246v-60h-34l-2 1v209h158v-31h-122v-87h122v-32h-122zM257 396v-210h-158v32h122v86h-122v33h122v59h36zM1260 203q-21 0 -43 8q-23 8 -38 20l18 36q10 -9 32 -19q18 -8 31 -8q10 0 16 4q7 4 7 11t-5 10q-3 2 -11 6q-4 2 -18 6q-28 9 -31 10q-15 6 -20 15
q-7 10 -7 28q0 17 8 28q7 10 25 19q14 7 36 7q12 0 38 -6q15 -4 32 -14l-17 -36q-15 8 -30 13q-13 5 -27 5q-8 0 -13 -3t-5 -9q0 -5 4 -9q6 -6 11 -7q1 0 7 -2.5t11 -3.5q20 -5 31 -10q16 -9 20 -16q8 -11 8 -29q0 -17 -9 -29q-8 -11 -26 -19q-15 -6 -35 -6zM553 202
q-27 0 -48 12q-22 13 -34 33q-12 21 -12 46t12 46q11 19 34 32q21 12 48 12t49 -12t33 -32q12 -21 12 -46t-12 -46t-33 -33q-22 -12 -49 -12zM1666 202q-25 0 -46 12q-19 11 -33 33q-12 19 -12 46q0 25 12 46q11 20 33 32t48 12q23 0 39 -8q21 -10 31 -22l-26 -32
q-8 11 -20 17t-23 6q-13 0 -24 -6q-15 -9 -18 -18q-6 -16 -6 -26q0 -16 6 -26q6 -9 18 -18q10 -7 24 -7q12 0 22 5q12 6 21 15l27 -28q-15 -15 -34 -24t-39 -9zM364 268v-62h-45v174h130v-36h-85v-39h78v-37h-78zM713 310v-104h-43v174h40l80 -105l-1 105h43v-174h-40z
M948 343v-137h-45v137h-52v37h150v-37h-53zM1041 236l-12 -30h-47l75 174h47l73 -174h-48l-12 30h-76zM1436 343v-137h-46v137h-52v37h150v-37h-52zM1552 380v-174h-45v174h45zM1797 236l-12 -30h-47l75 174h47l73 -174h-49l-11 30h-76zM554 241q12 0 24 7q6 4 16 19
q7 11 7 26q0 7 -7 26q-5 13 -16 19t-24 6q-14 0 -24 -6q-12 -8 -18 -19q-6 -12 -6 -26t6 -26q5 -10 18 -19q10 -7 24 -7zM1103 271l-23 63l-25 -63h48zM1859 271l-24 63l-24 -63h48z" />
    </font>
</defs>
</svg>
