<?xml version="1.0" standalone="no"?>
<!DOCTYPE svg PUBLIC "-//W3C//DTD SVG 1.1//EN" "http://www.w3.org/Graphics/SVG/1.1/DTD/svg11.dtd" >
<svg xmlns="http://www.w3.org/2000/svg" xmlns:xlink="http://www.w3.org/1999/xlink" version="1.1">
<metadata>
Created by FontForge 20170731 at Thu Mar 19 21:21:40 2020
 By Aleksey,,,
Copyright (c) 2020 by Jean at Fontastica. All rights reserved.
</metadata>
<defs>
<font id="VegasNova-BoldItalic" horiz-adv-x="366" >
  <font-face 
    font-family="Vegas Nova"
    font-weight="700"
    font-style="italic"
    font-stretch="normal"
    units-per-em="1024"
    panose-1="0 0 8 0 0 0 0 0 0 0"
    ascent="819"
    descent="-205"
    x-height="581"
    cap-height="689"
    bbox="-288.674 -408 1933 888"
    underline-thickness="50"
    underline-position="-200"
    unicode-range="U+000D-2265"
  />
<missing-glyph horiz-adv-x="339" 
d="M30 0h279l108 683h-279zM230 377l-63 281h214zM64 70l86 544l60 -272zM297 71l-59 271l145 271zM67 25l152 282l62 -282h-214z" />
    <glyph glyph-name="f_f.liga" unicode="ff" horiz-adv-x="651" 
d="M666 341h-146l32 199q6 41 33 67.5t68 26.5q8 0 24 -4l22 -9l9 -2l10 62l-6 1l-23 4q-13 3 -27 3q-66 0 -111.5 -42t-55.5 -105l-32 -201h-249l32 199q6 40 33.5 67t67.5 27q9 0 25 -4q10 -4 24 -9l9 -2l10 62l-6 1q-5 1 -13 2.5t-12 1.5q-13 3 -28 3q-65 0 -111 -42
t-56 -105l-32 -201h-62l-9 -56h62l-45 -285h57l45 285h249l-45 -285h57l45 285h146z" />
    <glyph glyph-name="t_t.liga" unicode="tt" horiz-adv-x="621" 
d="M550 529h145l8 53h-145l17 107h-57l-17 -107h-249l17 107h-57l-17 -107h-63l-8 -53h63l-63 -395q-9 -61 24.5 -104t96.5 -43q15 0 28 3q5 1 14 2.5t13 1.5l6 1l11 65l-11 -5q-35 -13 -52 -13q-39 0 -59 27.5t-13 66.5l62 393h249l-63 -395q-4 -28 2 -54q7 -43 39.5 -68
t79.5 -25q13 0 27 3q5 1 14 2.5t11 1.5l6 1l10 62l-9 -2l-26 -9q-16 -4 -24 -4q-41 0 -60 27t-12 67z" />
    <glyph glyph-name=".notdef" horiz-adv-x="339" 
d="M30 0h279l108 683h-279zM230 377l-63 281h214zM64 70l86 544l60 -272zM297 71l-59 271l145 271zM67 25l152 282l62 -282h-214z" />
    <glyph glyph-name=".null" horiz-adv-x="0" 
 />
    <glyph glyph-name="nonmarkingreturn" horiz-adv-x="341" 
 />
    <glyph glyph-name="CR" unicode="&#xd;" horiz-adv-x="256" 
 />
    <glyph glyph-name="space" unicode=" " horiz-adv-x="231" 
 />
    <glyph glyph-name="exclam" unicode="!" horiz-adv-x="158" 
d="M157 685l-39 -248q-2 -14 -42 -281l-3 -20h55l3 20q35 203 47 281l39 248h-60zM124 39q2 15 -7 26.5t-25 11.5t-29.5 -11t-16.5 -27q-2 -15 7.5 -27t26.5 -12q16 0 29 12t15 27z" />
    <glyph glyph-name="quotedbl" unicode="&#x22;" horiz-adv-x="236" 
d="M148 685l-28 -183h62l28 183h-62zM241 685l-28 -183h63l28 183h-63z" />
    <glyph glyph-name="numbersign" unicode="#" horiz-adv-x="430" 
d="M117 -53l79 254h66l-76 -254h54l79 254h90l9 56h-83l39 118h75l9 55h-21v1h-46l78 254h-56l-79 -254h-66l77 254h-55l-79 -254h-90l-9 -56h81l-37 -118h-75l-9 -55h21v-1h46l-77 -254h55zM251 375h67l-39 -118h-65z" />
    <glyph glyph-name="dollar" unicode="$" horiz-adv-x="369" 
d="M154 -10l-7 -46h58l7 46q56 9 92.5 49.5t45.5 94.5q6 38 -7 80.5t-27.5 67t-45.5 70.5q-8 14 -34 51q-15 22 -28 51q-26 54 -18 101q6 39 31 62t65 23q38 0 58 -17.5t14 -52.5l-16 -102h61l16 102q8 49 -19 83t-76 42l4 25h-58l-4 -25q-55 -9 -92 -48t-45 -92
q-10 -65 32 -149q14 -26 45.5 -71.5t36.5 -53.5q31 -50 44 -103q8 -25 4 -44q-6 -40 -32.5 -65t-66.5 -25q-36 0 -57.5 15.5t-16.5 46.5l17 111h-61l-17 -111q-8 -48 20 -78t77 -38z" />
    <glyph glyph-name="percent" unicode="%" horiz-adv-x="591" 
d="M143 642l-34 -214q-7 -40 19 -65t67 -25q44 0 76 24t39 66l34 214q7 43 -18 66.5t-69 23.5q-43 0 -75 -24t-39 -66zM656 661l-45 33l-563 -646l45 -30zM287 642l-34 -214q-6 -34 -50 -34q-40 0 -34 34l34 214q6 35 45 35q21 0 31.5 -8.5t7.5 -26.5zM370 273l-34 -216
q-7 -42 18 -65t69 -23q42 0 74 23.5t39 64.5l34 216q7 42 -17.5 65t-67.5 23q-44 0 -76 -22.5t-39 -65.5zM512 273l-34 -216q-6 -33 -46 -33q-20 0 -30.5 8t-7.5 25l34 216q6 34 49 34q20 0 29 -8t6 -26z" />
    <glyph glyph-name="ampersand" unicode="&#x26;" horiz-adv-x="390" 
d="M83 269l-30 -185q-7 -50 34 -73t94 -23q32 0 64 8t61 31t34 57l35 219h23l9 54h-23l11 75h-61l-11 -75h-82q-32 0 -55.5 13.5t-19.5 37.5l23 145q6 40 31 63.5t65 23.5t57.5 -24t11.5 -63l-9 -56h61l1 7q1 6 3.5 19.5t3.5 21.5q7 34 1 62q-9 41 -42.5 65.5t-78.5 24.5
q-64 0 -110.5 -41t-55.5 -103l-23 -144q-8 -47 27 -76q-43 -23 -49 -64zM314 303l-35 -220q-3 -19 -35 -31q-24 -8 -54 -8t-53 8q-26 9 -23 31l30 186q1 16 34 26q27 8 54 8h82z" />
    <glyph glyph-name="quotesingle" unicode="'" horiz-adv-x="142" 
d="M148 685l-28 -183h62l28 183h-62z" />
    <glyph glyph-name="parenleft" unicode="(" horiz-adv-x="255" 
d="M320 685h-59l-1 -4q-71 -108 -114.5 -197t-57.5 -182q-27 -169 50 -377q0 -2 1 -2v-2l2 -3h61l-2 10q-40 129 -50 182q-17 93 -2 192q22 142 119 293q10 16 27 40q15 23 23 41z" />
    <glyph glyph-name="parenright" unicode=")" horiz-adv-x="261" 
d="M215 685h-66l6 -11q37 -78 52.5 -181.5t1.5 -191.5q-21 -135 -120 -296q-18 -33 -37 -59l-7 -8l-8 -9l-10 -11h67l2 3l2 2q1 1 1 2q142 203 170 376q25 162 -52 380z" />
    <glyph glyph-name="asterisk" unicode="*" horiz-adv-x="309" 
d="M187 394l-10 -66h58l10 66q6 -1 22 -6q18 -7 26 -15l6 -4l37 55l-63 23l44 49l-34 37l-5 -5q-6 -5 -30 -29l-18 -22q-2 2 -2 3l-6 13q-5 11 -17 29l-8 11l-49 -37l30 -50q-33 -10 -62 -17l-8 -2l18 -60l8 5q8 6 29 15q12 4 24 7z" />
    <glyph glyph-name="plus" unicode="+" horiz-adv-x="549" 
d="M290 259l-33 -211h58l33 211h202l9 55h-202l30 194h-58l-30 -194h-209l-9 -55h209z" />
    <glyph glyph-name="comma" unicode="," horiz-adv-x="195" 
d="M106 76l-79 -155h61l79 155h-61z" />
    <glyph glyph-name="hyphen" unicode="-" horiz-adv-x="329" 
d="M104 402l-9 -56h249l9 56h-249z" />
    <glyph glyph-name="period" unicode="." horiz-adv-x="158" 
d="M124 39q2 15 -7 26.5t-25 11.5t-29.5 -11t-16.5 -27q-2 -15 7.5 -27t26.5 -12q16 0 29 12t15 27z" />
    <glyph glyph-name="slash" unicode="/" horiz-adv-x="261" 
d="M272 685l-248 -785h57l248 785h-57z" />
    <glyph glyph-name="zero" unicode="0" horiz-adv-x="369" 
d="M127 550l-66 -415q-10 -63 22.5 -105t98.5 -42q65 0 111.5 42t56.5 105l66 415q10 64 -23 105.5t-99 41.5t-111.5 -42t-55.5 -105zM355 550l-66 -415q-6 -40 -32 -65.5t-66 -25.5q-41 0 -58 24.5t-11 66.5l66 415q7 42 31.5 66t65.5 24q42 0 59.5 -24t10.5 -66z" />
    <glyph glyph-name="one" unicode="1" horiz-adv-x="233" 
d="M226 565l-89 -565h56l109 689h-56l-1 -7q-7 -48 -28.5 -63t-73.5 -15h-7l-9 -54h7q59 0 92 15z" />
    <glyph glyph-name="two" unicode="2" horiz-adv-x="376" 
d="M48 48l-8 -48h296l9 58h-237q3 8 23 46l35 54q14 21 63.5 88.5t72.5 100.5q100 138 108 185q11 67 -18.5 116t-99.5 49q-65 0 -110 -41.5t-55 -104.5l-18 -114h60l18 114q7 41 31.5 65t64.5 24q47 0 68 -44.5t-6 -87.5q-36 -62 -103 -154q-58 -75 -110 -151
q-78 -112 -84 -155z" />
    <glyph glyph-name="three" unicode="3" horiz-adv-x="369" 
d="M86 266l-21 -133q-10 -62 21 -103.5t96 -41.5q66 0 110 41t54 104l18 113q11 75 -32 112q56 37 66 105l15 90q9 63 -22.5 103.5t-96.5 40.5t-109 -40.5t-53 -103.5l-18 -109h57l18 109q6 40 30.5 63.5t65.5 23.5q40 0 58.5 -23.5t12.5 -63.5l-15 -90q-5 -36 -31.5 -56.5
t-64.5 -20.5h-88l-8 -54h88q40 0 58 -23t12 -62l-18 -114q-6 -40 -32 -64.5t-66 -24.5q-82 0 -69 89l22 137z" />
    <glyph glyph-name="four" unicode="4" horiz-adv-x="416" 
d="M243 181l-29 -181h58l29 181h104l8 54h-104l17 105h-58l-17 -105h-98q144 244 172 422l5 32h-60l-1 -7q-17 -115 -70 -231q-50 -113 -106 -203l-12 -18q-7 -12 -8 -21l-4 -28h174z" />
    <glyph glyph-name="five" unicode="5" horiz-adv-x="367" 
d="M140 188h-56l-1 -7q-6 -28 -8 -41q-10 -60 20 -106.5t93 -46.5q66 0 108 41.5t52 105.5l30 185q9 56 -26 86t-93 30q-44 0 -82 -20l35 219h202l9 55h-260l-61 -386h59l1 7q12 71 88 71q37 0 58 -15t16 -47l-30 -185q-6 -39 -32.5 -65t-64.5 -26q-33 0 -52 28.5t-14 62.5z
" />
    <glyph glyph-name="six" unicode="6" horiz-adv-x="358" 
d="M127 548l-65 -410q-10 -62 20.5 -106t94.5 -44q66 0 109.5 43t53.5 107l25 156q9 59 -25 90.5t-96 31.5q-49 0 -84 -19l24 151q6 41 31 66.5t65 25.5t57 -26t11 -66l-9 -55h57l1 7q2 11 8 41q11 67 -17.5 111.5t-98.5 44.5q-66 0 -109.5 -43t-52.5 -106zM308 295
l-25 -157q-6 -40 -32 -67.5t-65 -27.5t-56 27t-11 68l25 157q5 32 30 49t61 17t57 -17t16 -49z" />
    <glyph glyph-name="seven" unicode="7" horiz-adv-x="429" 
d="M412 633l-287 -629l61 4l309 681h-346l-9 -56h272z" />
    <glyph glyph-name="eight" unicode="8" horiz-adv-x="369" 
d="M79 246l-18 -113q-10 -62 23 -103.5t98 -41.5q66 0 112 41t56 104l18 113q12 75 -35 112q59 37 69 105l15 90q10 62 -24 103t-99 41q-64 0 -110.5 -41t-55.5 -103l-15 -90q-9 -65 37 -105q-59 -37 -71 -112zM359 553l-15 -90q-5 -36 -32.5 -56t-66.5 -20t-59 20t-15 56
l15 90q6 40 32 63.5t67 23.5t60.5 -23.5t13.5 -63.5zM310 247l-18 -114q-6 -40 -33 -64.5t-68 -24.5q-40 0 -59 24.5t-13 64.5l18 114q6 39 32.5 61.5t66.5 22.5t60 -23t14 -61z" />
    <glyph glyph-name="nine" unicode="9" horiz-adv-x="358" 
d="M340 137l65 410q10 63 -20.5 106.5t-95.5 43.5q-66 0 -109 -43t-53 -107l-25 -156q-9 -58 25.5 -90t95.5 -32q51 0 83 18l-23 -150q-6 -40 -31.5 -66.5t-65.5 -26.5q-39 0 -56 26.5t-11 66.5l8 55h-57l-8 -55q-10 -63 20 -106t95 -43q66 0 109.5 42.5t53.5 106.5z
M159 390l25 157q6 41 31.5 67.5t65.5 26.5q39 0 56 -26.5t11 -67.5l-25 -157q-5 -32 -30.5 -49t-61.5 -17q-37 0 -57.5 16.5t-14.5 49.5z" />
    <glyph glyph-name="colon" unicode=":" horiz-adv-x="158" 
d="M173 346q2 16 -7 28t-25 12q-17 0 -30.5 -12t-15.5 -28q-2 -15 8 -26t26 -11t29 11.5t15 25.5zM124 39q2 15 -7 26.5t-25 11.5t-29.5 -11t-16.5 -27q-2 -15 7.5 -27t26.5 -12q16 0 29 12t15 27z" />
    <glyph glyph-name="semicolon" unicode=";" horiz-adv-x="196" 
d="M209 346q2 16 -7 28t-26 12q-16 0 -29 -12t-15 -28q-2 -14 7.5 -25.5t24.5 -11.5q16 0 29.5 11.5t15.5 25.5zM106 76l-79 -155h61l80 155h-62z" />
    <glyph glyph-name="less" unicode="&#x3c;" horiz-adv-x="398" 
d="M88 302l289 -184l10 66l-208 135l250 132l11 67l-347 -183z" />
    <glyph glyph-name="equal" unicode="=" horiz-adv-x="394" 
d="M99 375l-8 -54h314l8 54h-314zM80 252l-9 -54h314l9 54h-314z" />
    <glyph glyph-name="greater" unicode="&#x3e;" horiz-adv-x="400" 
d="M69 184l-10 -66l349 184l5 33l-291 182l-11 -66l213 -132z" />
    <glyph glyph-name="question" unicode="?" horiz-adv-x="367" 
d="M285 640q40 0 56 -33t9 -77q-5 -35 -56 -89q-9 -10 -86 -80l-2 -2l-1 -3l-1 -8q-2 -15 -2 -44t-1 -39q-6 -53 -15 -105l-1 -7h57l1 7q19 112 21 180q12 12 40 38q32 30 46 47q53 57 61 105q11 66 -18.5 116.5t-98.5 50.5q-62 0 -109 -39t-56 -99l-19 -115h61l19 115
q5 38 30 59.5t65 21.5zM231 39q3 15 -7.5 26.5t-26.5 11.5t-29.5 -11t-16.5 -27q-2 -15 7.5 -27t26.5 -12t30.5 12t15.5 27z" />
    <glyph glyph-name="at" unicode="@" horiz-adv-x="676" 
d="M335 -25q-147 0 -210.5 80t-38.5 234q13 80 43.5 152.5t79 134t121.5 98t160 36.5q125 0 180.5 -70.5t34.5 -201.5q-6 -40 -20.5 -84.5t-39 -93.5t-64.5 -80.5t-88 -31.5q-37 0 -54 32q-44 -44 -103 -44t-82.5 44t-3.5 118l23 88q17 70 60.5 109.5t102.5 39.5
q45 0 67 -22l4 17h54l-73 -280q-13 -49 14 -49q32 0 59.5 24.5t45 63.5t28.5 76t17 72q36 220 -170 220q-134 0 -225 -97.5t-118 -270.5q-21 -132 29.5 -196.5t174.5 -64.5q62 0 112 20.5t76 56.5l5 -1l-11 -73q-81 -56 -190 -56zM344 189q73 0 102 109l24 89q25 95 -43 95
q-76 0 -101 -99l-24 -91q-27 -103 42 -103z" />
    <glyph glyph-name="A" unicode="A" horiz-adv-x="417" 
d="M98 0l44 124h174l5 -124h56l-32 689h-54l-251 -689h58zM162 179l135 372l14 -372h-149z" />
    <glyph glyph-name="B" unicode="B" horiz-adv-x="378" 
d="M40 0h161q59 0 103 32.5t53 88.5l24 152q9 58 -34 90q44 30 51 75l21 131q9 57 -31.5 88.5t-101.5 31.5h-137zM196 634h81q39 0 65.5 -17t21.5 -48l-21 -133q-3 -21 -29 -34t-52 -13h-104zM149 334h105q33 0 55 -16t17 -45l-24 -152q-5 -31 -31 -48.5t-61 -17.5h-105z
" />
    <glyph glyph-name="C" unicode="C" horiz-adv-x="367" 
d="M127 551l-66 -417q-10 -62 22.5 -104t97.5 -42t110.5 41.5t55.5 104.5l20 128h-55l-20 -129q-6 -38 -34.5 -64.5t-67.5 -26.5q-40 0 -60 26.5t-14 64.5l67 420q6 40 33.5 64.5t68.5 24.5q39 0 59.5 -25.5t14.5 -63.5l-21 -130h55l20 128q10 63 -22 104.5t-98 41.5
t-111 -41.5t-55 -104.5z" />
    <glyph glyph-name="D" unicode="D" horiz-adv-x="378" 
d="M149 689l-109 -689h140q62 0 115 31.5t62 89.5l71 448q10 59 -33 89.5t-106 30.5h-140zM189 55h-84l91 579h84q40 0 69.5 -16.5t23.5 -48.5l-71 -448q-5 -31 -39.5 -48.5t-73.5 -17.5z" />
    <glyph glyph-name="E" unicode="E" horiz-adv-x="339" 
d="M196 634h202l9 55h-258l-109 -689h259l9 55h-203l44 279h203l9 55h-203z" />
    <glyph glyph-name="F" unicode="F" horiz-adv-x="339" 
d="M196 634h202l9 55h-258l-109 -689h56l53 334h203l9 55h-203z" />
    <glyph glyph-name="G" unicode="G" horiz-adv-x="377" 
d="M220 357l-9 -52h108l-27 -172q-6 -38 -34.5 -64.5t-67.5 -26.5t-59.5 26.5t-14.5 64.5l67 420q6 40 33.5 64.5t68.5 24.5q39 0 59.5 -25t14.5 -64l-21 -130h55l20 128q10 63 -22 104.5t-98 41.5t-111 -41.5t-55 -104.5l-66 -417q-10 -62 22.5 -104t97.5 -42
q66 0 111 41.5t55 104.5l36 223h-163z" />
    <glyph glyph-name="H" unicode="H" horiz-adv-x="378" 
d="M447 689h-56l-47 -300h-186l47 300h-56l-109 -689h56l53 334h186l-53 -334h56z" />
    <glyph glyph-name="I" unicode="I" horiz-adv-x="136" 
d="M40 0h56l109 689h-56z" />
    <glyph glyph-name="J" unicode="J" horiz-adv-x="367" 
d="M348 134l88 555h-55l-88 -556q-6 -38 -35 -64.5t-67 -26.5q-39 0 -59.5 26.5t-14.5 64.5l20 129h-55l-20 -128q-10 -62 22.5 -104t97.5 -42t110.5 41.5t55.5 104.5z" />
    <glyph glyph-name="K" unicode="K" horiz-adv-x="434" 
d="M258 385l245 304h-63l-293 -360l57 360h-55l-109 -689h55l36 227l84 105l105 -332h60z" />
    <glyph glyph-name="L" unicode="L" horiz-adv-x="328" 
d="M105 55l100 634h-56l-109 -689h248l9 55h-192z" />
    <glyph glyph-name="M" unicode="M" horiz-adv-x="459" 
d="M148 685l-108 -685h58l69 442l40 -442h45l181 443l-71 -443h57l108 685h-55l-220 -540l-49 540h-55z" />
    <glyph glyph-name="N" unicode="N" horiz-adv-x="381" 
d="M151 689l-108 -689h55l81 510l109 -510h51l109 689h-56l-82 -516l-109 516h-50z" />
    <glyph glyph-name="O" unicode="O" 
d="M127 551l-66 -417q-10 -62 22.5 -104t97.5 -42t110.5 41.5t55.5 104.5l66 417q10 63 -22 104.5t-98 41.5t-111 -41.5t-55 -104.5zM359 553l-67 -420q-6 -38 -35 -64.5t-67 -26.5q-40 0 -60 26.5t-14 64.5l67 420q6 40 33.5 64.5t68.5 24.5q39 0 59.5 -25t14.5 -64z" />
    <glyph glyph-name="P" unicode="P" horiz-adv-x="378" 
d="M149 689l-109 -689h56l53 333h105q58 0 102.5 33t53.5 89l18 113q9 56 -25.5 88.5t-92.5 32.5h-161zM373 568l-18 -113q-5 -32 -30.5 -49t-61.5 -17h-105l38 244h105q35 0 56 -17t16 -48z" />
    <glyph glyph-name="Q" unicode="Q" horiz-adv-x="380" 
d="M341 8l-28 44q27 36 34 82l66 417q10 63 -22 104.5t-98 41.5t-111 -41.5t-55 -104.5l-66 -417q-10 -62 22.5 -104t97.5 -42q45 0 87 24l24 -38zM207 115l33 -59q-23 -14 -50 -14q-40 0 -60 26.5t-14 64.5l67 420q6 40 33.5 64.5t68.5 24.5q39 0 59.5 -25t14.5 -64
l-67 -420q-4 -20 -9 -30l-26 44z" />
    <glyph glyph-name="R" unicode="R" horiz-adv-x="378" 
d="M96 0l53 334h105q33 0 55 -16t17 -45l-43 -273h55l43 273q9 58 -34 90q44 30 51 75l21 131q9 57 -31.5 88.5t-101.5 31.5h-137l-109 -689h56zM196 634h81q39 0 65.5 -17t21.5 -48l-21 -133q-3 -21 -29 -34t-52 -13h-104z" />
    <glyph glyph-name="S" unicode="S" horiz-adv-x="365" 
d="M137 262h-56l-1 -7q-16 -114 -22 -149q-9 -56 27.5 -87t95.5 -31q63 0 107.5 38.5t54.5 99.5q7 43 -4.5 88.5t-27.5 75t-44 72.5l-33 50q-5 8 -14 24.5t-14 24.5q-25 56 -17 100q6 37 31.5 58t64.5 21q36 0 56.5 -15.5t18.5 -46.5q-3 -25 -10.5 -72t-10.5 -69l-2 -14h56
l1 7q16 98 22 148q7 57 -27.5 88t-94.5 31q-63 0 -107.5 -38t-54.5 -98q-11 -70 33 -151q11 -20 39.5 -62.5t40.5 -64.5q50 -97 41 -157q-6 -37 -32 -59.5t-64 -22.5q-36 0 -58 15.5t-18 46.5q1 12 8 51q6 39 13 91z" />
    <glyph glyph-name="T" unicode="T" horiz-adv-x="413" 
d="M473 634l9 55h-333l-9 -55h140l-100 -634h53l100 634h140z" />
    <glyph glyph-name="U" unicode="U" 
d="M347 134l88 555h-55l-88 -556q-6 -38 -35 -64.5t-67 -26.5q-40 0 -60 26.5t-14 64.5l88 556h-55l-88 -555q-10 -62 22.5 -104t97.5 -42t110.5 41.5t55.5 104.5z" />
    <glyph glyph-name="V" unicode="V" horiz-adv-x="467" 
d="M536 689h-62l-222 -567l-43 567h-60l56 -689h57z" />
    <glyph glyph-name="W" unicode="W" horiz-adv-x="469" 
d="M538 689h-60l-104 -464l-5 464h-51l-151 -464l42 464h-60l-57 -689h59l162 507l5 -507h59z" />
    <glyph glyph-name="X" unicode="X" horiz-adv-x="442" 
d="M245 346l-187 -346h57l152 273l75 -273h60l-93 346l184 343h-57l-147 -273l-78 273h-62z" />
    <glyph glyph-name="Y" unicode="Y" horiz-adv-x="424" 
d="M197 0h53l53 343l190 346h-57l-147 -273l-78 273h-62l101 -348z" />
    <glyph glyph-name="Z" unicode="Z" horiz-adv-x="394" 
d="M378 636l-338 -636h307l8 53h-229l337 636h-305l-8 -53h228z" />
    <glyph glyph-name="bracketleft" unicode="[" horiz-adv-x="226" 
d="M148 685l-121 -767h146l9 55h-87l104 657h87l8 55h-146z" />
    <glyph glyph-name="backslash" unicode="\" horiz-adv-x="261" 
d="M148 685v-785h57v785h-57z" />
    <glyph glyph-name="bracketright" unicode="]" horiz-adv-x="215" 
d="M36 -27l-9 -55h135l121 767h-135l-8 -55h75l-104 -657h-75z" />
    <glyph glyph-name="asciicircum" unicode="^" horiz-adv-x="393" 
d="M291 685l-162 -121h86l81 57l59 -57h87l-121 121h-30z" />
    <glyph glyph-name="underscore" unicode="_" horiz-adv-x="432" 
d="M37 -20l-9 -57h352l9 57h-352z" />
    <glyph glyph-name="grave" unicode="`" horiz-adv-x="272" 
d="M348 644l-158 96l-54 -47l170 -91z" />
    <glyph glyph-name="a" unicode="a" 
d="M85 285l-24 -150q-10 -64 22 -106t98 -42t111.5 42.5t54.5 105.5l48 298q9 63 -23 105.5t-97 42.5q-66 0 -111.5 -42.5t-54.5 -105.5l-16 -100h56l16 100q6 40 33.5 67t67.5 27q39 0 58.5 -27.5t14.5 -66.5l-24 -148h-230zM306 229l-15 -94q-6 -40 -33.5 -67t-68.5 -27
t-59.5 26.5t-12.5 67.5l15 94h174z" />
    <glyph glyph-name="b" unicode="b" 
d="M149 689l-88 -554q-9 -63 23 -106t97 -43q66 0 111 42.5t55 106.5l48 298q9 63 -23 105.5t-97 42.5q-54 0 -91 -26l21 134h-56zM339 433l-48 -298q-6 -40 -34 -67t-68 -27t-59 27t-13 67l48 298q6 40 33.5 67t67.5 27t59.5 -27t13.5 -67z" />
    <glyph glyph-name="c" unicode="c" 
d="M323 333h56l16 100q9 63 -23 105.5t-97 42.5q-66 0 -111.5 -42.5t-54.5 -105.5l-48 -298q-9 -63 23 -106t97 -43q66 0 111.5 43.5t55.5 106.5l15 99h-56l-15 -99q-6 -39 -35 -67t-68 -28q-41 0 -59.5 26.5t-12.5 67.5l48 298q6 41 33 67.5t68 26.5q39 0 58.5 -27.5
t14.5 -66.5z" />
    <glyph glyph-name="d" unicode="d" 
d="M109 433l-48 -298q-9 -63 23 -106t97 -43q66 0 111 42.5t55 106.5l88 554h-56l-21 -134q-30 26 -83 26q-66 0 -111.5 -42.5t-54.5 -105.5zM339 433l-48 -298q-6 -40 -34.5 -67t-67.5 -27q-41 0 -59.5 26.5t-12.5 67.5l48 298q6 41 33 67.5t68 26.5q40 0 59.5 -27
t13.5 -67z" />
    <glyph glyph-name="e" unicode="e" 
d="M371 285l24 151q10 63 -22 104.5t-98 41.5q-65 0 -110.5 -41.5t-55.5 -104.5l-47 -298q-10 -63 22 -106.5t97 -43.5q66 0 111.5 43.5t55.5 106.5l16 99h-56l-2 -7q-1 -8 -4 -31t-5 -36q-8 -43 -18 -63q-31 -57 -89 -57q-40 0 -59 27.5t-13 67.5l23 147h230zM150 341
l15 95q6 41 33 67t69 26q40 0 59 -26.5t13 -66.5l-15 -95h-174z" />
    <glyph glyph-name="f" unicode="f" horiz-adv-x="348" 
d="M148 285l-45 -285h57l45 285h149l9 56h-149l32 199q6 40 33.5 67t67.5 27q9 0 25 -4q10 -4 24 -9l9 -2l10 62l-6 1q-5 1 -13 2.5t-12 1.5q-13 3 -28 3q-65 0 -111 -42t-56 -105l-32 -201h-62l-9 -56h62z" />
    <glyph glyph-name="g" unicode="g" 
d="M40 -1q-5 -63 24 -103.5t96 -40.5q65 0 111 43t55 105l69 433q10 63 -22 104.5t-98 41.5q-65 0 -110.5 -41.5t-55.5 -104.5l-47 -298q-10 -64 23 -107t96 -43q49 0 92 29l-3 -14q-6 -40 -34 -67.5t-68 -27.5q-79 0 -72 91h-56zM339 436l-47 -298q-6 -40 -34.5 -67.5
t-67.5 -27.5q-40 0 -59 27.5t-13 67.5l47 298q6 41 33 67t69 26q40 0 59 -26.5t13 -66.5z" />
    <glyph glyph-name="h" unicode="h" 
d="M149 689l-109 -689h56l69 433q6 40 33.5 67t67.5 27t59.5 -27t13.5 -67l-69 -433h56l69 433q9 63 -23 105.5t-97 42.5q-54 0 -91 -26l21 134h-56z" />
    <glyph glyph-name="i" unicode="i" horiz-adv-x="151" 
d="M216 639q2 15 -7.5 26t-24.5 11q-16 0 -30 -11t-16 -26q-2 -16 7.5 -28t26.5 -12q16 0 29 12t15 28zM48 0h55l92 582h-55z" />
    <glyph glyph-name="j" unicode="j" horiz-adv-x="143" 
d="M205 639q2 15 -7.5 26t-24.5 11q-16 0 -30 -11t-16 -26q-2 -16 7.5 -28t26.5 -12q16 0 29 12t15 28zM186 582h-56l-92 -581q-7 -46 -37.5 -70.5t-78.5 -24.5h-7l-8 -53h7q73 0 121 39t59 109z" />
    <glyph glyph-name="k" unicode="k" horiz-adv-x="434" 
d="M243 272l243 309l-62 1l-294 -370l75 477h-56l-109 -689h56l17 109l88 114l125 -223h68z" />
    <glyph glyph-name="l" unicode="l" horiz-adv-x="136" 
d="M40 0h56l109 689h-56z" />
    <glyph glyph-name="m" unicode="m" horiz-adv-x="596" 
d="M556 0l69 434q10 64 -22 105.5t-98 41.5q-76 0 -124 -54q-28 54 -106 54q-66 0 -111 -42t-55 -105l-69 -434h56l69 434q6 41 33 67t68 26q40 0 59.5 -26.5t13.5 -66.5l-69 -434h56l69 434q6 41 33 67t68 26t60 -26.5t13 -66.5l-69 -434h56z" />
    <glyph glyph-name="n" unicode="n" 
d="M339 434l-69 -434h56l69 434q10 64 -22 105.5t-98 41.5t-111 -42t-55 -105l-69 -434h56l69 434q6 41 33 67t68 26q40 0 59.5 -26.5t13.5 -66.5z" />
    <glyph glyph-name="o" unicode="o" 
d="M347 135l48 298q9 63 -23 105.5t-97 42.5q-66 0 -111.5 -42.5t-54.5 -105.5l-48 -298q-9 -63 23 -106t97 -43q66 0 111 42.5t55 106.5zM117 135l48 298q6 41 33 67.5t68 26.5q40 0 59.5 -27t13.5 -67l-48 -298q-6 -40 -34.5 -67t-67.5 -27q-41 0 -59.5 26.5t-12.5 67.5z
" />
    <glyph glyph-name="p" unicode="p" 
d="M348 138l47 298q10 63 -22 104.5t-98 41.5q-65 0 -110.5 -41.5t-55.5 -104.5l-88 -554h56l22 135q30 -29 82 -29q66 0 111.5 43.5t55.5 106.5zM118 138l47 298q6 40 33.5 66.5t68.5 26.5t59.5 -26t12.5 -67l-47 -298q-6 -40 -34.5 -67.5t-67.5 -27.5t-58.5 27.5
t-13.5 67.5z" />
    <glyph glyph-name="q" unicode="q" 
d="M307 -118l88 554q10 63 -22 104.5t-98 41.5q-65 0 -110.5 -41.5t-55.5 -104.5l-47 -298q-10 -63 22 -106.5t97 -43.5q49 0 92 29l-22 -135h56zM118 138l47 298q6 41 33 67t69 26q40 0 59 -26.5t13 -66.5l-47 -298q-6 -40 -34.5 -67.5t-67.5 -27.5q-40 0 -59 27.5
t-13 67.5z" />
    <glyph glyph-name="r" unicode="r" 
d="M109 434l-69 -434h56l69 434q6 41 33 67t68 26q38 0 58.5 -25.5t14.5 -63.5l-4 -25h56l4 25q10 61 -23 102t-97 41q-66 0 -111 -42t-55 -105z" />
    <glyph glyph-name="s" unicode="s" horiz-adv-x="363" 
d="M190 375q-27 39 -21 74q13 79 95 79q35 0 58.5 -17t18.5 -47l-20 -127h55l20 127q9 56 -27 87t-94 31q-63 0 -108 -36.5t-55 -96.5q-11 -69 62 -153q9 -10 29 -28t29 -29q61 -69 55 -112q-6 -37 -33 -60t-65 -23q-35 0 -59 16.5t-19 46.5l21 130h-55l-21 -130
q-9 -56 28 -87.5t96 -31.5q64 0 108.5 39t54.5 101q5 30 -9.5 64t-30 53t-47.5 55q-24 26 -36 37q-13 16 -30 38z" />
    <glyph glyph-name="t" unicode="t" horiz-adv-x="318" 
d="M182 136l62 393h148l8 53h-148l17 107h-57l-17 -107h-63l-8 -53h63l-63 -395q-9 -61 24.5 -104t96.5 -43q15 0 28 3q5 1 14 2.5t13 1.5l6 1l11 65l-11 -5q-35 -13 -52 -13q-39 0 -59 27.5t-13 66.5z" />
    <glyph glyph-name="u" unicode="u" 
d="M418 582h-56l-70 -445q-6 -40 -34.5 -67t-67.5 -27q-41 0 -60 27t-12 67l70 445h-56l-70 -445q-10 -63 22 -106t97 -43q66 0 111.5 42.5t55.5 106.5z" />
    <glyph glyph-name="v" unicode="v" horiz-adv-x="402" 
d="M129 582l45 -582h55l228 582h-57l-177 -449l-35 449h-59z" />
    <glyph glyph-name="w" unicode="w" horiz-adv-x="509" 
d="M132 582l-40 -582h59l149 429l19 -429h59l143 582h-58l-95 -391l-17 391h-50l-138 -389l28 389h-59z" />
    <glyph glyph-name="x" unicode="x" horiz-adv-x="431" 
d="M230 287l-186 -287h60l149 226l76 -226h58l-95 287l191 295h-58l-153 -232l-79 232h-61z" />
    <glyph glyph-name="y" unicode="y" horiz-adv-x="364" 
d="M362 582l-70 -444q-6 -40 -34.5 -67.5t-67.5 -27.5q-40 0 -59 27.5t-13 67.5l70 444h-56l-70 -444q-10 -64 23 -107t96 -43q49 0 92 29l-3 -14q-6 -40 -34 -67.5t-68 -27.5q-79 0 -72 91h-56q-5 -63 24 -103.5t96 -40.5q65 0 111 43t55 105l92 579h-56z" />
    <glyph glyph-name="z" unicode="z" horiz-adv-x="427" 
d="M384 54h-249l344 528h-335l-8 -53h250l-346 -529h335z" />
    <glyph glyph-name="braceleft" unicode="{" horiz-adv-x="273" 
d="M93 334l-9 -56h7q7 0 23 0.5t23 0.5h8l2 -1v-6l-47 -296q-5 -33 15 -50t54 -17h50l8 54h-7q-4 0 -12.5 -0.5t-13.5 -0.5q-18 0 -25 2q-9 4 -8 12l47 297q3 18 -4 33q11 14 15 33l44 278q1 10 24 13q7 1 14.5 1t15 -0.5t9.5 -0.5h7l8 55h-50q-32 0 -58 -18t-31 -49
l-44 -280q-1 -5 -6 -5t-15.5 0.5t-15.5 0.5h-28z" />
    <glyph glyph-name="bar" unicode="|" horiz-adv-x="138" 
d="M148 685l-124 -785h58l124 785h-58z" />
    <glyph glyph-name="braceright" unicode="}" horiz-adv-x="273" 
d="M34 -37l-8 -54h52q32 0 56 18t29 49l47 296q0 2 1 3t1 2h1q2 1 6 1h58l9 56h-63h-2q-1 1 0 4l44 280q5 30 -14.5 48.5t-50.5 18.5h-52l-8 -55h47q6 0 10 -2q9 -2 8 -11l-44 -278q-3 -17 3 -33q-11 -15 -14 -33l-47 -297q-1 -10 -10 -12q-6 -2 -11 -2h-13q-3 0 -10.5 0.5
t-10.5 0.5h-14z" />
    <glyph glyph-name="asciitilde" unicode="~" horiz-adv-x="348" 
d="M217 604l-17 -2q-2 6 -2 10q2 11 12 11q11 0 23 -9l14 -11q8 -8 12 -13q42 -35 74 -35q28 0 48.5 19t24.5 46q6 36 -26 56l-2 1l-1 2h-1q-4 2 -5 2h-28l-9 -57l17 2q3 -5 3 -8q-3 -12 -13 -12q-12 0 -22 10q-5 3 -15 12t-13 11q-40 36 -73 36q-25 0 -65 -33l-3 -2l-4 -30
q-7 -35 26 -56l2 -2h1q1 -1 2 -1q3 -2 10 -2h21z" />
    <glyph glyph-name="exclamdown" unicode="&#xa1;" horiz-adv-x="158" 
d="M125 534q-3 -15 7.5 -26t26.5 -11t28.5 11t15.5 26q2 16 -7 28t-25 12q-17 0 -30.5 -12t-15.5 -28zM175 438h-55l-3 -21q-31 -179 -46 -280l-40 -248h60l40 248q7 47 20.5 140.5t20.5 139.5z" />
    <glyph glyph-name="cent" unicode="&#xa2;" 
d="M152 -10l-7 -46h58l7 46q56 10 92.5 51.5t45.5 96.5l15 96l-59 4l-16 -100q-6 -38 -30.5 -64.5t-59.5 -26.5q-32 0 -47 7q-19 10 -26 34t-3 50l47 298q6 36 30 63t59 27q51 0 67.5 -27t7.5 -80q-2 -14 -6.5 -39.5t-5.5 -30.5l-1 -7h60l15 94q9 56 -14 96t-77 48l7 43h-58
l-7 -43q-55 -8 -91.5 -48.5t-45.5 -95.5l-47 -298q-9 -54 15 -96t75 -52z" />
    <glyph glyph-name="sterling" unicode="&#xa3;" horiz-adv-x="391" 
d="M217 597q1 1 1 2v2q22 68 91 68q43 0 59 -30.5t8 -76.5l-1 -7h61l1 7q11 69 -17 115t-100 46q-64 0 -108 -34t-54 -95v-2l-1 -4l18 -249h-81l-9 -58h85l-111 -279h292l9 57h-219l92 222h122l9 58h-126z" />
    <glyph glyph-name="yen" unicode="&#xa5;" horiz-adv-x="424" 
d="M211 689h-62l3 -10q1 -3 9.5 -32t20.5 -70t22 -77q46 -159 46 -161l-2 -13h-129l-9 -55h129l-10 -68h-130l-9 -55h130l-23 -148h53l23 148h130l9 55h-130l10 68h131l9 55h-131v2l1 6q0 2 1 4l190 351h-57l-147 -273z" />
    <glyph glyph-name="brokenbar" unicode="&#xa6;" horiz-adv-x="138" 
d="M148 685l-50 -319h58l50 319h-58zM78 238l-54 -338h58l54 338h-58z" />
    <glyph glyph-name="section" unicode="&#xa7;" horiz-adv-x="363" 
d="M402 498l15 96q7 48 -33 70t-92 22q-56 0 -103.5 -26t-55.5 -79q-8 -50 63 -113q5 -4 15.5 -10t14.5 -9q5 -2 13 -8q-111 -8 -140 -86h-3l-1 -7q-6 -36 7 -59q17 -28 41 -52q12 -12 37 -27q1 -1 19.5 -14t28.5 -21q55 -44 51 -69q-4 -27 -29.5 -41t-59.5 -14q-32 0 -51 9
q-27 9 -24 31l16 97h-61l-16 -97q-7 -47 34.5 -69t93.5 -22q55 0 102.5 27t55.5 79q6 43 -42 89q-16 16 -41 34q-7 6 -21 16q53 4 93.5 29.5t48.5 74.5q4 26 -10.5 52t-32.5 42t-49 38l-37 27q-2 2 -14 11t-17 14q-27 25 -24 48q4 27 29.5 40t59.5 13q33 0 52 -9
q25 -11 21 -31l-15 -96h61zM317 349q-4 -27 -29.5 -40.5t-58.5 -13.5q-53 0 -69 21q-1 1 -1 2q-1 2 -1 3v3.5t-1 3.5q0 1 -0.5 2.5t-1.5 2.5v4q9 53 90 53q61 0 71 -33q2 -6 1 -8z" />
    <glyph glyph-name="dieresis" unicode="&#xa8;" horiz-adv-x="249" 
d="M206 669q2 16 -7 26.5t-25 10.5t-30 -11t-16 -26q-2 -16 7.5 -27.5t26.5 -11.5q16 0 29 12t15 27zM303 668q2 16 -8 26.5t-26 10.5t-30 -11t-16 -26q-3 -16 7 -27.5t27 -11.5t30 11.5t16 27.5z" />
    <glyph glyph-name="copyright" unicode="&#xa9;" horiz-adv-x="443" 
d="M40 551v-417q0 -71 54 -108.5t129 -37.5q74 0 127 38t53 108v417q0 70 -53 108t-127 38q-75 0 -129 -38t-54 -108zM346 553v-420q0 -33 -34 -63q-30 -26 -89 -26q-64 0 -92 26q-33 31 -33 63v420q0 14 10 33t23 30q28 24 92 24q60 0 89 -24q13 -11 23.5 -29.5t10.5 -33.5
zM116 488v-295q0 -47 30.5 -77.5t79.5 -30.5q48 0 77 31t29 77v96h-54v-96q0 -26 -13.5 -42t-38.5 -16q-26 0 -40.5 16.5t-14.5 41.5v295q0 26 14.5 42t40.5 16h7q4 0 6 -1q12 -3 23 -14.5t14 -22.5q3 -9 3 -22v-25q0 -10 -0.5 -31.5t-0.5 -32.5v-6h54v97q0 47 -28.5 77.5
t-77.5 30.5q-50 0 -80 -30t-30 -78z" />
    <glyph glyph-name="ordfeminine" unicode="&#xaa;" horiz-adv-x="284" 
d="M119 500l-17 -106q-7 -45 16 -75.5t70 -30.5q48 0 79.5 30t38.5 76l31 192q7 46 -15 77t-70 31q-47 0 -79.5 -31.5t-39.5 -76.5l-12 -73h59l1 6q3 15 7 52q12 68 55 68q46 0 37 -53l-14 -86h-147zM258 447l-9 -53q-3 -23 -17 -37t-36 -14q-41 0 -34 51l9 53h87z" />
    <glyph glyph-name="guillemotleft" unicode="&#xab;" horiz-adv-x="467" 
d="M98 368l145 -152h81l-140 152l189 149h-82zM237 368l143 -152h81l-141 152l189 149h-81z" />
    <glyph glyph-name="registered" unicode="&#xae;" horiz-adv-x="443" 
d="M40 551v-417q0 -71 54 -108.5t129 -37.5q74 0 127 38t53 108v417q0 70 -53 108t-127 38q-75 0 -129 -38t-54 -108zM346 553v-420q0 -33 -34 -63q-30 -26 -89 -26q-64 0 -92 26q-33 31 -33 63v420q0 14 10 33t23 30q28 24 92 24q60 0 89 -24q13 -11 23.5 -29.5t10.5 -33.5
zM168 115v222h65q23 0 36.5 -10t13.5 -26v-186h46v186q0 36 -30 60q24 19 24 50v88q0 37 -30 60t-76 23h-96v-467h47zM168 537h49q26 0 43.5 -11t17.5 -27v-89q0 -11 -14 -19t-32 -8h-64v154z" />
    <glyph glyph-name="macron" unicode="&#xaf;" horiz-adv-x="303" 
d="M132 673l-9 -57h223l9 57h-223z" />
    <glyph glyph-name="degree" unicode="&#xb0;" horiz-adv-x="181" 
d="M140 629l-11 -66q-3 -22 9 -37.5t35 -15.5t38.5 15.5t18.5 37.5l11 66q3 20 -8 35.5t-33 15.5q-23 0 -40 -15t-20 -36z" />
    <glyph glyph-name="uni00B2" unicode="&#xb2;" horiz-adv-x="389" 
d="M105 411l-5 -35h158l8 56h-93l17 26q7 10 27 36l30 39q39 52 44 80q6 35 -11.5 59.5t-54.5 24.5q-33 0 -57.5 -22t-29.5 -54l-10 -65h60l8 51l2 13q1 2 1.5 4.5t1.5 4.5t1 3q3 9 15 9q19 0 14 -27q-2 -11 -20 -37q-19 -30 -41 -57q-61 -82 -65 -109z" />
    <glyph glyph-name="uni00B3" unicode="&#xb3;" horiz-adv-x="382" 
d="M127 521l-11 -68q-5 -32 11.5 -54t49.5 -22q35 0 59 21t29 55l7 46q4 26 -6 44q17 20 20 43l6 38q5 32 -13 52.5t-52 20.5q-33 0 -56 -21t-28 -52l-10 -62h21l-6 -39zM193 572q4 40 5 43q7 26 21 26q18 0 15 -17l-6 -38q-1 -8 -12 -12q-6 -2 -12 -2h-11zM184 517
q17 0 23 -3q8 -3 7 -15l-7 -46q-3 -20 -21 -20q-11 0 -11 8q-2 8 0 20z" />
    <glyph glyph-name="acute" unicode="&#xb4;" horiz-adv-x="263" 
d="M320 747l-194 -96l31 -42l194 91z" />
    <glyph glyph-name="periodcentered" unicode="&#xb7;" horiz-adv-x="158" 
d="M162 278q2 15 -7 27t-25 12t-30 -11.5t-16 -27.5q-2 -15 8 -26.5t26 -11.5t29 11.5t15 26.5z" />
    <glyph glyph-name="cedilla" unicode="&#xb8;" horiz-adv-x="295" 
d="M164 29l-12 -53q-1 -5 6 -20l18 -21q23 -29 20 -47q-2 -15 -12.5 -27.5t-22.5 -12.5q-19 0 -22 15q-3 10 1 37l3.5 17.5t3.5 19.5l1 7h-55l-10 -66q-6 -36 14 -58.5t57 -22.5q36 0 62.5 26.5t32.5 61.5q7 52 -43 103l12 41h-54z" />
    <glyph glyph-name="uni00B9" unicode="&#xb9;" horiz-adv-x="243" 
d="M243 602l-35 -222h55l49 311h-55l-1 -7q-2 -15 -4 -21q-1 -3 -2 -5l-1 -1l-1 -1h-2.5h-4.5h-29l-9 -56h21q7 0 19 2z" />
    <glyph glyph-name="ordmasculine" unicode="&#xba;" horiz-adv-x="284" 
d="M133 587l-30 -192q-8 -45 14.5 -76t70.5 -31q49 0 80 30t39 77l30 192q7 46 -15 76.5t-70 30.5q-46 0 -79 -31t-40 -76zM280 587l-31 -193q-3 -23 -17 -37t-36 -14q-41 0 -34 51l31 193q9 52 50 52q45 0 37 -52z" />
    <glyph glyph-name="guillemotright" unicode="&#xbb;" horiz-adv-x="440" 
d="M250 368l-176 -152h79l177 152l-129 149h-79zM378 368l-176 -152h78l178 152l-130 149h-78z" />
    <glyph glyph-name="onequarter" unicode="&#xbc;" horiz-adv-x="817" 
d="M226 565l-89 -565h56l109 689h-56l-1 -7q-7 -48 -28.5 -63t-73.5 -15h-7l-9 -54h7q59 0 92 15zM641 181l-29 -181h61l29 181h104l8 54h-104l17 105h-61l-17 -105h-97q142 235 171 422l5 32h-57l-1 -7q-17 -115 -70 -231q-27 -62 -68 -137q-5 -10 -19 -32.5t-20 -34.5v-3
q-16 -18 -19 -35l-4 -28h171zM458 685l-248 -785h56l248 785h-56z" />
    <glyph glyph-name="onehalf" unicode="&#xbd;" horiz-adv-x="774" 
d="M449 48l-8 -48h293l9 58h-237q5 13 24 46q4 6 18 25.5t20 28.5q12 18 32.5 47t52.5 73t50 69q97 136 105 185q11 67 -17.5 116t-97.5 49q-66 0 -110.5 -41.5t-54.5 -104.5l-18 -114h57l18 114q7 40 32.5 64.5t66.5 24.5q42 0 58 -31.5t9 -75.5q0 -8 -8 -19
q-6 -12 -12 -21q-49 -81 -90 -140q-86 -115 -110 -150q-76 -116 -82 -155zM226 565l-89 -565h56l109 689h-56l-1 -7q-7 -48 -28.5 -63t-73.5 -15h-7l-9 -54h7q59 0 92 15zM458 685l-248 -785h56l248 785h-56z" />
    <glyph glyph-name="threequarters" unicode="&#xbe;" horiz-adv-x="953" 
d="M86 266l-21 -133q-10 -62 21 -103.5t96 -41.5q66 0 110 41t54 104l18 113q11 75 -32 112q56 37 66 105l15 90q9 63 -22.5 103.5t-96.5 40.5t-109 -40.5t-53 -103.5l-18 -109h57l18 109q6 40 30.5 63.5t65.5 23.5q40 0 58.5 -23.5t12.5 -63.5l-15 -90q-5 -36 -31.5 -56.5
t-64.5 -20.5h-88l-8 -54h88q40 0 58 -23t12 -62l-18 -114q-6 -40 -32 -64.5t-66 -24.5q-82 0 -69 89l22 137zM777 181l-29 -181h61l29 181h104l8 54h-104l17 105h-61l-17 -105h-97q142 235 171 422l5 32h-58l-1 -7q-18 -118 -69 -231q-41 -92 -108 -203q-1 -3 -3 -6
t-4.5 -6.5t-3.5 -6.5q-6 -9 -8 -20l-4 -28h172zM593 685l-248 -785h57l248 785h-57z" />
    <glyph glyph-name="questiondown" unicode="&#xbf;" horiz-adv-x="367" 
d="M226 533q-2 -15 8.5 -26t26.5 -11t29.5 11t15.5 26q3 16 -6.5 28t-26.5 12t-30.5 -12t-16.5 -28zM172 -68q-42 0 -57 32.5t-7 77.5q5 38 56 90q31 32 85 79l3 2v3l1 7q3 16 3 44.5t1 40.5q2 22 14 104l1 7h-57l-1 -7q-19 -131 -21 -182q-134 -111 -146 -188
q-11 -66 18.5 -116t97.5 -50q65 0 110.5 38t55.5 100l18 114h-61l-18 -114q-6 -38 -31.5 -60t-64.5 -22z" />
    <glyph glyph-name="Agrave" unicode="&#xc0;" horiz-adv-x="401" 
d="M432 732l-160 93l-52 -45l168 -92zM98 0l44 124h174l5 -124h56l-32 689h-54l-251 -689h58zM162 179l135 372l14 -372h-149z" />
    <glyph glyph-name="Aacute" unicode="&#xc1;" horiz-adv-x="401" 
d="M406 840l-192 -94l29 -44l196 92zM98 0l44 124h174l5 -124h56l-32 689h-54l-251 -689h58zM162 179l135 372l14 -372h-149z" />
    <glyph glyph-name="Acircumflex" unicode="&#xc2;" horiz-adv-x="401" 
d="M155 701h85l82 57l59 -57h87l-121 120h-30zM98 0l44 124h174l5 -124h56l-32 689h-54l-251 -689h58zM162 179l135 372l14 -372h-149z" />
    <glyph glyph-name="Atilde" unicode="&#xc3;" horiz-adv-x="401" 
d="M381 769l17 2q3 -5 3 -9q-3 -10 -13 -10q-12 0 -27 10q-5 2 -13 10l-14 14q-40 38 -76 38q-25 0 -46.5 -14.5t-25.5 -39.5l-3 -16q-8 -49 51 -57l8 -1l9 54l-6 1q-2 0 -4 0.5t-3 0.5l-3 1q-1 1 1 9q2 12 14 12q10 0 24 -11q9 -6 28 -25q43 -39 78 -39q28 0 48 19t25 45
q4 29 -8 44q-14 17 -33 17h-22zM98 0l44 124h174l5 -124h56l-32 689h-54l-251 -689h58zM162 179l135 372l14 -372h-149z" />
    <glyph glyph-name="Adieresis" unicode="&#xc4;" horiz-adv-x="401" 
d="M321 755q2 15 -7.5 27t-26.5 12t-30.5 -12t-15.5 -27q-3 -15 7.5 -26.5t26.5 -11.5t29.5 11t16.5 27zM415 754q3 15 -6.5 27t-26.5 12t-29.5 -12t-14.5 -27t6.5 -26.5t24.5 -11.5t30 11t16 27zM98 0l44 124h174l5 -124h56l-32 689h-54l-251 -689h58zM162 179l135 372
l14 -372h-149z" />
    <glyph glyph-name="Aring" unicode="&#xc5;" horiz-adv-x="401" 
d="M325 711q-29 0 -44.5 19t-10.5 46q5 28 25.5 47t49.5 19t42.5 -19t9.5 -47q-5 -28 -24 -46.5t-48 -18.5zM331 757q7 0 13.5 6t8.5 13q1 8 -4 14t-12 6q-8 0 -15 -6t-8 -14q-2 -7 3.5 -13t13.5 -6zM40 0l251 689h54l32 -689h-56l-5 124h-174l-44 -124h-58zM162 179h149
l-14 372z" />
    <glyph glyph-name="AE" unicode="&#xc6;" horiz-adv-x="508" 
d="M530 389h-206l38 245h205l9 55h-285l-251 -689h58l44 124h87l-20 -124h259l9 55h-206l44 279h206zM295 545l-58 -366h-75z" />
    <glyph glyph-name="Ccedilla" unicode="&#xc7;" horiz-adv-x="367" 
d="M393 423l20 128q10 63 -22 104.5t-98 41.5t-111 -41.5t-55 -104.5l-66 -417q-9 -54 14.5 -93.5t75.5 -50.5l-1 -7l-5 -31l8 12q2 -4 13 -20q3 -5 10.5 -14t11.5 -14q9 -18 7 -29q-2 -14 -12.5 -26.5t-21.5 -12.5q-20 0 -25 15q-2 12 1 37l3.5 17.5t3.5 19.5l1 7h-54
l-2 -14q-6 -41 -6 -43q-2 -35 -1 -43q10 -47 68 -47q34 0 56 18q15 12 27 33t15 39q7 42 -42 100l1 3q57 9 94 49t46 95l20 128h-55l-20 -129q-6 -38 -34.5 -64.5t-67.5 -26.5q-40 0 -60 26.5t-14 64.5l67 420q6 40 33.5 64.5t68.5 24.5q39 0 59.5 -25t14.5 -64l-21 -130h55
z" />
    <glyph glyph-name="Egrave" unicode="&#xc8;" horiz-adv-x="345" 
d="M40 0l109 689h208l-166 91l51 45l160 -93l-44 -43h49l-9 -55h-202l-38 -245h203l-9 -55h-203l-44 -279h203l-9 -55h-259z" />
    <glyph glyph-name="Eacute" unicode="&#xc9;" horiz-adv-x="345" 
d="M408 787l-33 45l-191 -93l30 -44zM196 634h202l9 55h-258l-109 -689h259l9 55h-203l44 279h203l9 55h-203z" />
    <glyph glyph-name="Ecircumflex" unicode="&#xca;" horiz-adv-x="399" 
d="M315 834l-162 -120h86l81 57l59 -57h87l-121 120h-30zM219 634h203l9 55h-258l-109 -689h259l9 55h-204l44 279h204l9 55h-204z" />
    <glyph glyph-name="Edieresis" unicode="&#xcb;" horiz-adv-x="345" 
d="M281 755q2 15 -7.5 27t-26.5 12q-16 0 -28.5 -12.5t-14.5 -26.5q-2 -15 7 -26.5t24 -11.5q16 0 29.5 11t16.5 27zM375 754q2 14 -6 26.5t-24 12.5q-17 0 -30.5 -11.5t-16.5 -27.5q-2 -16 8 -27t26 -11q15 0 28 11.5t15 26.5zM196 634h202l9 55h-258l-109 -689h259l9 55
h-203l44 279h203l9 55h-203z" />
    <glyph glyph-name="Igrave" unicode="&#xcc;" horiz-adv-x="163" 
d="M285 683l42 44l-158 94l-54 -46zM54 0h54l109 689h-54z" />
    <glyph glyph-name="Iacute" unicode="&#xcd;" horiz-adv-x="160" 
d="M315 783l-31 45l-194 -93l31 -44zM49 0h56l109 689h-56z" />
    <glyph glyph-name="Icircumflex" unicode="&#xce;" horiz-adv-x="206" 
d="M219 819l-162 -120h86l81 57l59 -57h87l-121 120h-30zM73 0h56l109 689h-56z" />
    <glyph glyph-name="Idieresis" unicode="&#xcf;" horiz-adv-x="138" 
d="M176 753q2 15 -7 27t-25 12q-17 0 -30.5 -12t-15.5 -27q-2 -16 8 -27t26 -11t29 11.5t15 26.5zM273 752q2 15 -7.5 27t-26.5 12t-30.5 -12t-15.5 -27q-2 -16 8 -27t26 -11t30 11t16 27zM39 0h54l109 689h-54z" />
    <glyph glyph-name="Eth" unicode="&#xd0;" horiz-adv-x="375" 
d="M354 121l71 448q10 60 -33 90t-106 30h-140l-45 -287h-96l-9 -56h96l-55 -346h140q63 0 115.5 31t61.5 90zM370 569l-71 -448q-5 -32 -39.5 -49t-73.5 -17h-84l46 291h97l9 56h-97l36 232h84q41 0 70 -16.5t23 -48.5z" />
    <glyph glyph-name="Ntilde" unicode="&#xd1;" horiz-adv-x="381" 
d="M376 775l17 2q1 -2 2 -5.5t0 -4.5q-1 -11 -12 -11q-10 0 -26 9q-8 8 -13 12l-14 14q-40 38 -78 38q-24 0 -45.5 -14t-25.5 -39l-3 -16q-8 -50 52 -58h8l9 54h-7q-7 -1 -8.5 1t-0.5 10q3 13 14 13q9 0 23 -11q4 -3 29 -25q42 -40 78 -40q27 0 47.5 19t25.5 45q4 31 -8 44
q-17 17 -34 17h-22zM151 689l-108 -689h55l81 510l109 -510h51l109 689h-56l-82 -516l-109 516h-50z" />
    <glyph glyph-name="Ograve" unicode="&#xd2;" 
d="M413 732l-160 93l-51 -45l167 -92zM127 551l-66 -417q-10 -62 22.5 -104t97.5 -42t110.5 41.5t55.5 104.5l66 417q10 63 -22 104.5t-98 41.5t-111 -41.5t-55 -104.5zM359 553l-67 -420q-6 -38 -35 -64.5t-67 -26.5q-40 0 -60 26.5t-14 64.5l67 420q6 40 33.5 64.5
t68.5 24.5q39 0 59.5 -25t14.5 -64z" />
    <glyph glyph-name="Oacute" unicode="&#xd3;" 
d="M386 832l-191 -93l28 -44l196 92zM127 551l-66 -417q-10 -62 22.5 -104t97.5 -42t110.5 41.5t55.5 104.5l66 417q10 63 -22 104.5t-98 41.5t-111 -41.5t-55 -104.5zM359 553l-67 -420q-6 -38 -35 -64.5t-67 -26.5q-40 0 -60 26.5t-14 64.5l67 420q6 40 33.5 64.5
t68.5 24.5q39 0 59.5 -25t14.5 -64z" />
    <glyph glyph-name="Ocircumflex" unicode="&#xd4;" horiz-adv-x="393" 
d="M153 711h86l81 57l59 -57h87l-121 120h-30zM142 551l-66 -417q-10 -63 22 -104.5t98 -41.5q65 0 110.5 41.5t55.5 104.5l66 417q10 63 -22 104.5t-98 41.5t-111 -41t-55 -105zM374 553l-67 -420q-6 -38 -35 -64.5t-67 -26.5q-40 0 -60.5 26.5t-14.5 64.5l67 420
q6 40 34 64.5t69 24.5q39 0 59.5 -25t14.5 -64z" />
    <glyph glyph-name="Otilde" unicode="&#xd5;" 
d="M376 783l18 3q2 -4 2 -10q-3 -12 -13 -12t-25 10l-14 12q-9 9 -13 14q-42 38 -78 38q-24 0 -46 -14t-26 -39l-2 -17q-8 -49 52 -57l7 -1l9 53h-6q-2 0 -5 1h-2q-2 1 -2 2q-1 0 0 2q-2 3 0 8q1 12 13 12q10 0 24 -11q11 -7 29 -24q40 -40 77 -40q28 0 48.5 19t24.5 45
q4 29 -8 43q-18 18 -33 18h-22zM127 551l-66 -417q-10 -62 22.5 -104t97.5 -42t110.5 41.5t55.5 104.5l66 417q10 63 -22 104.5t-98 41.5t-111 -41.5t-55 -104.5zM359 553l-67 -420q-6 -38 -35 -64.5t-67 -26.5q-40 0 -60 26.5t-14 64.5l67 420q6 40 33.5 64.5t68.5 24.5
q39 0 59.5 -25t14.5 -64z" />
    <glyph glyph-name="Odieresis" unicode="&#xd6;" 
d="M293 753q2 15 -7.5 27t-26.5 12t-29 -12t-14 -27t6.5 -26.5t24.5 -11.5t30 11t16 27zM388 752q2 15 -7.5 27t-26.5 12q-16 0 -28.5 -12.5t-14.5 -26.5q-2 -15 7 -26.5t24 -11.5q16 0 30 11t16 27zM127 551l-66 -417q-10 -62 22.5 -104t97.5 -42t110.5 41.5t55.5 104.5
l66 417q10 63 -22 104.5t-98 41.5t-111 -41.5t-55 -104.5zM359 553l-67 -420q-6 -38 -35 -64.5t-67 -26.5q-40 0 -60 26.5t-14 64.5l67 420q6 40 33.5 64.5t68.5 24.5q39 0 59.5 -25t14.5 -64z" />
    <glyph glyph-name="multiply" unicode="&#xd7;" horiz-adv-x="456" 
d="M62 138l34 -41l175 150l121 -141l47 41l-122 138l163 137l-36 41l-160 -137l-125 144l-47 -39l126 -146z" />
    <glyph glyph-name="Oslash" unicode="&#xd8;" 
d="M371 673l17 58h-54l-13 -37q-13 3 -28 3q-66 0 -111 -41.5t-55 -104.5l-66 -417q-12 -78 38 -117q2 -3 5 -5l-19 -66h54l15 44q18 -2 27 -2q66 0 111 41.5t55 104.5l66 417q14 83 -42 122zM304 640l-181 -562q-12 25 -7 55l67 420q6 40 33.5 64.5t68.5 24.5q14 0 19 -2z
M359 553l-67 -420q-6 -38 -34.5 -64.5t-67.5 -26.5q-7 0 -19 2l178 565q15 -24 10 -56z" />
    <glyph glyph-name="Ugrave" unicode="&#xd9;" 
d="M370 692l44 44l-161 93l-51 -45zM347 134l88 555h-55l-88 -556q-6 -38 -35 -64.5t-67 -26.5q-40 0 -60 26.5t-14 64.5l88 556h-55l-88 -555q-10 -62 22.5 -104t97.5 -42t110.5 41.5t55.5 104.5z" />
    <glyph glyph-name="Uacute" unicode="&#xda;" 
d="M419 792l-32 45l-191 -93l28 -44zM347 134l88 555h-55l-88 -556q-6 -38 -35 -64.5t-67 -26.5q-40 0 -60 26.5t-14 64.5l88 556h-55l-88 -555q-10 -62 22.5 -104t97.5 -42t110.5 41.5t55.5 104.5z" />
    <glyph glyph-name="Ucircumflex" unicode="&#xdb;" horiz-adv-x="393" 
d="M315 834l-162 -120h86l81 57l59 -57h87l-121 120h-30zM361 134l88 555h-55l-88 -556q-6 -38 -35 -64.5t-67 -26.5q-40 0 -60.5 26.5t-14.5 64.5l88 556h-54l-88 -555q-10 -63 22 -104.5t98 -41.5q65 0 110.5 41.5t55.5 104.5z" />
    <glyph glyph-name="Udieresis" unicode="&#xdc;" 
d="M293 753q2 15 -7.5 27t-26.5 12t-29 -12t-14 -27t6.5 -26.5t24.5 -11.5t30 11t16 27zM388 752q2 15 -7.5 27t-26.5 12q-16 0 -28.5 -12.5t-14.5 -26.5q-2 -15 7 -26.5t24 -11.5q16 0 30 11t16 27zM347 134l88 555h-55l-88 -556q-6 -38 -35 -64.5t-67 -26.5
q-40 0 -60 26.5t-14 64.5l88 556h-55l-88 -555q-10 -62 22.5 -104t97.5 -42t110.5 41.5t55.5 104.5z" />
    <glyph glyph-name="Yacute" unicode="&#xdd;" horiz-adv-x="424" 
d="M453 802l-33 46l-194 -95l31 -43zM197 0h53l53 343l190 346h-57l-147 -273l-78 273h-62l101 -348z" />
    <glyph glyph-name="germandbls" unicode="&#xdf;" horiz-adv-x="369" 
d="M132 581l-92 -581h61l92 581q6 41 31 65t66 24t59 -24t11 -65l-14 -87q-6 -37 -32 -58t-64 -21q-17 0 -22 1q-10 2 -20 6l-9 3l-11 -74l9 3q8 3 15 5q10 2 13 2h16q83 0 71 -84l-18 -115q-7 -47 -34.5 -68t-77.5 -21h-7l-9 -54h7q73 0 121.5 36.5t60.5 106.5l18 114
q11 72 -36 112q59 35 70 106l14 87q10 64 -23 104t-99 40q-67 0 -112 -40t-55 -104z" />
    <glyph glyph-name="agrave" unicode="&#xe0;" 
d="M399 644l-161 96l-49 -47l166 -91zM85 285l-24 -150q-10 -64 22 -106t98 -42t111.5 42.5t54.5 105.5l48 298q9 63 -23 105.5t-97 42.5q-66 0 -111.5 -42.5t-54.5 -105.5l-16 -100h56l16 100q6 40 33.5 67t67.5 27q39 0 58.5 -27.5t14.5 -66.5l-24 -148h-230zM306 229
l-15 -94q-6 -40 -33.5 -67t-68.5 -27t-59.5 26.5t-12.5 67.5l15 94h174z" />
    <glyph glyph-name="aacute" unicode="&#xe1;" 
d="M372 747l-191 -96l28 -42l196 91zM85 285l-24 -150q-10 -64 22 -106t98 -42t111.5 42.5t54.5 105.5l48 298q9 63 -23 105.5t-97 42.5q-66 0 -111.5 -42.5t-54.5 -105.5l-16 -100h56l16 100q6 40 33.5 67t67.5 27q39 0 58.5 -27.5t14.5 -66.5l-24 -148h-230zM306 229
l-15 -94q-6 -40 -33.5 -67t-68.5 -27t-59.5 26.5t-12.5 67.5l15 94h174z" />
    <glyph glyph-name="acircumflex" unicode="&#xe2;" horiz-adv-x="393" 
d="M136 607h86l81 57l59 -57h87l-121 120h-30zM99 285l-24 -150q-10 -64 21.5 -106t98.5 -42q66 0 111.5 42.5t54.5 105.5l48 298q9 63 -23 105.5t-97 42.5q-66 0 -111.5 -42.5t-54.5 -105.5l-16 -100h55l16 100q6 40 34 67t68 27q39 0 58.5 -27.5t14.5 -66.5l-24 -148h-230
zM320 229l-15 -94q-6 -40 -33.5 -67t-68.5 -27t-60 26.5t-13 67.5l15 94h175z" />
    <glyph glyph-name="atilde" unicode="&#xe3;" 
d="M210 659h1v1v6q2 6 4 9q1 2 3 2q16 0 29 -9q8 -6 13 -11q2 -2 13 -12q43 -34 73 -34q28 0 48.5 19t24.5 46q3 20 -3 31.5t-23 24.5q-1 0 -1 0.5t-1 0.5q-3 3 -6 3q-1 1 -4 1h-28l-5 -52l6 -1q2 0 4.5 -0.5t3.5 -0.5l4 -1v-1v-7q-2 -11 -12 -11q-9 0 -21 9q-4 4 -14 12.5
t-13 11.5q-44 35 -77 35q-23 0 -63 -32l-3 -2l-5 -31q-4 -30 20 -51l8 -6q8 -4 13 -4h21l7 45l-3 2l-4 2l-5 2q-2 0 -2 1zM85 285l-24 -150q-10 -64 22 -106t98 -42t111.5 42.5t54.5 105.5l48 298q9 63 -23 105.5t-97 42.5q-66 0 -111.5 -42.5t-54.5 -105.5l-16 -100h56
l16 100q6 40 33.5 67t67.5 27q39 0 58.5 -27.5t14.5 -66.5l-24 -148h-230zM306 229l-15 -94q-6 -40 -33.5 -67t-68.5 -27t-59.5 26.5t-12.5 67.5l15 94h174z" />
    <glyph glyph-name="adieresis" unicode="&#xe4;" 
d="M281 669q2 16 -8 26.5t-26 10.5q-17 0 -29 -10.5t-14 -26.5t6 -27.5t25 -11.5t30.5 11.5t15.5 27.5zM376 668q2 16 -8 26.5t-26 10.5t-28.5 -11t-14.5 -26t6.5 -27t24.5 -12q17 0 30 11.5t16 27.5zM85 285l-24 -150q-10 -64 22 -106t98 -42t111.5 42.5t54.5 105.5l48 298
q9 63 -23 105.5t-97 42.5q-66 0 -111.5 -42.5t-54.5 -105.5l-16 -100h56l16 100q6 40 33.5 67t67.5 27q39 0 58.5 -27.5t14.5 -66.5l-24 -148h-230zM306 229l-15 -94q-6 -40 -33.5 -67t-68.5 -27t-59.5 26.5t-12.5 67.5l15 94h174z" />
    <glyph glyph-name="aring" unicode="&#xe5;" 
d="M291 620q-29 0 -44 19t-11 46q5 28 26 47t50 19t42.5 -19t8.5 -47q-4 -27 -23.5 -46t-48.5 -19zM297 666q7 0 14 6t8 13q2 8 -3 14t-12 6q-8 0 -15 -6t-9 -14q-1 -7 4 -13t13 -6zM85 285l-24 -150q-10 -64 22 -106t98 -42t111.5 42.5t54.5 105.5l48 298q9 63 -23 105.5
t-97 42.5q-66 0 -111.5 -42.5t-54.5 -105.5l-16 -100h56l16 100q6 40 33.5 67t67.5 27q39 0 58.5 -27.5t14.5 -66.5l-24 -148h-230zM306 229l-15 -94q-6 -40 -33.5 -67t-68.5 -27t-59.5 26.5t-12.5 67.5l15 94h174z" />
    <glyph glyph-name="ae" unicode="&#xe6;" horiz-adv-x="594" 
d="M93 333h61l1 6l15 94q6 40 31.5 66.5t64.5 26.5q40 0 57 -26t11 -67l-24 -148h-225l-24 -150q-9 -63 23 -106t97 -43q74 0 123 55q34 -53 105 -53q66 0 111.5 43.5t55.5 106.5l16 99h-59l-16 -99q-5 -28 -21 -53t-39 -35q-20 -6 -39 -6q-40 0 -56.5 26.5t-10.5 67.5
l23 147h225l24 151q10 63 -22 104.5t-98 41.5q-78 0 -123 -54q-33 53 -105 53q-66 0 -111.5 -42.5t-54.5 -105.5zM383 341l15 95q6 41 31.5 66.5t65.5 25.5q41 0 57 -25.5t10 -66.5l-15 -95h-164zM301 229l-15 -94q-6 -41 -31 -67t-65 -26t-57 26.5t-11 66.5l15 94h164z" />
    <glyph glyph-name="ccedilla" unicode="&#xe7;" 
d="M379 333l16 100q10 64 -22 106t-98 42t-111.5 -42.5t-54.5 -105.5l-48 -298q-8 -54 15 -95t74 -52l-1 -5l-5 -31l8 12q2 -4 13 -20q4 -5 11.5 -14t10.5 -14q9 -18 7 -29q-2 -14 -12.5 -26.5t-21.5 -12.5q-19 0 -24 15q-4 12 0 37l3.5 17.5t3.5 19.5l1 7h-53l-11 -69
q-5 -33 15 -55.5t54 -22.5t56 18q15 12 27 33t15 39q7 42 -42 100l1 1q58 9 95 50t46 97l16 100h-56l-16 -100q-6 -40 -34.5 -67t-67.5 -27q-40 0 -59 27t-13 67l48 298q6 41 33 67.5t68 26.5q24 0 37 -7q45 -23 36 -87l-16 -100h56z" />
    <glyph glyph-name="egrave" unicode="&#xe8;" 
d="M399 644l-161 96l-49 -47l166 -91zM371 285l24 151q10 63 -22 104.5t-98 41.5q-65 0 -110.5 -41.5t-55.5 -104.5l-47 -298q-10 -63 22 -106.5t97 -43.5q66 0 111.5 43.5t55.5 106.5l16 99h-56l-2 -7q-1 -8 -4 -31t-5 -36q-8 -43 -18 -63q-31 -57 -89 -57q-40 0 -59 27.5
t-13 67.5l23 147h230zM150 341l15 95q6 41 33 67t69 26q40 0 59 -26.5t13 -66.5l-15 -95h-174z" />
    <glyph glyph-name="eacute" unicode="&#xe9;" 
d="M372 747l-191 -96l28 -42l196 91zM371 285l24 151q10 63 -22 104.5t-98 41.5q-65 0 -110.5 -41.5t-55.5 -104.5l-47 -298q-10 -63 22 -106.5t97 -43.5q66 0 111.5 43.5t55.5 106.5l16 99h-56l-2 -7q-1 -8 -4 -31t-5 -36q-8 -43 -18 -63q-31 -57 -89 -57q-40 0 -59 27.5
t-13 67.5l23 147h230zM150 341l15 95q6 41 33 67t69 26q40 0 59 -26.5t13 -66.5l-15 -95h-174z" />
    <glyph glyph-name="ecircumflex" unicode="&#xea;" horiz-adv-x="393" 
d="M136 607h86l81 57l59 -57h87l-121 120h-30zM385 285l24 151q10 63 -22 104.5t-98 41.5t-111 -41.5t-55 -104.5l-47 -298q-10 -63 21.5 -106.5t97.5 -43.5t111.5 43.5t55.5 106.5l16 99h-56l-2 -7q-1 -8 -4 -31t-5 -36q-8 -43 -18 -63q-31 -57 -89 -57q-40 0 -59.5 27.5
t-13.5 67.5l23 147h231zM163 341l15 95q6 41 33.5 67t69.5 26q40 0 59 -26.5t13 -66.5l-15 -95h-175z" />
    <glyph glyph-name="edieresis" unicode="&#xeb;" 
d="M281 669q2 16 -8 26.5t-26 10.5q-17 0 -29 -10.5t-14 -26.5t6 -27.5t25 -11.5t30.5 11.5t15.5 27.5zM376 668q2 16 -8 26.5t-26 10.5t-28.5 -11t-14.5 -26t6.5 -27t24.5 -12q17 0 30 11.5t16 27.5zM371 285l24 151q10 63 -22 104.5t-98 41.5q-65 0 -110.5 -41.5
t-55.5 -104.5l-47 -298q-10 -63 22 -106.5t97 -43.5q66 0 111.5 43.5t55.5 106.5l16 99h-56l-2 -7q-1 -8 -4 -31t-5 -36q-8 -43 -18 -63q-31 -57 -89 -57q-40 0 -59 27.5t-13 67.5l23 147h230zM150 341l15 95q6 41 33 67t69 26q40 0 59 -26.5t13 -66.5l-15 -95h-174z" />
    <glyph glyph-name="igrave" unicode="&#xec;" horiz-adv-x="175" 
d="M263 602l42 42l-158 96l-54 -47zM60 0h56l92 582h-56z" />
    <glyph glyph-name="iacute" unicode="&#xed;" horiz-adv-x="172" 
d="M308 700l-31 47l-194 -96l31 -42zM57 0h56l92 582h-56z" />
    <glyph glyph-name="icircumflex" unicode="&#xee;" horiz-adv-x="218" 
d="M210 727l-162 -120h86l81 57l59 -57h87l-121 120h-30zM81 0h56l92 582h-56z" />
    <glyph glyph-name="idieresis" unicode="&#xef;" horiz-adv-x="150" 
d="M172 669q2 16 -7 26.5t-25 10.5t-30 -11t-16 -26q-2 -16 7.5 -27.5t26.5 -11.5q16 0 29 12t15 27zM269 668q2 16 -8 26.5t-26 10.5t-30 -11t-16 -26q-3 -16 7 -27.5t27 -11.5t30 11.5t16 27.5zM48 0h53l92 582h-53z" />
    <glyph glyph-name="eth" unicode="&#xf0;" horiz-adv-x="457" 
d="M496 496h-90l8 55q10 63 -22 104.5t-98 41.5q-65 0 -111 -41.5t-56 -104.5l-8 -54h61l8 54q7 41 31.5 65t65.5 24q39 0 56.5 -25t11.5 -64l-8 -55h-98l-9 -55h98l-8 -48q-30 22 -78 22q-66 0 -111.5 -40.5t-55.5 -103.5l-22 -136q-10 -63 22.5 -105t98.5 -42t111 41.5
t55 105.5l49 306h90zM309 271l-22 -136q-6 -39 -31.5 -65t-64.5 -26q-82 0 -69 91l22 136q15 90 98 90q38 0 55.5 -25.5t11.5 -64.5z" />
    <glyph glyph-name="ntilde" unicode="&#xf1;" 
d="M353 691l18 2l2 -9q-2 -11 -12 -11q-12 0 -27 10q-3 4 -13 12q-2 2 -7 6t-8 7q-41 39 -76 39q-25 0 -46 -15.5t-25 -39.5l-3 -15q-7 -48 52 -58l8 -1l8 53l-5 1q-3 0 -7 2h-2l-1 1l1 9q3 12 12 12q12 0 25 -11q9 -7 29 -25q41 -39 76 -39q28 0 48.5 19t24.5 45
q5 24 -8 42q-5 6 -15 13t-18 7h-22zM339 434l-69 -434h56l69 434q10 64 -22 105.5t-98 41.5t-111 -42t-55 -105l-69 -434h56l69 434q6 41 33 67t68 26q40 0 59.5 -26.5t13.5 -66.5z" />
    <glyph glyph-name="ograve" unicode="&#xf2;" 
d="M355 602l44 42l-161 96l-49 -47zM347 135l48 298q9 63 -23 105.5t-97 42.5q-66 0 -111.5 -42.5t-54.5 -105.5l-48 -298q-9 -63 23 -106t97 -43q66 0 111 42.5t55 106.5zM117 135l48 298q6 41 33 67.5t68 26.5q40 0 59.5 -27t13.5 -67l-48 -298q-6 -40 -34.5 -67
t-67.5 -27q-41 0 -59.5 26.5t-12.5 67.5z" />
    <glyph glyph-name="oacute" unicode="&#xf3;" 
d="M405 700l-33 47l-191 -96l28 -42zM347 135l48 298q9 63 -23 105.5t-97 42.5q-66 0 -111.5 -42.5t-54.5 -105.5l-48 -298q-9 -63 23 -106t97 -43q66 0 111 42.5t55 106.5zM117 135l48 298q6 41 33 67.5t68 26.5q40 0 59.5 -27t13.5 -67l-48 -298q-6 -40 -34.5 -67
t-67.5 -27q-41 0 -59.5 26.5t-12.5 67.5z" />
    <glyph glyph-name="ocircumflex" unicode="&#xf4;" horiz-adv-x="393" 
d="M136 607h86l81 57l59 -57h87l-121 120h-30zM361 135l48 298q9 63 -23 105.5t-97 42.5q-66 0 -111.5 -42.5t-54.5 -105.5l-48 -298q-9 -63 22.5 -106t97.5 -43t111 42.5t55 106.5zM353 433l-48 -298q-6 -40 -34.5 -67t-67.5 -27q-41 0 -60 26.5t-13 67.5l48 298
q6 40 33.5 67t68.5 27q40 0 59.5 -27t13.5 -67z" />
    <glyph glyph-name="otilde" unicode="&#xf5;" 
d="M352 691l18 2l2 -9q-2 -11 -12 -11q-13 0 -26 10l-14 12q-2 2 -7 6t-8 7q-41 39 -75 39q-25 0 -46.5 -15t-25.5 -40l-3 -15q-7 -48 52 -58l8 -1l8 53l-5 1q-3 0 -7 2l-2 1q-1 1 0 9q3 12 13 12t24 -11q9 -7 29 -25q43 -39 76 -39q28 0 48.5 19t24.5 45q5 24 -8 42
q-5 6 -15 13t-18 7h-22zM347 135l48 298q9 63 -23 105.5t-97 42.5q-66 0 -111.5 -42.5t-54.5 -105.5l-48 -298q-9 -63 23 -106t97 -43q66 0 111 42.5t55 106.5zM339 433l-48 -298q-6 -40 -34.5 -67t-67.5 -27q-41 0 -59.5 26.5t-12.5 67.5l48 298q6 41 33 67.5t68 26.5
q40 0 59.5 -27t13.5 -67z" />
    <glyph glyph-name="odieresis" unicode="&#xf6;" 
d="M281 669q2 16 -8 26.5t-26 10.5q-17 0 -29 -10.5t-14 -26.5t6 -27.5t25 -11.5t30.5 11.5t15.5 27.5zM376 668q2 16 -8 26.5t-26 10.5t-28.5 -11t-14.5 -26t6.5 -27t24.5 -12q17 0 30 11.5t16 27.5zM347 135l48 298q9 63 -23 105.5t-97 42.5q-66 0 -111.5 -42.5
t-54.5 -105.5l-48 -298q-9 -63 23 -106t97 -43q66 0 111 42.5t55 106.5zM339 433l-48 -298q-6 -40 -34.5 -67t-67.5 -27q-41 0 -59.5 26.5t-12.5 67.5l48 298q6 41 33 67.5t68 26.5q40 0 59.5 -27t13.5 -67z" />
    <glyph glyph-name="divide" unicode="&#xf7;" horiz-adv-x="549" 
d="M373 408q2 16 -7.5 28t-26.5 12t-30.5 -12t-15.5 -28q-3 -15 7.5 -26t26.5 -11t29.5 11t16.5 26zM90 314l-9 -55h469l9 55h-469zM336 176q2 16 -7.5 27.5t-26.5 11.5t-30.5 -11.5t-15.5 -27.5t8 -26.5t26 -10.5t30 11t16 26z" />
    <glyph glyph-name="oslash" unicode="&#xf8;" 
d="M107 5l-30 -105h54l29 87q4 0 11 -0.5t10 -0.5q66 0 111 42.5t55 106.5l48 298q6 41 -6.5 78t-45.5 55l36 119h-54l-33 -105q-6 1 -17 1q-66 0 -111.5 -42.5t-54.5 -105.5l-48 -298q-6 -39 5 -75.5t41 -54.5zM117 135l48 298q6 41 33 67.5t68 26.5h8l-146 -457
q-16 25 -11 65zM339 433l-48 -298q-6 -40 -34.5 -67t-67.5 -27q-9 0 -12 1l146 461q23 -26 16 -70z" />
    <glyph glyph-name="ugrave" unicode="&#xf9;" 
d="M355 602l44 42l-161 96l-49 -47zM418 582h-56l-70 -445q-6 -40 -34.5 -67t-67.5 -27q-41 0 -60 27t-12 67l70 445h-56l-70 -445q-10 -63 22 -106t97 -43q66 0 111.5 42.5t55.5 106.5z" />
    <glyph glyph-name="uacute" unicode="&#xfa;" 
d="M405 700l-33 47l-191 -96l28 -42zM418 582h-56l-70 -445q-6 -40 -34.5 -67t-67.5 -27q-41 0 -60 27t-12 67l70 445h-56l-70 -445q-10 -63 22 -106t97 -43q66 0 111.5 42.5t55.5 106.5z" />
    <glyph glyph-name="ucircumflex" unicode="&#xfb;" horiz-adv-x="393" 
d="M298 727l-162 -120h86l81 57l59 -57h87l-121 120h-30zM432 582h-56l-70 -445q-6 -40 -34.5 -67t-67.5 -27q-41 0 -60.5 27t-12.5 67l70 445h-55l-70 -445q-10 -63 21.5 -106t97.5 -43t111.5 42.5t55.5 106.5z" />
    <glyph glyph-name="udieresis" unicode="&#xfc;" 
d="M281 669q2 16 -8 26.5t-26 10.5q-17 0 -29 -10.5t-14 -26.5t6 -27.5t25 -11.5t30.5 11.5t15.5 27.5zM376 668q2 16 -8 26.5t-26 10.5t-28.5 -11t-14.5 -26t6.5 -27t24.5 -12q17 0 30 11.5t16 27.5zM418 582h-56l-70 -445q-6 -40 -34.5 -67t-67.5 -27q-41 0 -60 27t-12 67
l70 445h-56l-70 -445q-10 -63 22 -106t97 -43q66 0 111.5 42.5t55.5 106.5z" />
    <glyph glyph-name="yacute" unicode="&#xfd;" horiz-adv-x="362" 
d="M403 700l-33 47l-191 -96l28 -42zM362 582l-70 -444q-6 -40 -34.5 -67.5t-67.5 -27.5q-40 0 -59 27.5t-13 67.5l70 444h-56l-70 -444q-10 -64 23 -107t96 -43q49 0 92 29l-3 -14q-6 -40 -34 -67.5t-68 -27.5q-79 0 -72 91h-56q-5 -63 24 -103.5t96 -40.5q65 0 111 43
t55 105l92 579h-56z" />
    <glyph glyph-name="ydieresis" unicode="&#xff;" horiz-adv-x="362" 
d="M279 669q2 16 -8 26.5t-26 10.5q-17 0 -29 -10.5t-14 -26.5t6 -27.5t25 -11.5t30.5 11.5t15.5 27.5zM374 668q2 16 -7.5 26.5t-25.5 10.5q-15 0 -28.5 -11t-15.5 -26t7 -27t25 -12q17 0 30 11.5t15 27.5zM362 582l-70 -444q-6 -40 -34.5 -67.5t-67.5 -27.5
q-40 0 -59 27.5t-13 67.5l70 444h-56l-70 -444q-10 -64 23 -107t96 -43q49 0 92 29l-3 -14q-6 -40 -34 -67.5t-68 -27.5q-79 0 -72 91h-56q-5 -63 24 -103.5t96 -40.5q65 0 111 43t55 105l92 579h-56z" />
    <glyph glyph-name="Amacron" unicode="&#x100;" horiz-adv-x="401" 
d="M203 713h223l9 56h-223zM98 0l44 124h174l5 -124h56l-32 689h-54l-251 -689h58zM162 179l135 372l14 -372h-149z" />
    <glyph glyph-name="amacron" unicode="&#x101;" 
d="M173 616h223l9 57h-223zM85 285l-24 -150q-10 -64 22 -106t98 -42t111.5 42.5t54.5 105.5l48 298q9 63 -23 105.5t-97 42.5q-66 0 -111.5 -42.5t-54.5 -105.5l-16 -100h56l16 100q6 40 33.5 67t67.5 27q39 0 58.5 -27.5t14.5 -66.5l-24 -148h-230zM306 229l-15 -94
q-6 -40 -33.5 -67t-68.5 -27t-59.5 26.5t-12.5 67.5l15 94h174z" />
    <glyph glyph-name="Abreve" unicode="&#x102;" horiz-adv-x="401" 
d="M276 814h-54l-1 -7q-9 -59 14 -81.5t85 -22.5q119 0 133 86l4 25h-59l-1 -7l-3 -19q-1 -10 -6 -16q-8 -8 -25 -11q-13 -2 -34 -2h-19q-18 3 -19 3q-18 3 -19 19q-1 3 1 12zM98 0l44 124h174l5 -124h56l-32 689h-54l-251 -689h58zM162 179l135 372l14 -372h-149z" />
    <glyph glyph-name="abreve" unicode="&#x103;" 
d="M240 715h-54l-1 -7q-9 -59 14 -81t86 -22q119 0 132 85l4 25h-59l-1 -7l-3 -18q-1 -8 -5 -16q-9 -9 -25 -12q-12 -2 -34 -2h-19q-19 3 -20 3q-18 5 -19 20q0 7 1 12l2 13zM85 285l-24 -150q-10 -64 22 -106t98 -42t111.5 42.5t54.5 105.5l48 298q9 63 -23 105.5t-97 42.5
q-66 0 -111.5 -42.5t-54.5 -105.5l-16 -100h56l16 100q6 40 33.5 67t67.5 27q39 0 58.5 -27.5t14.5 -66.5l-24 -148h-230zM306 229l-15 -94q-6 -40 -33.5 -67t-68.5 -27t-59.5 26.5t-12.5 67.5l15 94h174z" />
    <glyph glyph-name="Cacute" unicode="&#x106;" horiz-adv-x="367" 
d="M420 797l-32 46l-191 -94l28 -44zM127 551l-66 -417q-10 -62 22.5 -104t97.5 -42t110.5 41.5t55.5 104.5l20 128h-55l-20 -129q-6 -38 -34.5 -64.5t-67.5 -26.5q-40 0 -60 26.5t-14 64.5l67 420q6 40 33.5 64.5t68.5 24.5q39 0 59.5 -25.5t14.5 -63.5l-21 -130h55l20 128
q10 63 -22 104.5t-98 41.5t-111 -41.5t-55 -104.5z" />
    <glyph glyph-name="cacute" unicode="&#x107;" 
d="M209 609l196 91l-33 47l-191 -96zM323 333h56l16 100q9 63 -23 105.5t-97 42.5q-66 0 -111.5 -42.5t-54.5 -105.5l-48 -298q-9 -63 23 -106t97 -43q66 0 111.5 43.5t55.5 106.5l15 99h-56l-15 -99q-6 -39 -35 -67t-68 -28q-41 0 -59.5 26.5t-12.5 67.5l48 298
q6 41 33 67.5t68 26.5q39 0 58.5 -27.5t14.5 -66.5z" />
    <glyph glyph-name="Ccircumflex" unicode="&#x108;" horiz-adv-x="394" 
d="M316 839l-162 -120h86l81 57l59 -57h87l-121 120h-30zM141 551l-66 -417q-10 -63 22 -104.5t98 -41.5q65 0 110.5 41.5t55.5 104.5l20 128h-55l-20 -129q-6 -38 -34.5 -64.5t-67.5 -26.5q-40 0 -60.5 26.5t-14.5 64.5l67 420q6 40 34 64.5t69 24.5q39 0 59.5 -25.5
t14.5 -63.5l-21 -130h55l20 128q10 63 -22 104.5t-98 41.5t-111 -41t-55 -105z" />
    <glyph glyph-name="ccircumflex" unicode="&#x109;" horiz-adv-x="393" 
d="M328 727h-30l-162 -120h86l81 57l59 -57h87zM337 333h56l16 100q9 63 -23 105.5t-97 42.5q-66 0 -111.5 -42.5t-54.5 -105.5l-48 -298q-9 -63 22.5 -106t97.5 -43t111.5 43.5t55.5 106.5l15 99h-56l-15 -99q-6 -39 -35 -67t-68 -28q-41 0 -60 26.5t-13 67.5l48 298
q6 40 33.5 67t68.5 27q39 0 58.5 -27.5t14.5 -66.5z" />
    <glyph glyph-name="Cdotaccent" unicode="&#x10a;" horiz-adv-x="367" 
d="M345 752q2 16 -7 27.5t-26 11.5t-30.5 -12t-15.5 -27q-2 -16 8 -27t26 -11t29.5 11t15.5 27zM127 551l-66 -417q-10 -62 22.5 -104t97.5 -42t110.5 41.5t55.5 104.5l20 128h-55l-20 -129q-6 -38 -34.5 -64.5t-67.5 -26.5q-40 0 -60 26.5t-14 64.5l67 420q6 40 33.5 64.5
t68.5 24.5q39 0 59.5 -25.5t14.5 -63.5l-21 -130h55l20 128q10 63 -22 104.5t-98 41.5t-111 -41.5t-55 -104.5z" />
    <glyph glyph-name="cdotaccent" unicode="&#x10b;" 
d="M332 668q2 16 -8 26.5t-26 10.5t-30 -11t-16 -26q-3 -16 7 -27.5t27 -11.5t30 11.5t16 27.5zM323 333h56l16 100q9 63 -23 105.5t-97 42.5q-66 0 -111.5 -42.5t-54.5 -105.5l-48 -298q-9 -63 23 -106t97 -43q66 0 111.5 43.5t55.5 106.5l15 99h-56l-15 -99
q-6 -39 -35 -67t-68 -28q-41 0 -59.5 26.5t-12.5 67.5l48 298q6 41 33 67.5t68 26.5q39 0 58.5 -27.5t14.5 -66.5z" />
    <glyph glyph-name="Ccaron" unicode="&#x10c;" horiz-adv-x="394" 
d="M171 826l124 -120h30l159 120h-87l-77 -57l-64 57h-85zM134 551l-66 -417q-10 -62 22.5 -104t97.5 -42t110.5 41.5t55.5 104.5l20 128h-55l-20 -129q-6 -38 -34.5 -64.5t-67.5 -26.5q-40 0 -60 26.5t-14 64.5l67 420q6 40 33.5 64.5t68.5 24.5q39 0 59.5 -25.5
t14.5 -63.5l-21 -130h55l20 128q10 63 -22 104.5t-98 41.5t-111 -41.5t-55 -104.5z" />
    <glyph glyph-name="ccaron" unicode="&#x10d;" horiz-adv-x="393" 
d="M241 727h-86l124 -120h30l159 120h-87l-77 -57zM336 333h56l16 100q9 63 -23 105.5t-97 42.5q-66 0 -111.5 -42.5t-54.5 -105.5l-48 -298q-9 -63 22.5 -106t97.5 -43t111.5 43.5t55.5 106.5l15 99h-56l-15 -99q-6 -39 -35 -67t-68 -28q-41 0 -60 26.5t-13 67.5l48 298
q6 40 33.5 67t68.5 27q39 0 58.5 -27.5t14.5 -66.5z" />
    <glyph glyph-name="Dcaron" unicode="&#x10e;" horiz-adv-x="393" 
d="M295 706h30l159 120h-87l-77 -57l-63 57h-86zM48 0h140q62 0 115 31.5t62 89.5l71 448q10 59 -33 89.5t-106 30.5h-140zM112 55l91 579h85q40 0 69.5 -16.5t23.5 -48.5l-71 -448q-5 -31 -39.5 -48.5t-73.5 -17.5h-85z" />
    <glyph glyph-name="dcaron" unicode="&#x10f;" horiz-adv-x="501" 
d="M437 542h61l81 155h-64zM109 433l-48 -298q-9 -63 23 -106t97 -43q66 0 111 42.5t55 106.5l88 554h-56l-21 -134q-30 26 -83 26q-66 0 -111.5 -42.5t-54.5 -105.5zM339 433l-48 -298q-6 -40 -34.5 -67t-67.5 -27q-41 0 -59.5 26.5t-12.5 67.5l48 298q6 41 33 67.5
t68 26.5q40 0 59.5 -27t13.5 -67z" />
    <glyph glyph-name="Dcroat" unicode="&#x110;" horiz-adv-x="442" 
d="M421 121l71 448q10 60 -32.5 90t-106.5 30h-140l-48 -301h-85l-9 -58h85l-52 -330h140q63 0 115.5 31t61.5 90zM260 634h84q41 0 70 -16.5t23 -48.5l-71 -448q-5 -32 -39.5 -49t-73.5 -17h-84l43 275h82l9 58h-82z" />
    <glyph glyph-name="dcroat" unicode="&#x111;" horiz-adv-x="430" 
d="M109 433l-48 -298q-9 -63 23 -106t97 -43q66 0 111 42.5t55 106.5l68 426h97l9 56h-97l11 72h-56l-11 -72h-96l-6 -36q-63 -3 -105.5 -45t-51.5 -103zM350 561h9l-1 -6zM117 135l48 298q6 41 33 67.5t68 26.5q39 0 59 -27.5t14 -66.5l-48 -298q-6 -40 -34.5 -67
t-67.5 -27q-40 0 -59 27t-13 67z" />
    <glyph glyph-name="Emacron" unicode="&#x112;" horiz-adv-x="345" 
d="M177 783l-9 -56h223l9 56h-223zM196 634h202l9 55h-258l-109 -689h259l9 55h-203l44 279h203l9 55h-203z" />
    <glyph glyph-name="emacron" unicode="&#x113;" 
d="M173 616h223l9 57h-223zM371 285l24 151q10 63 -22 104.5t-98 41.5q-65 0 -110.5 -41.5t-55.5 -104.5l-47 -298q-10 -63 22 -106.5t97 -43.5q66 0 111.5 43.5t55.5 106.5l16 99h-56l-2 -7q-1 -8 -4 -31t-5 -36q-8 -43 -18 -63q-31 -57 -89 -57q-40 0 -59 27.5t-13 67.5
l23 147h230zM150 341l15 95q6 41 33 67t69 26q40 0 59 -26.5t13 -66.5l-15 -95h-174z" />
    <glyph glyph-name="Ebreve" unicode="&#x114;" horiz-adv-x="345" 
d="M231 814h-57l-1 -7q-9 -59 14.5 -82t84.5 -23q119 0 133 86l4 26h-58l-1 -7l-3 -20q-2 -9 -4 -13q-5 -11 -25 -13q-10 -3 -19 -3h-24q-8 -1 -24 1q-25 5 -25 21l1 12l3 15zM196 634h202l9 55h-258l-109 -689h259l9 55h-203l44 279h203l9 55h-203z" />
    <glyph glyph-name="ebreve" unicode="&#x115;" 
d="M240 715h-54l-1 -7q-9 -59 14 -81t86 -22q119 0 132 85l4 25h-59l-1 -7l-3 -18q-1 -8 -5 -16q-9 -9 -25 -12q-12 -2 -34 -2h-19q-19 3 -20 3q-18 5 -19 20q0 7 1 12l2 13zM371 285l24 151q10 63 -22 104.5t-98 41.5q-65 0 -110.5 -41.5t-55.5 -104.5l-47 -298
q-10 -63 22 -106.5t97 -43.5q66 0 111.5 43.5t55.5 106.5l16 99h-56l-2 -7q-1 -8 -4 -31t-5 -36q-8 -43 -18 -63q-31 -57 -89 -57q-40 0 -59 27.5t-13 67.5l23 147h230zM150 341l15 95q6 41 33 67t69 26q40 0 59 -26.5t13 -66.5l-15 -95h-174z" />
    <glyph glyph-name="Edotaccent" unicode="&#x116;" horiz-adv-x="345" 
d="M332 752q2 15 -7.5 27t-26.5 12t-30.5 -12t-15.5 -27q-2 -16 8 -27t26 -11t30 11t16 27zM196 634h202l9 55h-258l-109 -689h259l9 55h-203l44 279h203l9 55h-203z" />
    <glyph glyph-name="edotaccent" unicode="&#x117;" 
d="M332 668q2 16 -8 26.5t-26 10.5t-30 -11t-16 -26q-3 -16 7 -27.5t27 -11.5t30 11.5t16 27.5zM371 285l24 151q10 63 -22 104.5t-98 41.5q-65 0 -110.5 -41.5t-55.5 -104.5l-47 -298q-10 -63 22 -106.5t97 -43.5q66 0 111.5 43.5t55.5 106.5l16 99h-56l-2 -7q-1 -8 -4 -31
t-5 -36q-8 -43 -18 -63q-31 -57 -89 -57q-40 0 -59 27.5t-13 67.5l23 147h230zM150 341l15 95q6 41 33 67t69 26q40 0 59 -26.5t13 -66.5l-15 -95h-174z" />
    <glyph glyph-name="Ecaron" unicode="&#x11a;" horiz-adv-x="399" 
d="M169 814l124 -121h30l159 121h-87l-77 -56l-63 56h-86zM227 634h204l9 55h-258l-109 -689h259l9 55h-205l44 279h205l9 55h-205z" />
    <glyph glyph-name="ecaron" unicode="&#x11b;" horiz-adv-x="393" 
d="M279 607h30l159 120h-87l-77 -57l-63 57h-86zM384 285l24 151q10 63 -22 104.5t-98 41.5t-111 -41.5t-55 -104.5l-47 -298q-10 -63 21.5 -106.5t97.5 -43.5t111.5 43.5t55.5 106.5l16 99h-56l-2 -7q-1 -8 -4 -31t-5 -36q-8 -43 -18 -63q-31 -57 -89 -57q-40 0 -59.5 27.5
t-13.5 67.5l23 147h231zM162 341l15 95q6 41 33.5 67t69.5 26q40 0 59 -26.5t13 -66.5l-15 -95h-175z" />
    <glyph glyph-name="Gcircumflex" unicode="&#x11c;" horiz-adv-x="404" 
d="M154 717h86l81 57l59 -57h87l-121 120h-30zM234 357l-9 -52h108l-27 -172q-6 -38 -34.5 -64.5t-67.5 -26.5t-60 26.5t-15 64.5l67 420q6 40 33.5 64.5t69.5 24.5q39 0 59.5 -25t14.5 -64l-21 -130h55l20 128q10 63 -22 104.5t-98 41.5t-111 -41t-55 -105l-66 -417
q-10 -63 22 -104.5t98 -41.5t111 41.5t55 104.5l36 223h-163z" />
    <glyph glyph-name="gcircumflex" unicode="&#x11d;" horiz-adv-x="387" 
d="M136 607h86l81 57l59 -57h87l-121 120h-30zM40 -1q-5 -63 24 -103.5t96 -40.5q65 0 111 43t55 105l69 433q10 63 -22 104.5t-98 41.5q-65 0 -110.5 -41.5t-55.5 -104.5l-47 -298q-10 -64 23 -107t96 -43q49 0 92 29l-3 -14q-6 -40 -34 -67.5t-68 -27.5q-79 0 -72 91h-56z
M339 436l-47 -298q-6 -40 -34.5 -67.5t-67.5 -27.5q-40 0 -59 27.5t-13 67.5l47 298q6 41 33 67t69 26q40 0 59 -26.5t13 -66.5z" />
    <glyph glyph-name="Gbreve" unicode="&#x11e;" horiz-adv-x="377" 
d="M244 815h-55l-1 -7q-9 -59 15 -81.5t85 -22.5q118 0 132 86l4 25h-59l-1 -7l-3 -20l-4 -12q-5 -11 -25 -13q-6 -2 -9 -2q-4 -1 -9 -1h-23q-17 0 -24 1q-26 3 -27 21q-1 3 1 12zM220 357l-9 -52h108l-27 -172q-6 -38 -34.5 -64.5t-67.5 -26.5t-59.5 26.5t-14.5 64.5
l67 420q6 40 33.5 64.5t68.5 24.5q39 0 59.5 -25t14.5 -64l-21 -130h55l20 128q10 63 -22 104.5t-98 41.5t-111 -41.5t-55 -104.5l-66 -417q-10 -62 22.5 -104t97.5 -42q66 0 111 41.5t55 104.5l36 223h-163z" />
    <glyph glyph-name="gbreve" unicode="&#x11f;" horiz-adv-x="360" 
d="M222 707h-56l-1 -6q-9 -59 15 -81.5t85 -22.5q118 0 132 86l4 24h-59l-1 -6l-3 -20l-4 -12q-5 -11 -25 -14q-6 -2 -10 -2q-3 -1 -8 -1h-23q-17 0 -25 1q-24 5 -25 21q-1 4 1 13l2 14zM40 -1q-5 -63 24 -103.5t96 -40.5q65 0 111 43t55 105l69 433q10 63 -22 104.5
t-98 41.5q-65 0 -110.5 -41.5t-55.5 -104.5l-47 -298q-10 -64 23 -107t96 -43q49 0 92 29l-3 -14q-6 -40 -34 -67.5t-68 -27.5q-79 0 -72 91h-56zM339 436l-47 -298q-6 -40 -34.5 -67.5t-67.5 -27.5q-40 0 -59 27.5t-13 67.5l47 298q6 41 33 67t69 26q40 0 59 -26.5
t13 -66.5z" />
    <glyph glyph-name="Gdotaccent" unicode="&#x120;" horiz-adv-x="377" 
d="M345 752q2 16 -7 27.5t-26 11.5t-30.5 -12t-15.5 -27q-2 -16 8 -27t26 -11t29.5 11t15.5 27zM220 357l-9 -52h108l-27 -172q-6 -38 -34.5 -64.5t-67.5 -26.5t-59.5 26.5t-14.5 64.5l67 420q6 40 33.5 64.5t68.5 24.5q39 0 59.5 -25t14.5 -64l-21 -130h55l20 128
q10 63 -22 104.5t-98 41.5t-111 -41.5t-55 -104.5l-66 -417q-10 -62 22.5 -104t97.5 -42q66 0 111 41.5t55 104.5l36 223h-163z" />
    <glyph glyph-name="gdotaccent" unicode="&#x121;" horiz-adv-x="360" 
d="M329 668q2 16 -8 26.5t-26 10.5t-30 -11t-16 -26q-3 -16 7 -27.5t27 -11.5t30 11.5t16 27.5zM40 -1q-5 -63 24 -103.5t96 -40.5q65 0 111 43t55 105l69 433q10 63 -22 104.5t-98 41.5q-65 0 -110.5 -41.5t-55.5 -104.5l-47 -298q-10 -64 23 -107t96 -43q49 0 92 29
l-3 -14q-6 -40 -34 -67.5t-68 -27.5q-79 0 -72 91h-56zM339 436l-47 -298q-6 -40 -34.5 -67.5t-67.5 -27.5q-40 0 -59 27.5t-13 67.5l47 298q6 41 33 67t69 26q40 0 59 -26.5t13 -66.5z" />
    <glyph glyph-name="Hcircumflex" unicode="&#x124;" horiz-adv-x="393" 
d="M316 841l-162 -120h86l81 57l59 -57h87l-121 120h-30zM456 689h-56l-47 -300h-187l47 300h-55l-109 -689h55l53 334h187l-53 -334h56z" />
    <glyph glyph-name="hcircumflex" unicode="&#x125;" horiz-adv-x="393" 
d="M316 841l-162 -120h86l81 57l59 -57h87l-121 120h-30zM163 689l-109 -689h55l69 433q6 40 34 67t68 27t59.5 -27t13.5 -67l-69 -433h56l69 433q9 63 -23 105.5t-97 42.5q-54 0 -92 -26l21 134h-55z" />
    <glyph glyph-name="Hbar" unicode="&#x126;" horiz-adv-x="378" 
d="M204 777l-9 -56h223l9 56h-223zM447 689h-56l-47 -300h-186l47 300h-56l-109 -689h56l53 334h186l-53 -334h56z" />
    <glyph glyph-name="hbar" unicode="&#x127;" 
d="M198 777l-9 -56h223l9 56h-223zM149 689l-109 -689h56l69 433q6 40 33.5 67t67.5 27t59.5 -27t13.5 -67l-69 -433h56l69 433q9 63 -23 105.5t-97 42.5q-54 0 -91 -26l21 134h-56z" />
    <glyph glyph-name="Itilde" unicode="&#x128;" horiz-adv-x="154" 
d="M241 797l18 2l2 -9q-1 -12 -13 -12q-11 0 -24 10q-10 7 -29 26q-45 38 -75 38q-25 0 -47.5 -14.5t-26.5 -39.5l-2 -16q-8 -50 53 -57l8 -1l8 52l-6 1l-7 1q-2 1 -1 2q-2 0 -1 10q1 11 14 11q10 0 23 -10q9 -7 28 -26q45 -38 77 -38q28 0 48.5 19t24.5 45q4 29 -8 42
q-16 19 -33 19h-22zM37 0h56l109 689h-56z" />
    <glyph glyph-name="itilde" unicode="&#x129;" horiz-adv-x="140" 
d="M233 691l18 2l2 -9q-2 -11 -12 -11q-11 0 -26 10q-4 3 -13.5 12t-15.5 13q-41 39 -74 39q-25 0 -47 -15t-26 -40l-3 -15q-8 -50 53 -58l8 -1l8 53l-12 2q-2 1 -2 2q-2 0 -1 9q3 12 14 12t24 -10l28 -26q43 -39 76 -39q28 0 48.5 19t24.5 45q5 24 -8 42q-5 6 -15 13t-18 7
h-22zM45 0h56l92 582h-56z" />
    <glyph glyph-name="Imacron" unicode="&#x12a;" horiz-adv-x="135" 
d="M75 775l-9 -56h223l9 56h-223zM37 0h56l109 689h-56z" />
    <glyph glyph-name="imacron" unicode="&#x12b;" horiz-adv-x="154" 
d="M57 696l-9 -58h223l9 58h-223zM45 0h56l92 582h-56z" />
    <glyph glyph-name="Idotaccent" unicode="&#x130;" horiz-adv-x="134" 
d="M231 772q2 16 -6.5 28t-24.5 12q-17 0 -30.5 -12t-16.5 -28q-2 -15 8 -26.5t26 -11.5t29 11.5t15 26.5zM40 0h55l109 689h-55z" />
    <glyph glyph-name="dotlessi" unicode="&#x131;" horiz-adv-x="153" 
d="M48 0h56l92 582h-56z" />
    <glyph glyph-name="Nacute" unicode="&#x143;" horiz-adv-x="381" 
d="M427 797l-32 46l-191 -94l28 -44zM151 689l-108 -689h55l81 510l109 -510h51l109 689h-56l-82 -516l-109 516h-50z" />
    <glyph glyph-name="nacute" unicode="&#x144;" 
d="M405 700l-33 47l-191 -96l28 -42zM339 434l-69 -434h56l69 434q10 64 -22 105.5t-98 41.5t-111 -42t-55 -105l-69 -434h56l69 434q6 41 33 67t68 26q40 0 59.5 -26.5t13.5 -66.5z" />
    <glyph glyph-name="Ncaron" unicode="&#x147;" horiz-adv-x="397" 
d="M172 821l124 -120h30l159 120h-87l-77 -58l-63 58h-86zM159 689l-108 -689h54l81 510l110 -510h51l109 689h-56l-82 -516l-109 516h-50z" />
    <glyph glyph-name="ncaron" unicode="&#x148;" horiz-adv-x="393" 
d="M155 727l124 -120h30l159 120h-87l-77 -57l-63 57h-86zM352 434l-69 -434h56l69 434q10 64 -22 105.5t-98 41.5t-111 -42t-55 -105l-69 -434h55l69 434q6 41 33 67t69 26q40 0 59.5 -26.5t13.5 -66.5z" />
    <glyph glyph-name="Omacron" unicode="&#x14c;" 
d="M188 716h223l9 56h-223zM127 551l-66 -417q-10 -62 22.5 -104t97.5 -42t110.5 41.5t55.5 104.5l66 417q10 63 -22 104.5t-98 41.5t-111 -41.5t-55 -104.5zM359 553l-67 -420q-6 -38 -35 -64.5t-67 -26.5q-40 0 -60 26.5t-14 64.5l67 420q6 40 33.5 64.5t68.5 24.5
q39 0 59.5 -25t14.5 -64z" />
    <glyph glyph-name="omacron" unicode="&#x14d;" 
d="M173 616h223l9 57h-223zM347 135l48 298q9 63 -23 105.5t-97 42.5q-66 0 -111.5 -42.5t-54.5 -105.5l-48 -298q-9 -63 23 -106t97 -43q66 0 111 42.5t55 106.5zM339 433l-48 -298q-6 -40 -34.5 -67t-67.5 -27q-41 0 -59.5 26.5t-12.5 67.5l48 298q6 41 33 67.5t68 26.5
q40 0 59.5 -27t13.5 -67z" />
    <glyph glyph-name="Obreve" unicode="&#x14e;" 
d="M258 821h-54l-1 -7q-9 -60 14 -82t85 -22q120 0 133 86l4 25h-59l-1 -7l-3 -19q-1 -10 -6 -16q-7 -9 -25 -12q-12 -2 -34 -2h-19q-17 3 -19 3q-18 5 -19 20q-1 3 1 12zM127 551l-66 -417q-10 -62 22.5 -104t97.5 -42t110.5 41.5t55.5 104.5l66 417q10 63 -22 104.5
t-98 41.5t-111 -41.5t-55 -104.5zM359 553l-67 -420q-6 -38 -35 -64.5t-67 -26.5q-40 0 -60 26.5t-14 64.5l67 420q6 40 33.5 64.5t68.5 24.5q39 0 59.5 -25t14.5 -64z" />
    <glyph glyph-name="obreve" unicode="&#x14f;" 
d="M240 715h-54l-1 -7q-9 -59 14 -81t86 -22q119 0 132 85l4 25h-59l-1 -7l-3 -18q-1 -8 -5 -16q-9 -9 -25 -12q-12 -2 -34 -2h-19q-19 3 -20 3q-18 5 -19 20q0 7 1 12l2 13zM347 135l48 298q9 63 -23 105.5t-97 42.5q-66 0 -111.5 -42.5t-54.5 -105.5l-48 -298
q-9 -63 23 -106t97 -43q66 0 111 42.5t55 106.5zM339 433l-48 -298q-6 -40 -34.5 -67t-67.5 -27q-41 0 -59.5 26.5t-12.5 67.5l48 298q6 41 33 67.5t68 26.5q40 0 59.5 -27t13.5 -67z" />
    <glyph glyph-name="Ohungarumlaut" unicode="&#x150;" horiz-adv-x="371" 
d="M325 888l-175 -134l42 -32l175 128zM439 888l-175 -134l42 -32l175 128zM131 551l-66 -417q-10 -62 22.5 -104t97.5 -42t110.5 41.5t55.5 104.5l66 417q10 63 -22 104.5t-98 41.5t-111 -41.5t-55 -104.5zM363 553l-67 -420q-6 -38 -35 -64.5t-67 -26.5q-40 0 -60 26.5
t-14 64.5l67 420q6 40 33.5 64.5t68.5 24.5q39 0 59.5 -25t14.5 -64z" />
    <glyph glyph-name="ohungarumlaut" unicode="&#x151;" horiz-adv-x="371" 
d="M305 781l-175 -134l42 -32l175 128zM419 781l-175 -134l42 -32l175 128zM351 135l48 298q9 63 -23 105.5t-97 42.5q-66 0 -111.5 -42.5t-54.5 -105.5l-48 -298q-9 -63 23 -106t97 -43q66 0 111 42.5t55 106.5zM121 135l48 298q6 41 33 67.5t68 26.5q40 0 59.5 -27
t13.5 -67l-48 -298q-6 -40 -34.5 -67t-67.5 -27q-41 0 -59.5 26.5t-12.5 67.5z" />
    <glyph glyph-name="OE" unicode="&#x152;" horiz-adv-x="570" 
d="M592 389h-203l38 245h202l9 55h-258l-3 -21q-33 29 -84 29q-66 0 -111 -41.5t-55 -104.5l-66 -417q-10 -62 22.5 -104t97.5 -42q51 0 93 29l-3 -17h259l9 55h-203l44 279h203zM359 553l-67 -420q-6 -38 -35 -64.5t-67 -26.5q-40 0 -60 26.5t-14 64.5l67 420
q6 40 33.5 64.5t68.5 24.5q39 0 59.5 -25t14.5 -64z" />
    <glyph glyph-name="oe" unicode="&#x153;" horiz-adv-x="591" 
d="M596 285l24 151q10 63 -22 104.5t-98 41.5q-73 0 -120 -51q-31 51 -105 51q-65 0 -110.5 -41.5t-55.5 -104.5l-47 -298q-10 -63 22 -106.5t97 -43.5q70 0 121 53q34 -53 104 -53q66 0 111.5 43.5t55.5 106.5l16 99h-59l-16 -99q-5 -28 -21 -53t-39 -35q-20 -6 -39 -6
q-39 0 -56 26.5t-11 67.5l23 147h225zM334 437l-47 -301q-7 -40 -32.5 -66t-64.5 -26q-40 0 -57 25.5t-10 66.5l47 301q7 42 31.5 66.5t65.5 24.5q40 0 56.5 -25t10.5 -66zM380 341l15 95q6 40 31.5 66t65.5 26q41 0 57 -25.5t10 -66.5l-15 -95h-164z" />
    <glyph glyph-name="Racute" unicode="&#x154;" horiz-adv-x="378" 
d="M393 840l-191 -94l28 -44l196 92zM96 0l53 334h105q33 0 55 -16t17 -45l-43 -273h55l43 273q9 58 -34 90q44 30 51 75l21 131q9 57 -31.5 88.5t-101.5 31.5h-137l-109 -689h56zM196 634h81q39 0 65.5 -17t21.5 -48l-21 -133q-3 -21 -29 -34t-52 -13h-104z" />
    <glyph glyph-name="racute" unicode="&#x155;" 
d="M405 700l-33 47l-191 -96l28 -42zM109 434l-69 -434h56l69 434q6 41 33 67t68 26q38 0 58.5 -25.5t14.5 -63.5l-4 -25h56l4 25q10 61 -23 102t-97 41q-66 0 -111 -42t-55 -105z" />
    <glyph glyph-name="Rcaron" unicode="&#x158;" horiz-adv-x="393" 
d="M294 698h30l159 120h-87l-77 -57l-63 57h-86zM103 0l53 334h106q33 0 55 -16t17 -45l-43 -273h55l43 273q9 58 -34 90q44 30 51 75l21 131q9 57 -31.5 88.5t-101.5 31.5h-137l-109 -689h55zM203 634h82q38 0 65 -17t22 -48l-21 -133q-3 -21 -29 -34t-52 -13h-105z" />
    <glyph glyph-name="rcaron" unicode="&#x159;" horiz-adv-x="393" 
d="M155 727l124 -120h30l159 120h-87l-77 -57l-63 57h-86zM122 434l-69 -434h55l69 434q6 41 33 67t69 26q38 0 58.5 -25.5t14.5 -63.5l-4 -25h56l4 25q10 61 -23 102t-97 41q-66 0 -111 -42t-55 -105z" />
    <glyph glyph-name="Sacute" unicode="&#x15a;" horiz-adv-x="365" 
d="M419 794l-33 45l-191 -94l28 -43zM137 262h-56l-1 -7q-16 -114 -22 -149q-9 -56 27.5 -87t95.5 -31q63 0 107.5 38.5t54.5 99.5q7 43 -4.5 88.5t-27.5 75t-44 72.5l-33 50q-5 8 -14 24.5t-14 24.5q-25 56 -17 100q6 37 31.5 58t64.5 21q36 0 56.5 -15.5t18.5 -46.5
q-3 -25 -10.5 -72t-10.5 -69l-2 -14h56l1 7q16 98 22 148q7 57 -27.5 88t-94.5 31q-63 0 -107.5 -38t-54.5 -98q-11 -70 33 -151q11 -20 39.5 -62.5t40.5 -64.5q50 -97 41 -157q-6 -37 -32 -59.5t-64 -22.5q-36 0 -58 15.5t-18 46.5q1 12 8 51q6 39 13 91z" />
    <glyph glyph-name="sacute" unicode="&#x15b;" horiz-adv-x="363" 
d="M403 700l-33 47l-191 -96l28 -42zM190 375q-27 39 -21 74q13 79 95 79q35 0 58.5 -17t18.5 -47l-20 -127h55l20 127q9 56 -27 87t-94 31q-63 0 -108 -36.5t-55 -96.5q-11 -69 62 -153q9 -10 29 -28t29 -29q61 -69 55 -112q-6 -37 -33 -60t-65 -23q-35 0 -59 16.5
t-19 46.5l21 130h-55l-21 -130q-9 -56 28 -87.5t96 -31.5q64 0 108.5 39t54.5 101q5 30 -9.5 64t-30 53t-47.5 55q-24 26 -36 37q-13 16 -30 38z" />
    <glyph glyph-name="Scircumflex" unicode="&#x15c;" horiz-adv-x="392" 
d="M315 832l-162 -120h86l81 57l59 -57h87l-121 120h-30zM150 262h-55l-1 -7q-16 -114 -22 -149q-9 -56 27.5 -87t95.5 -31q63 0 107.5 38.5t54.5 99.5q7 43 -4.5 88.5t-27.5 75t-44 72.5l-33 50q-5 8 -14 24.5t-14 24.5q-25 58 -18 100q6 37 32 58t65 21q36 0 56.5 -15.5
t18.5 -46.5q-3 -25 -10.5 -72t-10.5 -69l-2 -14h56l1 7q16 98 22 148q7 57 -27.5 88t-94.5 31q-63 0 -107.5 -38t-54.5 -98q-11 -69 32 -151q11 -19 40 -61.5t41 -65.5q50 -97 41 -157q-6 -37 -32 -59.5t-64 -22.5q-36 0 -58.5 15.5t-18.5 46.5q1 12 8 51q6 39 13 91z" />
    <glyph glyph-name="scircumflex" unicode="&#x15d;" horiz-adv-x="392" 
d="M297 727l-162 -120h86l81 57l59 -57h87l-121 120h-30zM204 375q-27 40 -22 74q6 38 31 58.5t65 20.5q35 0 58.5 -17t18.5 -47l-20 -127h55l20 127q9 56 -27 87t-94 31q-63 0 -108 -36.5t-55 -96.5q-11 -71 62 -153q9 -10 29 -28t29 -29q61 -72 55 -112q-6 -37 -33 -60
t-65 -23q-35 0 -59.5 16.5t-19.5 46.5l21 130h-54l-21 -130q-9 -56 28 -87.5t96 -31.5q64 0 108.5 39t54.5 101q5 30 -9.5 64t-30 53t-47.5 55q-24 26 -36 37q-13 16 -30 38z" />
    <glyph glyph-name="Scedilla" unicode="&#x15e;" horiz-adv-x="365" 
d="M189 561q6 37 31.5 58t64.5 21q35 0 56.5 -15.5t18.5 -46.5q-6 -50 -22 -148l-1 -7h56l23 155q8 55 -28 87t-94 32q-63 0 -107.5 -38t-54.5 -98q-11 -70 33 -150q13 -24 41.5 -67t38.5 -61q4 -8 24 -52q24 -58 17 -105q-6 -37 -32 -59.5t-64 -22.5q-36 0 -58 15.5
t-18 46.5q3 23 10.5 70.5t10.5 71.5l2 14h-56l-1 -7q-16 -114 -22 -149q-8 -47 18.5 -76.5t74.5 -38.5l-2 -8l-5 -31l8 12q2 -3 5.5 -8t4.5 -6q5 -8 17 -22q17 -26 15 -41q-2 -14 -12.5 -26.5t-21.5 -12.5q-19 0 -25 16q-3 12 1 37q1 4 3.5 16.5t3.5 19.5l1 7h-53l-11 -69
q-5 -33 15 -55.5t54 -22.5t56 18q15 12 27 33t15 39q7 42 -42 100l1 2q55 8 92 45.5t45 91.5q7 43 -4.5 88.5t-27.5 75t-44 72.5l-33 50q-6 10 -16.5 28.5t-11.5 21.5q-25 55 -17 99z" />
    <glyph glyph-name="scedilla" unicode="&#x15f;" horiz-adv-x="363" 
d="M204 -13l1 2q56 8 93 46.5t45 92.5q9 52 -39 117q-8 10 -23 27.5t-19 22.5l-41 41q-60 65 -52 113q6 37 32.5 58t65.5 21q36 0 58 -16t16 -48l-20 -127h55l20 127q9 56 -27 87t-94 31q-63 0 -108 -36.5t-55 -96.5q-11 -69 62 -153q15 -17 29 -28l29 -29q61 -69 55 -112
q-6 -37 -33 -60t-65 -23q-35 0 -59 16.5t-19 46.5l21 130h-55l-21 -130q-8 -47 19 -77t75 -39l-2 -8l-1 -11l4 -8q2 -4 13 -20q3 -5 10.5 -14t11.5 -14q9 -18 7 -29q-2 -14 -12.5 -26.5t-21.5 -12.5q-19 0 -24 15q-4 12 0 37l3.5 17.5t3.5 19.5l1 7h-53l-11 -69
q-5 -33 15 -55.5t54 -22.5t56 18q15 12 27 33t15 39q7 42 -42 100z" />
    <glyph glyph-name="Scaron" unicode="&#x160;" horiz-adv-x="392" 
d="M170 821l124 -120h30l159 120h-87l-77 -58l-63 58h-86zM150 262h-55l-1 -7q-16 -114 -22 -149q-9 -56 27.5 -87t95.5 -31q63 0 107.5 38.5t54.5 99.5q7 43 -4.5 88.5t-27.5 75t-44 72.5l-33 50q-5 8 -14 24.5t-14 24.5q-25 58 -18 100q6 37 32 58t65 21q36 0 56.5 -15.5
t18.5 -46.5q-3 -25 -10.5 -72t-10.5 -69l-2 -14h56l1 7q16 98 22 148q7 57 -27.5 88t-94.5 31q-63 0 -107.5 -38t-54.5 -98q-11 -69 32 -151q11 -19 40 -61.5t41 -65.5q50 -97 41 -157q-6 -37 -32 -59.5t-64 -22.5q-36 0 -58.5 15.5t-18.5 46.5q1 12 8 51q6 39 13 91z" />
    <glyph glyph-name="scaron" unicode="&#x161;" horiz-adv-x="392" 
d="M154 727l124 -120h30l159 120h-87l-77 -57l-63 57h-86zM203 375q-27 40 -22 74q6 38 31 58.5t65 20.5q35 0 58.5 -17t18.5 -47l-20 -127h55l20 127q9 56 -27 87t-94 31q-63 0 -108 -36.5t-55 -96.5q-11 -71 62 -153q9 -10 29 -28t29 -29q61 -72 55 -112q-6 -37 -33 -60
t-65 -23q-35 0 -59.5 16.5t-19.5 46.5l21 130h-54l-21 -130q-9 -56 28 -87.5t96 -31.5q64 0 108.5 39t54.5 101q5 30 -9.5 64t-30 53t-47.5 55q-24 26 -36 37q-13 16 -30 38z" />
    <glyph glyph-name="Tcaron" unicode="&#x164;" horiz-adv-x="413" 
d="M183 831l124 -120h30l159 120h-87l-77 -57l-64 57h-85zM473 634l9 55h-333l-9 -55h140l-100 -634h53l100 634h140z" />
    <glyph glyph-name="tcaron" unicode="&#x165;" horiz-adv-x="454" 
d="M182 136l62 393h148l2 13h57l81 155h-64l-74 -152l6 37h-148l17 107h-57l-17 -107h-63l-8 -53h63l-63 -395q-9 -61 24.5 -104t96.5 -43q15 0 28 3q5 1 14 2.5t13 1.5l6 1l11 65l-11 -5q-35 -13 -52 -13q-39 0 -59 27.5t-13 66.5z" />
    <glyph glyph-name="Tbar" unicode="&#x166;" horiz-adv-x="413" 
d="M220 777l-9 -56h223l9 56h-223zM473 634l9 55h-333l-9 -55h140l-100 -634h53l100 634h140z" />
    <glyph glyph-name="tbar" unicode="&#x167;" horiz-adv-x="318" 
d="M159 721l-9 -56h58l-13 -83h-63l-8 -53h63l-63 -395q-9 -61 24.5 -104t96.5 -43q15 0 28 3q5 1 14 2.5t13 1.5l6 1l11 65l-11 -5q-35 -13 -52 -13q-39 0 -59 27.5t-13 66.5l62 393h148l8 53h-148l13 83h108l9 56h-223z" />
    <glyph glyph-name="Utilde" unicode="&#x168;" 
d="M227 763h1l-1 1l1 6q0 1 0.5 2.5t1.5 3.5t1 3q3 1 3 3h1q13 0 27 -9q8 -6 14 -10l14 -12q38 -36 72 -36q28 0 48.5 19.5t25.5 45.5q3 20 -8 40.5t-33 20.5h-26l-4 -51l6 -1q1 0 4 -0.5t5 -0.5l3 -1l-1 -1q2 -2 0 -8q-2 -11 -12 -11q-8 0 -20 9q-24 21 -27 24
q-43 35 -78 35q-11 0 -25 -7q-9 -4 -22 -13l-7 -4l-7 -4l-4 -3l-5 -34q-3 -19 8 -40t31 -21h22l8 46l-3 2q-4 2 -5 2l-4 2q-2 0 -2 1zM347 134l88 555h-55l-88 -556q-6 -38 -35 -64.5t-67 -26.5q-40 0 -60 26.5t-14 64.5l88 556h-55l-88 -555q-10 -62 22.5 -104t97.5 -42
t110.5 41.5t55.5 104.5z" />
    <glyph glyph-name="utilde" unicode="&#x169;" 
d="M210 659h1v2v5q2 6 4 9q1 2 3 2q16 0 29 -9q8 -6 13 -11l13 -12q43 -34 73 -34q28 0 48.5 19t24.5 46q4 19 -7 40t-33 21h-26l-5 -52l5 -1q2 0 5.5 -0.5t4.5 -0.5l3 -1v-8q-2 -11 -12 -11q-9 0 -21 9q-4 4 -14 12.5t-13 11.5q-44 35 -77 35q-23 0 -63 -32l-3 -2l-5 -31
q-3 -19 8 -40t32 -21h22l7 45l-3 2l-4 2l-5 2q-2 0 -2 1zM418 582h-56l-70 -445q-6 -40 -34.5 -67t-67.5 -27q-41 0 -60 27t-12 67l70 445h-56l-70 -445q-10 -63 22 -106t97 -43q66 0 111.5 42.5t55.5 106.5z" />
    <glyph glyph-name="Umacron" unicode="&#x16a;" 
d="M183 766l-9 -56h223l9 56h-223zM347 134l88 555h-55l-88 -556q-6 -38 -35 -64.5t-67 -26.5q-40 0 -60 26.5t-14 64.5l88 556h-55l-88 -555q-10 -62 22.5 -104t97.5 -42t110.5 41.5t55.5 104.5z" />
    <glyph glyph-name="umacron" unicode="&#x16b;" 
d="M182 673l-9 -57h223l9 57h-223zM418 582h-56l-70 -445q-6 -40 -34.5 -67t-67.5 -27q-41 0 -60 27t-12 67l70 445h-56l-70 -445q-10 -63 22 -106t97 -43q66 0 111.5 42.5t55.5 106.5z" />
    <glyph glyph-name="Ubreve" unicode="&#x16c;" 
d="M257 817h-54l-1 -7q-9 -59 14.5 -81.5t85.5 -22.5q119 0 132 86l4 25h-59l-1 -7l-3 -19q-1 -8 -5 -16q-9 -9 -25 -12q-12 -1 -34 -1h-19l-20 2q-18 5 -19 20q0 7 1 12zM347 134l88 555h-55l-88 -556q-6 -38 -35 -64.5t-67 -26.5q-40 0 -60 26.5t-14 64.5l88 556h-55
l-88 -555q-10 -62 22.5 -104t97.5 -42t110.5 41.5t55.5 104.5z" />
    <glyph glyph-name="ubreve" unicode="&#x16d;" 
d="M240 715h-54l-1 -7q-9 -59 14 -81t86 -22q119 0 132 85l4 25h-59l-1 -7l-3 -18q-1 -8 -5 -16q-9 -9 -25 -12q-12 -2 -34 -2h-19q-19 3 -20 3q-18 5 -19 20q0 7 1 12l2 13zM418 582h-56l-70 -445q-6 -40 -34.5 -67t-67.5 -27q-41 0 -60 27t-12 67l70 445h-56l-70 -445
q-10 -63 22 -106t97 -43q66 0 111.5 42.5t55.5 106.5z" />
    <glyph glyph-name="Uring" unicode="&#x16e;" 
d="M307 722q-29 0 -44 19t-10 46q4 28 25 47t50 19t42.5 -19t9.5 -47q-5 -28 -24.5 -46.5t-48.5 -18.5zM314 768q7 0 13.5 6t8.5 13q1 8 -4 14t-12 6q-8 0 -15 -6t-8 -14q-2 -7 3.5 -13t13.5 -6zM435 689h-55l-88 -556q-6 -38 -35 -64.5t-67 -26.5q-40 0 -60 26.5t-14 64.5
l88 556h-55l-88 -555q-10 -62 22.5 -104t97.5 -42t110.5 41.5t55.5 104.5z" />
    <glyph glyph-name="uring" unicode="&#x16f;" 
d="M291 620q-29 0 -44 19t-11 46q5 28 26 47t50 19t42.5 -19t8.5 -47q-4 -27 -23.5 -46t-48.5 -19zM297 666q7 0 14 6t8 13q2 8 -3 14t-12 6q-8 0 -15 -6t-9 -14q-1 -7 4 -13t13 -6zM418 582h-56l-70 -445q-6 -40 -34.5 -67t-67.5 -27q-41 0 -60 27t-12 67l70 445h-56
l-70 -445q-10 -63 22 -106t97 -43q66 0 111.5 42.5t55.5 106.5z" />
    <glyph glyph-name="Uhungarumlaut" unicode="&#x170;" horiz-adv-x="371" 
d="M325 888l-175 -134l42 -32l175 128zM439 888l-175 -134l42 -32l175 128zM351 134l88 555h-55l-88 -556q-6 -38 -35 -64.5t-67 -26.5q-40 0 -60 26.5t-14 64.5l88 556h-55l-88 -555q-10 -62 22.5 -104t97.5 -42t110.5 41.5t55.5 104.5z" />
    <glyph glyph-name="uhungarumlaut" unicode="&#x171;" horiz-adv-x="371" 
d="M305 781l-175 -134l42 -32l175 128zM419 781l-175 -134l42 -32l175 128zM422 582h-56l-70 -445q-6 -40 -34.5 -67t-67.5 -27q-41 0 -60 27t-12 67l70 445h-56l-70 -445q-10 -63 22 -106t97 -43q66 0 111.5 42.5t55.5 106.5z" />
    <glyph glyph-name="Uogonek" unicode="&#x172;" 
d="M200 -11q60 7 99 47t48 98l88 555h-55l-88 -556q-6 -38 -34.5 -64.5t-67.5 -26.5q-38 0 -59 26.5t-15 64.5l88 556h-55l-88 -555q-8 -49 12 -88.5t65 -52.5q-55 -46 -63 -96q-6 -34 11 -61.5t53 -27.5q38 0 64.5 22t31.5 59l11 66h-52l-9 -53q-3 -23 -10 -32.5t-27 -9.5
q-12 0 -18.5 12t-4.5 27q2 18 30 42q4 4 13 11.5t10 8.5q13 10 20 22q2 0 2 4v2z" />
    <glyph glyph-name="Uogonek" unicode="&#x173;" 
d="M200 -11q60 7 99 47t48 98l88 555h-55l-88 -556q-6 -38 -34.5 -64.5t-67.5 -26.5q-38 0 -59 26.5t-15 64.5l88 556h-55l-88 -555q-8 -49 12 -88.5t65 -52.5q-55 -46 -63 -96q-6 -34 11 -61.5t53 -27.5q38 0 64.5 22t31.5 59l11 66h-52l-9 -53q-3 -23 -10 -32.5t-27 -9.5
q-12 0 -18.5 12t-4.5 27q2 18 30 42q4 4 13 11.5t10 8.5q13 10 20 22q2 0 2 4v2z" />
    <glyph glyph-name="Wcircumflex" unicode="&#x174;" horiz-adv-x="469" 
d="M354 834l-164 -120h87l79 57l62 -57h85l-122 120h-27zM538 689h-60l-104 -464l-5 464h-51l-151 -464l42 464h-60l-57 -689h59l162 507l5 -507h59z" />
    <glyph glyph-name="wcircumflex" unicode="&#x175;" horiz-adv-x="469" 
d="M337 727l-164 -120h87l79 57l62 -57h85l-122 120h-27zM132 582l-40 -582h59l149 429l19 -429h59l143 582h-58l-95 -391l-17 391h-50l-138 -389l28 389h-59z" />
    <glyph glyph-name="Ycircumflex" unicode="&#x176;" horiz-adv-x="424" 
d="M333 834l-162 -120h85l82 57l59 -57h86l-121 120h-29zM197 0h53l53 343l190 346h-57l-147 -273l-78 273h-62l101 -348z" />
    <glyph glyph-name="ycircumflex" unicode="&#x177;" horiz-adv-x="389" 
d="M298 727l-162 -120h86l81 57l59 -57h87l-121 120h-30zM377 582l-70 -444q-6 -40 -34.5 -67.5t-67.5 -27.5q-40 0 -59 27.5t-13 67.5l70 444h-56l-70 -444q-10 -64 23 -107t96 -43q49 0 92 29l-3 -14q-6 -40 -34 -67.5t-68 -27.5q-79 0 -72 91h-56q-5 -63 24 -103.5
t96 -40.5q65 0 111 43t55 105l92 579h-56z" />
    <glyph glyph-name="Ydieresis" unicode="&#x178;" horiz-adv-x="424" 
d="M325 753q2 15 -7.5 27t-26.5 12t-30.5 -12t-15.5 -27q-2 -16 8 -27t26 -11t30 11t16 27zM420 752q2 15 -7.5 27t-26.5 12t-29 -12t-14 -27t6.5 -26.5t24.5 -11.5t30 11t16 27zM197 0h53l53 343l190 346h-57l-147 -273l-78 273h-62l101 -348z" />
    <glyph glyph-name="Zacute" unicode="&#x179;" horiz-adv-x="394" 
d="M435 798l-32 46l-191 -94l28 -44zM378 636l-338 -636h307l8 53h-229l337 636h-305l-8 -53h228z" />
    <glyph glyph-name="zacute" unicode="&#x17a;" horiz-adv-x="397" 
d="M422 700l-33 47l-191 -96l28 -42zM384 54h-249l344 528h-335l-8 -53h250l-346 -529h335z" />
    <glyph glyph-name="Zdotaccent" unicode="&#x17b;" horiz-adv-x="394" 
d="M358 752q2 15 -6.5 27t-25.5 12t-30.5 -12t-15.5 -27q-2 -16 8 -27t26 -11t29 11.5t15 26.5zM378 636l-338 -636h307l8 53h-229l337 636h-305l-8 -53h228z" />
    <glyph glyph-name="zdotaccent" unicode="&#x17c;" horiz-adv-x="397" 
d="M347 668q2 16 -7 26.5t-25 10.5t-30 -11t-16 -26q-3 -16 7 -27.5t27 -11.5t29.5 11.5t14.5 27.5zM384 54h-249l344 528h-335l-8 -53h250l-346 -529h335z" />
    <glyph glyph-name="Zcaron" unicode="&#x17d;" horiz-adv-x="395" 
d="M172 818l124 -120h30l159 120h-87l-77 -57l-64 57h-85zM378 636l-338 -636h307l8 53h-229l337 636h-305l-8 -53h228z" />
    <glyph glyph-name="zcaron" unicode="&#x17e;" horiz-adv-x="397" 
d="M159 727l124 -120h30l159 120h-87l-77 -57l-64 57h-85zM384 54h-249l344 528h-335l-8 -53h250l-346 -529h335z" />
    <glyph glyph-name="circumflex" unicode="&#x2c6;" horiz-adv-x="393" 
d="M298 727l-162 -120h86l81 57l59 -57h87l-121 120h-30z" />
    <glyph glyph-name="caron" unicode="&#x2c7;" horiz-adv-x="363" 
d="M135 727l124 -120h30l159 120h-87l-77 -57l-63 57h-86z" />
    <glyph glyph-name="breve" unicode="&#x2d8;" horiz-adv-x="285" 
d="M195 715h-57l-1 -7q-9 -59 14.5 -81t85.5 -22q119 0 132 85l4 25h-57l-1 -7l-3 -19q-1 -10 -4 -15q-6 -7 -27 -12q-13 -2 -35 -2h-19q-18 2 -19 3q-16 5 -17 20q0 7 1 12l2 13z" />
    <glyph glyph-name="dotaccent" unicode="&#x2d9;" horiz-adv-x="158" 
d="M224 668q2 16 -7 26.5t-25 10.5t-30 -11t-16 -26q-3 -16 7 -27.5t27 -11.5q16 0 29 12t15 27z" />
    <glyph glyph-name="ring" unicode="&#x2da;" horiz-adv-x="207" 
d="M188 620q-28 0 -43.5 19t-11.5 46q5 28 26 47t50 19t42.5 -19t8.5 -47q-4 -27 -23.5 -46t-48.5 -19zM194 666q7 0 14 6t8 13q2 8 -3 14t-12 6q-8 0 -15 -6t-9 -14q-1 -7 4 -13t13 -6z" />
    <glyph glyph-name="tilde" unicode="&#x2dc;" horiz-adv-x="284" 
d="M170 659h1v1v6q3 11 8 11q15 0 27 -9q8 -6 13 -11l13 -12q43 -34 73 -34q28 0 48.5 19t24.5 46q3 20 -3 31.5t-23 24.5h-1l-1 1q-3 3 -6 3q-1 1 -4 1h-27l-6 -52l6 -1q2 0 4.5 -0.5t3.5 -0.5l4 -1v-1v-7q-2 -11 -12 -11q-7 0 -20 9q-3 2 -12.5 10.5t-15.5 13.5
q-44 35 -75 35q-16 0 -36 -11q-9 -5 -16 -11l-13 -10l-3 -2l-5 -31q-4 -30 20 -51l8 -6q8 -4 14 -4h21l7 45l-3 2q-4 2 -5 2l-3 2q-3 0 -3 1z" />
    <glyph glyph-name="hungarumlaut" unicode="&#x2dd;" horiz-adv-x="343" 
d="M294 780l-175 -134l42 -32l175 128zM408 780l-175 -134l42 -32l175 128z" />
    <glyph glyph-name="uni0327" unicode="&#x327;" horiz-adv-x="0" 
d="M-223 -56h-55l-9 -57q-6 -40 9.5 -65t56.5 -25q38 0 67 27t34 63q4 28 -13 57q-5 11 -16 24l-16 19q6 22 7 34l3 20h-47l-1 -6q-12 -36 -15 -55q-2 -7 5 -25q2 -4 8 -12l9 -11q22 -27 20 -45q-2 -14 -12.5 -26.5t-21.5 -12.5q-19 0 -22 16q-3 13 1 37q1 4 3.5 16.5
t3.5 19.5z" />
    <glyph glyph-name="uni03A9" unicode="&#x3a9;" horiz-adv-x="660" 
d="M447 42h9l-3 -17l171 -2l9 60l-102 1l75 150q63 127 65 144q19 121 -42 199t-186 78q-126 0 -213 -78t-106 -199l-1 -3v-5l39 -286h-109l-9 -61l183 2l5 34l1 4v3l1 3l-44 315q5 35 29 76q72 131 214 131q68 0 110.5 -34.5t57.5 -98.5q10 -40 4 -76q-1 -3 -72.5 -157
t-81.5 -174z" />
    <glyph glyph-name="uni03A9" unicode="&#x3c9;" horiz-adv-x="660" 
d="M447 42h9l-3 -17l171 -2l9 60l-102 1l75 150q63 127 65 144q19 121 -42 199t-186 78q-126 0 -213 -78t-106 -199l-1 -3v-5l39 -286h-109l-9 -61l183 2l5 34l1 4v3l1 3l-44 315q5 35 29 76q72 131 214 131q68 0 110.5 -34.5t57.5 -98.5q10 -40 4 -76q-1 -3 -72.5 -157
t-81.5 -174z" />
    <glyph glyph-name="uni03BC" unicode="&#x3bc;" horiz-adv-x="374" 
d="M-25 -408h58l92 556q36 -27 86 -27q47 0 85 27l-23 -148h61l111 703h-61l-66 -422q-8 -43 -33.5 -74t-64.5 -31q-41 0 -59.5 26.5t-12.5 68.5l68 432h-57l-6 -39z" />
    <glyph glyph-name="pi" unicode="&#x3c0;" horiz-adv-x="351" 
d="M83 271h45l-42 -265h54l42 265h72l-42 -265h54l42 265h46l9 59h-271z" />
    <glyph glyph-name="Wgrave" unicode="&#x1e80;" horiz-adv-x="469" 
d="M404 700l44 44l-160 93l-55 -45zM538 689h-60l-104 -464l-5 464h-51l-151 -464l42 464h-60l-57 -689h59l162 507l5 -507h59z" />
    <glyph glyph-name="wgrave" unicode="&#x1e81;" horiz-adv-x="469" 
d="M408 602l44 42l-160 96l-54 -47zM132 582l-40 -582h59l149 429l19 -429h59l143 582h-58l-95 -391l-17 391h-50l-138 -389l28 389h-59z" />
    <glyph glyph-name="Wacute" unicode="&#x1e82;" horiz-adv-x="469" 
d="M432 809l-194 -96l31 -43l196 92zM538 689h-60l-104 -464l-5 464h-51l-151 -464l42 464h-60l-57 -689h59l162 507l5 -507h59z" />
    <glyph glyph-name="wacute" unicode="&#x1e83;" horiz-adv-x="469" 
d="M458 700l-33 47l-194 -96l31 -42zM132 582l-40 -582h59l149 429l19 -429h59l143 582h-58l-95 -391l-17 391h-50l-138 -389l28 389h-59z" />
    <glyph glyph-name="Wdieresis" unicode="&#x1e84;" horiz-adv-x="469" 
d="M345 753q2 16 -7 27.5t-26 11.5t-30.5 -12t-15.5 -27q-2 -16 8 -27t26 -11t29.5 11t15.5 27zM441 752q2 15 -7.5 27t-26.5 12t-30.5 -12t-15.5 -27q-2 -16 8 -27t26 -11t30 11t16 27zM538 689h-60l-104 -464l-5 464h-51l-151 -464l42 464h-60l-57 -689h59l162 507l5 -507
h59z" />
    <glyph glyph-name="wdieresis" unicode="&#x1e85;" horiz-adv-x="469" 
d="M333 669q2 16 -7.5 26.5t-25.5 10.5t-30 -11t-16 -26q-2 -16 7.5 -27.5t26.5 -11.5t30 11.5t15 27.5zM429 668q2 16 -8 26.5t-26 10.5t-30 -11t-16 -26q-3 -16 7 -27.5t27 -11.5t30 11.5t16 27.5zM132 582l-40 -582h59l149 429l19 -429h59l143 582h-58l-95 -391l-17 391
h-50l-138 -389l28 389h-59z" />
    <glyph glyph-name="Ygrave" unicode="&#x1ef2;" horiz-adv-x="424" 
d="M387 683l44 44l-160 94l-51 -46zM197 0h53l53 343l190 346h-57l-147 -273l-78 273h-62l101 -348z" />
    <glyph glyph-name="ygrave" unicode="&#x1ef3;" 
d="M335 604l43 42l-157 96l-54 -47zM362 582l-70 -444q-6 -40 -34.5 -67.5t-67.5 -27.5q-40 0 -59 27.5t-13 67.5l70 444h-56l-70 -444q-10 -64 23 -107t96 -43q49 0 92 29l-3 -14q-6 -40 -34 -67.5t-68 -27.5q-79 0 -72 91h-56q-5 -63 24 -103.5t96 -40.5q65 0 111 43
t55 105l92 579h-56z" />
    <glyph glyph-name="endash" unicode="&#x2013;" horiz-adv-x="432" 
d="M106 418l-9 -55h352l9 55h-352z" />
    <glyph glyph-name="emdash" unicode="&#x2014;" horiz-adv-x="548" 
d="M106 418l-9 -55h468l9 55h-468z" />
    <glyph glyph-name="quoteleft" unicode="&#x2018;" horiz-adv-x="195" 
d="M204 697l-78 -155h61l78 155h-61z" />
    <glyph glyph-name="quoteright" unicode="&#x2019;" horiz-adv-x="195" 
d="M204 697l-78 -155h61l78 155h-61z" />
    <glyph glyph-name="quotesinglbase" unicode="&#x201a;" horiz-adv-x="195" 
d="M98 26l-78 -155h61l78 155h-61z" />
    <glyph glyph-name="quotedblleft" unicode="&#x201c;" horiz-adv-x="267" 
d="M204 697l-78 -155h61l78 155h-61zM274 697l-78 -155h61l80 155h-63z" />
    <glyph glyph-name="quotedblright" unicode="&#x201d;" horiz-adv-x="267" 
d="M204 697l-78 -155h61l78 155h-61zM274 697l-78 -155h61l80 155h-63z" />
    <glyph glyph-name="quotedblbase" unicode="&#x201e;" horiz-adv-x="267" 
d="M98 26l-78 -155h61l78 155h-61zM168 26l-78 -155h61l80 155h-63z" />
    <glyph glyph-name="dagger" unicode="&#x2020;" horiz-adv-x="329" 
d="M344 346l9 56h-95l44 283h-58l-44 -283h-96l-9 -56h96l-71 -446h58l71 446h95z" />
    <glyph glyph-name="daggerdbl" unicode="&#x2021;" horiz-adv-x="265" 
d="M213 321h127l8 54h-127l49 310h-57l-49 -310h-130l-8 -54h130l-11 -69h-130l-9 -54h130l-47 -298h57l47 298h127l9 54h-127z" />
    <glyph glyph-name="bullet" unicode="&#x2022;" horiz-adv-x="158" 
d="M94 342l-11 -73q-3 -17 8 -24.5t27 -7.5q38 0 43 32l11 73q3 17 -7 24.5t-26 7.5q-40 0 -45 -32z" />
    <glyph glyph-name="ellipsis" unicode="&#x2026;" horiz-adv-x="529" 
d="M493 27q2 15 -6.5 27t-24.5 12t-29.5 -11.5t-16.5 -27.5q-2 -15 7.5 -27t26.5 -12q16 0 28.5 12.5t14.5 26.5zM122 26q2 15 -7 27t-25 12t-30 -11.5t-16 -27.5q-2 -15 7.5 -27t26.5 -12q16 0 29 12t15 27zM308 26q2 16 -8 27.5t-26 11.5t-29.5 -11.5t-15.5 -27.5t7 -27.5
t26 -11.5t30.5 12t15.5 27z" />
    <glyph glyph-name="perthousand" unicode="&#x2030;" horiz-adv-x="960" 
d="M143 641l-34 -214q-7 -40 18.5 -65t66.5 -25q44 0 76.5 24t39.5 66l34 214q7 43 -18 66.5t-69 23.5q-43 0 -75 -24t-39 -66zM656 660l-45 33l-564 -646l46 -30zM287 641l-34 -214q-6 -33 -50 -33q-19 0 -28 8t-6 25l34 214q4 35 45 35q20 0 30.5 -8.5t8.5 -26.5zM370 272
l-34 -216q-7 -42 18 -65t69 -23q35 0 64.5 17t41.5 46q4 -30 28.5 -46.5t59.5 -16.5q37 0 67 17.5t42 49.5q1 -32 26 -49.5t63 -17.5q42 0 75 23.5t39 64.5l34 216q6 42 -18.5 65t-67.5 23q-38 0 -68.5 -17t-42.5 -50q-1 32 -25 49.5t-62 17.5q-36 0 -65.5 -16.5
t-42.5 -46.5q-3 30 -26.5 46.5t-59.5 16.5q-44 0 -76 -22.5t-39 -65.5zM512 272l-34 -216q-6 -33 -46 -33q-20 0 -30.5 8t-7.5 25l34 216q6 34 48 34q20 0 29.5 -8.5t6.5 -25.5zM708 272l-34 -216q-6 -33 -48 -33q-19 0 -28.5 8t-6.5 25l34 216q6 34 45 34q20 0 30.5 -8.5
t7.5 -25.5zM904 272l-34 -216q-6 -33 -46 -33q-19 0 -29.5 8.5t-7.5 24.5l34 216q6 34 47 34q20 0 29.5 -8.5t6.5 -25.5z" />
    <glyph glyph-name="guilsinglleft" unicode="&#x2039;" horiz-adv-x="329" 
d="M98 368l143 -152h81l-140 152l189 149h-82z" />
    <glyph glyph-name="guilsinglright" unicode="&#x203a;" horiz-adv-x="312" 
d="M250 368l-176 -152h79l177 152l-129 149h-79z" />
    <glyph glyph-name="fraction" unicode="&#x2044;" horiz-adv-x="345" 
d="M-22 -12l54 -17l444 729l-55 11z" />
    <glyph glyph-name="Euro" unicode="&#x20ac;" horiz-adv-x="425" 
d="M82 265h52l-21 -131q-10 -63 21.5 -104.5t97.5 -41.5t111.5 41.5t55.5 104.5l11 71h-58l-11 -71q-6 -40 -32.5 -65t-67.5 -25q-40 0 -58.5 24.5t-12.5 64.5l21 132h236l9 54h-236l10 63h236l8 54h-236l18 115q7 40 33 64.5t66 24.5q41 0 60 -23.5t13 -63.5l-12 -76h58
l11 74q10 64 -22 105t-99 41q-66 0 -110.5 -41.5t-54.5 -104.5l-18 -115h-52l-8 -54h52l-10 -63h-52z" />
    <glyph glyph-name="trademark" unicode="&#x2122;" horiz-adv-x="392" 
d="M40 693v-52h56v-247h52v247h22v-247h56v47l10 -47h47l15 60v-60h54v299h-51l-41 -163l-37 163h-183z" />
    <glyph glyph-name="summation" unicode="&#x2211;" horiz-adv-x="512" 
d="M552 503h-280q-68 0 -116.5 -38t-58.5 -103q-11 -71 38 -111q-61 -39 -73 -110q-10 -65 26 -103t104 -38h280l9 56h-279q-42 0 -65.5 22.5t-17.5 61.5q6 37 36 59.5t71 22.5l281 1l9 56l-281 1q-41 0 -64 22.5t-17 60.5q7 39 37.5 61.5t72.5 22.5h279z" />
    <glyph glyph-name="minus" unicode="&#x2212;" horiz-adv-x="549" 
d="M90 314l-9 -55h469l9 55h-469z" />
    <glyph glyph-name="radical" unicode="&#x221a;" horiz-adv-x="939" 
d="M97 15l409 671l501 -2l-4 56l-527 3l-352 -580l14 90h-58l-38 -243h21q19 0 31 4z" />
    <glyph glyph-name="infinity" unicode="&#x221e;" horiz-adv-x="655" 
d="M360 503h-168q-38 0 -60 -31.5t-28 -68.5q-2 -20 -0.5 -42t16 -38.5t40.5 -16.5h168q28 0 53 20q17 -20 41 -20h168q38 0 60.5 30.5t28.5 66.5q6 38 -6 69t-51 31h-168q-26 0 -49 -20q-15 20 -45 20zM337 362h-168q-9 0 -10 15q-4 12 -2 26q1 9 9 28q8 14 16 14h168
q13 0 15 -13q3 -10 1 -29q-1 -12 -10 -27q-9 -14 -19 -14zM444 445h168q13 0 15 -13q3 -9 1 -29q-1 -12 -10 -27q-9 -14 -19 -14h-168q-9 0 -12 14q-4 12 -2 27q1 11 9 28q9 14 18 14z" />
    <glyph glyph-name="integral" unicode="&#x222b;" horiz-adv-x="423" 
d="M204 141q-15 -93 -103 -93q-20 0 -43 10l-8 3l-10 -62l6 -1q4 0 12 -2t13 -2q14 -3 28 -3q62 0 109 43.5t56 103.5l82 518q15 93 106 93q10 0 39 -9l9 -4l9 62l-5 1l-25 4q-12 3 -25 3q-48 0 -86.5 -24.5t-61.5 -67.5q-15 -30 -20 -55z" />
    <glyph glyph-name="approxequal" unicode="&#x2248;" horiz-adv-x="348" 
d="M151 286l-2 6q0 2 -0.5 3.5t-0.5 2.5q2 12 12 12q13 0 24 -10q1 0 26 -23q40 -36 73 -36q28 0 48.5 19.5t24.5 45.5q6 32 -16 50q27 21 32 51q7 36 -22 55q-8 6 -19 6h-22l-9 -55l9 1q4 0 6 1h4l1 1v-11q-2 -10 -12 -10q-12 0 -25 10q-8 6 -12 10q-4 5 -14 13
q-34 36 -73 36q-16 0 -34 -9q-5 -3 -14.5 -9.5t-14.5 -9.5l-3 -3l-6 -35q-5 -33 16 -50q-9 -5 -25 -17l-2 -2l-5 -33q-5 -33 22 -54l2 -1q1 -1 2 -1l5 -3q4 -2 10 -2h21l1 7q3 15 2 25q-3 16 -10 19zM183 394l-16 -1l-3 7q3 12 12 12q12 0 25 -10q1 -1 3 -2.5t5 -3.5t4 -3
l13 -13q38 -34 64 -37q2 -22 14 -31q0 -1 1 -2l-1 -6q-1 -11 -13 -11q-10 0 -22 9q-7 4 -12 11l-15 12q-34 32 -64 35z" />
    <glyph glyph-name="notequal" unicode="&#x2260;" horiz-adv-x="403" 
d="M364 375l72 84l-42 33l-102 -117h-193l-8 -54h159l-60 -69h-110l-9 -54h73l-72 -87l43 -30l99 117h171l9 54h-134l57 69h88l8 54h-49z" />
    <glyph glyph-name="lessequal" unicode="&#x2264;" horiz-adv-x="549" 
d="M218 649l291 -184l10 66l-209 135l252 133l10 67l-349 -183zM90 314l-9 -55h469l9 55h-469z" />
    <glyph glyph-name="greaterequal" unicode="&#x2265;" horiz-adv-x="549" 
d="M198 531l-10 -66l351 184l5 34l-293 182l-10 -66l212 -133zM90 314l-9 -55h469l9 55h-469z" />
    <glyph glyph-name="P.alt" horiz-adv-x="378" 
d="M149 689l-109 -689h56l41 261h105q59 0 103.5 32.5t53.5 88.5l29 186q9 56 -25.5 88.5t-92.5 32.5h-161zM373 568l-29 -186q-5 -32 -31.5 -49.5t-61.5 -17.5h-105l50 318h105q35 0 56 -17t16 -48z" />
    <glyph glyph-name="V.alt" horiz-adv-x="402" 
d="M149 689l25 -689h55l242 689h-61l-183 -529l-16 529h-62z" />
    <glyph glyph-name="a.alt" 
d="M326 0l69 434q10 64 -22 105.5t-98 41.5t-111.5 -42.5t-54.5 -105.5l-48 -298q-9 -63 23 -106t97 -43q50 0 91 28l-2 -14h56zM339 433l-48 -298q-6 -40 -34.5 -67t-67.5 -27q-41 0 -59.5 26.5t-12.5 67.5l48 298q6 41 33 67.5t68 26.5q40 0 59.5 -27t13.5 -67z" />
    <glyph glyph-name="b.alt" 
d="M347 135l48 298q9 63 -23 105.5t-97 42.5q-54 0 -91 -26l21 134h-56l-109 -689h56l2 14q31 -28 83 -28q66 0 111 42.5t55 106.5zM339 433l-48 -298q-6 -40 -34 -67t-68 -27t-59 27t-13 67l48 298q6 40 33.5 67t67.5 27t59.5 -27t13.5 -67z" />
    <glyph glyph-name="d.alt" 
d="M379 689l-21 -134q-30 26 -83 26q-66 0 -111.5 -42.5t-54.5 -105.5l-48 -298q-9 -63 23 -106t97 -43q50 0 91 28l-2 -14h56l109 689h-56zM117 135l48 298q6 41 33 67.5t68 26.5q40 0 59.5 -27t13.5 -67l-48 -298q-6 -40 -34.5 -67t-67.5 -27q-41 0 -59.5 26.5t-12.5 67.5
z" />
    <glyph glyph-name="g.alt" 
d="M362 582h56l-92 -579q-9 -62 -55 -105t-111 -43q-67 0 -96 40.5t-24 103.5h56q-7 -91 72 -91q40 0 68 27.5t34 67.5l3 14q-43 -29 -92 -29q-63 0 -96 43t-23 107l47 298q10 63 55.5 104.5t110.5 41.5q51 0 83 -25zM190 43q39 0 67.5 27.5t34.5 67.5l47 298q6 40 -13 66.5
t-59 26.5q-42 0 -69 -26t-33 -67l-47 -298q-6 -40 13 -67.5t59 -27.5z" />
    <glyph glyph-name="m.alt" horiz-adv-x="596" 
d="M556 0l69 434q10 64 -22 105.5t-98 41.5q-76 0 -124 -54q-28 54 -106 54q-54 0 -91 -26l4 27h-56l-92 -582h56l69 434q6 41 33 67t68 26q40 0 59.5 -26.5t13.5 -66.5l-69 -434h56l69 434q6 41 33 67t68 26t60 -26.5t13 -66.5l-69 -434h56z" />
    <glyph glyph-name="n.alt" 
d="M326 0l69 434q10 64 -22 105.5t-98 41.5q-54 0 -91 -26l4 27h-56l-92 -582h56l69 434q6 41 33 67t68 26q40 0 59.5 -26.5t13.5 -66.5l-69 -434h56z" />
    <glyph glyph-name="p.alt" 
d="M80 -131l24 149q28 -28 76 -28q66 0 112 42.5t56 106.5l47 297q10 63 -22.5 105.5t-98.5 42.5q-51 0 -84 -25l2 16h-61l-112 -706h61zM337 435l-47 -295q-6 -41 -33.5 -67.5t-67.5 -26.5t-55.5 31t-8.5 75l50 314q1 2 6 10l8 11q18 23 35 33t42 10q40 0 58.5 -27
t12.5 -68z" />
    <glyph glyph-name="q.alt" 
d="M305 -131l112 706h-61l-3 -17q-27 26 -77 26q-66 0 -111.5 -42.5t-55.5 -105.5l-47 -297q-10 -64 22 -106.5t98 -42.5q48 0 86 28l-24 -149h61zM339 467l-50 -315q-7 -43 -32.5 -74.5t-65.5 -31.5q-41 0 -59 26t-12 68l47 295q6 42 33 68.5t68 26.5q25 0 37.5 -9.5
t23.5 -32.5l6 -11l3 -8z" />
    <glyph glyph-name="r.alt" 
d="M335 413h56l4 25q10 61 -23 102t-97 41q-54 0 -91 -26l4 27h-56l-92 -582h56l69 434q6 41 33 67t68 26q38 0 58.5 -26t14.5 -63z" />
    <glyph glyph-name="u.alt" 
d="M418 582h-56l-70 -445q-6 -40 -34 -67t-68 -27t-59 27t-13 67l70 445h-56l-70 -445q-10 -63 22 -106t97 -43q51 0 92 28l-3 -16h56z" />
    <glyph glyph-name="_FSHallmark" horiz-adv-x="828" 
d="M788 661v-88h-747v88h747zM627 155q-34 0 -61 8q-33 9 -52 24q-25 20 -38 43q-15 27 -15 60l87 -2q0 -4 6 -15q1 -9 12 -22q9 -11 22 -15q15 -10 43 -10t48 11q16 8 16 24q0 28 -71 41q-63 18 -108 41t-45 73q0 41 30 68q23 20 65 37q54 6 61 6q42 0 84 -17
q45 -18 61 -59q9 -24 9 -44h-89q0 11 -7 21q-8 10 -17 15l-9 4.5t-12 4.5q-3 0 -10.5 2t-11.5 2q-17 0 -41 -13q-18 -10 -18 -27q0 -27 17 -36q26 -11 38 -13l33 -9l27 -7q4 0 13 -2.5t14 -2.5q17 -4 21 -7l18 -8q21 -14 29 -24q10 -21 11 -41q1 -21 -9 -44q-21 -37 -67 -54
q-36 -13 -84 -13zM139 275v-120h-98v371h314v-83h-216v-85h181v-83h-181zM392 157q-17 0 -29 14q-16 13 -16 29q0 19 14 31q12 12 31 12q20 0 36 -13q15 -13 15 -30t-15 -32q-15 -11 -36 -11zM787 109v-88h-747v88h747z" />
    <glyph glyph-name="_Fontastica" horiz-adv-x="627" 
d="M131 270v-154h-89l-2 5v530h397v-79h-306v-221h306v-81h-306zM587 651v-535h-397v83h306v218h-306v85h306v149h91zM62 51v-21h-14v58h42v-12h-28v-13h27v-12h-27zM126 29q-9 0 -16 5q-8 1 -12 10q-4 8 -4 15t4 15q5 8 12 11q6 3 16 3q11 0 15 -3q6 -5 10 -11q6 -6 6 -15
q0 -7 -6 -15q-2 -4 -10 -10q-5 -5 -15 -5zM178 65v-35h-14v58h13l26 -35v35h15v-58h-14zM256 75v-45h-14v45h-18v13h49v-13h-17zM286 41l-3 -11h-16l24 58h16l24 -58h-16l-4 11h-25zM359 29q-5 0 -15 4q-6 1 -12 6l6 11q2 -2 10 -6q6 -3 11 -3q4 0 6 2l1 1v3q-1 1 -1 3l-3 2
q-3 0 -7 2h-5t-6 2l-2 2q-3 2 -4 4q-2 6 -2 10q0 8 2 9l9 6q3 1 12 1q8 0 13 -1q5 -2 10 -5l-6 -12q-5 5 -10 5q-3 1 -9 1h-5l-1 -3q0 -1 1 -3l3 -2q2 0 4 -1t3 -1q2 0 10 -4q6 -4 7 -6q3 -6 3 -9q0 -6 -3 -9q-5 -5 -8 -7q-8 -2 -12 -2zM417 75v-45h-15v45h-17v13h49v-13
h-17zM455 88v-58h-15v58h15zM493 29q-9 0 -15 5q-2 0 -11 10q-5 5 -5 15q0 5 5 15q3 8 11 11t15 3q9 0 14 -2l10 -7l-9 -11q-2 3 -7 6q-6 2 -7 2q-2 0 -8 -2q-2 -1 -5 -6q-2 -2 -2 -9q0 -2 2 -8q2 -5 5 -6q6 -3 8 -3q1 0 3.5 1.5t3.5 1.5q7 3 7 4l9 -9q-3 -3 -11 -7
q-7 -4 -13 -4zM537 41l-6 -11h-14l25 58h15l24 -58h-16l-5 11h-23zM126 41q5 0 8 3q1 1 2 3t2 3q3 3 3 9q0 1 -1.5 4t-1.5 5q0 5 -4 6q-6 2 -8 2q-5 0 -9 -2t-6 -6q-1 -3 -1 -9q0 -8 1 -9q3 -5 6 -6q6 -3 9 -3zM307 52l-9 21l-8 -21h17zM556 52l-8 21l-7 -21h15z" />
    <glyph glyph-name="_www.fontastica.com" horiz-adv-x="1973" 
d="M76 246v-60h-34l-2 1v209h158v-31h-122v-87h122v-32h-122zM257 396v-210h-158v32h122v86h-122v33h122v59h36zM1260 203q-21 0 -43 8q-23 8 -38 20l18 36q10 -9 32 -19q18 -8 31 -8q10 0 16 4q7 4 7 11t-5 10q-3 2 -11 6q-4 2 -18 6q-28 9 -31 10q-15 6 -20 15
q-7 10 -7 28q0 17 8 28q7 10 25 19q14 7 36 7q12 0 38 -6q15 -4 32 -14l-17 -36q-15 8 -30 13q-13 5 -27 5q-8 0 -13 -3t-5 -9q0 -5 4 -9q6 -6 11 -7q1 0 7 -2.5t11 -3.5q20 -5 31 -10q16 -9 20 -16q8 -11 8 -29q0 -17 -9 -29q-8 -11 -26 -19q-15 -6 -35 -6zM553 202
q-27 0 -48 12q-22 13 -34 33q-12 21 -12 46t12 46q11 19 34 32q21 12 48 12t49 -12t33 -32q12 -21 12 -46t-12 -46t-33 -33q-22 -12 -49 -12zM1666 202q-25 0 -46 12q-19 11 -33 33q-12 19 -12 46q0 25 12 46q11 20 33 32t48 12q23 0 39 -8q21 -10 31 -22l-26 -32
q-8 11 -20 17t-23 6q-13 0 -24 -6q-15 -9 -18 -18q-6 -16 -6 -26q0 -16 6 -26q6 -9 18 -18q10 -7 24 -7q12 0 22 5q12 6 21 15l27 -28q-15 -15 -34 -24t-39 -9zM364 268v-62h-45v174h130v-36h-85v-39h78v-37h-78zM713 310v-104h-43v174h40l80 -105l-1 105h43v-174h-40z
M948 343v-137h-45v137h-52v37h150v-37h-53zM1041 236l-12 -30h-47l75 174h47l73 -174h-48l-12 30h-76zM1436 343v-137h-46v137h-52v37h150v-37h-52zM1552 380v-174h-45v174h45zM1797 236l-12 -30h-47l75 174h47l73 -174h-49l-11 30h-76zM554 241q12 0 24 7q6 4 16 19
q7 11 7 26q0 7 -7 26q-5 13 -16 19t-24 6q-14 0 -24 -6q-12 -8 -18 -19q-6 -12 -6 -26t6 -26q5 -10 18 -19q10 -7 24 -7zM1103 271l-23 63l-25 -63h48zM1859 271l-24 63l-24 -63h48z" />
    </font>
</defs>
</svg>
