<?xml version="1.0" encoding="UTF-8"?>
<svg xmlns="http://www.w3.org/2000/svg" xmlns:xlink="http://www.w3.org/1999/xlink" version="1.2" >
<font id="Immani Light">
<font-face  font-family="Immani" units-per-em="1024" ascent="975" descent="-300" font-style="normal" font-weight="300" font-stretch="normal" cap-height="750" x-height="520" underline-position="-125" underline-thickness="50" />
<missing-glyph  horiz-adv-x="650" d="" />
<glyph glyph-name="NULL" d="" />
<glyph glyph-name="CR" unicode="&#xd;" horiz-adv-x="256" d="" />
<glyph glyph-name="space" unicode="&#x20;" horiz-adv-x="250" d="" />
<glyph glyph-name="exclam" unicode="&#x21;" horiz-adv-x="148" d="M44 0 L104 0 L104 60 L44 60 L44 0 L44 0 Z M45 750 L45 440 L67 193 L82 193 L104 440 L104 750 L45 750 L45 750 Z " />
<glyph glyph-name="quotedbl" unicode="&#x22;" horiz-adv-x="270" d="M167 750 L167 695 L183 650 L207 650 L223 695 L223 750 L167 750 L167 750 Z M77 750 L77 695 L93 650 L117 650 L133 695 L133 750 L77 750 L77 750 Z " />
<glyph glyph-name="numbersign" unicode="&#x23;" horiz-adv-x="682" d="M484 750 L457 540 L282 540 L309 750 L261 750 L234 540 L69 540 L63 500 L229 500 L197 250 L25 250 L19 210 L192 210 L165 0 L213 0 L240 210 L415 210 L388 0 L436 0 L463 210 L613 210 L619 250 L468 250 L500 500 L657 500 L663 540 L505 540 L532 750 L484 750 L484 750 Z M277 500 L452 500 L420 250 L245 250 L277 500 L277 500 Z " />
<glyph glyph-name="dollar" unicode="&#x24;" horiz-adv-x="551" d="M312 825 L312 746 C289 755 268 760 249 760 C238 760 228 759 218 758 L218 825 L186 825 L186 751 C106 726 55 651 55 548 C55 472 99 416 186 383 L186 87 C153 115 123 155 99 207 L51 174 L51 127 L77 127 C98 93 123 66 150 45 C150 44 150 44 150 44 L150 44 C161 35 173 27 185 21 L185 -74 L217 -74 L217 6 C244 -4 272 -9 301 -9 C304 -9 307 -9 310 -9 L310 -74 L342 -74 L342 -6 C455 10 514 93 514 211 C514 304 456 368 342 402 L342 671 C371 650 403 620 437 582 L457 600 L477 618 L477 665 L443 665 L431 665 C413 682 395 697 378 709 L378 709 L378 709 C366 717 354 724 343 730 L343 825 L312 825 L312 825 Z M311 409 C303 411 294 413 285 415 C260 420 238 426 218 433 L218 708 C228 710 238 711 249 711 C266 711 287 704 311 691 L311 409 L311 409 Z M186 447 C137 473 112 509 112 555 C112 621 140 672 186 696 L186 447 L186 447 Z M218 371 C234 366 251 362 270 359 C284 356 298 353 311 350 L311 40 C308 40 305 40 302 40 C274 40 246 48 219 64 L218 371 L218 371 Z M344 341 C421 314 460 270 460 211 C460 123 421 61 344 45 L344 341 L344 341 Z " />
<glyph glyph-name="percent" unicode="&#x25;" horiz-adv-x="734" d="M652 140 C652 66 622 16 564 16 C505 16 475 66 475 140 C475 214 505 264 564 264 C622 264 652 214 652 140 L652 140 Z M564 -10 C641 -10 681 50 681 140 C681 230 641 290 564 290 C487 290 447 230 447 140 C447 50 487 -10 564 -10 L564 -10 Z M82 610 C82 684 112 734 171 734 C230 734 260 684 260 610 C260 536 230 486 171 486 C112 486 82 536 82 610 L82 610 Z M171 760 C94 760 54 700 54 610 C54 520 94 460 171 460 C248 460 288 520 288 610 C288 700 248 760 171 760 L171 760 Z M160 0 L177 0 L575 750 L557 750 L160 0 L160 0 Z " />
<glyph glyph-name="ampersand" unicode="&#x26;" horiz-adv-x="702" d="M642 2 L636 44 C623 39 605 35 591 35 C561 35 533 55 501 89 C545 153 569 242 567 348 L522 359 C523 265 504 186 469 129 C462 138 455 147 448 157 C372 254 313 329 284 366 C404 430 484 495 484 530 C484 629 421 695 328 695 C228 695 161 629 161 529 C161 467 183 405 217 370 C118 316 53 241 53 181 C53 60 150 -21 295 -21 C366 -21 426 5 472 52 C511 13 548 -10 589 -10 C605 -10 627 -5 644 2 L642 2 L642 2 Z M262 395 C230 425 209 480 209 533 C209 606 257 654 329 654 C397 654 442 603 442 527 C442 505 370 452 263 395 L262 395 L262 395 Z M242 343 C268 310 322 240 393 148 C409 127 425 107 440 89 C404 51 357 30 303 30 C185 30 106 94 106 190 C106 239 157 299 233 339 L242 343 L242 343 Z " />
<glyph glyph-name="quotesingle" unicode="&#x27;" horiz-adv-x="180" d="M77 750 L77 695 L93 650 L117 650 L133 695 L133 750 L77 750 L77 750 Z " />
<glyph glyph-name="parenleft" unicode="&#x28;" horiz-adv-x="348" d="M311 795 C179 684 111 528 111 335 C111 149 179 -4 311 -115 L328 -96 C206 6 143 153 143 335 C143 524 206 674 328 776 L311 795 L311 795 Z " />
<glyph glyph-name="parenright" unicode="&#x29;" horiz-adv-x="330" d="M37 -115 C169 -4 237 152 237 345 C237 531 169 684 37 795 L20 776 C142 674 205 527 205 345 C205 156 142 6 20 -96 L37 -115 L37 -115 Z " />
<glyph glyph-name="asterisk" unicode="&#x2a;" horiz-adv-x="351" d="M322 669 L189 618 L197 760 L155 760 L163 617 L30 669 L17 630 L155 593 L65 483 L99 458 L176 578 L253 458 L287 483 L196 594 L334 630 L322 669 L322 669 Z " />
<glyph glyph-name="plus" unicode="&#x2b;" horiz-adv-x="590" d="M279 245 L279 0 L311 0 L311 245 L565 245 L565 275 L311 275 L311 520 L279 520 L279 275 L25 275 L25 245 L279 245 L279 245 Z " />
<glyph glyph-name="comma" unicode="&#x2c;" horiz-adv-x="160" d="M50 60 L50 0 L77 0 C77 -43 69 -60 50 -60 L50 -86 C93 -86 110 -62 110 0 L110 60 L50 60 L50 60 Z " />
<glyph glyph-name="hyphen" unicode="&#x2d;" horiz-adv-x="365" d="M50 242 L315 242 L315 284 L50 284 L50 242 L50 242 Z " />
<glyph glyph-name="period" unicode="&#x2e;" horiz-adv-x="160" d="M50 0 L110 0 L110 60 L50 60 L50 0 L50 0 Z " />
<glyph glyph-name="slash" unicode="&#x2f;" horiz-adv-x="263" d="M0 0 L22 0 L263 750 L242 750 L0 0 L0 0 Z " />
<glyph glyph-name="zero" unicode="0" horiz-adv-x="699" d="M358 35 C206 35 128 151 128 375 C128 589 213 715 358 715 C502 715 587 589 587 375 C587 151 509 35 358 35 L358 35 Z M71 375 C71 121 169 -10 358 -10 C547 -10 645 121 645 375 C645 618 539 760 358 760 C177 760 71 618 71 375 L71 375 Z " />
<glyph glyph-name="one" unicode="1" horiz-adv-x="375" d="M248 0 L276 0 L323 0 L323 23 L323 68 L276 100 L276 676 L276 750 L232 750 L50 556 L50 488 L220 670 L220 100 L173 68 L173 23 L173 0 L220 0 L248 0 L248 0 Z " />
<glyph glyph-name="two" unicode="2" horiz-adv-x="579" d="M64 0 L124 0 L545 0 L545 27 L545 54 L545 101 C545 100 536 100 522 101 C495 100 477 100 477 101 L445 54 L129 54 C146 145 209 206 340 296 C455 375 531 465 531 521 C531 664 442 760 309 760 C176 760 87 670 87 535 C87 483 104 427 130 394 L179 419 C156 448 140 495 140 535 C140 643 208 715 309 715 C409 715 475 639 475 525 C475 478 395 390 274 307 C124 202 65 136 65 0 L64 0 L64 0 Z " />
<glyph glyph-name="three" unicode="3" horiz-adv-x="598" d="M65 245 C65 92 163 -10 309 -10 C456 -10 554 78 554 209 C554 307 481 384 368 409 C463 427 525 487 525 565 C525 683 442 761 318 761 C193 761 110 673 110 541 L165 541 C165 646 225 716 316 716 C411 716 474 654 474 561 C474 481 406 428 304 428 L224 428 L224 415 L224 406 L224 385 L284 385 C410 385 494 316 494 213 C494 110 420 41 309 41 C197 41 122 123 122 246 L65 245 L65 245 Z " />
<glyph glyph-name="four" unicode="4" horiz-adv-x="595" d="M25 315 L25 272 L72 272 L396 272 L396 100 L349 68 L349 23 L349 0 L396 0 L424 0 L451 0 L498 0 C499 0 499 9 498 23 C499 50 499 68 498 68 L451 100 L451 272 L575 272 L575 322 L451 322 L451 553 L451 738 L451 750 L408 750 L25 315 L25 315 Z M83 322 L404 685 L396 553 L396 322 L83 322 L83 322 Z " />
<glyph glyph-name="five" unicode="5" horiz-adv-x="594" d="M110 346 L164 334 C214 390 284 428 338 428 C432 428 495 351 495 235 C495 118 421 40 310 40 C198 40 123 122 123 245 L66 245 C66 92 164 -10 310 -10 C457 -10 555 88 555 235 C555 378 472 473 348 473 C289 473 218 438 167 386 L187 697 L436 696 L436 695 L465 648 L509 648 L533 648 C534 662 535 679 536 695 L536 695 L538 722 L540 749 L133 749 L110 346 L110 346 Z " />
<glyph glyph-name="six" unicode="6" horiz-adv-x="609" d="M560 626 C513 706 426 760 341 760 C166 760 75 605 75 372 C75 120 164 -10 338 -10 C483 -10 580 92 580 245 C580 388 490 483 356 483 C281 483 159 396 133 341 C133 341 171 379 176 390 L179 347 C237 412 317 439 344 439 C449 439 519 362 519 246 C519 120 446 36 337 36 C223 36 155 119 136 282 L136 282 L136 282 C133 313 131 347 131 383 C131 583 202 717 340 717 C406 717 477 670 518 599 L560 626 L560 626 Z M186 252 C180 258 140 280 136 282 L136 282 C147 306 162 327 178 345 L186 252 L186 252 Z M185 251 L185 250 C186 250 186 250 185 251 L185 251 Z " />
<glyph glyph-name="seven" unicode="7" horiz-adv-x="490" d="M30 750 L30 723 L30 696 L30 649 L53 649 L98 649 L130 696 L433 696 C249 519 177 324 177 0 L239 0 C239 334 306 529 480 696 L480 750 L30 750 L30 750 Z " />
<glyph glyph-name="eight" unicode="8" horiz-adv-x="628" d="M325 425 C208 425 155 478 155 559 C155 662 223 715 325 715 C437 715 494 652 494 559 C494 466 426 425 325 425 L325 425 Z M103 563 C103 481 147 421 242 400 C140 379 76 316 76 203 C76 75 153 -11 325 -11 C474 -11 574 55 574 203 C574 303 522 376 408 399 C493 418 545 470 545 561 C545 679 470 758 325 758 C192 758 103 691 103 561 L103 563 L103 563 Z M325 33 C195 33 136 102 136 206 C136 321 212 373 325 373 C455 373 514 307 514 207 C514 87 438 33 325 33 L325 33 Z " />
<glyph glyph-name="nine" unicode="9" horiz-adv-x="609" d="M70 124 C116 44 204 -10 288 -10 C464 -10 555 145 555 378 C555 630 465 760 292 760 C146 760 50 658 50 505 C50 362 139 267 274 267 C349 267 471 354 496 409 C496 409 458 370 453 360 L450 404 C392 339 313 312 285 312 C180 312 111 389 111 505 C111 631 183 715 293 715 C407 715 474 632 492 469 L492 469 L492 469 C495 438 497 404 497 368 C497 168 426 34 288 34 C222 34 151 81 111 152 L70 124 L70 124 Z M443 498 C449 492 488 471 491 469 L491 469 C480 445 465 424 449 406 L443 498 L443 498 Z M442 499 L442 501 C441 501 441 500 442 499 L442 499 Z " />
<glyph glyph-name="colon" unicode="&#x3a;" horiz-adv-x="160" d="M50 460 L110 460 L110 520 L50 520 L50 460 L50 460 Z M50 0 L110 0 L110 60 L50 60 L50 0 L50 0 Z " />
<glyph glyph-name="semicolon" unicode="&#x3b;" horiz-adv-x="160" d="M50 460 L110 460 L110 520 L50 520 L50 460 L50 460 Z M50 60 L50 0 L77 0 C77 -43 69 -60 50 -60 L50 -86 C93 -86 110 -62 110 0 L110 60 L50 60 L50 60 Z " />
<glyph glyph-name="less" unicode="&#x3c;" horiz-adv-x="555" d="M495 480 L45 278 L45 242 L495 40 L495 81 L86 260 L495 439 L495 480 L495 480 Z " />
<glyph glyph-name="equal" unicode="&#x3d;" horiz-adv-x="604" d="M39 180 L39 150 L554 150 L554 180 L39 180 L39 180 Z M39 380 L39 350 L554 350 L554 380 L39 380 L39 380 Z " />
<glyph glyph-name="greater" unicode="&#x3e;" horiz-adv-x="555" d="M469 260 L60 81 L60 40 L510 242 L510 278 L60 480 L60 439 L469 260 L469 260 Z " />
<glyph glyph-name="question" unicode="&#x3f;" horiz-adv-x="564" d="M256 0 L316 0 L316 60 L256 60 L256 0 L256 0 Z M31 557 L79 549 C88 652 172 721 290 721 C393 721 462 655 462 555 C462 476 440 435 383 409 C281 361 262 327 262 193 L310 193 C310 305 327 334 418 376 C487 408 514 459 514 555 C514 678 424 760 290 760 C145 760 42 679 31 557 L31 557 Z " />
<glyph glyph-name="at" unicode="&#x40;" horiz-adv-x="1171" d="M989 -119 C891 -188 733 -234 596 -234 C295 -234 94 -33 94 269 C94 571 295 772 596 772 C886 772 1079 606 1079 357 C1079 156 1013 22 913 22 C814 22 757 96 771 208 L806 499 L760 499 L744 367 C726 468 668 510 586 510 C452 510 350 414 333 269 C314 113 394 9 532 9 C621 9 692 56 727 132 C742 46 805 -8 899 -8 C1030 -8 1117 137 1117 356 C1117 624 909 803 597 803 C273 803 58 589 58 268 C58 -53 274 -267 597 -267 C739 -267 903 -218 1008 -145 L989 -119 L989 -119 Z M726 207 C715 113 640 51 538 51 C430 51 368 138 384 268 C398 386 477 465 582 465 C687 465 748 393 726 207 L726 207 Z " />
<glyph glyph-name="A" unicode="A" horiz-adv-x="771" d="M697 100 L697 100 L427 750 L423 750 L395 750 L369 750 L366 750 L319 750 L319 727 L319 682 L324 650 L324 650 L94 100 L93 100 L33 68 L33 30 L33 0 L52 0 L81 0 L111 0 L158 0 L158 23 L158 68 L153 100 L152 100 L228 284 L560 284 L636 100 L635 100 L630 68 L630 23 L630 0 L677 0 L707 0 L736 0 L755 0 L755 30 L755 68 L697 100 L697 100 Z M245 326 L394 685 L542 326 L245 326 L245 326 Z " />
<glyph glyph-name="B" unicode="B" horiz-adv-x="711" d="M486 416 C583 435 643 484 643 551 C643 694 566 750 368 750 L184 750 L156 750 L129 750 L82 750 L82 727 L82 682 L129 650 L129 100 L82 68 L82 23 L82 0 L129 0 L156 0 L184 0 L402 0 C600 0 677 62 677 220 C677 325 602 399 485 416 L486 416 L486 416 Z M183 431 L183 707 L369 707 C524 707 584 662 584 547 C584 477 498 431 368 431 L183 431 L183 431 Z M183 43 L183 389 L394 389 C527 389 616 324 616 227 C616 94 551 43 385 43 L183 43 L183 43 Z " />
<glyph glyph-name="C" unicode="C" horiz-adv-x="720" d="M659 199 C616 100 510 35 395 35 C237 35 131 191 131 375 C131 559 237 715 395 715 C497 715 603 650 659 551 L680 569 L680 569 L700 587 L700 634 L667 634 C648 657 626 677 601 694 L601 694 L601 694 C542 736 469 761 396 761 C202 761 72 584 72 376 C72 168 202 -9 396 -9 C533 -9 655 61 701 165 L659 199 L659 199 Z " />
<glyph glyph-name="D" unicode="D" horiz-adv-x="787" d="M156 0 L184 0 L373 0 C617 0 733 121 733 375 C733 623 600 750 343 750 L184 750 L156 750 L129 750 L82 750 L82 727 L82 682 L129 650 L129 100 L82 68 L82 23 L82 0 L129 0 L156 0 L156 0 Z M184 43 L184 707 L345 707 C561 707 673 594 673 375 C673 150 575 43 369 43 L184 43 L184 43 Z " />
<glyph glyph-name="E" unicode="E" horiz-adv-x="609" d="M559 23 L559 45 L559 92 C559 93 550 93 536 92 C509 93 491 93 491 92 L459 45 L184 45 L184 365 L424 365 L456 318 L501 318 L524 318 L524 365 L524 387 L524 409 L524 456 C524 455 515 455 501 456 C474 455 456 455 456 456 L424 409 L184 409 L184 705 L444 705 L476 658 L521 658 L544 658 L544 705 L544 727 L544 750 L184 750 L183 750 L156 750 L129 750 L82 750 L82 727 L82 682 L129 650 L129 100 L82 68 L82 23 L82 0 L129 0 L156 0 L183 0 L184 0 L559 0 L559 23 L559 23 Z " />
<glyph glyph-name="F" unicode="F" horiz-adv-x="574" d="M414 365 L446 318 L491 318 L514 318 L514 365 L514 387 L514 409 L514 456 C514 455 505 455 491 456 C464 455 446 455 446 456 L414 409 L184 409 L184 705 L444 705 L476 658 L521 658 L544 658 L544 705 L544 727 L544 750 L184 750 L183 750 L156 750 L129 750 L82 750 L82 727 L82 682 L129 650 L129 100 L82 68 L82 23 L82 0 L129 0 L156 0 L184 0 L231 0 L231 23 L231 68 L184 100 L184 365 L414 365 L414 365 Z " />
<glyph glyph-name="G" unicode="G" horiz-adv-x="773" d="M445 373 L675 373 L675 126 C610 72 520 35 428 35 C250 35 131 171 131 375 C131 579 250 715 428 715 C518 715 616 650 672 551 L692 568 L692 568 L713 586 L713 633 L680 633 C616 711 521 760 428 760 C214 760 71 606 71 375 C71 144 214 -10 428 -10 C540 -10 650 34 728 99 L728 418 L445 418 L445 373 L445 373 Z " />
<glyph glyph-name="H" unicode="H" horiz-adv-x="752" d="M616 0 L644 0 L691 0 L691 23 L691 68 L644 100 L644 650 L691 682 L691 727 L691 750 L644 750 L616 750 L588 750 L542 750 L542 727 L542 682 L588 650 L588 418 L184 418 L184 650 L231 682 L231 727 L231 750 L184 750 L156 750 L129 750 L82 750 L82 727 L82 682 L129 650 L129 100 L82 68 L82 23 L82 0 L129 0 L156 0 L184 0 L231 0 L231 23 L231 68 L184 100 L184 372 L588 372 L588 100 L542 68 L542 23 L542 0 L588 0 L616 0 L616 0 Z " />
<glyph glyph-name="I" unicode="I" horiz-adv-x="273" d="M138 0 L165 0 L212 0 L212 23 L212 68 L165 100 L165 650 L212 682 L212 727 L212 750 L165 750 L138 750 L110 750 L63 750 L63 727 L63 682 L110 650 L110 100 L63 68 L63 23 L63 0 L110 0 L138 0 L138 0 Z " />
<glyph glyph-name="J" unicode="J" horiz-adv-x="492" d="M67 283 L67 221 C67 62 120 -10 237 -10 C350 -10 408 82 408 220 L408 650 L455 682 L455 727 L455 750 L408 750 L380 750 L352 750 L305 750 L305 727 L305 682 L352 650 L352 220 C352 113 313 42 237 42 C158 42 123 102 123 237 L123 292 L67 283 L67 283 Z " />
<glyph glyph-name="K" unicode="K" horiz-adv-x="607" d="M539 100 L539 100 L323 470 L471 650 L471 650 L545 682 C545 682 546 695 549 715 C552 736 554 750 553 750 L519 750 L485 750 L438 750 C438 750 437 741 436 728 C433 703 431 686 431 683 L427 678 L383 629 C411 659 420 668 408 653 L162 346 L162 651 L209 683 L209 728 L209 751 L162 751 L134 751 L106 751 L59 751 L59 728 L59 683 L106 651 L106 101 L59 69 L59 24 L59 1 L106 1 L134 1 L162 1 L209 1 L209 24 L209 69 L162 101 L162 273 L298 438 L286 424 L475 100 L485 69 L485 24 L485 1 L532 1 L565 1 L598 1 L606 1 L606 33 L606 69 L539 100 L539 100 Z M474 101 L474 101 C474 101 470 112 465 128 L474 101 L474 101 Z " />
<glyph glyph-name="L" unicode="L" horiz-adv-x="543" d="M490 23 L490 45 L490 92 C490 93 481 93 467 92 C440 93 422 93 422 92 L390 45 L165 45 L165 650 L212 682 L212 727 L212 750 L165 750 L138 750 L110 750 L63 750 L63 727 L63 682 L110 650 L110 100 L63 68 L63 23 L63 0 L110 0 L138 0 L165 0 L490 0 L490 23 L490 23 Z " />
<glyph glyph-name="M" unicode="M" horiz-adv-x="880" d="M745 0 L772 0 L819 0 L819 23 L819 68 L772 100 L772 650 L819 682 L819 727 L819 750 L772 750 L745 750 L737 750 L718 750 L685 750 L450 71 L214 750 L183 750 L162 750 L156 750 L129 750 L82 750 L82 727 L82 682 L129 650 L129 100 L82 68 L82 23 L82 0 L129 0 L156 0 L183 0 L230 0 L230 23 L230 68 L183 100 L183 690 L426 0 L475 0 L718 696 L718 100 L672 68 L672 23 L672 0 L718 0 L745 0 L745 0 Z " />
<glyph glyph-name="N" unicode="N" horiz-adv-x="719" d="M556 650 L556 72 L190 750 L184 750 L156 750 L129 750 L82 750 L82 727 L82 682 L129 650 L129 100 L82 68 L82 23 L82 0 L129 0 L156 0 L184 0 L231 0 L231 23 L231 68 L184 100 L184 648 L533 0 L556 0 L595 0 L611 0 L611 650 L658 682 C659 682 659 700 658 727 C659 741 659 750 658 750 L611 750 L584 750 L556 750 L509 750 L509 727 L509 682 L556 650 L556 650 Z " />
<glyph glyph-name="O" unicode="O" horiz-adv-x="814" d="M418 35 C249 35 136 171 136 375 C136 569 257 715 418 715 C578 715 699 569 699 375 C699 171 586 35 418 35 L418 35 Z M76 375 C76 144 213 -10 418 -10 C622 -10 759 144 759 375 C759 594 612 760 418 760 C223 760 76 594 76 375 L76 375 Z " />
<glyph glyph-name="P" unicode="P" horiz-adv-x="647" d="M156 0 L184 0 L231 0 L231 23 L231 68 L184 100 L184 315 L422 315 C547 315 612 386 612 525 C612 674 547 750 422 750 L184 750 L156 750 L142 750 L129 750 L82 750 L82 727 L82 682 L129 650 L129 100 L82 68 L82 23 L82 0 L129 0 L156 0 L156 0 Z M184 359 L184 707 L419 707 C510 707 557 645 557 525 C557 415 512 358 424 358 L184 359 L184 359 Z " />
<glyph glyph-name="Q" unicode="Q" horiz-adv-x="814" d="M76 375 C76 144 213 -10 418 -10 C463 -10 504 -3 542 11 L694 -90 L726 -58 L589 33 C695 94 759 216 759 374 C759 593 612 759 418 759 C223 759 76 593 76 374 L76 375 L76 375 Z M492 44 C469 38 444 35 418 35 C249 35 136 171 136 375 C136 569 257 715 418 715 C578 715 699 569 699 375 C699 227 639 115 542 65 L466 116 L434 84 L492 44 L492 44 Z " />
<glyph glyph-name="R" unicode="R" horiz-adv-x="670" d="M577 100 L576 100 L461 337 C561 350 612 414 612 525 C612 674 547 750 422 750 L184 750 L156 750 L142 750 L129 750 L82 750 L82 727 L82 682 L129 650 L129 100 L82 68 L82 23 L82 0 L129 0 L156 0 L184 0 L231 0 L231 23 L231 68 L184 100 L184 335 L398 335 L561 0 L593 0 L625 0 L639 0 L639 31 L639 68 L577 100 L577 100 Z M184 378 L184 707 L419 707 C510 707 557 645 557 525 C557 428 512 378 423 378 L184 378 L184 378 Z " />
<glyph glyph-name="S" unicode="S" horiz-adv-x="551" d="M152 43 C152 42 152 42 152 42 L152 42 C197 7 249 -11 302 -11 C442 -11 515 77 515 208 C515 316 437 385 285 413 C171 434 112 482 112 553 C112 646 167 709 249 709 C293 709 362 665 438 580 L458 598 L478 616 L478 663 L444 663 L432 663 C414 680 396 695 379 707 L379 707 L379 707 C331 741 286 759 250 759 C134 759 56 674 56 546 C56 448 129 383 271 357 C396 334 460 283 460 207 C460 105 407 38 303 38 C227 38 151 94 100 204 L52 171 L52 124 L78 124 C99 90 124 63 151 42 L152 43 L152 43 Z " />
<glyph glyph-name="T" unicode="T" horiz-adv-x="595" d="M298 0 L325 0 L372 0 C373 0 373 9 372 23 C373 50 373 68 372 68 L325 100 L325 705 L485 705 L517 658 L562 658 L585 658 L585 705 L585 727 L585 750 L325 750 L270 750 L10 750 L10 727 L10 705 L10 658 L33 658 L78 658 L110 705 L270 705 L270 100 L223 68 L223 23 L223 0 L270 0 L297 0 L298 0 L298 0 Z " />
<glyph glyph-name="U" unicode="U" horiz-adv-x="705" d="M546 650 L546 650 L547 302 C547 131 484 42 362 42 C240 42 177 131 177 302 L177 650 L224 682 L224 727 L224 750 L177 750 L149 750 L122 750 L75 750 L75 727 L75 682 L122 650 L122 293 C122 93 204 -10 362 -10 C520 -10 602 93 602 293 L602 650 L649 682 L649 727 L649 750 L602 750 L574 750 L546 750 L500 750 L500 727 L500 682 L546 650 L546 650 Z " />
<glyph glyph-name="V" unicode="V" horiz-adv-x="648" d="M562 650 L618 682 L618 722 L618 750 L592 750 L562 750 L532 750 L485 750 L485 727 L485 682 L503 651 L336 85 L168 651 L168 651 L185 683 L185 728 L185 751 L138 751 L108 751 L78 751 L52 751 L52 723 L52 683 L109 651 L309 1 L311 1 L361 1 L363 1 L562 650 L562 650 Z " />
<glyph glyph-name="W" unicode="W" horiz-adv-x="838" d="M702 650 L702 650 L597 117 L457 750 L403 750 L264 119 L158 650 L185 682 L185 727 L185 750 L138 750 L108 750 L78 750 L45 750 L45 724 L45 682 L99 650 L234 0 L238 0 L288 0 L430 629 L570 0 L574 0 L623 0 L761 650 L761 650 L814 682 C815 682 815 699 814 724 C815 739 815 750 814 750 L782 750 L752 750 L722 750 L675 750 L675 727 L675 682 L702 650 L702 650 Z " />
<glyph glyph-name="X" unicode="X" horiz-adv-x="684" d="M565 100 L565 100 L397 392 L563 650 L563 650 L630 682 L630 717 L630 750 L627 750 L596 750 L566 750 L519 750 L519 727 L519 682 L501 649 L368 442 L248 651 L238 682 L238 727 L238 750 L191 750 L162 750 L133 750 L125 750 L125 718 L125 682 L190 650 L337 394 L148 99 L148 99 L80 67 L80 32 L80 -1 L84 -1 L114 -1 L145 -1 L192 -1 L192 22 L192 67 L210 100 L367 344 L507 101 C506 105 503 114 499 126 L508 100 L509 99 L509 99 L520 67 L520 22 L520 -1 L567 -1 L595 -1 L624 -1 L632 -1 L632 31 L632 67 L565 100 L565 100 Z M509 99 L509 99 C509 99 509 100 509 101 L509 100 L509 99 L509 99 Z M251 648 C252 646 255 636 259 622 L251 648 L251 648 Z " />
<glyph glyph-name="Y" unicode="Y" horiz-adv-x="656" d="M313 100 L266 68 L266 23 L266 0 L313 0 L340 0 L368 0 L415 0 C416 0 416 9 415 23 C416 50 416 68 415 68 L368 100 L368 330 L562 650 L629 682 L629 717 L629 750 L623 750 L594 750 L565 750 L518 750 L518 727 L518 682 L505 650 L340 376 L175 650 L162 682 C161 682 161 700 162 727 C161 741 161 750 162 750 L115 750 L86 750 L57 750 L51 750 L51 717 L51 682 L118 650 L312 330 L313 100 L313 100 Z " />
<glyph glyph-name="Z" unicode="Z" horiz-adv-x="655" d="M610 23 L610 45 L610 92 C610 93 601 93 587 92 C560 93 542 93 542 92 L510 45 L109 45 L610 705 L610 750 L60 750 L60 727 L60 705 L60 658 L83 658 L128 658 L160 705 L545 705 L45 45 L45 0 L610 0 L610 23 L610 23 Z " />
<glyph glyph-name="bracketleft" unicode="&#x5b;" horiz-adv-x="328" d="M168 722 L298 722 L298 750 L168 750 L136 750 L136 -115 L168 -115 L298 -115 L298 -87 L168 -87 L168 722 L168 722 Z " />
<glyph glyph-name="backslash" unicode="&#x5c;" horiz-adv-x="311" d="M290 0 L312 0 L22 750 L0 750 L290 0 L290 0 Z " />
<glyph glyph-name="bracketright" unicode="&#x5d;" horiz-adv-x="317" d="M160 722 L160 -87 L30 -87 L30 -115 L160 -115 L193 -115 L193 750 L160 750 L30 750 L30 722 L160 722 L160 722 Z " />
<glyph glyph-name="underscore" unicode="&#x5f;" horiz-adv-x="680" d="M50 -115 L630 -115 L630 -85 L50 -85 L50 -115 L50 -115 Z " />
<glyph glyph-name="a" unicode="a" horiz-adv-x="550" d="M70 386 L115 371 C138 442 201 489 272 489 C364 489 425 459 425 381 C425 301 350 269 238 255 C129 242 57 184 57 111 C57 38 109 -10 244 -10 C331 -10 397 12 426 80 L426 48 C426 2 430 0 521 0 L521 37 C478 37 476 37 476 48 L476 360 C476 482 395 530 273 530 C180 530 99 472 71 386 L70 386 L70 386 Z M426 289 L426 174 C426 58 360 25 260 25 C150 25 107 60 107 112 C107 167 172 212 269 224 C340 232 396 250 426 289 L426 289 Z " />
<glyph glyph-name="b" unicode="b" horiz-adv-x="598" d="M315 31 C208 31 137 102 137 260 C137 418 208 489 315 489 C422 489 494 397 494 260 C494 123 422 31 315 31 L315 31 Z M112 0 L137 0 L137 120 C170 31 239 -10 330 -10 C460 -10 547 98 547 260 C547 422 460 530 330 530 C239 530 170 489 137 400 L137 740 L137 750 L112 750 L87 750 L40 750 L40 727 L40 682 L87 650 L87 100 L40 68 L40 23 L40 0 L87 0 L112 0 L112 0 Z " />
<glyph glyph-name="c" unicode="c" horiz-adv-x="556" d="M482 151 C455 79 383 31 302 31 C194 31 122 102 122 260 C122 419 194 491 302 491 C383 491 442 435 483 352 L526 373 L526 420 L499 420 C454 487 389 530 302 530 C161 530 67 446 67 260 C67 74 161 -10 302 -10 C406 -10 496 46 527 130 L482 151 L482 151 Z M469 420 L458 420 C454 429 451 437 448 444 C455 436 462 428 469 419 L469 420 L469 420 Z " />
<glyph glyph-name="d" unicode="d" horiz-adv-x="574" d="M67 260 C67 98 149 -10 272 -10 C357 -10 422 42 454 128 L454 10 L454 0 L479 0 L504 0 L551 0 L551 23 L551 68 L504 100 L504 740 L504 750 L479 750 L454 750 L407 750 L407 727 L407 682 L454 650 L454 392 C422 478 357 530 272 530 C149 530 67 422 67 260 L67 260 Z M454 260 C454 123 388 31 288 31 C188 31 122 123 122 260 C122 397 188 489 288 489 C388 489 454 397 454 260 L454 260 Z " />
<glyph glyph-name="e" unicode="e" horiz-adv-x="563" d="M486 148 C468 78 393 31 300 31 C195 31 125 99 122 250 L490 250 L540 250 C540 418 474 530 304 530 C162 530 67 446 67 260 C67 74 160 -10 300 -10 C417 -10 510 46 533 131 L486 148 L486 148 Z M489 285 L123 285 C130 427 201 491 304 491 C427 491 481 410 489 285 L489 285 Z " />
<glyph glyph-name="f" unicode="f" horiz-adv-x="456" d="M152 0 L177 0 L223 0 L223 23 L223 68 L177 100 L177 481 L387 481 L387 520 L177 520 L177 670 C177 698 186 709 210 709 L287 709 L319 662 L363 662 L387 662 L387 709 L387 729 L387 750 L197 750 C146 750 127 728 127 670 L127 520 L30 520 L30 481 L127 481 L127 100 L80 68 L80 23 L80 0 L127 0 L152 0 L152 0 Z " />
<glyph glyph-name="g" unicode="g" horiz-adv-x="564" d="M67 -74 C67 -148 152 -176 281 -176 C434 -176 494 -97 494 21 L494 420 L541 452 L541 497 L541 520 L494 520 L469 520 L444 520 L444 394 C412 479 349 530 267 530 C147 530 67 454 67 260 C67 73 147 0 267 0 C349 0 412 49 444 131 L444 0 C444 -80 397 -134 276 -134 C184 -134 122 -117 122 -74 L67 -74 L67 -74 Z M283 489 C380 489 444 397 444 260 C444 129 380 41 283 41 C186 41 122 102 122 260 C122 425 186 489 283 489 L283 489 Z " />
<glyph glyph-name="h" unicode="h" horiz-adv-x="561" d="M444 0 L469 0 L515 0 L515 23 L515 68 L469 100 L469 315 C469 454 410 525 322 525 C246 525 188 489 161 430 L161 740 L161 750 L136 750 L123 750 L111 750 L64 750 L64 727 L64 682 L111 650 L111 100 L64 68 L64 23 L64 0 L111 0 L136 0 L161 0 L208 0 L208 23 L208 68 L161 100 L161 348 C161 427 218 480 304 480 C374 480 420 424 420 315 L420 100 L373 68 L373 23 L373 0 L420 0 L444 0 L444 0 Z " />
<glyph glyph-name="i" unicode="i" horiz-adv-x="268" d="M120 600 L180 600 L180 660 L120 660 L120 600 L120 600 Z M150 0 L175 0 L222 0 L222 23 L222 68 L175 100 L175 510 L175 520 L150 520 L125 520 L79 520 L79 497 L79 452 L125 420 L125 100 L79 68 L79 23 L79 0 L125 0 L150 0 L150 0 Z " />
<glyph glyph-name="j" unicode="j" horiz-adv-x="245" d="M120 600 L180 600 L180 660 L120 660 L120 600 L120 600 Z M40 -75 L40 -116 L89 -116 C156 -116 175 -90 175 0 L175 510 L175 520 L150 520 L125 520 L79 520 L79 497 L79 452 L125 420 L125 0 C125 -58 114 -75 75 -75 L40 -75 L40 -75 Z " />
<glyph glyph-name="k" unicode="k" horiz-adv-x="516" d="M291 414 C314 432 322 436 312 425 L137 257 L137 740 L137 750 L112 750 L99 750 L87 750 L40 750 L40 727 L40 682 L87 650 L87 100 L40 68 L40 23 L40 0 L87 0 L112 0 L137 0 L183 0 L183 23 L183 68 L137 100 L137 197 L245 301 L447 0 L477 0 L507 0 L509 0 L509 33 L509 68 L442 100 L285 340 L369 421 L448 453 C448 453 453 466 459 484 C466 506 472 521 472 521 L441 521 L411 521 L364 521 C364 521 361 513 357 501 C347 472 340 453 340 453 L291 414 L291 414 Z M291 415 L278 405 C283 409 287 412 291 415 L291 415 Z " />
<glyph glyph-name="l" unicode="l" horiz-adv-x="315" d="M174 0 L199 0 L246 0 L246 23 L246 68 L199 100 L199 740 L199 750 L174 750 L149 750 L102 750 L102 727 L102 682 L149 650 L149 100 L102 68 L102 23 L102 0 L149 0 L174 0 L174 0 Z " />
<glyph glyph-name="m" unicode="m" horiz-adv-x="812" d="M700 0 L725 0 L771 0 L771 23 L771 68 L725 100 L725 315 C725 454 672 525 592 525 C513 525 456 479 436 406 C417 485 371 525 309 525 C239 525 185 490 159 433 L159 510 L159 520 L134 520 L121 520 L109 520 L62 520 L62 497 L62 452 L109 420 L109 100 L62 68 L62 23 L62 0 L109 0 L134 0 L159 0 L206 0 L206 23 L206 68 L159 100 L159 348 C159 427 211 480 290 480 C353 480 395 424 395 315 L395 100 L348 68 L348 23 L348 0 L395 0 L420 0 L445 0 L492 0 L492 23 L492 68 L445 100 L445 315 C445 326 445 337 444 348 L445 348 C445 427 496 480 571 480 C633 480 674 424 674 315 L674 100 L627 68 L627 23 L627 0 L674 0 L700 0 L700 0 Z " />
<glyph glyph-name="n" unicode="n" horiz-adv-x="556" d="M444 0 L469 0 L515 0 L515 23 L515 68 L469 100 L469 315 C469 454 410 525 322 525 C246 525 188 489 161 430 L161 510 L161 520 L136 520 L123 520 L111 520 L64 520 L64 497 L64 452 L111 420 L111 100 L64 68 L64 23 L64 0 L111 0 L136 0 L161 0 L208 0 L208 23 L208 68 L161 100 L161 348 C161 427 218 480 304 480 C374 480 420 424 420 315 L420 100 L373 68 L373 23 L373 0 L420 0 L444 0 L444 0 Z " />
<glyph glyph-name="o" unicode="o" horiz-adv-x="590" d="M304 27 C178 27 122 120 122 260 C122 421 195 493 304 493 C429 493 486 400 486 260 C486 99 413 27 304 27 L304 27 Z M67 260 C67 98 140 -10 304 -10 C445 -10 540 74 540 260 C540 422 467 530 304 530 C162 530 67 446 67 260 L67 260 Z " />
<glyph glyph-name="p" unicode="p" horiz-adv-x="621" d="M338 31 C231 31 160 102 160 260 C160 418 231 489 338 489 C445 489 517 397 517 260 C517 123 445 31 338 31 L338 31 Z M135 -155 L160 -155 L207 -155 L207 -132 L207 -87 L160 -55 L160 123 C193 32 263 -10 355 -10 C485 -10 572 98 572 260 C572 422 485 530 355 530 C263 530 193 488 160 397 L160 510 L160 520 L135 520 L122 520 L110 520 L63 520 L63 497 L63 452 L110 420 L110 -55 L63 -87 L63 -132 L63 -155 L110 -155 L135 -155 L135 -155 Z " />
<glyph glyph-name="q" unicode="q" horiz-adv-x="597" d="M67 260 C67 98 149 -10 272 -10 C357 -10 422 42 454 128 L454 -55 L407 -87 L407 -132 L407 -155 L454 -155 L479 -155 L504 -155 L551 -155 L551 -132 L551 -87 L504 -55 L504 420 L551 452 L551 497 L551 520 L504 520 L479 520 L454 520 L454 392 C422 478 357 530 272 530 C149 530 67 422 67 260 L67 260 Z M454 260 C454 123 388 31 288 31 C188 31 122 123 122 260 C122 397 188 489 288 489 C388 489 454 397 454 260 L454 260 Z " />
<glyph glyph-name="r" unicode="r" horiz-adv-x="370" d="M350 466 L350 520 L340 520 C242 520 185 470 159 388 L159 510 L159 520 L134 520 L121 520 L109 520 L62 520 L62 497 L62 452 L109 420 L109 100 L62 68 L62 23 L62 0 L109 0 L134 0 L159 0 L206 0 L206 23 L206 68 L159 100 L159 258 C159 383 208 466 334 466 L350 466 L350 466 Z " />
<glyph glyph-name="s" unicode="s" horiz-adv-x="500" d="M100 89 L110 89 C113 82 116 76 119 70 C112 76 106 82 100 89 L100 89 Z M402 429 L390 429 C386 438 382 446 378 454 C386 446 394 438 401 429 L402 429 L402 429 Z M67 89 C109 31 182 -5 263 -5 C387 -5 469 53 469 141 C469 216 401 272 270 282 C172 291 121 330 121 383 C121 446 179 488 265 488 C322 488 382 438 416 363 L436 372 L436 372 L457 382 L457 429 L430 429 C388 488 326 525 264 525 C149 525 72 467 72 379 C72 303 135 248 257 238 C363 229 418 189 418 137 C418 75 356 34 262 34 C184 34 113 82 85 153 L40 136 L40 89 L67 89 L67 89 Z " />
<glyph glyph-name="t" unicode="t" horiz-adv-x="345" d="M315 520 L172 520 L172 697 L122 655 L122 520 L10 520 L10 481 L122 481 L122 137 C122 34 126 0 219 0 L315 0 L315 41 L240 41 C175 41 172 65 172 137 L172 481 L315 481 L315 520 L315 520 Z " />
<glyph glyph-name="u" unicode="u" horiz-adv-x="564" d="M471 100 L471 520 L446 520 L421 520 L375 520 L375 497 L375 452 L421 420 L421 144 C421 79 369 35 291 35 C185 35 155 81 155 172 L155 520 L130 520 L105 520 L58 520 L58 497 L58 452 L105 420 L105 172 C105 52 143 -10 276 -10 C345 -10 397 22 421 75 L421 10 L421 0 L446 0 L471 0 L518 0 L518 23 L518 68 L471 100 L471 100 Z " />
<glyph glyph-name="v" unicode="v" horiz-adv-x="536" d="M411 420 L411 420 L277 46 L144 421 L156 452 L156 497 L156 520 L109 520 L81 520 L52 520 L31 520 C32 520 32 508 31 491 C32 468 32 452 31 452 L90 420 L90 420 L250 0 L261 0 L294 0 L305 0 L466 420 L466 420 L525 452 L525 491 L525 520 L504 520 L476 520 L448 520 L401 520 L401 497 L401 452 L411 420 L411 420 Z " />
<glyph glyph-name="w" unicode="w" horiz-adv-x="772" d="M658 420 L658 420 L555 49 L417 520 L373 520 L235 50 L131 420 L150 452 L150 497 L150 520 L103 520 L77 520 L50 520 L24 520 L24 492 L24 452 L80 420 L209 0 L220 0 L249 0 L259 0 L395 447 L530 0 L541 0 L569 0 L580 0 L708 420 L709 420 L766 452 L766 492 L766 520 L739 520 L713 520 L686 520 L639 520 C640 520 640 511 639 497 C640 470 640 452 639 452 L658 420 L658 420 Z " />
<glyph glyph-name="x" unicode="x" horiz-adv-x="515" d="M336 420 L336 420 L258 313 L173 429 C171 432 180 420 199 395 L156 451 C156 451 155 469 154 496 C153 510 153 519 153 519 L106 519 L75 519 L44 519 C44 519 45 505 45 485 C46 464 47 451 47 451 L117 419 L117 419 L226 270 L102 99 L31 67 C31 67 31 54 30 33 C29 13 29 -1 29 -1 L59 -1 L90 -1 L137 -1 C137 -1 138 8 138 22 C139 49 140 67 140 67 L183 123 C164 98 155 86 157 89 L257 227 L357 89 C359 86 350 98 331 123 L374 67 C374 67 375 49 376 22 C377 8 377 -1 377 -1 L424 -1 L455 -1 L486 -1 C486 -1 485 13 484 33 C484 54 483 67 483 67 L413 99 L413 99 L288 270 L397 419 L397 419 L468 451 C467 451 468 464 469 485 C470 505 470 519 470 519 L439 519 L408 519 L361 519 C362 519 361 510 360 496 C359 472 359 455 359 451 L351 440 L315 394 C341 427 349 437 335 418 L336 420 L336 420 Z " />
<glyph glyph-name="y" unicode="y" horiz-adv-x="512" d="M66 420 L67 420 L231 -4 L228 -11 C184 -125 159 -157 113 -157 L63 -157 L63 -200 L113 -200 C182 -200 216 -163 267 -30 L441 420 L500 452 L500 491 L500 520 L479 520 L451 520 L422 520 L376 520 L376 497 L376 452 L386 421 L257 69 L122 421 L123 421 L131 453 C132 453 132 471 131 498 C132 512 132 521 131 521 L84 521 L56 521 L28 521 L7 521 L7 492 L7 453 L66 420 L66 420 Z " />
<glyph glyph-name="z" unicode="z" horiz-adv-x="460" d="M45 520 L45 500 L45 481 L45 434 L68 434 L113 434 L145 481 L361 481 L30 30 L30 0 L84 0 L440 0 L440 20 L440 39 L440 86 L417 86 L372 86 L340 39 L90 39 L424 490 L424 520 L371 520 L45 520 L45 520 Z " />
<glyph glyph-name="braceleft" unicode="&#x7b;" horiz-adv-x="320" d="M290 750 L220 750 C170 750 136 712 136 655 L136 388 C136 353 108 329 65 329 L55 329 L55 306 L65 306 C108 306 136 282 136 247 L136 -20 C136 -77 170 -115 220 -115 L290 -115 L290 -87 L220 -87 C189 -87 168 -60 168 -20 L168 241 C168 275 140 306 97 317 C140 328 168 359 168 393 L168 654 C168 694 189 721 220 721 L290 721 L290 750 L290 750 Z " />
<glyph glyph-name="bar" unicode="&#x7c;" horiz-adv-x="122" d="M45 800 L45 -250 L78 -250 L78 800 L45 800 L45 800 Z " />
<glyph glyph-name="braceright" unicode="&#x7d;" horiz-adv-x="320" d="M30 750 L100 750 C151 750 184 712 184 655 L184 388 C184 353 213 329 255 329 L265 329 L265 306 L255 306 C213 306 184 282 184 247 L184 -20 C184 -77 151 -115 100 -115 L30 -115 L30 -87 L100 -87 C131 -87 152 -60 152 -20 L152 241 C152 275 180 306 223 317 C180 328 152 359 152 393 L152 654 C152 694 131 721 100 721 L30 721 L30 750 L30 750 Z " />
<glyph glyph-name="nbspace" unicode="&#xa0;" horiz-adv-x="220" d="" />
<glyph glyph-name="exclamdown" unicode="&#xa1;" horiz-adv-x="148" d="M104 520 L44 520 L44 460 L104 460 L104 520 L104 520 Z M104 -230 L104 80 L82 327 L67 327 L45 80 L45 -230 L104 -230 L104 -230 Z " />
<glyph glyph-name="cent" unicode="&#xa2;" horiz-adv-x="552" d="M283 595 L283 530 C153 523 67 438 67 260 C67 82 153 -3 283 -10 L283 -75 L316 -75 L316 -10 C412 -5 493 49 522 129 L477 150 C452 83 389 37 316 31 L316 490 C390 485 437 445 464 384 C458 378 454 367 454 354 C454 332 466 317 485 317 C514 317 529 335 522 362 C497 458 434 523 316 528 L316 593 L283 595 L283 595 Z M283 30 C186 37 122 109 122 258 C122 408 186 481 283 488 L283 30 L283 30 Z " />
<glyph glyph-name="guillemotleft" unicode="&#xab;" horiz-adv-x="483" d="M384 470 L244 260 L384 50 L427 50 L287 260 L427 470 L384 470 L384 470 Z M224 470 L84 260 L224 50 L268 50 L128 260 L268 470 L224 470 L224 470 Z " />
<glyph glyph-name="logicalnot" unicode="&#xac;" horiz-adv-x="450" d="M400 92 L400 242 L400 284 L350 284 L50 284 L50 242 L350 242 L350 92 L400 92 L400 92 Z " />
<glyph glyph-name="periodcentered" unicode="&#xb7;" horiz-adv-x="160" d="M50 230 L110 230 L110 290 L50 290 L50 230 L50 230 Z " />
<glyph glyph-name="guillemotright" unicode="&#xbb;" horiz-adv-x="465" d="M254 470 L394 260 L254 50 L297 50 L437 260 L297 470 L254 470 L254 470 Z M94 470 L234 260 L94 50 L138 50 L278 260 L138 470 L94 470 L94 470 Z " />
<glyph glyph-name="questiondown" unicode="&#xbf;" horiz-adv-x="549" d="M293 520 L233 520 L233 460 L293 460 L293 520 L293 520 Z M518 -37 L470 -29 C461 -132 377 -201 259 -201 C156 -201 87 -135 87 -35 C87 44 109 85 166 111 C268 159 287 193 287 327 L239 327 C239 215 222 186 131 144 C62 112 35 61 35 -35 C35 -158 125 -240 259 -240 C404 -240 507 -159 518 -37 L518 -37 Z " />
<glyph glyph-name="Agrave" unicode="&#xc0;" horiz-adv-x="771" d="M375 830 L421 830 L355 980 L290 980 L375 830 L375 830 Z M697 100 L697 100 L427 750 L423 750 L395 750 L369 750 L366 750 L319 750 L319 727 L319 682 L324 650 L324 650 L94 100 L93 100 L33 68 L33 30 L33 0 L52 0 L81 0 L111 0 L158 0 L158 23 L158 68 L153 100 L152 100 L394 685 L584 225 L569 260 L218 260 L201 218 L587 218 L636 100 L635 100 L630 68 L630 23 L630 0 L677 0 L707 0 L736 0 L755 0 L755 30 L755 68 L697 100 L697 100 Z " />
<glyph glyph-name="Aacute" unicode="&#xc1;" horiz-adv-x="771" d="M375 830 L421 830 L505 980 L440 980 L375 830 L375 830 Z M697 100 L697 100 L427 750 L423 750 L395 750 L369 750 L366 750 L319 750 L319 727 L319 682 L324 650 L324 650 L94 100 L93 100 L33 68 L33 30 L33 0 L52 0 L81 0 L111 0 L158 0 L158 23 L158 68 L153 100 L152 100 L394 685 L584 225 L569 260 L218 260 L201 218 L587 218 L636 100 L635 100 L630 68 L630 23 L630 0 L677 0 L707 0 L736 0 L755 0 L755 30 L755 68 L697 100 L697 100 Z " />
<glyph glyph-name="Acircumflex" unicode="&#xc2;" horiz-adv-x="771" d="M398 941 L522 830 L568 830 L423 980 L373 980 L228 830 L273 830 L398 941 L398 941 Z M697 100 L697 100 L427 750 L423 750 L395 750 L369 750 L366 750 L319 750 L319 727 L319 682 L324 650 L324 650 L94 100 L93 100 L33 68 L33 30 L33 0 L52 0 L81 0 L111 0 L158 0 L158 23 L158 68 L153 100 L152 100 L394 685 L584 225 L569 260 L218 260 L201 218 L587 218 L636 100 L635 100 L630 68 L630 23 L630 0 L677 0 L707 0 L736 0 L755 0 L755 30 L755 68 L697 100 L697 100 Z " />
<glyph glyph-name="Atilde" unicode="&#xc3;" horiz-adv-x="771" d="M318 830 C318 868 331 894 351 894 C393 894 397 820 448 820 C488 820 515 861 515 923 L478 923 C478 885 465 859 444 859 C403 859 399 933 348 933 C308 933 281 892 281 830 L318 830 L318 830 Z M697 100 L697 100 L427 750 L423 750 L395 750 L369 750 L366 750 L319 750 L319 727 L319 682 L324 650 L324 650 L94 100 L93 100 L33 68 L33 30 L33 0 L52 0 L81 0 L111 0 L158 0 L158 23 L158 68 L153 100 L152 100 L394 685 L584 225 L569 260 L218 260 L201 218 L587 218 L636 100 L635 100 L630 68 L630 23 L630 0 L677 0 L707 0 L736 0 L755 0 L755 30 L755 68 L697 100 L697 100 Z " />
<glyph glyph-name="Adieresis" unicode="&#xc4;" horiz-adv-x="771" d="M437 830 L497 830 L497 890 L437 890 L437 830 L437 830 Z M299 830 L359 830 L359 890 L299 890 L299 830 L299 830 Z M697 100 L697 100 L427 750 L423 750 L395 750 L369 750 L366 750 L319 750 L319 727 L319 682 L324 650 L324 650 L94 100 L93 100 L33 68 L33 30 L33 0 L52 0 L81 0 L111 0 L158 0 L158 23 L158 68 L153 100 L152 100 L394 685 L584 225 L569 260 L218 260 L201 218 L587 218 L636 100 L635 100 L630 68 L630 23 L630 0 L677 0 L707 0 L736 0 L755 0 L755 30 L755 68 L697 100 L697 100 Z " />
<glyph glyph-name="Aring" unicode="&#xc5;" horiz-adv-x="771" d="M398 853 C361 853 342 874 342 915 C342 954 363 977 398 977 C433 977 454 954 454 915 C454 874 435 853 398 853 L398 853 Z M317 915 C317 859 344 830 398 830 C451 830 479 859 479 915 C479 969 449 1000 398 1000 C347 1000 317 969 317 915 L317 915 Z M697 100 L697 100 L427 750 L423 750 L395 750 L369 750 L366 750 L319 750 L319 727 L319 682 L324 650 L324 650 L94 100 L93 100 L33 68 L33 30 L33 0 L52 0 L81 0 L111 0 L158 0 L158 23 L158 68 L153 100 L152 100 L394 685 L584 225 L569 260 L218 260 L201 218 L587 218 L636 100 L635 100 L630 68 L630 23 L630 0 L677 0 L707 0 L736 0 L755 0 L755 30 L755 68 L697 100 L697 100 Z " />
<glyph glyph-name="Ccedilla" unicode="&#xc7;" horiz-adv-x="720" d="M659 199 C616 100 510 35 395 35 C237 35 131 191 131 375 C131 559 237 715 395 715 C497 715 603 650 659 551 L680 569 L680 569 L700 587 L700 634 L667 634 C648 657 626 677 601 694 L601 694 L601 694 C542 736 469 761 396 761 C202 761 72 584 72 376 C72 176 192 5 373 -9 L344 -103 L359 -112 C362 -102 379 -96 401 -96 C427 -96 444 -116 444 -147 C444 -178 426 -198 399 -198 C375 -198 357 -185 354 -165 L334 -180 C338 -205 365 -222 401 -222 C443 -222 472 -192 472 -147 C472 -102 445 -72 405 -72 C388 -72 374 -77 367 -85 L390 -9 C392 -9 394 -9 396 -9 C533 -9 655 61 701 165 L659 199 L659 199 Z " />
<glyph glyph-name="Egrave" unicode="&#xc8;" horiz-adv-x="609" d="M314 830 L359 830 L294 980 L229 980 L314 830 L314 830 Z M559 23 L559 45 L559 92 C559 93 550 93 536 92 C509 93 491 93 491 92 L459 45 L184 45 L184 365 L424 365 L456 318 L501 318 L524 318 L524 365 L524 387 L524 409 L524 456 C524 455 515 455 501 456 C474 455 456 455 456 456 L424 409 L184 409 L184 705 L444 705 L476 658 L521 658 L544 658 L544 705 L544 727 L544 750 L184 750 L183 750 L156 750 L129 750 L82 750 L82 727 L82 682 L129 650 L129 100 L82 68 L82 23 L82 0 L129 0 L156 0 L183 0 L184 0 L559 0 L559 23 L559 23 Z " />
<glyph glyph-name="Eacute" unicode="&#xc9;" horiz-adv-x="609" d="M314 830 L359 830 L444 980 L379 980 L314 830 L314 830 Z M559 23 L559 45 L559 92 C559 93 550 93 536 92 C509 93 491 93 491 92 L459 45 L184 45 L184 365 L424 365 L456 318 L501 318 L524 318 L524 365 L524 387 L524 409 L524 456 C524 455 515 455 501 456 C474 455 456 455 456 456 L424 409 L184 409 L184 705 L444 705 L476 658 L521 658 L544 658 L544 705 L544 727 L544 750 L184 750 L183 750 L156 750 L129 750 L82 750 L82 727 L82 682 L129 650 L129 100 L82 68 L82 23 L82 0 L129 0 L156 0 L183 0 L184 0 L559 0 L559 23 L559 23 Z " />
<glyph glyph-name="Ecircumflex" unicode="&#xca;" horiz-adv-x="609" d="M336 941 L461 830 L506 830 L362 980 L311 980 L166 830 L212 830 L336 941 L336 941 Z M559 23 L559 45 L559 92 C559 93 550 93 536 92 C509 93 491 93 491 92 L459 45 L184 45 L184 365 L424 365 L456 318 L501 318 L524 318 L524 365 L524 387 L524 409 L524 456 C524 455 515 455 501 456 C474 455 456 455 456 456 L424 409 L184 409 L184 705 L444 705 L476 658 L521 658 L544 658 L544 705 L544 727 L544 750 L184 750 L183 750 L156 750 L129 750 L82 750 L82 727 L82 682 L129 650 L129 100 L82 68 L82 23 L82 0 L129 0 L156 0 L183 0 L184 0 L559 0 L559 23 L559 23 Z " />
<glyph glyph-name="Edieresis" unicode="&#xcb;" horiz-adv-x="609" d="M375 830 L435 830 L435 890 L375 890 L375 830 L375 830 Z M238 830 L298 830 L298 890 L238 890 L238 830 L238 830 Z M559 23 L559 45 L559 92 C559 93 550 93 536 92 C509 93 491 93 491 92 L459 45 L184 45 L184 365 L424 365 L456 318 L501 318 L524 318 L524 365 L524 387 L524 409 L524 456 C524 455 515 455 501 456 C474 455 456 455 456 456 L424 409 L184 409 L184 705 L444 705 L476 658 L521 658 L544 658 L544 705 L544 727 L544 750 L184 750 L183 750 L156 750 L129 750 L82 750 L82 727 L82 682 L129 650 L129 100 L82 68 L82 23 L82 0 L129 0 L156 0 L183 0 L184 0 L559 0 L559 23 L559 23 Z " />
<glyph glyph-name="Igrave" unicode="&#xcc;" horiz-adv-x="273" d="M115 830 L160 830 L95 980 L30 980 L115 830 L115 830 Z M138 0 L165 0 L212 0 L212 23 L212 68 L165 100 L165 650 L212 682 L212 727 L212 750 L165 750 L138 750 L110 750 L63 750 L63 727 L63 682 L110 650 L110 100 L63 68 L63 23 L63 0 L110 0 L138 0 L138 0 Z " />
<glyph glyph-name="Iacute" unicode="&#xcd;" horiz-adv-x="273" d="M115 830 L160 830 L245 980 L180 980 L115 830 L115 830 Z M138 0 L165 0 L212 0 L212 23 L212 68 L165 100 L165 650 L212 682 L212 727 L212 750 L165 750 L138 750 L110 750 L63 750 L63 727 L63 682 L110 650 L110 100 L63 68 L63 23 L63 0 L110 0 L138 0 L138 0 Z " />
<glyph glyph-name="Icircumflex" unicode="&#xce;" horiz-adv-x="273" d="M138 941 L262 830 L308 830 L163 980 L112 980 L-32 830 L13 830 L138 941 L138 941 Z M138 0 L165 0 L212 0 L212 23 L212 68 L165 100 L165 650 L212 682 L212 727 L212 750 L165 750 L138 750 L110 750 L63 750 L63 727 L63 682 L110 650 L110 100 L63 68 L63 23 L63 0 L110 0 L138 0 L138 0 Z " />
<glyph glyph-name="Idieresis" unicode="&#xcf;" horiz-adv-x="273" d="M176 830 L236 830 L236 890 L176 890 L176 830 L176 830 Z M39 830 L99 830 L99 890 L39 890 L39 830 L39 830 Z M138 0 L165 0 L212 0 L212 23 L212 68 L165 100 L165 650 L212 682 L212 727 L212 750 L165 750 L138 750 L110 750 L63 750 L63 727 L63 682 L110 650 L110 100 L63 68 L63 23 L63 0 L110 0 L138 0 L138 0 Z " />
<glyph glyph-name="Ntilde" unicode="&#xd1;" horiz-adv-x="719" d="M290 830 C290 868 303 894 323 894 C365 894 369 820 420 820 C460 820 487 861 487 923 L450 923 C450 885 437 859 417 859 C375 859 371 933 320 933 C280 933 253 892 253 830 L290 830 L290 830 Z M556 650 L556 72 L190 750 L184 750 L156 750 L129 750 L82 750 L82 727 L82 682 L129 650 L129 100 L82 68 L82 23 L82 0 L129 0 L156 0 L184 0 L231 0 L231 23 L231 68 L184 100 L184 648 L533 0 L556 0 L595 0 L611 0 L611 650 L658 682 C659 682 659 700 658 727 C659 741 659 750 658 750 L611 750 L584 750 L556 750 L509 750 L509 727 L509 682 L556 650 L556 650 Z " />
<glyph glyph-name="Ograve" unicode="&#xd2;" horiz-adv-x="814" d="M395 830 L440 830 L375 980 L310 980 L395 830 L395 830 Z M418 35 C249 35 136 171 136 375 C136 569 257 715 418 715 C578 715 699 569 699 375 C699 171 586 35 418 35 L418 35 Z M76 375 C76 144 213 -10 418 -10 C622 -10 759 144 759 375 C759 594 612 760 418 760 C223 760 76 594 76 375 L76 375 Z " />
<glyph glyph-name="Oacute" unicode="&#xd3;" horiz-adv-x="814" d="M395 830 L440 830 L525 980 L460 980 L395 830 L395 830 Z M418 35 C249 35 136 171 136 375 C136 569 257 715 418 715 C578 715 699 569 699 375 C699 171 586 35 418 35 L418 35 Z M76 375 C76 144 213 -10 418 -10 C622 -10 759 144 759 375 C759 594 612 760 418 760 C223 760 76 594 76 375 L76 375 Z " />
<glyph glyph-name="Ocircumflex" unicode="&#xd4;" horiz-adv-x="814" d="M418 941 L542 830 L588 830 L443 980 L392 980 L248 830 L293 830 L418 941 L418 941 Z M418 35 C249 35 136 171 136 375 C136 569 257 715 418 715 C578 715 699 569 699 375 C699 171 586 35 418 35 L418 35 Z M76 375 C76 144 213 -10 418 -10 C622 -10 759 144 759 375 C759 594 612 760 418 760 C223 760 76 594 76 375 L76 375 Z " />
<glyph glyph-name="Otilde" unicode="&#xd5;" horiz-adv-x="814" d="M338 830 C338 868 351 894 371 894 C412 894 417 820 468 820 C507 820 534 861 534 923 L498 923 C498 885 484 859 464 859 C423 859 418 933 367 933 C328 933 301 892 301 830 L338 830 L338 830 Z M418 35 C249 35 136 171 136 375 C136 569 257 715 418 715 C578 715 699 569 699 375 C699 171 586 35 418 35 L418 35 Z M76 375 C76 144 213 -10 418 -10 C622 -10 759 144 759 375 C759 594 612 760 418 760 C223 760 76 594 76 375 L76 375 Z " />
<glyph glyph-name="Odieresis" unicode="&#xd6;" horiz-adv-x="814" d="M456 830 L516 830 L516 890 L456 890 L456 830 L456 830 Z M319 830 L379 830 L379 890 L319 890 L319 830 L319 830 Z M418 35 C249 35 136 171 136 375 C136 569 257 715 418 715 C578 715 699 569 699 375 C699 171 586 35 418 35 L418 35 Z M76 375 C76 144 213 -10 418 -10 C622 -10 759 144 759 375 C759 594 612 760 418 760 C223 760 76 594 76 375 L76 375 Z " />
<glyph glyph-name="Oslash" unicode="&#xd8;" horiz-adv-x="814" d="M418 35 C337 35 269 67 220 123 L629 606 C673 546 699 466 699 375 C699 171 586 35 418 35 L418 35 Z M76 375 C76 261 109 166 167 99 L75 -9 L106 -9 L183 82 C242 24 322 -9 417 -9 C621 -9 758 145 758 376 C758 484 722 579 662 648 L758 761 L727 761 L646 666 C586 726 506 762 416 762 C221 762 74 596 74 377 L76 375 L76 375 Z M202 143 C159 202 134 282 134 377 C134 571 255 717 416 717 C493 717 561 683 611 626 L202 143 L202 143 Z " />
<glyph glyph-name="Ugrave" unicode="&#xd9;" horiz-adv-x="705" d="M339 820 L385 820 L319 970 L254 970 L339 820 L339 820 Z M546 650 L546 650 L547 302 C547 131 484 42 362 42 C240 42 177 131 177 302 L177 650 L224 682 L224 727 L224 750 L177 750 L149 750 L122 750 L75 750 L75 727 L75 682 L122 650 L122 293 C122 93 204 -10 362 -10 C520 -10 602 93 602 293 L602 650 L649 682 L649 727 L649 750 L602 750 L574 750 L546 750 L500 750 L500 727 L500 682 L546 650 L546 650 Z " />
<glyph glyph-name="Uacute" unicode="&#xda;" horiz-adv-x="705" d="M339 820 L385 820 L469 970 L404 970 L339 820 L339 820 Z M546 650 L546 650 L547 302 C547 131 484 42 362 42 C240 42 177 131 177 302 L177 650 L224 682 L224 727 L224 750 L177 750 L149 750 L122 750 L75 750 L75 727 L75 682 L122 650 L122 293 C122 93 204 -10 362 -10 C520 -10 602 93 602 293 L602 650 L649 682 L649 727 L649 750 L602 750 L574 750 L546 750 L500 750 L500 727 L500 682 L546 650 L546 650 Z " />
<glyph glyph-name="Ucircumflex" unicode="&#xdb;" horiz-adv-x="705" d="M362 931 L486 820 L532 820 L387 970 L337 970 L192 820 L238 820 L362 931 L362 931 Z M546 650 L546 650 L547 302 C547 131 484 42 362 42 C240 42 177 131 177 302 L177 650 L224 682 L224 727 L224 750 L177 750 L149 750 L122 750 L75 750 L75 727 L75 682 L122 650 L122 293 C122 93 204 -10 362 -10 C520 -10 602 93 602 293 L602 650 L649 682 L649 727 L649 750 L602 750 L574 750 L546 750 L500 750 L500 727 L500 682 L546 650 L546 650 Z " />
<glyph glyph-name="Udieresis" unicode="&#xdc;" horiz-adv-x="705" d="M401 820 L461 820 L461 880 L401 880 L401 820 L401 820 Z M263 820 L323 820 L323 880 L263 880 L263 820 L263 820 Z M546 650 L546 650 L547 302 C547 131 484 42 362 42 C240 42 177 131 177 302 L177 650 L224 682 L224 727 L224 750 L177 750 L149 750 L122 750 L75 750 L75 727 L75 682 L122 650 L122 293 C122 93 204 -10 362 -10 C520 -10 602 93 602 293 L602 650 L649 682 L649 727 L649 750 L602 750 L574 750 L546 750 L500 750 L500 727 L500 682 L546 650 L546 650 Z " />
<glyph glyph-name="Yacute" unicode="&#xdd;" horiz-adv-x="656" d="M318 830 L363 830 L448 980 L383 980 L318 830 L318 830 Z M313 100 L266 68 L266 23 L266 0 L313 0 L340 0 L368 0 L415 0 C416 0 416 9 415 23 C416 50 416 68 415 68 L368 100 L368 330 L562 650 L629 682 L629 717 L629 750 L623 750 L594 750 L565 750 L518 750 L518 727 L518 682 L505 650 L340 376 L175 650 L162 682 C161 682 161 700 162 727 C161 741 161 750 162 750 L115 750 L86 750 L57 750 L51 750 L51 717 L51 682 L118 650 L312 330 L313 100 L313 100 Z " />
<glyph glyph-name="Thorn" unicode="&#xde;" horiz-adv-x="647" d="M156 0 L184 0 L231 0 L231 23 L231 68 L184 100 L184 150 L422 150 C547 150 612 227 612 375 C612 524 547 600 422 600 L184 600 L184 650 L231 682 L231 727 L231 750 L184 750 L156 750 L129 750 L82 750 L82 727 L82 682 L129 650 L129 100 L82 68 L82 23 L82 0 L129 0 L156 0 L156 0 Z M184 193 L184 557 L419 557 C510 557 557 495 557 375 C557 255 512 193 424 193 L184 193 L184 193 Z " />
<glyph glyph-name="agrave" unicode="&#xe0;" horiz-adv-x="550" d="M249 600 L295 600 L230 750 L165 750 L249 600 L249 600 Z M70 386 L115 371 C138 442 201 489 272 489 C364 489 425 459 425 381 C425 301 350 269 238 255 C129 242 57 184 57 111 C57 38 109 -10 244 -10 C331 -10 397 12 426 80 L426 48 C426 2 430 0 521 0 L521 37 C478 37 476 37 476 48 L476 360 C476 482 395 530 273 530 C180 530 99 472 71 386 L70 386 L70 386 Z M426 289 L426 174 C426 58 360 25 260 25 C150 25 107 60 107 112 C107 167 172 212 269 224 C340 232 396 250 426 289 L426 289 Z " />
<glyph glyph-name="aacute" unicode="&#xe1;" horiz-adv-x="550" d="M249 600 L295 600 L380 750 L315 750 L249 600 L249 600 Z M70 386 L115 371 C138 442 201 489 272 489 C364 489 425 459 425 381 C425 301 350 269 238 255 C129 242 57 184 57 111 C57 38 109 -10 244 -10 C331 -10 397 12 426 80 L426 48 C426 2 430 0 521 0 L521 37 C478 37 476 37 476 48 L476 360 C476 482 395 530 273 530 C180 530 99 472 71 386 L70 386 L70 386 Z M426 289 L426 174 C426 58 360 25 260 25 C150 25 107 60 107 112 C107 167 172 212 269 224 C340 232 396 250 426 289 L426 289 Z " />
<glyph glyph-name="acircumflex" unicode="&#xe2;" horiz-adv-x="550" d="M272 711 L397 600 L442 600 L298 750 L247 750 L102 600 L148 600 L272 711 L272 711 Z M70 386 L115 371 C138 442 201 489 272 489 C364 489 425 459 425 381 C425 301 350 269 238 255 C129 242 57 184 57 111 C57 38 109 -10 244 -10 C331 -10 397 12 426 80 L426 48 C426 2 430 0 521 0 L521 37 C478 37 476 37 476 48 L476 360 C476 482 395 530 273 530 C180 530 99 472 71 386 L70 386 L70 386 Z M426 289 L426 174 C426 58 360 25 260 25 C150 25 107 60 107 112 C107 167 172 212 269 224 C340 232 396 250 426 289 L426 289 Z " />
<glyph glyph-name="atilde" unicode="&#xe3;" horiz-adv-x="624" d="M231 600 C231 638 244 664 264 664 C306 664 310 590 361 590 C401 590 428 631 428 693 L391 693 C391 655 378 629 357 629 C316 629 312 703 261 703 C221 703 194 662 194 600 L231 600 L231 600 Z M67 260 C67 98 168 -10 320 -10 C405 -10 471 42 503 128 L503 0 L553 0 L553 520 L503 520 L503 392 C471 478 405 530 320 530 C168 530 67 422 67 260 L67 260 Z M504 260 C504 123 437 31 336 31 C208 31 122 123 122 260 C122 397 208 489 336 489 C437 489 504 397 504 260 L504 260 Z " />
<glyph glyph-name="adieresis" unicode="&#xe4;" horiz-adv-x="550" d="M320 600 L380 600 L380 660 L320 660 L320 600 L320 600 Z M165 600 L225 600 L225 660 L165 660 L165 600 L165 600 Z M70 386 L115 371 C138 442 201 489 272 489 C364 489 425 459 425 381 C425 301 350 269 238 255 C129 242 57 184 57 111 C57 38 109 -10 244 -10 C331 -10 397 12 426 80 L426 48 C426 2 430 0 521 0 L521 37 C478 37 476 37 476 48 L476 360 C476 482 395 530 273 530 C180 530 99 472 71 386 L70 386 L70 386 Z M426 289 L426 174 C426 58 360 25 260 25 C150 25 107 60 107 112 C107 167 172 212 269 224 C340 232 396 250 426 289 L426 289 Z " />
<glyph glyph-name="aring" unicode="&#xe5;" horiz-adv-x="550" d="M272 623 C235 623 216 644 216 685 C216 724 237 747 272 747 C307 747 328 724 328 685 C328 644 309 623 272 623 L272 623 Z M191 685 C191 629 219 600 272 600 C326 600 353 629 353 685 C353 739 323 770 272 770 C221 770 191 739 191 685 L191 685 Z M70 386 L115 371 C138 442 201 489 272 489 C364 489 425 459 425 381 C425 301 350 269 238 255 C129 242 57 184 57 111 C57 38 109 -10 244 -10 C331 -10 397 12 426 80 L426 48 C426 2 430 0 521 0 L521 37 C478 37 476 37 476 48 L476 360 C476 482 395 530 273 530 C180 530 99 472 71 386 L70 386 L70 386 Z M426 289 L426 174 C426 58 360 25 260 25 C150 25 107 60 107 112 C107 167 172 212 269 224 C340 232 396 250 426 289 L426 289 Z " />
<glyph glyph-name="ccedilla" unicode="&#xe7;" horiz-adv-x="556" d="M482 151 C455 79 383 31 302 31 C194 31 122 102 122 260 C122 419 194 491 302 491 C383 491 442 435 483 352 L526 373 C481 467 408 530 302 530 C161 530 67 446 67 260 C67 82 153 -3 283 -10 L255 -104 L270 -113 L271 -111 C275 -102 291 -97 312 -97 C338 -97 356 -117 356 -148 C356 -179 338 -199 311 -199 C286 -199 268 -186 265 -166 L246 -181 C250 -206 276 -223 312 -223 C355 -223 384 -193 384 -148 C384 -103 357 -73 316 -73 C301 -73 287 -78 279 -85 L301 -11 L301 -11 C405 -11 495 45 526 129 L482 151 L482 151 Z " />
<glyph glyph-name="egrave" unicode="&#xe8;" horiz-adv-x="563" d="M281 600 L327 600 L261 750 L196 750 L281 600 L281 600 Z M486 148 C468 78 393 31 300 31 C195 31 125 99 122 250 L490 250 L540 250 C540 418 474 530 304 530 C162 530 67 446 67 260 C67 74 160 -10 300 -10 C417 -10 510 46 533 131 L486 148 L486 148 Z M489 285 L123 285 C130 427 201 491 304 491 C427 491 481 410 489 285 L489 285 Z " />
<glyph glyph-name="eacute" unicode="&#xe9;" horiz-adv-x="563" d="M281 600 L327 600 L411 750 L346 750 L281 600 L281 600 Z M486 148 C468 78 393 31 300 31 C195 31 125 99 122 250 L490 250 L540 250 C540 418 474 530 304 530 C162 530 67 446 67 260 C67 74 160 -10 300 -10 C417 -10 510 46 533 131 L486 148 L486 148 Z M489 285 L123 285 C130 427 201 491 304 491 C427 491 481 410 489 285 L489 285 Z " />
<glyph glyph-name="ecircumflex" unicode="&#xea;" horiz-adv-x="563" d="M304 711 L428 600 L474 600 L329 750 L279 750 L134 600 L179 600 L304 711 L304 711 Z M486 148 C468 78 393 31 300 31 C195 31 125 99 122 250 L490 250 L540 250 C540 418 474 530 304 530 C162 530 67 446 67 260 C67 74 160 -10 300 -10 C417 -10 510 46 533 131 L486 148 L486 148 Z M489 285 L123 285 C130 427 201 491 304 491 C427 491 481 410 489 285 L489 285 Z " />
<glyph glyph-name="edieresis" unicode="&#xeb;" horiz-adv-x="563" d="M343 600 L403 600 L403 660 L343 660 L343 600 L343 600 Z M205 600 L265 600 L265 660 L205 660 L205 600 L205 600 Z M486 148 C468 78 393 31 300 31 C195 31 125 99 122 250 L490 250 L540 250 C540 418 474 530 304 530 C162 530 67 446 67 260 C67 74 160 -10 300 -10 C417 -10 510 46 533 131 L486 148 L486 148 Z M489 285 L123 285 C130 427 201 491 304 491 C427 491 481 410 489 285 L489 285 Z " />
<glyph glyph-name="igrave" unicode="&#xec;" horiz-adv-x="211" d="M71 600 L116 600 L51 750 L-14 750 L71 600 L71 600 Z M93 0 L118 0 L165 0 L165 23 L165 68 L118 100 L118 520 L93 520 L68 520 L22 520 L22 497 L22 452 L68 420 L68 100 L22 68 L22 23 L22 0 L68 0 L93 0 L93 0 Z " />
<glyph glyph-name="iacute" unicode="&#xed;" horiz-adv-x="211" d="M71 600 L116 600 L201 750 L136 750 L71 600 L71 600 Z M93 0 L118 0 L165 0 L165 23 L165 68 L118 100 L118 520 L93 520 L68 520 L22 520 L22 497 L22 452 L68 420 L68 100 L22 68 L22 23 L22 0 L68 0 L93 0 L93 0 Z " />
<glyph glyph-name="icircumflex" unicode="&#xee;" horiz-adv-x="211" d="M93 711 L218 600 L263 600 L119 750 L68 750 L-77 600 L-31 600 L93 711 L93 711 Z M93 0 L118 0 L165 0 L165 23 L165 68 L118 100 L118 520 L93 520 L68 520 L22 520 L22 497 L22 452 L68 420 L68 100 L22 68 L22 23 L22 0 L68 0 L93 0 L93 0 Z " />
<glyph glyph-name="idieresis" unicode="&#xef;" horiz-adv-x="211" d="M141 600 L201 600 L201 660 L141 660 L141 600 L141 600 Z M-14 600 L46 600 L46 660 L-14 660 L-14 600 L-14 600 Z M93 0 L118 0 L165 0 L165 23 L165 68 L118 100 L118 520 L93 520 L68 520 L22 520 L22 497 L22 452 L68 420 L68 100 L22 68 L22 23 L22 0 L68 0 L93 0 L93 0 Z " />
<glyph glyph-name="ntilde" unicode="&#xf1;" horiz-adv-x="556" d="M209 600 C209 638 222 664 243 664 C284 664 288 590 339 590 C379 590 406 631 406 693 L369 693 C369 655 356 629 336 629 C294 629 290 703 239 703 C199 703 172 662 172 600 L209 600 L209 600 Z M444 0 L469 0 L515 0 L515 23 L515 68 L469 100 L469 315 C469 454 410 525 322 525 C246 525 188 489 161 430 L161 510 L161 520 L136 520 L123 520 L111 520 L64 520 L64 497 L64 452 L111 420 L111 100 L64 68 L64 23 L64 0 L111 0 L136 0 L161 0 L208 0 L208 23 L208 68 L161 100 L161 348 C161 427 218 480 304 480 C374 480 420 424 420 315 L420 100 L373 68 L373 23 L373 0 L420 0 L444 0 L444 0 Z " />
<glyph glyph-name="ograve" unicode="&#xf2;" horiz-adv-x="590" d="M281 600 L327 600 L261 750 L196 750 L281 600 L281 600 Z M304 27 C178 27 122 120 122 260 C122 421 195 493 304 493 C429 493 486 400 486 260 C486 99 413 27 304 27 L304 27 Z M67 260 C67 98 140 -10 304 -10 C445 -10 540 74 540 260 C540 422 467 530 304 530 C162 530 67 446 67 260 L67 260 Z " />
<glyph glyph-name="oacute" unicode="&#xf3;" horiz-adv-x="590" d="M281 600 L327 600 L411 750 L346 750 L281 600 L281 600 Z M304 27 C178 27 122 120 122 260 C122 421 195 493 304 493 C429 493 486 400 486 260 C486 99 413 27 304 27 L304 27 Z M67 260 C67 98 140 -10 304 -10 C445 -10 540 74 540 260 C540 422 467 530 304 530 C162 530 67 446 67 260 L67 260 Z " />
<glyph glyph-name="ocircumflex" unicode="&#xf4;" horiz-adv-x="590" d="M304 711 L428 600 L474 600 L329 750 L278 750 L134 600 L179 600 L304 711 L304 711 Z M304 27 C178 27 122 120 122 260 C122 421 195 493 304 493 C429 493 486 400 486 260 C486 99 413 27 304 27 L304 27 Z M67 260 C67 98 140 -10 304 -10 C445 -10 540 74 540 260 C540 422 467 530 304 530 C162 530 67 446 67 260 L67 260 Z " />
<glyph glyph-name="otilde" unicode="&#xf5;" horiz-adv-x="590" d="M224 600 C224 638 237 664 257 664 C299 664 303 590 354 590 C394 590 421 631 421 693 L384 693 C384 655 371 629 350 629 C309 629 305 703 254 703 C214 703 187 662 187 600 L224 600 L224 600 Z M304 27 C178 27 122 120 122 260 C122 421 195 493 304 493 C429 493 486 400 486 260 C486 99 413 27 304 27 L304 27 Z M67 260 C67 98 140 -10 304 -10 C445 -10 540 74 540 260 C540 422 467 530 304 530 C162 530 67 446 67 260 L67 260 Z " />
<glyph glyph-name="odieresis" unicode="&#xf6;" horiz-adv-x="590" d="M343 600 L403 600 L403 660 L343 660 L343 600 L343 600 Z M205 600 L265 600 L265 660 L205 660 L205 600 L205 600 Z M304 27 C178 27 122 120 122 260 C122 421 195 493 304 493 C429 493 486 400 486 260 C486 99 413 27 304 27 L304 27 Z M67 260 C67 98 140 -10 304 -10 C445 -10 540 74 540 260 C540 422 467 530 304 530 C162 530 67 446 67 260 L67 260 Z " />
<glyph glyph-name="oslash" unicode="&#xf8;" horiz-adv-x="590" d="M304 27 C244 27 200 48 170 86 L449 420 C475 380 487 325 487 260 C487 99 414 27 305 27 L304 27 L304 27 Z M68 260 C68 177 87 108 127 61 L67 -10 L89 -10 L138 49 C176 11 231 -10 304 -10 C445 -10 540 74 540 260 C540 343 521 412 481 459 L540 530 L518 530 L469 471 C431 509 377 530 305 530 C163 530 68 446 68 260 L68 260 Z M160 101 C135 141 123 196 123 261 C123 422 196 494 305 494 C365 494 409 473 439 435 L160 101 L160 101 Z " />
<glyph glyph-name="ugrave" unicode="&#xf9;" horiz-adv-x="564" d="M265 600 L311 600 L246 750 L181 750 L265 600 L265 600 Z M471 100 L471 520 L446 520 L421 520 L375 520 L375 497 L375 452 L421 420 L421 144 C421 79 369 35 291 35 C185 35 155 81 155 172 L155 520 L130 520 L105 520 L58 520 L58 497 L58 452 L105 420 L105 172 C105 52 143 -10 276 -10 C345 -10 397 22 421 75 L421 10 L421 0 L446 0 L471 0 L518 0 L518 23 L518 68 L471 100 L471 100 Z " />
<glyph glyph-name="uacute" unicode="&#xfa;" horiz-adv-x="564" d="M265 600 L311 600 L396 750 L331 750 L265 600 L265 600 Z M471 100 L471 520 L446 520 L421 520 L375 520 L375 497 L375 452 L421 420 L421 144 C421 79 369 35 291 35 C185 35 155 81 155 172 L155 520 L130 520 L105 520 L58 520 L58 497 L58 452 L105 420 L105 172 C105 52 143 -10 276 -10 C345 -10 397 22 421 75 L421 10 L421 0 L446 0 L471 0 L518 0 L518 23 L518 68 L471 100 L471 100 Z " />
<glyph glyph-name="ucircumflex" unicode="&#xfb;" horiz-adv-x="564" d="M288 711 L413 600 L458 600 L313 750 L263 750 L118 600 L164 600 L288 711 L288 711 Z M471 100 L471 520 L446 520 L421 520 L375 520 L375 497 L375 452 L421 420 L421 144 C421 79 369 35 291 35 C185 35 155 81 155 172 L155 520 L130 520 L105 520 L58 520 L58 497 L58 452 L105 420 L105 172 C105 52 143 -10 276 -10 C345 -10 397 22 421 75 L421 10 L421 0 L446 0 L471 0 L518 0 L518 23 L518 68 L471 100 L471 100 Z " />
<glyph glyph-name="udieresis" unicode="&#xfc;" horiz-adv-x="564" d="M327 600 L387 600 L387 660 L327 660 L327 600 L327 600 Z M189 600 L249 600 L249 660 L189 660 L189 600 L189 600 Z M471 100 L471 520 L446 520 L421 520 L375 520 L375 497 L375 452 L421 420 L421 144 C421 79 369 35 291 35 C185 35 155 81 155 172 L155 520 L130 520 L105 520 L58 520 L58 497 L58 452 L105 420 L105 172 C105 52 143 -10 276 -10 C345 -10 397 22 421 75 L421 10 L421 0 L446 0 L471 0 L518 0 L518 23 L518 68 L471 100 L471 100 Z " />
<glyph glyph-name="yacute" unicode="&#xfd;" horiz-adv-x="512" d="M231 600 L276 600 L361 750 L296 750 L231 600 L231 600 Z M66 420 L67 420 L231 -4 L228 -11 C184 -125 159 -157 113 -157 L63 -157 L63 -200 L113 -200 C182 -200 216 -163 267 -30 L441 420 L500 452 L500 491 L500 520 L479 520 L451 520 L422 520 L376 520 L376 497 L376 452 L386 421 L257 69 L122 421 L123 421 L131 453 C132 453 132 471 131 498 C132 512 132 521 131 521 L84 521 L56 521 L28 521 L7 521 L7 492 L7 453 L66 420 L66 420 Z " />
<glyph glyph-name="thorn" unicode="&#xfe;" horiz-adv-x="598" d="M315 31 C208 31 137 102 137 260 C137 418 208 489 315 489 C422 489 494 397 494 260 C494 123 422 31 315 31 L315 31 Z M112 -250 L137 -250 L183 -250 L183 -227 L183 -182 L137 -150 L137 120 C170 31 239 -10 330 -10 C460 -10 547 98 547 260 C547 422 460 530 330 530 C239 530 170 489 137 400 L137 750 L112 750 L99 750 L87 750 L40 750 L40 727 L40 682 L87 650 L87 -150 L40 -182 L40 -227 L40 -250 L87 -250 L112 -250 L112 -250 Z " />
<glyph glyph-name="ydieresis" unicode="&#xff;" horiz-adv-x="512" d="M292 600 L352 600 L352 660 L292 660 L292 600 L292 600 Z M155 600 L215 600 L215 660 L155 660 L155 600 L155 600 Z M66 420 L67 420 L231 -4 L228 -11 C184 -125 159 -157 113 -157 L63 -157 L63 -200 L113 -200 C182 -200 216 -163 267 -30 L441 420 L500 452 L500 491 L500 520 L479 520 L451 520 L422 520 L376 520 L376 497 L376 452 L386 421 L257 69 L122 421 L123 421 L131 453 C132 453 132 471 131 498 C132 512 132 521 131 521 L84 521 L56 521 L28 521 L7 521 L7 492 L7 453 L66 420 L66 420 Z " />
<glyph glyph-name="Amacron" unicode="&#x100;" horiz-adv-x="771" d="M258 830 L538 830 L538 865 L258 865 L258 830 L258 830 Z M697 100 L697 100 L427 750 L423 750 L395 750 L369 750 L366 750 L319 750 L319 727 L319 682 L324 650 L324 650 L94 100 L93 100 L33 68 L33 30 L33 0 L52 0 L81 0 L111 0 L158 0 L158 23 L158 68 L153 100 L152 100 L394 685 L584 225 L569 260 L218 260 L201 218 L587 218 L636 100 L635 100 L630 68 L630 23 L630 0 L677 0 L707 0 L736 0 L755 0 L755 30 L755 68 L697 100 L697 100 Z " />
<glyph glyph-name="amacron" unicode="&#x101;" horiz-adv-x="550" d="M132 600 L412 600 L412 635 L132 635 L132 600 L132 600 Z M70 386 L115 371 C138 442 201 489 272 489 C364 489 425 459 425 381 C425 301 350 269 238 255 C129 242 57 184 57 111 C57 38 109 -10 244 -10 C331 -10 397 12 426 80 L426 48 C426 2 430 0 521 0 L521 37 C478 37 476 37 476 48 L476 360 C476 482 395 530 273 530 C180 530 99 472 71 386 L70 386 L70 386 Z M426 289 L426 174 C426 58 360 25 260 25 C150 25 107 60 107 112 C107 167 172 212 269 224 C340 232 396 250 426 289 L426 289 Z " />
<glyph glyph-name="Abreve" unicode="&#x102;" horiz-adv-x="771" d="M259 945 C259 870 315 820 398 820 C481 820 537 870 537 945 L500 945 C500 891 459 855 398 855 C337 855 296 891 296 945 L259 945 L259 945 Z M697 100 L697 100 L427 750 L423 750 L395 750 L369 750 L366 750 L319 750 L319 727 L319 682 L324 650 L324 650 L94 100 L93 100 L33 68 L33 30 L33 0 L52 0 L81 0 L111 0 L158 0 L158 23 L158 68 L153 100 L152 100 L394 685 L584 225 L569 260 L218 260 L201 218 L587 218 L636 100 L635 100 L630 68 L630 23 L630 0 L677 0 L707 0 L736 0 L755 0 L755 30 L755 68 L697 100 L697 100 Z " />
<glyph glyph-name="abreve" unicode="&#x103;" horiz-adv-x="550" d="M133 715 C133 640 189 590 272 590 C356 590 412 640 412 715 L375 715 C375 661 334 625 272 625 C211 625 170 661 170 715 L133 715 L133 715 Z M70 386 L115 371 C138 442 201 489 272 489 C364 489 425 459 425 381 C425 301 350 269 238 255 C129 242 57 184 57 111 C57 38 109 -10 244 -10 C331 -10 397 12 426 80 L426 48 C426 2 430 0 521 0 L521 37 C478 37 476 37 476 48 L476 360 C476 482 395 530 273 530 C180 530 99 472 71 386 L70 386 L70 386 Z M426 289 L426 174 C426 58 360 25 260 25 C150 25 107 60 107 112 C107 167 172 212 269 224 C340 232 396 250 426 289 L426 289 Z " />
<glyph glyph-name="Aogonek" unicode="&#x104;" horiz-adv-x="771" d="M697 100 L697 100 L427 750 L423 750 L395 750 L369 750 L366 750 L319 750 L319 727 L319 682 L324 650 L324 650 L94 100 L93 100 L33 68 L33 30 L33 0 L52 0 L81 0 L111 0 L158 0 L158 23 L158 68 L153 100 L152 100 L394 685 L584 225 L569 260 L218 260 L201 218 L587 218 L636 100 L635 100 L630 68 L630 23 L630 0 L677 0 L707 0 L709 0 C682 -25 647 -69 647 -102 C647 -164 687 -205 748 -205 C786 -205 818 -197 828 -185 L823 -158 C814 -168 785 -175 751 -175 C705 -175 674 -144 674 -97 C674 -60 718 -10 737 1 L756 1 L756 31 L756 69 L697 100 L697 100 Z " />
<glyph glyph-name="aogonek" unicode="&#x105;" horiz-adv-x="600" d="M67 260 C67 98 163 -10 307 -10 C388 -10 450 41 481 125 L481 0 L506 0 L508 0 C478 -26 440 -71 440 -102 C440 -164 481 -206 542 -206 C579 -206 611 -198 621 -186 L616 -159 C608 -169 579 -176 544 -176 C498 -176 468 -144 468 -97 C468 -60 512 -11 531 0 L578 0 L578 23 L578 68 L531 100 L531 420 L578 452 L578 497 L578 520 L531 520 L506 520 L481 520 L481 395 C450 479 388 530 307 530 C163 530 67 422 67 260 L67 260 Z M481 260 C481 123 418 31 323 31 C203 31 122 123 122 260 C122 397 203 489 323 489 C418 489 481 397 481 260 L481 260 Z " />
<glyph glyph-name="Cacute" unicode="&#x106;" horiz-adv-x="720" d="M363 830 L408 830 L493 980 L428 980 L363 830 L363 830 Z M659 199 C616 100 510 35 395 35 C237 35 131 191 131 375 C131 559 237 715 395 715 C497 715 603 650 659 551 L680 569 L680 569 L700 587 L700 634 L667 634 C648 657 626 677 601 694 L601 694 L601 694 C542 736 469 761 396 761 C202 761 72 584 72 376 C72 168 202 -9 396 -9 C533 -9 655 61 701 165 L659 199 L659 199 Z " />
<glyph glyph-name="cacute" unicode="&#x107;" horiz-adv-x="556" d="M279 600 L325 600 L409 750 L344 750 L279 600 L279 600 Z M482 151 C455 79 383 31 302 31 C194 31 122 102 122 260 C122 419 194 491 302 491 C383 491 442 435 483 352 L526 373 C481 467 408 530 302 530 C161 530 67 446 67 260 C67 74 161 -10 302 -10 C406 -10 496 46 527 130 L482 151 L482 151 Z " />
<glyph glyph-name="Ccircumflex" unicode="&#x108;" horiz-adv-x="720" d="M386 941 L510 830 L556 830 L411 980 L360 980 L216 830 L261 830 L386 941 L386 941 Z M659 199 C616 100 510 35 395 35 C237 35 131 191 131 375 C131 559 237 715 395 715 C497 715 603 650 659 551 L680 569 L680 569 L700 587 L700 634 L667 634 C648 657 626 677 601 694 L601 694 L601 694 C542 736 469 761 396 761 C202 761 72 584 72 376 C72 168 202 -9 396 -9 C533 -9 655 61 701 165 L659 199 L659 199 Z " />
<glyph glyph-name="Cdot" unicode="&#x10a;" horiz-adv-x="720" d="M356 830 L416 830 L416 890 L356 890 L356 830 L356 830 Z M659 199 C616 100 510 35 395 35 C237 35 131 191 131 375 C131 559 237 715 395 715 C497 715 603 650 659 551 L680 569 L680 569 L700 587 L700 634 L667 634 C648 657 626 677 601 694 L601 694 L601 694 C542 736 469 761 396 761 C202 761 72 584 72 376 C72 168 202 -9 396 -9 C533 -9 655 61 701 165 L659 199 L659 199 Z " />
<glyph glyph-name="cdot" unicode="&#x10b;" horiz-adv-x="556" d="M272 600 L332 600 L332 660 L272 660 L272 600 L272 600 Z M482 151 C455 79 383 31 302 31 C194 31 122 102 122 260 C122 419 194 491 302 491 C383 491 442 435 483 352 L526 373 C481 467 408 530 302 530 C161 530 67 446 67 260 C67 74 161 -10 302 -10 C406 -10 496 46 527 130 L482 151 L482 151 Z " />
<glyph glyph-name="Ccaron" unicode="&#x10c;" horiz-adv-x="720" d="M386 869 L510 980 L556 980 L411 830 L360 830 L216 980 L261 980 L386 869 L386 869 Z M659 199 C616 100 510 35 395 35 C237 35 131 191 131 375 C131 559 237 715 395 715 C497 715 603 650 659 551 L680 569 L680 569 L700 587 L700 634 L667 634 C648 657 626 677 601 694 L601 694 L601 694 C542 736 469 761 396 761 C202 761 72 584 72 376 C72 168 202 -9 396 -9 C533 -9 655 61 701 165 L659 199 L659 199 Z " />
<glyph glyph-name="ccaron" unicode="&#x10d;" horiz-adv-x="556" d="M302 639 L426 750 L472 750 L327 600 L277 600 L132 750 L177 750 L302 639 L302 639 Z M482 151 C455 79 383 31 302 31 C194 31 122 102 122 260 C122 419 194 491 302 491 C383 491 442 435 483 352 L526 373 C481 467 408 530 302 530 C161 530 67 446 67 260 C67 74 161 -10 302 -10 C406 -10 496 46 527 130 L482 151 L482 151 Z " />
<glyph glyph-name="Dcaron" unicode="&#x10e;" horiz-adv-x="787" d="M401 869 L525 980 L571 980 L426 830 L375 830 L231 980 L276 980 L401 869 L401 869 Z M156 0 L184 0 L373 0 C617 0 733 121 733 375 C733 623 600 750 343 750 L184 750 L156 750 L129 750 L82 750 L82 727 L82 682 L129 650 L129 100 L82 68 L82 23 L82 0 L129 0 L156 0 L156 0 Z M184 43 L184 707 L345 707 C561 707 673 594 673 375 C673 150 575 43 369 43 L184 43 L184 43 Z " />
<glyph glyph-name="dcaron" unicode="&#x10f;" horiz-adv-x="574" d="M554 760 L543 610 L580 610 L608 760 L554 760 L554 760 Z M67 260 C67 98 149 -10 272 -10 C357 -10 422 42 454 128 L454 10 L454 0 L479 0 L504 0 L551 0 L551 23 L551 68 L504 100 L504 740 L504 750 L479 750 L454 750 L407 750 L407 727 L407 682 L454 650 L454 392 C422 478 357 530 272 530 C149 530 67 422 67 260 L67 260 Z M454 260 C454 123 388 31 288 31 C188 31 122 123 122 260 C122 397 188 489 288 489 C388 489 454 397 454 260 L454 260 Z " />
<glyph glyph-name="Dcroat" unicode="&#x110;" horiz-adv-x="787" d="M49 358 L129 358 L129 100 L82 68 L82 23 L82 0 L129 0 L156 0 L184 0 L373 0 C617 0 733 121 733 375 C733 623 600 750 343 750 L184 750 L156 750 L129 750 L82 750 L82 727 L82 682 L129 650 L129 392 L49 392 L49 358 L49 358 Z M184 43 L184 358 L401 358 L401 392 L184 392 L184 707 L345 707 C561 707 673 594 673 375 C673 150 575 43 369 43 L184 43 L184 43 Z " />
<glyph glyph-name="dcroat" unicode="&#x111;" horiz-adv-x="574" d="M272 623 L454 623 L454 392 C422 478 357 530 272 530 C149 530 67 422 67 260 C67 98 149 -10 272 -10 C357 -10 422 42 454 128 L454 10 L454 0 L479 0 L504 0 L551 0 L551 23 L551 68 L504 100 L504 623 L581 623 L581 657 L504 657 L504 740 L504 750 L479 750 L454 750 L407 750 L407 727 L407 682 L444 657 L272 657 L272 623 L272 623 Z M454 260 C454 123 388 31 288 31 C188 31 122 123 122 260 C122 397 188 489 288 489 C388 489 454 397 454 260 L454 260 Z " />
<glyph glyph-name="Emacron" unicode="&#x112;" horiz-adv-x="609" d="M196 830 L476 830 L476 865 L196 865 L196 830 L196 830 Z M559 23 L559 45 L559 92 C559 93 550 93 536 92 C509 93 491 93 491 92 L459 45 L184 45 L184 365 L424 365 L456 318 L501 318 L524 318 L524 365 L524 387 L524 409 L524 456 C524 455 515 455 501 456 C474 455 456 455 456 456 L424 409 L184 409 L184 705 L444 705 L476 658 L521 658 L544 658 L544 705 L544 727 L544 750 L184 750 L183 750 L156 750 L129 750 L82 750 L82 727 L82 682 L129 650 L129 100 L82 68 L82 23 L82 0 L129 0 L156 0 L183 0 L184 0 L559 0 L559 23 L559 23 Z " />
<glyph glyph-name="emacron" unicode="&#x113;" horiz-adv-x="563" d="M164 600 L444 600 L444 635 L164 635 L164 600 L164 600 Z M486 148 C468 78 393 31 300 31 C195 31 125 99 122 250 L490 250 L540 250 C540 418 474 530 304 530 C162 530 67 446 67 260 C67 74 160 -10 300 -10 C417 -10 510 46 533 131 L486 148 L486 148 Z M489 285 L123 285 C130 427 201 491 304 491 C427 491 481 410 489 285 L489 285 Z " />
<glyph glyph-name="Ebreve" unicode="&#x114;" horiz-adv-x="609" d="M197 945 C197 870 253 820 336 820 C420 820 476 870 476 945 L439 945 C439 891 398 855 336 855 C275 855 234 891 234 945 L197 945 L197 945 Z M559 23 L559 45 L559 92 C559 93 550 93 536 92 C509 93 491 93 491 92 L459 45 L184 45 L184 365 L424 365 L456 318 L501 318 L524 318 L524 365 L524 387 L524 409 L524 456 C524 455 515 455 501 456 C474 455 456 455 456 456 L424 409 L184 409 L184 705 L444 705 L476 658 L521 658 L544 658 L544 705 L544 727 L544 750 L184 750 L183 750 L156 750 L129 750 L82 750 L82 727 L82 682 L129 650 L129 100 L82 68 L82 23 L82 0 L129 0 L156 0 L183 0 L184 0 L559 0 L559 23 L559 23 Z " />
<glyph glyph-name="ebreve" unicode="&#x115;" horiz-adv-x="563" d="M165 715 C165 640 221 590 304 590 C387 590 443 640 443 715 L406 715 C406 661 365 625 304 625 C242 625 201 661 201 715 L165 715 L165 715 Z M486 148 C468 78 393 31 300 31 C195 31 125 99 122 250 L490 250 L540 250 C540 418 474 530 304 530 C162 530 67 446 67 260 C67 74 160 -10 300 -10 C417 -10 510 46 533 131 L486 148 L486 148 Z M489 285 L123 285 C130 427 201 491 304 491 C427 491 481 410 489 285 L489 285 Z " />
<glyph glyph-name="Edot" unicode="&#x116;" horiz-adv-x="609" d="M306 830 L366 830 L366 890 L306 890 L306 830 L306 830 Z M559 23 L559 45 L559 92 C559 93 550 93 536 92 C509 93 491 93 491 92 L459 45 L184 45 L184 365 L424 365 L456 318 L501 318 L524 318 L524 365 L524 387 L524 409 L524 456 C524 455 515 455 501 456 C474 455 456 455 456 456 L424 409 L184 409 L184 705 L444 705 L476 658 L521 658 L544 658 L544 705 L544 727 L544 750 L184 750 L183 750 L156 750 L129 750 L82 750 L82 727 L82 682 L129 650 L129 100 L82 68 L82 23 L82 0 L129 0 L156 0 L183 0 L184 0 L559 0 L559 23 L559 23 Z " />
<glyph glyph-name="edot" unicode="&#x117;" horiz-adv-x="563" d="M274 600 L334 600 L334 660 L274 660 L274 600 L274 600 Z M486 148 C468 78 393 31 300 31 C195 31 125 99 122 250 L490 250 L540 250 C540 418 474 530 304 530 C162 530 67 446 67 260 C67 74 160 -10 300 -10 C417 -10 510 46 533 131 L486 148 L486 148 Z M489 285 L123 285 C130 427 201 491 304 491 C427 491 481 410 489 285 L489 285 Z " />
<glyph glyph-name="Eogonek" unicode="&#x118;" horiz-adv-x="609" d="M328 0 C298 -26 260 -71 260 -102 C260 -164 301 -206 362 -206 C399 -206 431 -198 441 -186 L436 -159 C428 -169 399 -176 364 -176 C318 -176 288 -144 288 -97 C288 -60 332 -11 351 0 L559 0 L559 23 L559 45 L559 92 C559 93 550 93 536 92 C509 93 491 93 491 92 L459 45 L184 45 L184 365 L424 365 L456 318 L501 318 L524 318 L524 365 L524 387 L524 409 L524 456 C524 455 515 455 501 456 C474 455 456 455 456 456 L424 409 L184 409 L184 705 L444 705 L476 658 L521 658 L544 658 L544 705 L544 727 L544 750 L184 750 L183 750 L156 750 L129 750 L82 750 L82 727 L82 682 L129 650 L129 100 L82 68 L82 23 L82 0 L129 0 L156 0 L183 0 L184 0 L328 0 L328 0 Z " />
<glyph glyph-name="eogonek" unicode="&#x119;" horiz-adv-x="563" d="M486 148 C468 78 393 31 300 31 C195 31 125 99 122 250 L490 250 L540 250 C540 418 474 530 304 530 C162 530 67 446 67 260 C67 74 160 -10 300 -10 C339 -10 376 -4 408 8 C383 -20 358 -58 358 -89 C358 -159 399 -206 460 -206 C497 -206 529 -198 539 -186 L534 -159 C526 -169 497 -176 462 -176 C417 -176 386 -139 386 -84 C386 -40 429 14 448 26 C491 51 521 87 533 131 L486 148 L486 148 Z M489 285 L123 285 C130 427 201 491 304 491 C427 491 481 410 489 285 L489 285 Z " />
<glyph glyph-name="Ecaron" unicode="&#x11a;" horiz-adv-x="609" d="M336 869 L461 980 L506 980 L362 830 L311 830 L166 980 L212 980 L336 869 L336 869 Z M559 23 L559 45 L559 92 C559 93 550 93 536 92 C509 93 491 93 491 92 L459 45 L184 45 L184 365 L424 365 L456 318 L501 318 L524 318 L524 365 L524 387 L524 409 L524 456 C524 455 515 455 501 456 C474 455 456 455 456 456 L424 409 L184 409 L184 705 L444 705 L476 658 L521 658 L544 658 L544 705 L544 727 L544 750 L184 750 L183 750 L156 750 L129 750 L82 750 L82 727 L82 682 L129 650 L129 100 L82 68 L82 23 L82 0 L129 0 L156 0 L183 0 L184 0 L559 0 L559 23 L559 23 Z " />
<glyph glyph-name="ecaron" unicode="&#x11b;" horiz-adv-x="563" d="M304 639 L428 750 L474 750 L329 600 L279 600 L134 750 L179 750 L304 639 L304 639 Z M486 148 C468 78 393 31 300 31 C195 31 125 99 122 250 L490 250 L540 250 C540 418 474 530 304 530 C162 530 67 446 67 260 C67 74 160 -10 300 -10 C417 -10 510 46 533 131 L486 148 L486 148 Z M489 285 L123 285 C130 427 201 491 304 491 C427 491 481 410 489 285 L489 285 Z " />
<glyph glyph-name="Gcircumflex" unicode="&#x11c;" horiz-adv-x="773" d="M428 941 L553 830 L598 830 L454 980 L403 980 L258 830 L304 830 L428 941 L428 941 Z M445 373 L675 373 L675 126 C610 72 520 35 428 35 C250 35 131 171 131 375 C131 579 250 715 428 715 C518 715 616 650 672 551 L692 568 L692 568 L713 586 L713 633 L680 633 C616 711 521 760 428 760 C214 760 71 606 71 375 C71 144 214 -10 428 -10 C540 -10 650 34 728 99 L728 418 L445 418 L445 373 L445 373 Z " />
<glyph glyph-name="Gbreve" unicode="&#x11e;" horiz-adv-x="773" d="M289 945 C289 870 345 820 428 820 C512 820 568 870 568 945 L531 945 C531 891 490 855 428 855 C367 855 326 891 326 945 L289 945 L289 945 Z M445 373 L675 373 L675 126 C610 72 520 35 428 35 C250 35 131 171 131 375 C131 579 250 715 428 715 C518 715 616 650 672 551 L692 568 L692 568 L713 586 L713 633 L680 633 C616 711 521 760 428 760 C214 760 71 606 71 375 C71 144 214 -10 428 -10 C540 -10 650 34 728 99 L728 418 L445 418 L445 373 L445 373 Z " />
<glyph glyph-name="gbreve" unicode="&#x11f;" horiz-adv-x="564" d="M142 715 C142 640 198 590 281 590 C364 590 420 640 420 715 L383 715 C383 661 342 625 281 625 C219 625 178 661 178 715 L142 715 L142 715 Z M67 -74 C67 -148 152 -176 281 -176 C434 -176 494 -97 494 21 L494 420 L541 452 L541 497 L541 520 L494 520 L469 520 L444 520 L444 394 C412 479 349 530 267 530 C147 530 67 454 67 260 C67 73 147 0 267 0 C349 0 412 49 444 131 L444 0 C444 -80 397 -134 276 -134 C184 -134 122 -117 122 -74 L67 -74 L67 -74 Z M283 489 C380 489 444 397 444 260 C444 129 380 41 283 41 C186 41 122 102 122 260 C122 425 186 489 283 489 L283 489 Z " />
<glyph glyph-name="Gdot" unicode="&#x120;" horiz-adv-x="773" d="M398 830 L458 830 L458 890 L398 890 L398 830 L398 830 Z M445 373 L675 373 L675 126 C610 72 520 35 428 35 C250 35 131 171 131 375 C131 579 250 715 428 715 C518 715 616 650 672 551 L692 568 L692 568 L713 586 L713 633 L680 633 C616 711 521 760 428 760 C214 760 71 606 71 375 C71 144 214 -10 428 -10 C540 -10 650 34 728 99 L728 418 L445 418 L445 373 L445 373 Z " />
<glyph glyph-name="gdot" unicode="&#x121;" horiz-adv-x="564" d="M251 600 L311 600 L311 660 L251 660 L251 600 L251 600 Z M67 -74 C67 -148 152 -176 281 -176 C434 -176 494 -97 494 21 L494 420 L541 452 L541 497 L541 520 L494 520 L469 520 L444 520 L444 394 C412 479 349 530 267 530 C147 530 67 454 67 260 C67 73 147 0 267 0 C349 0 412 49 444 131 L444 0 C444 -80 397 -134 276 -134 C184 -134 122 -117 122 -74 L67 -74 L67 -74 Z M283 489 C380 489 444 397 444 260 C444 129 380 41 283 41 C186 41 122 102 122 260 C122 425 186 489 283 489 L283 489 Z " />
<glyph glyph-name="Hcircumflex" unicode="&#x124;" horiz-adv-x="752" d="M386 941 L511 830 L556 830 L412 980 L361 980 L216 830 L262 830 L386 941 L386 941 Z M616 0 L644 0 L691 0 L691 23 L691 68 L644 100 L644 650 L691 682 L691 727 L691 750 L644 750 L616 750 L588 750 L542 750 L542 727 L542 682 L588 650 L588 418 L184 418 L184 650 L231 682 L231 727 L231 750 L184 750 L156 750 L129 750 L82 750 L82 727 L82 682 L129 650 L129 100 L82 68 L82 23 L82 0 L129 0 L156 0 L184 0 L231 0 L231 23 L231 68 L184 100 L184 372 L588 372 L588 100 L542 68 L542 23 L542 0 L588 0 L616 0 L616 0 Z " />
<glyph glyph-name="Itilde" unicode="&#x128;" horiz-adv-x="273" d="M58 830 C58 868 71 894 91 894 C133 894 137 820 188 820 C228 820 255 861 255 923 L218 923 C218 885 205 859 184 859 C143 859 139 933 88 933 C48 933 21 892 21 830 L58 830 L58 830 Z M138 0 L165 0 L212 0 L212 23 L212 68 L165 100 L165 650 L212 682 L212 727 L212 750 L165 750 L138 750 L110 750 L63 750 L63 727 L63 682 L110 650 L110 100 L63 68 L63 23 L63 0 L110 0 L138 0 L138 0 Z " />
<glyph glyph-name="itilde" unicode="&#x129;" horiz-adv-x="211" d="M13 600 C13 638 27 664 47 664 C88 664 93 590 144 590 C183 590 210 631 210 693 L173 693 C173 655 160 629 140 629 C98 629 94 703 43 703 C4 703 -23 662 -23 600 L13 600 L13 600 Z M68 520 L22 520 L22 497 L22 452 L68 420 L68 0 L118 0 L118 520 L93 520 L68 520 L68 520 Z " />
<glyph glyph-name="Imacron" unicode="&#x12a;" horiz-adv-x="273" d="M-2 830 L278 830 L278 865 L-2 865 L-2 830 L-2 830 Z M138 0 L165 0 L212 0 L212 23 L212 68 L165 100 L165 650 L212 682 L212 727 L212 750 L165 750 L138 750 L110 750 L63 750 L63 727 L63 682 L110 650 L110 100 L63 68 L63 23 L63 0 L110 0 L138 0 L138 0 Z " />
<glyph glyph-name="imacron" unicode="&#x12b;" horiz-adv-x="211" d="M-47 600 L233 600 L233 635 L-47 635 L-47 600 L-47 600 Z M93 0 L118 0 L165 0 L165 23 L165 68 L118 100 L118 520 L93 520 L68 520 L22 520 L22 497 L22 452 L68 420 L68 100 L22 68 L22 23 L22 0 L68 0 L93 0 L93 0 Z " />
<glyph glyph-name="Ibreve" unicode="&#x12c;" horiz-adv-x="273" d="M-2 945 C-2 870 54 820 138 820 C221 820 277 870 277 945 L240 945 C240 891 199 855 138 855 C76 855 35 891 35 945 L-2 945 L-2 945 Z M138 0 L165 0 L212 0 L212 23 L212 68 L165 100 L165 650 L212 682 L212 727 L212 750 L165 750 L138 750 L110 750 L63 750 L63 727 L63 682 L110 650 L110 100 L63 68 L63 23 L63 0 L110 0 L138 0 L138 0 Z " />
<glyph glyph-name="ibreve" unicode="&#x12d;" horiz-adv-x="211" d="M-46 715 C-46 640 10 590 93 590 C177 590 233 640 233 715 L196 715 C196 661 155 625 93 625 C32 625 -9 661 -9 715 L-46 715 L-46 715 Z M93 0 L118 0 L165 0 L165 23 L165 68 L118 100 L118 520 L93 520 L68 520 L22 520 L22 497 L22 452 L68 420 L68 100 L22 68 L22 23 L22 0 L68 0 L93 0 L93 0 Z " />
<glyph glyph-name="Idot" unicode="&#x130;" horiz-adv-x="273" d="M108 830 L168 830 L168 890 L108 890 L108 830 L108 830 Z M138 0 L165 0 L212 0 L212 23 L212 68 L165 100 L165 650 L212 682 L212 727 L212 750 L165 750 L138 750 L110 750 L63 750 L63 727 L63 682 L110 650 L110 100 L63 68 L63 23 L63 0 L110 0 L138 0 L138 0 Z " />
<glyph glyph-name="dotlessi" unicode="&#x131;" horiz-adv-x="262" d="M142 0 L192 0 L192 520 L142 520 L142 0 L142 0 Z " />
<glyph glyph-name="Jcircumflex" unicode="&#x134;" horiz-adv-x="492" d="M380 941 L504 830 L550 830 L405 980 L355 980 L210 830 L256 830 L380 941 L380 941 Z M67 283 L67 221 C67 62 120 -10 237 -10 C350 -10 408 82 408 220 L408 650 L455 682 L455 727 L455 750 L408 750 L380 750 L352 750 L305 750 L305 727 L305 682 L352 650 L352 220 C352 113 313 42 237 42 C158 42 123 102 123 237 L123 292 L67 283 L67 283 Z " />
<glyph glyph-name="Lacute" unicode="&#x139;" horiz-adv-x="543" d="M115 830 L160 830 L245 980 L180 980 L115 830 L115 830 Z M490 23 L490 45 L490 92 C490 93 481 93 467 92 C440 93 422 93 422 92 L390 45 L165 45 L165 650 L212 682 L212 727 L212 750 L165 750 L138 750 L110 750 L63 750 L63 727 L63 682 L110 650 L110 100 L63 68 L63 23 L63 0 L110 0 L138 0 L165 0 L490 0 L490 23 L490 23 Z " />
<glyph glyph-name="lacute" unicode="&#x13a;" horiz-adv-x="315" d="M139 790 L184 790 L269 940 L204 940 L139 790 L139 790 Z M174 0 L199 0 L246 0 L246 23 L246 68 L199 100 L199 740 L199 750 L174 750 L149 750 L102 750 L102 727 L102 682 L149 650 L149 100 L102 68 L102 23 L102 0 L149 0 L174 0 L174 0 Z " />
<glyph glyph-name="Lcaron" unicode="&#x13d;" horiz-adv-x="543" d="M348 760 L336 610 L373 610 L402 760 L348 760 L348 760 Z M490 23 L490 45 L490 92 C490 93 481 93 467 92 C440 93 422 93 422 92 L390 45 L165 45 L165 650 L212 682 L212 727 L212 750 L165 750 L138 750 L110 750 L63 750 L63 727 L63 682 L110 650 L110 100 L63 68 L63 23 L63 0 L110 0 L138 0 L165 0 L490 0 L490 23 L490 23 Z " />
<glyph glyph-name="lcaron" unicode="&#x13e;" horiz-adv-x="315" d="M249 760 L238 610 L275 610 L303 760 L249 760 L249 760 Z M174 0 L199 0 L246 0 L246 23 L246 68 L199 100 L199 740 L199 750 L174 750 L149 750 L102 750 L102 727 L102 682 L149 650 L149 100 L102 68 L102 23 L102 0 L149 0 L174 0 L174 0 Z " />
<glyph glyph-name="Lslash" unicode="&#x141;" horiz-adv-x="543" d="M30 307 L110 334 L110 100 L63 68 L63 23 L63 0 L110 0 L138 0 L165 0 L490 0 L490 23 L490 45 L490 92 C490 93 481 93 467 92 C440 93 422 93 422 92 L390 45 L165 45 L165 352 L328 407 L328 443 L165 388 L165 650 L212 682 L212 727 L212 750 L165 750 L138 750 L110 750 L63 750 L63 727 L63 682 L110 650 L110 370 L30 343 L30 307 L30 307 Z " />
<glyph glyph-name="lslash" unicode="&#x142;" horiz-adv-x="315" d="M69 307 L149 345 L149 100 L102 68 L102 23 L102 0 L149 0 L174 0 L199 0 L246 0 L246 23 L246 68 L199 100 L199 369 L279 407 L279 443 L199 405 L199 740 L199 750 L174 750 L149 750 L102 750 L102 727 L102 682 L149 650 L149 381 L69 343 L69 307 L69 307 Z " />
<glyph glyph-name="Nacute" unicode="&#x143;" horiz-adv-x="719" d="M247 830 L293 830 L378 980 L312 980 L247 830 L247 830 Z M556 650 L556 72 L190 750 L184 750 L156 750 L129 750 L82 750 L82 727 L82 682 L129 650 L129 100 L82 68 L82 23 L82 0 L129 0 L156 0 L184 0 L231 0 L231 23 L231 68 L184 100 L184 648 L533 0 L556 0 L595 0 L611 0 L611 650 L658 682 C659 682 659 700 658 727 C659 741 659 750 658 750 L611 750 L584 750 L556 750 L509 750 L509 727 L509 682 L556 650 L556 650 Z " />
<glyph glyph-name="nacute" unicode="&#x144;" horiz-adv-x="556" d="M266 600 L312 600 L397 750 L332 750 L266 600 L266 600 Z M444 0 L469 0 L515 0 L515 23 L515 68 L469 100 L469 315 C469 454 410 525 322 525 C246 525 188 489 161 430 L161 510 L161 520 L136 520 L123 520 L111 520 L64 520 L64 497 L64 452 L111 420 L111 100 L64 68 L64 23 L64 0 L111 0 L136 0 L161 0 L208 0 L208 23 L208 68 L161 100 L161 348 C161 427 218 480 304 480 C374 480 420 424 420 315 L420 100 L373 68 L373 23 L373 0 L420 0 L444 0 L444 0 Z " />
<glyph glyph-name="Ncaron" unicode="&#x147;" horiz-adv-x="719" d="M370 869 L494 980 L540 980 L395 830 L345 830 L200 980 L246 980 L370 869 L370 869 Z M556 650 L556 72 L190 750 L184 750 L156 750 L129 750 L82 750 L82 727 L82 682 L129 650 L129 100 L82 68 L82 23 L82 0 L129 0 L156 0 L184 0 L231 0 L231 23 L231 68 L184 100 L184 648 L533 0 L556 0 L595 0 L611 0 L611 650 L658 682 C659 682 659 700 658 727 C659 741 659 750 658 750 L611 750 L584 750 L556 750 L509 750 L509 727 L509 682 L556 650 L556 650 Z " />
<glyph glyph-name="ncaron" unicode="&#x148;" horiz-adv-x="556" d="M289 639 L414 750 L459 750 L314 600 L264 600 L119 750 L165 750 L289 639 L289 639 Z M444 0 L469 0 L515 0 L515 23 L515 68 L469 100 L469 315 C469 454 410 525 322 525 C246 525 188 489 161 430 L161 510 L161 520 L136 520 L123 520 L111 520 L64 520 L64 497 L64 452 L111 420 L111 100 L64 68 L64 23 L64 0 L111 0 L136 0 L161 0 L208 0 L208 23 L208 68 L161 100 L161 348 C161 427 218 480 304 480 C374 480 420 424 420 315 L420 100 L373 68 L373 23 L373 0 L420 0 L444 0 L444 0 Z " />
<glyph glyph-name="Omacron" unicode="&#x14c;" horiz-adv-x="814" d="M278 830 L558 830 L558 865 L278 865 L278 830 L278 830 Z M418 35 C249 35 136 171 136 375 C136 569 257 715 418 715 C578 715 699 569 699 375 C699 171 586 35 418 35 L418 35 Z M76 375 C76 144 213 -10 418 -10 C622 -10 759 144 759 375 C759 594 612 760 418 760 C223 760 76 594 76 375 L76 375 Z " />
<glyph glyph-name="omacron" unicode="&#x14d;" horiz-adv-x="590" d="M164 600 L444 600 L444 635 L164 635 L164 600 L164 600 Z M304 27 C178 27 122 120 122 260 C122 421 195 493 304 493 C429 493 486 400 486 260 C486 99 413 27 304 27 L304 27 Z M67 260 C67 98 140 -10 304 -10 C445 -10 540 74 540 260 C540 422 467 530 304 530 C162 530 67 446 67 260 L67 260 Z " />
<glyph glyph-name="Obreve" unicode="&#x14e;" horiz-adv-x="814" d="M278 945 C278 870 334 820 418 820 C501 820 557 870 557 945 L520 945 C520 891 479 855 418 855 C356 855 315 891 315 945 L278 945 L278 945 Z M418 35 C249 35 136 171 136 375 C136 569 257 715 418 715 C578 715 699 569 699 375 C699 171 586 35 418 35 L418 35 Z M76 375 C76 144 213 -10 418 -10 C622 -10 759 144 759 375 C759 594 612 760 418 760 C223 760 76 594 76 375 L76 375 Z " />
<glyph glyph-name="obreve" unicode="&#x14f;" horiz-adv-x="590" d="M164 715 C164 640 220 590 304 590 C387 590 443 640 443 715 L406 715 C406 661 365 625 304 625 C242 625 201 661 201 715 L164 715 L164 715 Z M304 27 C178 27 122 120 122 260 C122 421 195 493 304 493 C429 493 486 400 486 260 C486 99 413 27 304 27 L304 27 Z M67 260 C67 98 140 -10 304 -10 C445 -10 540 74 540 260 C540 422 467 530 304 530 C162 530 67 446 67 260 L67 260 Z " />
<glyph glyph-name="Racute" unicode="&#x154;" horiz-adv-x="670" d="M348 830 L393 830 L478 980 L413 980 L348 830 L348 830 Z M577 100 L576 100 L461 337 C561 350 612 414 612 525 C612 674 547 750 422 750 L184 750 L156 750 L142 750 L129 750 L82 750 L82 727 L82 682 L129 650 L129 100 L82 68 L82 23 L82 0 L129 0 L156 0 L184 0 L231 0 L231 23 L231 68 L184 100 L184 335 L398 335 L561 0 L593 0 L625 0 L639 0 L639 31 L639 68 L577 100 L577 100 Z M184 378 L184 707 L419 707 C510 707 557 645 557 525 C557 428 512 378 423 378 L184 378 L184 378 Z " />
<glyph glyph-name="racute" unicode="&#x155;" horiz-adv-x="370" d="M207 600 L253 600 L338 750 L272 750 L207 600 L207 600 Z M350 466 L350 520 L340 520 C242 520 185 470 159 388 L159 510 L159 520 L134 520 L121 520 L109 520 L62 520 L62 497 L62 452 L109 420 L109 100 L62 68 L62 23 L62 0 L109 0 L134 0 L159 0 L206 0 L206 23 L206 68 L159 100 L159 258 C159 383 208 466 334 466 L350 466 L350 466 Z " />
<glyph glyph-name="Rcaron" unicode="&#x158;" horiz-adv-x="670" d="M371 869 L495 980 L541 980 L396 830 L345 830 L201 980 L246 980 L371 869 L371 869 Z M577 100 L576 100 L461 337 C561 350 612 414 612 525 C612 674 547 750 422 750 L184 750 L156 750 L142 750 L129 750 L82 750 L82 727 L82 682 L129 650 L129 100 L82 68 L82 23 L82 0 L129 0 L156 0 L184 0 L231 0 L231 23 L231 68 L184 100 L184 335 L398 335 L561 0 L593 0 L625 0 L639 0 L639 31 L639 68 L577 100 L577 100 Z M184 378 L184 707 L419 707 C510 707 557 645 557 525 C557 428 512 378 423 378 L184 378 L184 378 Z " />
<glyph glyph-name="rcaron" unicode="&#x159;" horiz-adv-x="370" d="M230 639 L354 750 L400 750 L255 600 L205 600 L60 750 L106 750 L230 639 L230 639 Z M350 466 L350 520 L340 520 C242 520 185 470 159 388 L159 510 L159 520 L134 520 L121 520 L109 520 L62 520 L62 497 L62 452 L109 420 L109 100 L62 68 L62 23 L62 0 L109 0 L134 0 L159 0 L206 0 L206 23 L206 68 L159 100 L159 258 C159 383 208 466 334 466 L350 466 L350 466 Z " />
<glyph glyph-name="Sacute" unicode="&#x15a;" horiz-adv-x="551" d="M243 830 L288 830 L373 980 L308 980 L243 830 L243 830 Z M152 43 C152 42 152 42 152 42 L152 42 C197 7 249 -11 302 -11 C442 -11 515 77 515 208 C515 316 437 385 285 413 C171 434 112 482 112 553 C112 646 167 709 249 709 C293 709 362 665 438 580 L458 598 L478 616 L478 663 L444 663 L432 663 C414 680 396 695 379 707 L379 707 L379 707 C331 741 286 759 250 759 C134 759 56 674 56 546 C56 448 129 383 271 357 C396 334 460 283 460 207 C460 105 407 38 303 38 C227 38 151 94 100 204 L52 171 L52 124 L78 124 C99 90 124 63 151 42 L152 43 L152 43 Z " />
<glyph glyph-name="sacute" unicode="&#x15b;" horiz-adv-x="500" d="M243 600 L289 600 L374 750 L308 750 L243 600 L243 600 Z M100 89 L110 89 C113 82 116 76 119 70 C112 76 106 82 100 89 L100 89 Z M402 429 L390 429 C386 438 382 446 378 454 C386 446 394 438 401 429 L402 429 L402 429 Z M67 89 C109 31 182 -5 263 -5 C387 -5 469 53 469 141 C469 216 401 272 270 282 C172 291 121 330 121 383 C121 446 179 488 265 488 C322 488 382 438 416 363 L436 372 L436 372 L457 382 L457 429 L430 429 C388 488 326 525 264 525 C149 525 72 467 72 379 C72 303 135 248 257 238 C363 229 418 189 418 137 C418 75 356 34 262 34 C184 34 113 82 85 153 L40 136 L40 89 L67 89 L67 89 Z " />
<glyph glyph-name="Scircumflex" unicode="&#x15c;" horiz-adv-x="551" d="M266 941 L390 830 L436 830 L291 980 L240 980 L96 830 L141 830 L266 941 L266 941 Z M152 43 C152 42 152 42 152 42 L152 42 C197 7 249 -11 302 -11 C442 -11 515 77 515 208 C515 316 437 385 285 413 C171 434 112 482 112 553 C112 646 167 709 249 709 C293 709 362 665 438 580 L458 598 L478 616 L478 663 L444 663 L432 663 C414 680 396 695 379 707 L379 707 L379 707 C331 741 286 759 250 759 C134 759 56 674 56 546 C56 448 129 383 271 357 C396 334 460 283 460 207 C460 105 407 38 303 38 C227 38 151 94 100 204 L52 171 L52 124 L78 124 C99 90 124 63 151 42 L152 43 L152 43 Z " />
<glyph glyph-name="Scedilla" unicode="&#x15e;" horiz-adv-x="551" d="M282 -86 L303 -10 C443 -10 516 78 516 209 C516 317 438 386 286 414 C172 435 113 483 113 554 C113 647 168 710 250 710 C294 710 363 666 439 581 L459 599 L479 617 L479 664 L445 664 L433 664 C415 681 397 696 380 708 L380 708 L380 708 C332 742 287 760 251 760 C135 760 57 675 57 547 C57 449 130 384 272 358 C397 335 461 284 461 208 C461 106 408 39 304 39 C228 39 152 95 101 205 L53 172 L53 125 L79 125 C100 91 125 64 152 43 C152 42 152 42 152 42 L152 42 C193 11 239 -6 286 -9 L260 -103 L275 -112 C278 -102 295 -96 317 -96 C343 -96 360 -116 360 -147 C360 -178 342 -198 315 -198 C291 -198 273 -185 270 -165 L250 -180 C254 -205 281 -222 317 -222 C359 -222 388 -192 388 -147 C388 -102 361 -72 321 -72 C304 -72 289 -77 282 -85 L282 -86 L282 -86 Z " />
<glyph glyph-name="scedilla" unicode="&#x15f;" horiz-adv-x="500" d="M244 -86 L266 -5 C389 -4 470 54 470 141 C470 216 402 272 271 282 C173 291 122 330 122 383 C122 446 180 488 266 488 C323 488 383 438 417 363 L437 372 L437 372 L458 382 L458 429 L431 429 C389 488 327 525 265 525 C150 525 73 467 73 379 C73 303 136 248 258 238 C364 229 419 189 419 137 C419 75 357 34 263 34 C185 34 114 82 86 153 L41 136 L41 89 L66 89 C106 34 173 -1 248 -5 L220 -103 L235 -112 L235 -111 C238 -102 254 -97 275 -97 C302 -97 319 -117 319 -148 C319 -179 301 -199 274 -199 C250 -199 232 -186 229 -166 L209 -181 C213 -206 240 -223 275 -223 C318 -223 347 -193 347 -148 C347 -103 320 -73 280 -73 C263 -73 248 -78 241 -86 L244 -86 L244 -86 Z M97 89 L107 89 C110 82 113 76 116 70 C109 76 103 82 97 89 L97 89 Z M399 429 L387 429 C383 438 379 446 375 454 C383 446 391 438 398 429 L399 429 L399 429 Z " />
<glyph glyph-name="Scaron" unicode="&#x160;" horiz-adv-x="551" d="M266 869 L390 980 L436 980 L291 830 L240 830 L96 980 L141 980 L266 869 L266 869 Z M152 43 C152 42 152 42 152 42 L152 42 C197 7 249 -11 302 -11 C442 -11 515 77 515 208 C515 316 437 385 285 413 C171 434 112 482 112 553 C112 646 167 709 249 709 C293 709 362 665 438 580 L458 598 L478 616 L478 663 L444 663 L432 663 C414 680 396 695 379 707 L379 707 L379 707 C331 741 286 759 250 759 C134 759 56 674 56 546 C56 448 129 383 271 357 C396 334 460 283 460 207 C460 105 407 38 303 38 C227 38 151 94 100 204 L52 171 L52 124 L78 124 C99 90 124 63 151 42 L152 43 L152 43 Z " />
<glyph glyph-name="scaron" unicode="&#x161;" horiz-adv-x="500" d="M266 639 L390 750 L436 750 L291 600 L241 600 L96 750 L142 750 L266 639 L266 639 Z M100 89 L110 89 C113 82 116 76 119 70 C112 76 106 82 100 89 L100 89 Z M402 429 L390 429 C386 438 382 446 378 454 C386 446 394 438 401 429 L402 429 L402 429 Z M67 89 C109 31 182 -5 263 -5 C387 -5 469 53 469 141 C469 216 401 272 270 282 C172 291 121 330 121 383 C121 446 179 488 265 488 C322 488 382 438 416 363 L436 372 L436 372 L457 382 L457 429 L430 429 C388 488 326 525 264 525 C149 525 72 467 72 379 C72 303 135 248 257 238 C363 229 418 189 418 137 C418 75 356 34 262 34 C184 34 113 82 85 153 L40 136 L40 89 L67 89 L67 89 Z " />
<glyph glyph-name="Tcaron" unicode="&#x164;" horiz-adv-x="595" d="M298 869 L422 980 L468 980 L323 830 L272 830 L128 980 L173 980 L298 869 L298 869 Z M298 0 L325 0 L372 0 C373 0 373 9 372 23 C373 50 373 68 372 68 L325 100 L325 705 L485 705 L517 658 L562 658 L585 658 L585 705 L585 727 L585 750 L325 750 L270 750 L10 750 L10 727 L10 705 L10 658 L33 658 L78 658 L110 705 L270 705 L270 100 L223 68 L223 23 L223 0 L270 0 L297 0 L298 0 L298 0 Z " />
<glyph glyph-name="tcaron" unicode="&#x165;" horiz-adv-x="345" d="M222 760 L211 610 L248 610 L277 760 L222 760 L222 760 Z M315 520 L172 520 L172 697 L122 655 L122 520 L10 520 L10 481 L122 481 L122 137 C122 34 126 0 219 0 L315 0 L315 41 L240 41 C175 41 172 65 172 137 L172 481 L315 481 L315 520 L315 520 Z " />
<glyph glyph-name="Utilde" unicode="&#x168;" horiz-adv-x="705" d="M282 820 C282 858 295 884 315 884 C357 884 361 810 412 810 C452 810 479 851 479 913 L442 913 C442 875 429 849 409 849 C367 849 363 923 312 923 C272 923 245 882 245 820 L282 820 L282 820 Z M546 650 L546 650 L547 302 C547 131 484 42 362 42 C240 42 177 131 177 302 L177 650 L224 682 L224 727 L224 750 L177 750 L149 750 L122 750 L75 750 L75 727 L75 682 L122 650 L122 293 C122 93 204 -10 362 -10 C520 -10 602 93 602 293 L602 650 L649 682 L649 727 L649 750 L602 750 L574 750 L546 750 L500 750 L500 727 L500 682 L546 650 L546 650 Z " />
<glyph glyph-name="utilde" unicode="&#x169;" horiz-adv-x="564" d="M208 600 C208 638 221 664 242 664 C283 664 287 590 338 590 C378 590 405 631 405 693 L368 693 C368 655 355 629 335 629 C293 629 289 703 238 703 C198 703 171 662 171 600 L208 600 L208 600 Z M471 100 L471 520 L446 520 L421 520 L375 520 L375 497 L375 452 L421 420 L421 144 C421 79 369 35 291 35 C185 35 155 81 155 172 L155 520 L130 520 L105 520 L58 520 L58 497 L58 452 L105 420 L105 172 C105 52 143 -10 276 -10 C345 -10 397 22 421 75 L421 10 L421 0 L446 0 L471 0 L518 0 L518 23 L518 68 L471 100 L471 100 Z " />
<glyph glyph-name="Umacron" unicode="&#x16a;" horiz-adv-x="705" d="M222 820 L502 820 L502 855 L222 855 L222 820 L222 820 Z M546 650 L546 650 L547 302 C547 131 484 42 362 42 C240 42 177 131 177 302 L177 650 L224 682 L224 727 L224 750 L177 750 L149 750 L122 750 L75 750 L75 727 L75 682 L122 650 L122 293 C122 93 204 -10 362 -10 C520 -10 602 93 602 293 L602 650 L649 682 L649 727 L649 750 L602 750 L574 750 L546 750 L500 750 L500 727 L500 682 L546 650 L546 650 Z " />
<glyph glyph-name="umacron" unicode="&#x16b;" horiz-adv-x="564" d="M148 600 L428 600 L428 635 L148 635 L148 600 L148 600 Z M471 100 L471 520 L446 520 L421 520 L375 520 L375 497 L375 452 L421 420 L421 144 C421 79 369 35 291 35 C185 35 155 81 155 172 L155 520 L130 520 L105 520 L58 520 L58 497 L58 452 L105 420 L105 172 C105 52 143 -10 276 -10 C345 -10 397 22 421 75 L421 10 L421 0 L446 0 L471 0 L518 0 L518 23 L518 68 L471 100 L471 100 Z " />
<glyph glyph-name="Ubreve" unicode="&#x16c;" horiz-adv-x="705" d="M223 935 C223 860 279 810 362 810 C445 810 501 860 501 935 L464 935 C464 881 423 845 362 845 C301 845 260 881 260 935 L223 935 L223 935 Z M546 650 L546 650 L547 302 C547 131 484 42 362 42 C240 42 177 131 177 302 L177 650 L224 682 L224 727 L224 750 L177 750 L149 750 L122 750 L75 750 L75 727 L75 682 L122 650 L122 293 C122 93 204 -10 362 -10 C520 -10 602 93 602 293 L602 650 L649 682 L649 727 L649 750 L602 750 L574 750 L546 750 L500 750 L500 727 L500 682 L546 650 L546 650 Z " />
<glyph glyph-name="ubreve" unicode="&#x16d;" horiz-adv-x="564" d="M149 715 C149 640 205 590 288 590 C371 590 427 640 427 715 L391 715 C391 661 350 625 288 625 C227 625 186 661 186 715 L149 715 L149 715 Z M471 100 L471 520 L446 520 L421 520 L375 520 L375 497 L375 452 L421 420 L421 144 C421 79 369 35 291 35 C185 35 155 81 155 172 L155 520 L130 520 L105 520 L58 520 L58 497 L58 452 L105 420 L105 172 C105 52 143 -10 276 -10 C345 -10 397 22 421 75 L421 10 L421 0 L446 0 L471 0 L518 0 L518 23 L518 68 L471 100 L471 100 Z " />
<glyph glyph-name="Uring" unicode="&#x16e;" horiz-adv-x="705" d="M362 843 C325 843 306 864 306 905 C306 944 327 967 362 967 C397 967 418 944 418 905 C418 864 399 843 362 843 L362 843 Z M281 905 C281 849 309 820 362 820 C415 820 443 849 443 905 C443 959 413 990 362 990 C311 990 281 959 281 905 L281 905 Z M546 650 L546 650 L547 302 C547 131 484 42 362 42 C240 42 177 131 177 302 L177 650 L224 682 L224 727 L224 750 L177 750 L149 750 L122 750 L75 750 L75 727 L75 682 L122 650 L122 293 C122 93 204 -10 362 -10 C520 -10 602 93 602 293 L602 650 L649 682 L649 727 L649 750 L602 750 L574 750 L546 750 L500 750 L500 727 L500 682 L546 650 L546 650 Z " />
<glyph glyph-name="uring" unicode="&#x16f;" horiz-adv-x="564" d="M288 623 C251 623 232 644 232 685 C232 724 253 747 288 747 C323 747 344 724 344 685 C344 644 325 623 288 623 L288 623 Z M207 685 C207 629 235 600 288 600 C342 600 369 629 369 685 C369 739 339 770 288 770 C237 770 207 739 207 685 L207 685 Z M471 100 L471 520 L446 520 L421 520 L375 520 L375 497 L375 452 L421 420 L421 144 C421 79 369 35 291 35 C185 35 155 81 155 172 L155 520 L130 520 L105 520 L58 520 L58 497 L58 452 L105 420 L105 172 C105 52 143 -10 276 -10 C345 -10 397 22 421 75 L421 10 L421 0 L446 0 L471 0 L518 0 L518 23 L518 68 L471 100 L471 100 Z " />
<glyph glyph-name="Wcircumflex" unicode="&#x174;" horiz-adv-x="838" d="M430 941 L554 830 L600 830 L455 980 L405 980 L260 830 L306 830 L430 941 L430 941 Z M702 650 L702 650 L597 117 L457 750 L403 750 L264 119 L158 650 L185 682 L185 727 L185 750 L138 750 L108 750 L78 750 L45 750 L45 724 L45 682 L99 650 L234 0 L238 0 L288 0 L430 629 L570 0 L574 0 L623 0 L761 650 L761 650 L814 682 C815 682 815 699 814 724 C815 739 815 750 814 750 L782 750 L752 750 L722 750 L675 750 L675 727 L675 682 L702 650 L702 650 Z " />
<glyph glyph-name="Ycircumflex" unicode="&#x176;" horiz-adv-x="656" d="M340 941 L465 830 L510 830 L366 980 L315 980 L170 830 L216 830 L340 941 L340 941 Z M313 100 L266 68 L266 23 L266 0 L313 0 L340 0 L368 0 L415 0 C416 0 416 9 415 23 C416 50 416 68 415 68 L368 100 L368 330 L562 650 L629 682 L629 717 L629 750 L623 750 L594 750 L565 750 L518 750 L518 727 L518 682 L505 650 L340 376 L175 650 L162 682 C161 682 161 700 162 727 C161 741 161 750 162 750 L115 750 L86 750 L57 750 L51 750 L51 717 L51 682 L118 650 L312 330 L313 100 L313 100 Z " />
<glyph glyph-name="Ydieresis" unicode="&#x178;" horiz-adv-x="656" d="M379 830 L439 830 L439 890 L379 890 L379 830 L379 830 Z M242 830 L302 830 L302 890 L242 890 L242 830 L242 830 Z M313 100 L266 68 L266 23 L266 0 L313 0 L340 0 L368 0 L415 0 C416 0 416 9 415 23 C416 50 416 68 415 68 L368 100 L368 330 L562 650 L629 682 L629 717 L629 750 L623 750 L594 750 L565 750 L518 750 L518 727 L518 682 L505 650 L340 376 L175 650 L162 682 C161 682 161 700 162 727 C161 741 161 750 162 750 L115 750 L86 750 L57 750 L51 750 L51 717 L51 682 L118 650 L312 330 L313 100 L313 100 Z " />
<glyph glyph-name="Zacute" unicode="&#x179;" horiz-adv-x="655" d="M312 830 L358 830 L443 980 L377 980 L312 830 L312 830 Z M610 23 L610 45 L610 92 C610 93 601 93 587 92 C560 93 542 93 542 92 L510 45 L109 45 L610 705 L610 750 L60 750 L60 727 L60 705 L60 658 L83 658 L128 658 L160 705 L545 705 L45 45 L45 0 L610 0 L610 23 L610 23 Z " />
<glyph glyph-name="zacute" unicode="&#x17a;" horiz-adv-x="460" d="M220 600 L265 600 L350 750 L285 750 L220 600 L220 600 Z M45 520 L45 500 L45 481 L45 434 L68 434 L113 434 L145 481 L361 481 L30 30 L30 0 L84 0 L440 0 L440 20 L440 39 L440 86 L417 86 L372 86 L340 39 L90 39 L424 490 L424 520 L371 520 L45 520 L45 520 Z " />
<glyph glyph-name="Zdot" unicode="&#x17b;" horiz-adv-x="655" d="M305 830 L365 830 L365 890 L305 890 L305 830 L305 830 Z M610 23 L610 45 L610 92 C610 93 601 93 587 92 C560 93 542 93 542 92 L510 45 L109 45 L610 705 L610 750 L60 750 L60 727 L60 705 L60 658 L83 658 L128 658 L160 705 L545 705 L45 45 L45 0 L610 0 L610 23 L610 23 Z " />
<glyph glyph-name="zdot" unicode="&#x17c;" horiz-adv-x="460" d="M213 600 L273 600 L273 660 L213 660 L213 600 L213 600 Z M45 520 L45 500 L45 481 L45 434 L68 434 L113 434 L145 481 L361 481 L30 30 L30 0 L84 0 L440 0 L440 20 L440 39 L440 86 L417 86 L372 86 L340 39 L90 39 L424 490 L424 520 L371 520 L45 520 L45 520 Z " />
<glyph glyph-name="Zcaron" unicode="&#x17d;" horiz-adv-x="655" d="M335 869 L459 980 L505 980 L360 830 L310 830 L165 980 L211 980 L335 869 L335 869 Z M610 23 L610 45 L610 92 C610 93 601 93 587 92 C560 93 542 93 542 92 L510 45 L109 45 L610 705 L610 750 L60 750 L60 727 L60 705 L60 658 L83 658 L128 658 L160 705 L545 705 L45 45 L45 0 L610 0 L610 23 L610 23 Z " />
<glyph glyph-name="zcaron" unicode="&#x17e;" horiz-adv-x="460" d="M243 639 L367 750 L413 750 L268 600 L217 600 L73 750 L118 750 L243 639 L243 639 Z M45 520 L45 500 L45 481 L45 434 L68 434 L113 434 L145 481 L361 481 L30 30 L30 0 L84 0 L440 0 L440 20 L440 39 L440 86 L417 86 L372 86 L340 39 L90 39 L424 490 L424 520 L371 520 L45 520 L45 520 Z " />
<glyph glyph-name="oogonek" unicode="&#x1eb;" horiz-adv-x="754" d="M78 298 C78 113 202 -10 388 -10 C429 -10 467 -4 501 7 L640 -90 L671 -63 L545 25 C641 74 699 171 699 297 C699 473 565 606 388 606 C211 606 78 473 78 297 L78 298 L78 298 Z M456 38 C435 33 412 30 388 30 C234 30 131 137 131 297 C131 450 242 565 388 565 C535 565 645 450 645 297 C645 181 591 93 503 53 L435 101 L404 74 L456 38 L456 38 Z " />
<glyph glyph-name="Adotabove" unicode="&#x226;" horiz-adv-x="771" d="M368 830 L428 830 L428 890 L368 890 L368 830 L368 830 Z M697 100 L697 100 L427 750 L423 750 L395 750 L369 750 L366 750 L319 750 L319 727 L319 682 L324 650 L324 650 L94 100 L93 100 L33 68 L33 30 L33 0 L52 0 L81 0 L111 0 L158 0 L158 23 L158 68 L153 100 L152 100 L394 685 L584 225 L569 260 L218 260 L201 218 L587 218 L636 100 L635 100 L630 68 L630 23 L630 0 L677 0 L707 0 L736 0 L755 0 L755 30 L755 68 L697 100 L697 100 Z " />
<glyph glyph-name="G_sc" unicode="&#x262;" horiz-adv-x="713" d="M421 310 L621 310 L621 124 C554 68 470 31 396 31 C234 31 126 138 126 298 C126 459 234 566 396 566 C470 566 558 500 616 401 L634 416 L652 431 L652 478 L621 478 C560 557 474 607 396 607 C202 607 73 484 73 298 C73 113 202 -10 396 -10 C490 -10 590 34 669 100 L669 351 L421 351 L421 310 L421 310 Z " />
<glyph glyph-name="I_sc" unicode="&#x26a;" horiz-adv-x="271" d="M138 0 L163 0 L210 0 L210 23 L210 68 L163 100 L163 497 L210 529 L210 574 L210 597 C196 596 179 596 163 596 L163 597 L138 597 L113 597 L113 596 C97 596 80 596 66 597 L66 574 L66 529 L113 497 L113 100 L66 68 L66 23 L66 0 L113 0 L138 0 L138 0 Z " />
<glyph glyph-name="N_sc" unicode="&#x274;" horiz-adv-x="634" d="M476 596 C460 596 443 596 429 597 L429 574 L429 529 L476 497 L476 65 L180 597 L155 597 L130 597 L130 596 C114 596 97 596 83 597 L83 574 L83 529 L130 497 L130 100 L83 68 L83 23 L83 0 L130 0 L155 0 L180 0 L227 0 L227 23 L227 68 L180 100 L180 507 L462 0 L476 0 L512 0 L526 0 L526 497 L573 529 L573 574 L573 597 C559 596 542 596 526 596 L526 597 L501 597 L476 597 L476 596 L476 596 Z " />
<glyph glyph-name="R_sc" unicode="&#x280;" horiz-adv-x="610" d="M535 0 L564 0 L570 0 L570 33 L570 68 L505 100 L402 273 C501 282 552 331 552 418 C552 536 489 597 367 597 L180 597 L155 597 L142 597 L130 597 L130 596 C114 596 97 596 83 597 L83 574 L83 529 L130 497 L130 100 L83 68 L83 23 L83 0 L130 0 L155 0 L180 0 L227 0 L227 23 L227 68 L180 100 L180 271 L345 271 L506 0 L535 0 L535 0 Z M180 310 L180 558 L365 558 C456 558 502 510 502 418 C502 347 457 310 369 310 L180 310 L180 310 Z " />
<glyph glyph-name="Y_sc" unicode="&#x28f;" horiz-adv-x="596" d="M143 497 L143 497 L285 330 L285 100 L238 68 L238 23 L238 0 L285 0 L310 0 L336 0 L383 0 C382 0 382 9 383 23 C382 50 382 68 383 68 L336 100 L336 330 L478 497 L478 497 L552 529 C552 529 554 542 557 561 C561 582 563 596 563 597 L534 597 L505 597 L504 596 C488 596 471 596 457 597 C457 596 456 588 454 575 C450 550 447 533 446 529 L442 524 L396 476 C417 498 428 508 427 505 L309 365 L191 505 C190 508 201 498 222 476 L176 524 L172 529 C171 533 168 550 164 575 C162 588 160 596 161 597 C147 596 130 596 114 596 L113 597 L84 597 L55 597 C55 596 57 582 61 561 C64 542 66 529 66 529 L143 497 L143 497 Z " />
<glyph glyph-name="B_sc" unicode="&#x299;" horiz-adv-x="687" d="M463 337 C537 354 583 391 583 439 C583 554 514 598 338 598 L180 598 L155 598 L130 598 L130 597 C114 597 97 597 83 598 L83 575 L83 530 L130 498 L130 101 L83 69 L83 24 L83 1 L130 1 L155 1 L180 1 L407 1 C584 1 652 50 652 175 C652 266 577 330 463 338 L463 337 L463 337 Z M180 348 L180 559 L340 559 C478 559 531 525 531 436 C531 383 455 348 341 348 L180 348 L180 348 Z M180 40 L180 311 L404 311 C520 311 598 259 598 180 C598 79 541 40 393 40 L180 40 L180 40 Z " />
<glyph glyph-name="H_sc" unicode="&#x29c;" horiz-adv-x="673" d="M540 0 L565 0 L612 0 L612 23 L612 68 L565 100 L565 497 L612 529 L612 574 L612 597 C598 596 581 596 565 596 L565 597 L540 597 L515 597 L515 596 C499 596 482 596 468 597 L468 574 L468 529 L515 497 L515 323 L180 323 L180 497 L227 529 L227 574 L227 597 C213 596 196 596 180 596 L180 597 L155 597 L130 597 L130 596 C114 596 97 596 83 597 L83 574 L83 529 L130 497 L130 100 L83 68 L83 23 L83 0 L130 0 L155 0 L180 0 L227 0 L227 23 L227 68 L180 100 L180 283 L515 283 L515 100 L468 68 L468 23 L468 0 L515 0 L540 0 L540 0 Z " />
<glyph glyph-name="L_sc" unicode="&#x29f;" horiz-adv-x="481" d="M428 20 L428 41 L428 88 L405 88 L360 88 L328 41 L163 41 L163 497 L210 529 L210 574 L210 597 C196 596 179 596 163 596 L163 597 L138 597 L113 597 L113 596 C97 596 80 596 66 597 L66 574 L66 529 L113 497 L113 100 L66 68 L66 23 L66 0 L113 0 L138 0 L163 0 L428 0 L428 20 L428 20 Z " />
<glyph glyph-name="A_sc" unicode="&#x1d00;" horiz-adv-x="711" d="M631 100 L630 100 L394 597 L390 597 L365 597 L343 597 L340 597 L340 596 C324 596 307 596 293 597 L293 574 L293 529 L292 497 L102 100 L40 68 L40 31 L40 0 L54 0 L81 0 L107 0 L154 0 L154 23 L154 68 L154 99 L188 170 L546 170 L579 100 L580 68 L580 23 L580 0 L627 0 L653 0 L679 0 L694 0 L694 31 L694 68 L631 100 L631 100 Z M206 207 L367 547 L528 207 L206 207 L206 207 Z M292 497 L292 497 L292 497 L292 497 Z " />
<glyph glyph-name="C_sc" unicode="&#x1d04;" horiz-adv-x="660" d="M604 196 C560 97 464 31 365 31 C222 31 126 154 126 298 C126 443 222 566 365 566 C451 566 547 500 604 401 L641 431 L641 478 L609 478 C589 503 566 525 541 544 L541 544 L541 544 C488 584 426 607 366 607 C191 607 74 465 74 298 C74 132 191 -10 366 -10 C485 -10 595 60 642 165 L604 196 L604 196 Z " />
<glyph glyph-name="D_sc" unicode="&#x1d05;" horiz-adv-x="727" d="M155 0 L180 0 L342 0 C566 0 672 96 672 298 C672 495 550 597 312 597 L180 597 L155 597 L130 597 L130 596 C114 596 97 596 83 597 L83 574 L83 529 L130 497 L130 100 L83 68 L83 23 L83 0 L130 0 L155 0 L155 0 Z M180 39 L180 558 L314 558 C515 558 619 470 619 298 C619 123 529 39 339 39 L180 39 L180 39 Z " />
<glyph glyph-name="E_sc" unicode="&#x1d07;" horiz-adv-x="545" d="M495 20 L495 41 L495 88 L472 88 L427 88 L395 41 L180 41 L180 288 L360 288 L392 241 L437 241 L460 241 L460 288 L460 308 L460 327 L460 374 C460 375 451 375 437 374 C410 375 392 375 392 374 L360 327 L180 327 L180 556 L380 556 L412 509 L457 509 L480 509 L480 556 L480 576 L480 597 L180 597 L179 597 L155 597 L130 597 L130 596 C114 596 97 596 83 597 L83 574 L83 529 L130 497 L130 100 L83 68 L83 23 L83 0 L130 0 L155 0 L179 0 L180 0 L495 0 L495 20 L495 20 Z " />
<glyph glyph-name="J_sc" unicode="&#x1d0a;" horiz-adv-x="427" d="M68 283 L68 221 C68 62 111 -10 205 -10 C296 -10 342 64 342 175 L342 497 L389 529 L389 574 L389 597 C375 596 358 596 342 596 L342 597 L317 597 L292 597 L292 596 C276 596 259 596 245 597 L245 574 L245 529 L292 497 L292 175 C292 92 263 36 205 36 C146 36 119 98 119 236 L119 292 L68 283 L68 283 Z " />
<glyph glyph-name="K_sc" unicode="&#x1d0b;" horiz-adv-x="540" d="M341 497 L341 497 L157 280 L157 497 L204 529 C203 529 203 547 204 575 C203 588 203 597 204 598 C190 597 173 597 157 597 L157 598 L132 598 L106 598 L106 597 C90 597 73 597 59 598 L59 575 L59 530 L106 498 L106 101 L59 69 L59 24 L59 1 L106 1 L132 1 L157 1 L204 1 C203 1 203 10 204 24 C203 51 203 69 204 69 L157 101 L157 218 L398 498 L398 498 L473 530 C473 530 475 543 478 562 C482 583 485 597 484 598 L455 598 L426 598 L425 597 C409 597 392 597 378 598 C378 597 377 589 375 576 C370 548 367 530 367 530 L317 478 C347 509 356 517 340 498 L341 497 L341 497 Z M464 101 L464 101 L286 369 L251 328 L395 116 L426 69 L426 24 L426 1 L473 1 L501 1 L530 1 L532 1 L532 35 L532 69 L464 101 L464 101 Z M203 530 L203 530 L203 530 L203 530 Z M405 101 L405 101 C405 101 404 102 403 104 L405 101 L405 101 Z " />
<glyph glyph-name="M_sc" unicode="&#x1d0d;" horiz-adv-x="815" d="M683 0 L707 0 L754 0 L754 23 L754 68 L707 100 L707 497 L754 529 L754 574 L754 597 C740 596 723 596 707 596 L707 597 L683 597 L675 597 L658 597 L628 597 L418 58 L207 597 L179 597 L160 597 L155 597 L130 597 L130 596 C114 596 97 596 83 597 L83 574 L83 529 L130 497 L130 100 L83 68 L83 23 L83 0 L130 0 L155 0 L179 0 L226 0 L226 23 L226 68 L179 100 L179 549 L396 0 L441 0 L658 554 L658 100 L612 68 L612 23 L612 0 L658 0 L683 0 L683 0 Z " />
<glyph glyph-name="O_sc" unicode="&#x1d0f;" horiz-adv-x="754" d="M388 31 C234 31 131 138 131 298 C131 451 242 566 388 566 C535 566 645 451 645 298 C645 138 542 31 388 31 L388 31 Z M78 298 C78 113 202 -10 388 -10 C575 -10 699 113 699 298 C699 474 565 607 388 607 C211 607 78 474 78 298 L78 298 Z " />
<glyph glyph-name="P_sc" unicode="&#x1d18;" horiz-adv-x="587" d="M155 0 L180 0 L227 0 L227 23 L227 68 L180 100 L180 255 L367 255 C489 255 552 310 552 418 C552 536 489 597 367 597 L180 597 L155 597 L142 597 L130 597 L130 596 C114 596 97 596 83 597 L83 574 L83 529 L130 497 L130 100 L83 68 L83 23 L83 0 L130 0 L155 0 L155 0 Z M180 294 L180 558 L365 558 C456 558 502 510 502 418 C502 336 457 294 369 294 L180 294 L180 294 Z " />
<glyph glyph-name="T_sc" unicode="&#x1d1b;" horiz-adv-x="535" d="M268 0 L293 0 L340 0 C339 0 339 9 340 23 C339 50 339 68 340 68 L293 100 L293 556 L425 556 L457 509 L502 509 L525 509 L525 556 L525 576 L525 597 L293 597 L242 597 L10 597 L10 576 L10 556 L10 509 L33 509 L78 509 L110 556 L242 556 L242 100 L195 68 L195 23 L195 0 L242 0 L267 0 L268 0 L268 0 Z " />
<glyph glyph-name="U_sc" unicode="&#x1d1c;" horiz-adv-x="640" d="M486 497 L486 497 L487 241 C487 106 434 36 330 36 C226 36 173 106 173 241 L173 497 L220 529 L220 574 L220 597 C206 596 189 596 173 596 L173 597 L148 597 L123 597 L123 596 C107 596 90 596 76 597 L76 574 L76 529 L123 497 L123 232 C123 72 193 -10 330 -10 C467 -10 537 72 537 232 L537 497 L584 529 C583 529 583 547 584 575 C583 588 583 597 584 598 C570 597 553 597 537 597 L537 598 L512 598 L486 598 L486 598 C470 598 453 598 440 599 L440 576 L440 531 L486 497 L486 497 Z M584 531 L584 531 L584 531 L584 531 Z " />
<glyph glyph-name="V_sc" unicode="&#x1d20;" horiz-adv-x="582" d="M440 497 L440 497 L303 70 L165 497 L166 497 L180 529 C181 528 181 546 180 574 C181 587 181 596 180 597 C166 596 149 596 133 596 L133 597 L106 597 L79 597 L79 596 C71 596 63 596 55 596 L55 567 L55 528 L112 496 L279 -1 L281 -1 L326 -1 L328 -1 L493 496 L493 496 L550 528 C551 527 551 543 550 567 C551 584 551 595 550 596 C543 596 534 596 525 596 L525 597 L498 597 L471 597 L471 596 C455 596 438 596 424 597 L424 574 L424 529 L440 497 L440 497 Z " />
<glyph glyph-name="W_sc" unicode="&#x1d21;" horiz-adv-x="772" d="M716 596 L716 597 L689 597 L662 597 L662 596 C646 596 629 596 615 597 L615 574 L615 529 L640 497 L550 94 L423 597 L375 597 L249 92 L157 497 L157 497 L181 529 C182 528 182 546 181 574 C182 587 182 596 181 597 C167 596 150 596 134 596 L134 597 L107 597 L80 597 L80 596 C69 596 58 596 49 597 L49 570 L49 529 L103 497 L221 0 L225 0 L269 0 L398 502 L524 0 L528 0 L573 0 L692 497 L746 529 C747 528 747 545 746 570 C747 586 747 596 746 597 C737 596 726 596 715 596 L716 596 L716 596 Z " />
<glyph glyph-name="Z_sc" unicode="&#x1d22;" horiz-adv-x="595" d="M550 20 L550 41 L550 88 L527 88 L482 88 L450 41 L101 41 L550 556 L550 597 L60 597 L60 576 L60 556 L60 509 L83 509 L128 509 L160 556 L494 556 L45 41 L45 0 L550 0 L550 20 L550 20 Z " />
<glyph glyph-name="Wgrave" unicode="&#x1e80;" horiz-adv-x="838" d="M407 830 L453 830 L388 980 L322 980 L407 830 L407 830 Z M702 650 L702 650 L597 117 L457 750 L403 750 L264 119 L158 650 L185 682 L185 727 L185 750 L138 750 L108 750 L78 750 L45 750 L45 724 L45 682 L99 650 L234 0 L238 0 L288 0 L430 629 L570 0 L574 0 L623 0 L761 650 L761 650 L814 682 C815 682 815 699 814 724 C815 739 815 750 814 750 L782 750 L752 750 L722 750 L675 750 L675 727 L675 682 L702 650 L702 650 Z " />
<glyph glyph-name="Wacute" unicode="&#x1e82;" horiz-adv-x="838" d="M407 830 L453 830 L538 980 L472 980 L407 830 L407 830 Z M702 650 L702 650 L597 117 L457 750 L403 750 L264 119 L158 650 L185 682 L185 727 L185 750 L138 750 L108 750 L78 750 L45 750 L45 724 L45 682 L99 650 L234 0 L238 0 L288 0 L430 629 L570 0 L574 0 L623 0 L761 650 L761 650 L814 682 C815 682 815 699 814 724 C815 739 815 750 814 750 L782 750 L752 750 L722 750 L675 750 L675 727 L675 682 L702 650 L702 650 Z " />
<glyph glyph-name="Wdieresis" unicode="&#x1e84;" horiz-adv-x="838" d="M469 830 L529 830 L529 890 L469 890 L469 830 L469 830 Z M331 830 L391 830 L391 890 L331 890 L331 830 L331 830 Z M702 650 L702 650 L597 117 L457 750 L403 750 L264 119 L158 650 L185 682 L185 727 L185 750 L138 750 L108 750 L78 750 L45 750 L45 724 L45 682 L99 650 L234 0 L238 0 L288 0 L430 629 L570 0 L574 0 L623 0 L761 650 L761 650 L814 682 C815 682 815 699 814 724 C815 739 815 750 814 750 L782 750 L752 750 L722 750 L675 750 L675 727 L675 682 L702 650 L702 650 Z " />
<glyph glyph-name="Etilde" unicode="&#x1ebc;" horiz-adv-x="609" d="M256 830 C256 868 269 894 290 894 C331 894 335 820 387 820 C426 820 453 861 453 923 L416 923 C416 885 403 859 383 859 C341 859 337 933 286 933 C246 933 219 892 219 830 L256 830 L256 830 Z M559 23 L559 45 L559 92 C559 93 550 93 536 92 C509 93 491 93 491 92 L459 45 L184 45 L184 365 L424 365 L456 318 L501 318 L524 318 L524 365 L524 387 L524 409 L524 456 C524 455 515 455 501 456 C474 455 456 455 456 456 L424 409 L184 409 L184 705 L444 705 L476 658 L521 658 L544 658 L544 705 L544 727 L544 750 L184 750 L183 750 L156 750 L129 750 L82 750 L82 727 L82 682 L129 650 L129 100 L82 68 L82 23 L82 0 L129 0 L156 0 L183 0 L184 0 L559 0 L559 23 L559 23 Z " />
<glyph glyph-name="Ygrave" unicode="&#x1ef2;" horiz-adv-x="656" d="M318 830 L363 830 L298 980 L233 980 L318 830 L318 830 Z M313 100 L266 68 L266 23 L266 0 L313 0 L340 0 L368 0 L415 0 C416 0 416 9 415 23 C416 50 416 68 415 68 L368 100 L368 330 L562 650 L629 682 L629 717 L629 750 L623 750 L594 750 L565 750 L518 750 L518 727 L518 682 L505 650 L340 376 L175 650 L162 682 C161 682 161 700 162 727 C161 741 161 750 162 750 L115 750 L86 750 L57 750 L51 750 L51 717 L51 682 L118 650 L312 330 L313 100 L313 100 Z " />
<glyph glyph-name="endash" unicode="&#x2013;" horiz-adv-x="410" d="M5 242 L405 242 L405 284 L5 284 L5 242 L5 242 Z " />
<glyph glyph-name="emdash" unicode="&#x2014;" horiz-adv-x="700" d="M50 242 L650 242 L650 284 L50 284 L50 242 L50 242 Z " />
<glyph glyph-name="quoteleft" unicode="&#x2018;" horiz-adv-x="160" d="M110 760 C67 760 50 726 50 674 L50 614 L110 614 L110 674 L83 674 C83 710 91 734 110 734 L110 760 L110 760 Z " />
<glyph glyph-name="quoteright" unicode="&#x2019;" horiz-adv-x="160" d="M80 760 L80 700 L107 700 C107 657 99 640 80 640 L80 614 C123 614 140 638 140 700 L140 760 L80 760 L80 760 Z " />
<glyph glyph-name="quotedblleft" unicode="&#x201c;" horiz-adv-x="280" d="M230 760 C187 760 170 726 170 674 L170 614 L230 614 L230 674 L203 674 C203 710 211 734 230 734 L230 760 L230 760 Z M140 760 C97 760 80 726 80 674 L80 614 L140 614 L140 674 L113 674 C113 710 121 734 140 734 L140 760 L140 760 Z " />
<glyph glyph-name="quotedblright" unicode="&#x201d;" horiz-adv-x="280" d="M170 760 L170 700 L197 700 C197 657 189 640 170 640 L170 614 C213 614 230 638 230 700 L230 760 L170 760 L170 760 Z M80 760 L80 700 L107 700 C107 657 99 640 80 640 L80 614 C123 614 140 638 140 700 L140 760 L80 760 L80 760 Z " />
<glyph glyph-name="dagger" unicode="&#x2020;" horiz-adv-x="510" d="M450 580 L280 580 L280 750 L230 750 L230 580 L60 580 L60 537 L230 537 L230 -50 L280 -50 L280 537 L450 537 L450 580 L450 580 Z " />
<glyph glyph-name="daggerdbl" unicode="&#x2021;" horiz-adv-x="510" d="M60 120 L230 120 L230 -50 L280 -50 L280 120 L450 120 L450 163 L280 163 L280 537 L450 537 L450 580 L280 580 L280 750 L230 750 L230 580 L60 580 L60 537 L230 537 L230 163 L60 163 L60 120 L60 120 Z " />
<glyph glyph-name="bullet" unicode="&#x2022;" horiz-adv-x="160" d="M43 230 L118 230 L118 305 L43 305 L43 230 L43 230 Z " />
<glyph glyph-name="ellipsis" unicode="&#x2026;" horiz-adv-x="430" d="M320 0 L380 0 L380 60 L320 60 L320 0 L320 0 Z M185 0 L245 0 L245 60 L185 60 L185 0 L185 0 Z M50 0 L110 0 L110 60 L50 60 L50 0 L50 0 Z " />
<glyph glyph-name="perthousand" unicode="&#x2030;" horiz-adv-x="734" d="M901 140 C901 66 871 16 812 16 C753 16 723 66 723 140 C723 214 753 264 812 264 C871 264 901 214 901 140 L901 140 Z M812 -10 C889 -10 929 50 929 140 C929 230 889 290 812 290 C735 290 695 230 695 140 C695 50 735 -10 812 -10 L812 -10 Z M652 140 C652 66 622 16 564 16 C505 16 475 66 475 140 C475 214 505 264 564 264 C622 264 652 214 652 140 L652 140 Z M564 -10 C641 -10 681 50 681 140 C681 230 641 290 564 290 C487 290 447 230 447 140 C447 50 487 -10 564 -10 L564 -10 Z M82 610 C82 684 112 734 171 734 C230 734 260 684 260 610 C260 536 230 486 171 486 C112 486 82 536 82 610 L82 610 Z M171 760 C94 760 54 700 54 610 C54 520 94 460 171 460 C248 460 288 520 288 610 C288 700 248 760 171 760 L171 760 Z M160 0 L177 0 L575 750 L557 750 L160 0 L160 0 Z " />
<glyph glyph-name="guilsinglleft" unicode="&#x2039;" horiz-adv-x="265" d="M204 470 L64 260 L204 50 L248 50 L108 260 L248 470 L204 470 L204 470 Z " />
<glyph glyph-name="guilsinglright" unicode="&#x203a;" horiz-adv-x="265" d="M92 470 L232 260 L92 50 L136 50 L276 260 L136 470 L92 470 L92 470 Z " />
<glyph glyph-name="fraction" unicode="&#x2044;" horiz-adv-x="534" d="M60 0 L77 0 L475 750 L457 750 L60 0 L60 0 Z " />
<glyph glyph-name="Euro" unicode="&#x20ac;" horiz-adv-x="720" d="M17 317 L74 317 C96 135 219 -10 395 -10 C532 -10 654 60 700 164 L659 199 C616 100 510 35 395 35 C254 35 154 159 134 317 L443 317 L447 345 L131 345 C130 355 130 365 130 375 C130 385 130 395 131 405 L447 405 L451 433 L134 433 C154 591 254 715 395 715 C497 715 603 650 659 551 L700 586 C640 690 518 760 395 760 C219 760 96 615 74 433 L25 433 L21 405 L72 405 C71 395 71 385 71 375 C71 365 71 355 72 345 L21 345 L17 317 L17 317 Z " />
<glyph glyph-name="minus" unicode="&#x2212;" horiz-adv-x="615" d="M50 248 L565 248 L565 278 L50 278 L50 248 L50 248 Z " />
<glyph glyph-name="divisionslash" unicode="&#x2215;" horiz-adv-x="414" d="M0 0 L17 0 L415 750 L397 750 L0 0 L0 0 Z " />
<glyph glyph-name="bulletoperator" unicode="&#x2219;" horiz-adv-x="160" d="M50 230 L110 230 L110 290 L50 290 L50 230 L50 230 Z " />
<glyph glyph-name="F_sc" unicode="&#xa730;" horiz-adv-x="510" d="M350 288 L382 241 L427 241 L450 241 L450 288 L450 308 L450 327 L450 374 C450 375 441 375 427 374 C400 375 382 375 382 374 L350 327 L180 327 L180 556 L380 556 L412 509 L457 509 L480 509 L480 556 L480 576 L480 597 L180 597 L179 597 L155 597 L130 597 L130 596 C114 596 97 596 83 597 L83 574 L83 529 L130 497 L130 100 L83 68 L83 23 L83 0 L130 0 L155 0 L180 0 L227 0 L227 23 L227 68 L180 100 L180 288 L350 288 L350 288 Z " />
<glyph glyph-name="S_sc" unicode="&#xa731;" horiz-adv-x="485" d="M118 126 L121 126 C122 123 123 121 124 119 C122 121 120 123 118 126 L118 126 Z M152 36 L152 36 L152 36 C189 6 228 -9 267 -9 C387 -9 449 62 449 168 C449 257 382 313 252 333 C157 348 108 385 108 443 C108 515 153 563 219 563 C242 563 297 518 376 432 L411 464 L411 511 L377 511 L367 511 C303 575 251 608 220 608 C122 608 57 540 57 437 C57 354 119 301 239 283 C345 266 400 227 400 166 C400 87 355 35 268 35 C212 35 148 92 96 203 L53 174 L53 127 L78 127 C101 89 126 59 153 37 L152 36 L152 36 Z " />
<glyph glyph-name="X_sc" unicode="&#xf078;" horiz-adv-x="622" d="M498 100 L498 100 L364 314 L493 497 L563 529 L563 563 C563 583 564 596 564 597 L535 597 L507 597 L506 596 C490 596 473 596 460 597 C460 596 459 587 459 574 L459 529 L456 525 L439 501 C438 500 437 498 436 496 L436 496 L337 356 L252 493 C254 489 258 480 264 468 L251 495 L250 496 L250 496 L235 528 L235 573 L235 596 C222 595 205 595 189 595 L189 596 L163 596 L136 596 L136 596 C135 596 134 596 133 596 L133 563 L133 528 L199 496 L311 316 L157 99 L156 99 L87 67 C87 67 87 53 86 33 L86 -1 L114 -1 L143 -1 L190 -1 L190 22 C191 48 191 66 191 67 L194 71 L213 98 C210 94 208 91 207 90 L337 274 L446 99 L461 68 L461 23 L461 0 L508 0 L535 0 L561 0 L566 0 L566 33 L566 68 L498 100 L498 100 Z M440 501 C440 502 440 503 440 504 L440 504 L440 501 L440 501 Z M439 503 L417 473 C427 487 434 497 438 503 L439 503 L439 503 Z M439 505 C443 510 443 510 439 505 L439 505 Z M211 101 L231 129 C222 117 215 108 211 102 L211 101 L211 101 Z M249 501 L250 501 C250 501 250 500 251 498 L250 500 L249 501 L249 501 Z " />
</font>
</svg>
