<?xml version="1.0" encoding="UTF-8"?>
<svg xmlns="http://www.w3.org/2000/svg" xmlns:xlink="http://www.w3.org/1999/xlink" version="1.2" >
<font id="Sheylla Thin">
<font-face  font-family="Sheylla" units-per-em="1024" ascent="750" descent="-140" font-style="normal" font-weight="100" font-stretch="normal" cap-height="810" x-height="375" underline-position="-125" underline-thickness="50" />
<missing-glyph  horiz-adv-x="100" d="" />
<glyph glyph-name="NULL" d="" />
<glyph glyph-name="CR" unicode="&#xd;" horiz-adv-x="256" d="" />
<glyph glyph-name="space" unicode="&#x20;" horiz-adv-x="164" d="" />
<glyph glyph-name="exclam" unicode="&#x21;" horiz-adv-x="81" d="M29 0 L51 0 L51 22 L29 22 L29 0 L29 0 Z M30 700 L30 464 L35 136 L45 136 L51 464 L51 700 L30 700 L30 700 Z " />
<glyph glyph-name="quotedbl" unicode="&#x22;" horiz-adv-x="255" d="M163 700 L163 570 L175 570 L175 700 L163 700 L163 700 Z M80 700 L80 570 L91 570 L91 700 L80 700 L80 700 Z " />
<glyph glyph-name="numbersign" unicode="&#x23;" horiz-adv-x="387" d="M107 433 L84 239 L30 239 L30 227 L83 227 L56 0 L66 0 L93 227 L255 227 L228 0 L238 0 L265 227 L346 227 L346 239 L266 239 L289 433 L357 433 L357 444 L290 444 L320 700 L310 700 L280 444 L118 444 L148 700 L138 700 L108 444 L41 444 L41 433 L107 433 L107 433 Z M117 433 L279 433 L256 239 L94 239 L117 433 L117 433 Z " />
<glyph glyph-name="dollar" unicode="&#x24;" horiz-adv-x="332" d="M161 342 L161 7 C58 7 43 18 43 89 L43 180 L25 180 L25 89 C25 3 42 -10 161 -10 L161 -50 L171 -50 L171 -10 C290 -10 307 7 307 119 C307 202 302 219 171 357 L171 692 C274 692 289 680 289 601 L289 519 L307 519 L307 601 C307 695 290 709 171 709 L171 739 L161 739 L161 709 C42 708 26 692 26 583 C26 487 31 478 161 341 L161 342 L161 342 Z M161 368 C48 488 44 497 44 586 C44 677 58 691 161 692 L161 368 L161 368 Z M171 330 C285 209 289 193 289 116 C289 21 274 7 171 7 L171 330 L171 330 Z " />
<glyph glyph-name="percent" unicode="&#x25;" horiz-adv-x="435" d="M419 49 C419 13 412 8 359 8 C307 8 300 13 300 49 L300 314 C300 351 307 356 359 356 C412 356 419 351 419 314 L419 49 L419 49 Z M433 50 L433 314 C433 362 424 369 358 369 C293 369 284 362 284 314 L284 50 C284 2 293 -5 358 -5 C424 -5 433 2 433 50 L433 50 Z M144 379 C144 343 137 338 84 338 C32 338 25 343 25 379 L25 644 C25 681 32 686 84 686 C137 686 144 681 144 644 L144 379 L144 379 Z M159 380 L159 644 C159 692 150 699 84 699 C19 699 10 692 10 644 L10 380 C10 332 19 325 84 325 C150 325 159 332 159 380 L159 380 Z M10 0 L20 0 L425 700 L415 700 L10 0 L10 0 Z " />
<glyph glyph-name="ampersand" unicode="&#x26;" horiz-adv-x="347" d="M331 397 L314 397 C314 219 320 121 300 68 C237 172 170 285 121 380 C124 384 127 388 130 393 C275 592 280 600 280 582 C280 695 276 710 158 710 C34 710 30 693 30 571 C30 532 59 461 102 376 C21 267 18 268 18 167 C18 11 0 -10 146 -10 C229 -10 275 -2 300 30 C306 20 312 10 318 0 L340 0 C330 15 320 31 310 47 C336 101 328 204 328 396 L331 397 L331 397 Z M106 362 C156 264 224 150 287 47 C265 14 224 6 148 6 C19 6 35 27 35 180 C35 268 37 269 106 362 L106 362 Z M112 391 C72 470 46 535 46 570 C46 676 50 690 156 690 C258 690 261 677 261 580 C261 598 256 589 118 400 C116 397 114 394 112 391 L112 391 Z " />
<glyph glyph-name="quotesingle" unicode="&#x27;" horiz-adv-x="171" d="M80 700 L80 570 L91 570 L91 700 L80 700 L80 700 Z " />
<glyph glyph-name="parenleft" unicode="&#x28;" horiz-adv-x="145" d="M130 700 C53 532 42 538 42 314 C42 89 53 95 130 -73 L144 -73 C66 97 55 92 55 314 C55 535 66 531 144 700 L130 700 L130 700 Z " />
<glyph glyph-name="parenright" unicode="&#x29;" horiz-adv-x="145" d="M40 -73 C117 95 128 89 128 313 C128 538 117 532 40 700 L26 700 C104 530 115 535 115 313 C115 92 104 96 26 -73 L40 -73 L40 -73 Z " />
<glyph glyph-name="asterisk" unicode="&#x2a;" horiz-adv-x="130" d="M-2 621 L2 610 C2 610 34 622 62 631 C62 602 61 568 61 568 L72 568 C72 568 70 601 70 630 C98 621 129 608 129 610 L133 621 C133 621 100 630 72 639 C90 663 109 688 111 688 L101 695 C101 695 83 667 66 644 C49 669 30 699 30 696 L20 689 C20 689 40 664 57 641 C28 632 -1 625 -2 624 L-2 621 L-2 621 Z " />
<glyph glyph-name="plus" unicode="&#x2b;" horiz-adv-x="290" d="M138 405 L138 307 L40 307 L40 293 L138 293 L138 195 L152 195 L152 293 L250 293 L250 307 L152 307 L152 405 L138 405 L138 405 Z " />
<glyph glyph-name="comma" unicode="&#x2c;" horiz-adv-x="90" d="M43 30 L14 -70 L27 -70 L64 30 L43 30 L43 30 Z " />
<glyph glyph-name="hyphen" unicode="&#x2d;" horiz-adv-x="268" d="M12 393 L256 393 L256 411 L12 411 L12 393 L12 393 Z " />
<glyph glyph-name="period" unicode="&#x2e;" horiz-adv-x="170" d="M78 0 L93 0 L93 15 L78 15 L78 0 L78 0 Z " />
<glyph glyph-name="slash" unicode="&#x2f;" horiz-adv-x="130" d="M10 -90 L20 -90 L120 700 L110 700 L10 -90 L10 -90 Z " />
<glyph glyph-name="zero" unicode="0" horiz-adv-x="363" d="M302 95 C302 18 287 8 181 8 C75 8 61 18 61 95 L61 605 C61 682 75 692 181 692 C287 692 302 682 302 605 L302 95 L302 95 Z M323 96 L323 604 C323 697 306 710 181 710 C57 710 40 697 40 604 L40 96 C40 3 57 -10 181 -10 C306 -10 323 3 323 96 L323 96 Z " />
<glyph glyph-name="one" unicode="1" horiz-adv-x="205" d="M4 502 L5 500 C88 500 126 511 143 542 L143 0 L165 0 L165 700 L141 700 L141 625 C141 528 125 502 4 502 L4 502 Z " />
<glyph glyph-name="two" unicode="2" horiz-adv-x="342" d="M317 19 L49 19 L49 77 C49 139 64 151 177 324 C293 503 309 514 309 583 C309 695 292 710 168 710 C45 710 28 697 28 605 L28 506 L49 506 L49 606 C49 681 63 691 168 691 C274 691 288 679 288 587 C288 522 273 511 159 336 C44 159 28 148 28 77 L28 0 L317 0 L317 19 L317 19 Z " />
<glyph glyph-name="three" unicode="3" horiz-adv-x="327" d="M21 65 L19 65 L21 65 L21 65 Z M21 606 L21 606 L21 606 Z M16 606 L16 573 L37 573 L37 607 C37 681 51 691 156 691 C262 691 276 681 276 608 L276 427 C276 368 262 360 156 360 L104 360 L104 342 C104 342 133 341 156 341 C262 341 276 335 276 287 L276 62 C276 15 262 9 157 9 C51 9 37 15 37 63 L37 96 L16 96 L16 65 C16 48 17 35 21 25 L21 25 L21 25 C32 -4 65 -9 157 -9 C280 -9 297 0 297 66 L297 287 C297 328 290 347 254 355 C290 364 297 385 297 432 L297 606 C297 698 280 711 156 711 C34 711 16 701 16 607 L16 606 L16 606 Z " />
<glyph glyph-name="four" unicode="4" horiz-adv-x="354" d="M228 0 L228 192 L340 192 L340 211 L228 211 L228 522 L225 522 C225 522 208 440 208 375 L208 211 L40 211 C228 637 254 700 254 700 L236 700 C236 700 210 642 19 210 L19 192 L208 192 L208 0 L228 0 L228 0 Z " />
<glyph glyph-name="five" unicode="5" horiz-adv-x="335" d="M281 700 C281 664 266 659 156 659 C69 659 57 664 57 700 L36 700 L36 326 L53 326 C53 395 66 404 159 404 C270 404 285 395 285 326 L285 93 C285 19 271 9 166 9 C60 9 46 19 46 93 L46 126 L25 126 L25 96 C25 3 42 -10 166 -10 C289 -10 306 3 306 96 L306 322 C306 410 289 422 165 422 C88 422 62 415 54 374 C55 400 57 422 57 422 L57 663 C67 644 94 641 160 641 C283 641 300 648 300 700 L281 700 L281 700 Z " />
<glyph glyph-name="six" unicode="6" horiz-adv-x="354" d="M314 601 L317 600 L314 600 L314 601 L314 601 Z M61 300 C61 373 75 383 177 383 C283 383 298 373 298 300 C298 300 299 186 299 97 C299 20 285 9 179 9 C75 9 61 19 61 96 L61 300 L61 300 Z M314 660 L314 660 C303 703 270 710 179 710 C57 710 40 697 40 601 C40 166 39 99 39 99 C39 3 56 -10 179 -10 C302 -10 319 3 319 100 L319 296 C319 389 303 402 183 402 C105 402 73 396 61 363 L61 603 C61 680 75 690 179 690 C284 690 298 679 298 602 L298 567 L319 567 L319 599 C319 624 318 644 314 659 L314 660 L314 660 Z " />
<glyph glyph-name="seven" unicode="7" horiz-adv-x="340" d="M20 681 L300 681 C277 616 80 47 80 0 L101 0 C102 2 103 4 104 6 L102 6 C112 84 320 682 320 682 L320 701 L20 701 L20 681 L20 681 Z " />
<glyph glyph-name="eight" unicode="8" horiz-adv-x="363" d="M302 457 C302 390 287 381 181 381 C75 381 61 390 61 457 L61 607 C61 682 75 692 181 692 C287 692 302 682 302 607 L302 457 L302 457 Z M302 93 C302 18 287 8 181 8 C75 8 61 18 61 93 L61 274 C61 353 75 364 181 364 C287 364 302 353 302 274 L302 93 L302 93 Z M323 94 L323 270 C323 332 316 359 276 370 C316 380 323 403 323 457 L323 605 C323 697 306 709 181 709 C57 709 40 697 40 605 L40 457 C40 403 47 380 87 370 C47 359 40 332 40 270 L40 94 C40 2 57 -10 181 -10 C306 -10 323 2 323 94 L323 94 Z " />
<glyph glyph-name="nine" unicode="9" horiz-adv-x="356" d="M35 126 L35 96 C35 3 52 -10 176 -10 C299 -10 316 3 316 96 L316 604 C316 697 299 710 176 710 C52 710 35 697 35 603 L35 404 C35 309 51 296 171 296 C251 296 283 302 295 336 L295 93 C295 19 281 9 176 9 C70 9 56 19 56 93 L56 126 L35 126 L35 126 Z M295 401 C295 325 281 315 177 315 C71 315 56 325 56 401 L56 606 C56 682 70 692 176 692 C281 692 295 681 295 603 L295 401 L295 401 Z " />
<glyph glyph-name="colon" unicode="&#x3a;" horiz-adv-x="170" d="M74 341 L96 341 L96 363 L74 363 L74 341 L74 341 Z M74 0 L96 0 L96 22 L74 22 L74 0 L74 0 Z " />
<glyph glyph-name="semicolon" unicode="&#x3b;" horiz-adv-x="155" d="M83 341 L106 341 L106 363 L83 363 L83 341 L83 341 Z M84 30 L55 -70 L68 -70 L105 30 L84 30 L84 30 Z " />
<glyph glyph-name="less" unicode="&#x3c;" horiz-adv-x="385" d="M340 509 L340 527 L35 343 L35 331 L340 147 L340 165 L58 337 L340 509 L340 509 Z " />
<glyph glyph-name="equal" unicode="&#x3d;" horiz-adv-x="381" d="M40 249 L40 236 L341 236 L341 249 L40 249 L40 249 Z M40 364 L40 351 L341 351 L341 364 L40 364 L40 364 Z " />
<glyph glyph-name="greater" unicode="&#x3e;" horiz-adv-x="391" d="M45 509 L332 337 L45 165 L45 147 L356 331 L356 343 L45 527 L45 509 L45 509 Z " />
<glyph glyph-name="question" unicode="&#x3f;" horiz-adv-x="317" d="M145 0 L167 0 L167 22 L145 22 L145 0 L145 0 Z M15 514 L35 514 C35 514 36 568 36 611 C36 681 50 691 156 691 C261 691 275 679 275 588 C275 517 317 553 143 365 C143 365 153 355 153 170 L163 170 C163 340 158 355 158 355 C340 551 296 513 296 585 C296 695 279 710 156 710 C32 710 15 698 15 611 L15 514 L15 514 Z " />
<glyph glyph-name="at" unicode="&#x40;" horiz-adv-x="419" d="M379 85 L373 85 C352 8 333 -3 212 -3 C66 -3 46 11 46 114 L46 586 C46 689 66 703 212 703 C354 703 373 689 373 586 L373 143 C373 112 369 108 341 108 C315 108 311 112 311 142 L311 533 C311 604 299 614 212 614 C126 614 114 604 114 529 L114 438 L129 438 L129 533 C129 592 139 600 212 600 C285 600 295 592 295 537 L295 421 C295 379 284 372 202 358 C119 344 108 335 108 286 L108 185 C108 111 120 101 204 101 C265 101 287 105 295 129 C297 105 305 101 336 101 C375 101 380 106 380 143 L380 586 C380 695 360 710 212 710 C61 710 40 695 40 586 L40 114 C40 5 61 -10 212 -10 C337 -10 357 1 379 85 L379 85 Z M295 379 L295 163 C295 121 285 115 209 115 C133 115 123 124 123 189 C123 189 124 197 124 286 C124 329 134 336 210 349 C260 357 284 364 295 379 L295 379 Z " />
<glyph glyph-name="A" unicode="A" horiz-adv-x="331" d="M152 700 C152 700 151 697 151 695 L16 5 C16 5 15 2 15 0 L36 0 C36 0 37 3 37 5 L37 5 L79 227 L251 227 L294 0 L315 0 C315 2 316 5 315 5 L179 700 L152 700 L152 700 Z M248 246 L83 246 L166 679 L248 246 L248 246 Z " />
<glyph glyph-name="B" unicode="B" horiz-adv-x="370" d="M173 377 L61 377 L61 681 L173 681 C287 681 302 671 302 594 L302 451 C302 386 287 377 173 377 L173 377 Z M281 371 C317 382 324 406 324 456 L324 595 C324 687 306 700 174 700 L41 700 L41 0 L198 0 C315 0 331 13 331 105 L331 279 C331 338 324 362 282 371 L281 371 L281 371 Z M62 19 L62 358 L198 358 C297 358 310 348 310 278 L310 105 C310 29 297 19 198 19 L62 19 L62 19 Z " />
<glyph glyph-name="C" unicode="C" horiz-adv-x="341" d="M316 603 L316 604 L321 603 C321 697 304 710 181 710 C57 710 40 697 40 604 L40 96 C40 3 57 -10 181 -10 C304 -10 321 3 321 97 L321 128 L300 128 L300 94 C300 19 286 9 181 9 C75 9 61 19 61 92 L61 607 C61 681 75 691 181 691 C286 691 300 681 300 607 L300 571 L321 571 L321 603 L316 603 L316 603 Z " />
<glyph glyph-name="D" unicode="D" horiz-adv-x="370" d="M176 0 C312 0 330 13 330 105 L330 595 C330 687 312 700 176 700 L40 700 L40 0 L176 0 L176 0 Z M61 19 L61 681 L176 681 C293 681 309 671 309 594 L309 105 C309 29 293 19 176 19 L61 19 L61 19 Z " />
<glyph glyph-name="E" unicode="E" horiz-adv-x="319" d="M299 20 L61 20 L61 355 L244 355 L244 375 L61 375 L61 680 L294 680 L294 700 L40 700 L40 0 L299 0 L299 20 L299 20 Z " />
<glyph glyph-name="F" unicode="F" horiz-adv-x="304" d="M253 355 L61 355 L61 680 L284 680 L284 700 L40 700 L40 0 L61 0 L61 335 L253 335 L253 355 L253 355 Z " />
<glyph glyph-name="G" unicode="G" horiz-adv-x="361" d="M316 604 L319 603 L316 603 L316 604 L316 604 Z M260 338 L260 319 L300 319 L300 94 C300 19 286 9 181 9 C75 9 61 19 61 92 L61 607 C61 681 75 691 181 691 C286 691 300 681 300 607 L300 571 L321 571 L321 603 C321 697 304 710 181 710 C57 710 40 697 40 604 L40 96 C40 3 57 -10 181 -10 C271 -10 304 -3 315 37 C319 26 326 13 335 -5 L336 -4 C322 23 320 35 320 97 L320 338 L260 338 L260 338 Z " />
<glyph glyph-name="H" unicode="H" horiz-adv-x="370" d="M330 0 L330 700 L309 700 L309 373 L61 373 L61 700 L40 700 L40 0 L61 0 L61 355 L309 355 L309 0 L330 0 L330 0 Z " />
<glyph glyph-name="I" unicode="I" horiz-adv-x="101" d="M61 0 L61 700 L40 700 L40 0 L61 0 L61 0 Z " />
<glyph glyph-name="J" unicode="J" horiz-adv-x="329" d="M269 700 L269 92 C269 19 255 9 150 9 C45 9 31 19 31 90 L31 141 L10 141 C10 106 9 93 9 93 C7 2 26 -10 149 -10 C272 -10 289 2 289 93 L289 700 L269 700 L269 700 Z " />
<glyph glyph-name="K" unicode="K" horiz-adv-x="365" d="M358 5 L358 5 L165 401 L152 381 L336 0 L360 0 L359 3 L358 5 L358 5 Z M61 700 L40 700 L40 0 L61 0 L61 241 L356 695 C357 695 359 699 359 700 L335 700 C334 699 333 698 332 697 L60 272 L61 700 L61 700 Z " />
<glyph glyph-name="L" unicode="L" horiz-adv-x="299" d="M284 20 L61 20 L61 700 L40 700 L40 0 L284 0 L284 20 L284 20 Z " />
<glyph glyph-name="M" unicode="M" horiz-adv-x="445" d="M228 35 L384 692 L384 0 L405 0 L405 700 L372 700 L223 81 L73 700 L40 700 L40 0 L61 0 L61 692 L213 52 L216 53 C215 52 214 52 213 52 L223 12 L228 35 L228 35 Z " />
<glyph glyph-name="N" unicode="N" horiz-adv-x="372" d="M314 700 L314 22 L69 700 L41 700 L41 0 L59 0 L59 678 L304 0 L332 0 L332 700 L314 700 L314 700 Z " />
<glyph glyph-name="O" unicode="O" horiz-adv-x="360" d="M299 92 C299 19 285 9 180 9 C75 9 61 19 61 92 L61 608 C61 681 75 691 180 691 C285 691 299 681 299 608 L299 92 L299 92 Z M320 96 L320 604 C320 697 303 710 180 710 C57 710 40 697 40 604 L40 96 C40 3 57 -10 180 -10 C303 -10 320 3 320 96 L320 96 Z " />
<glyph glyph-name="P" unicode="P" horiz-adv-x="355" d="M61 0 L61 281 L195 281 C314 281 330 294 330 391 L330 595 C330 687 314 700 195 700 L40 700 L40 0 L61 0 L61 0 Z M61 300 L61 681 L195 681 C295 681 309 671 309 594 L309 391 C309 311 295 300 195 300 L61 300 L61 300 Z " />
<glyph glyph-name="Q" unicode="Q" horiz-adv-x="379" d="M299 92 C299 19 285 9 180 9 C75 9 61 19 61 92 L61 608 C61 681 75 691 180 691 C285 691 299 681 299 608 L299 92 L299 92 Z M358 -17 L359 -16 C325 26 320 40 320 96 L320 604 C320 697 303 710 180 710 C57 710 40 697 40 604 L40 96 C40 3 57 -10 180 -10 C260 -10 295 -4 310 26 C318 12 332 0 357 -17 L358 -17 L358 -17 Z " />
<glyph glyph-name="R" unicode="R" horiz-adv-x="370" d="M61 0 L61 341 L195 341 C295 341 309 332 309 261 L309 0 L330 0 L330 262 C330 315 324 340 291 351 C324 365 330 395 330 460 L330 595 C330 687 314 700 195 700 L40 700 L40 0 L61 0 L61 0 Z M195 360 L61 360 L61 681 L195 681 C295 681 309 671 309 594 L309 460 C309 372 295 360 195 360 L195 360 Z " />
<glyph glyph-name="S" unicode="S" horiz-adv-x="328" d="M25 133 L25 89 C25 66 26 48 30 34 L30 34 C41 -4 74 -11 164 -11 C286 -11 303 4 303 111 C303 203 299 221 172 361 C50 496 46 503 46 592 C46 678 60 690 165 690 C268 690 282 680 282 610 L282 572 L303 572 L303 610 C303 633 302 651 298 665 L298 665 C287 703 254 710 165 710 C43 710 26 696 26 590 C26 493 30 485 156 346 C278 211 282 195 282 108 C282 21 268 9 164 9 C60 9 46 19 46 89 L46 133 L25 133 L25 133 Z " />
<glyph glyph-name="T" unicode="T" horiz-adv-x="329" d="M175 0 L175 681 L324 681 L324 700 L5 700 L5 681 L154 681 L154 0 L175 0 L175 0 Z " />
<glyph glyph-name="U" unicode="U" horiz-adv-x="360" d="M299 700 L299 92 C299 19 285 9 180 9 C75 9 61 19 61 92 L61 700 L40 700 L40 96 C40 3 57 -10 180 -10 C303 -10 320 3 320 96 L320 700 L299 700 L299 700 Z " />
<glyph glyph-name="V" unicode="V" horiz-adv-x="331" d="M179 0 L315 695 C315 695 316 698 316 700 L295 700 C295 700 294 697 294 695 L165 18 L36 700 L15 700 C15 698 14 695 15 695 L151 0 L179 0 L179 0 Z " />
<glyph glyph-name="W" unicode="W" horiz-adv-x="440" d="M412 700 L392 700 L357 17 L234 700 L206 700 L83 17 L48 700 L28 700 L28 695 L28 695 L68 0 L96 0 L220 675 L344 0 L372 0 C385 232 398 464 412 695 L412 700 L412 700 Z " />
<glyph glyph-name="X" unicode="X" horiz-adv-x="324" d="M290 695 L164 369 L26 700 L4 700 L5 697 L6 695 L6 695 L151 349 L13 5 L12 3 L11 0 L31 0 C31 1 33 5 33 5 L159 331 L297 0 L319 0 L318 3 C317 5 317 5 317 5 L173 350 L174 350 C220 466 266 582 312 697 L313 700 L293 700 C293 699 291 695 291 695 L290 695 L290 695 Z " />
<glyph glyph-name="Y" unicode="Y" horiz-adv-x="383" d="M202 0 L202 348 L346 695 C347 695 348 699 348 700 L325 700 L323 695 L192 361 C148 472 104 583 60 694 L60 694 L58 699 L35 699 L36 696 C37 694 37 694 37 694 L182 347 L182 -1 L202 0 L202 0 Z " />
<glyph glyph-name="Z" unicode="Z" horiz-adv-x="329" d="M19 681 L281 681 L21 19 L19 13 L19 0 L307 0 L307 19 L43 19 L303 681 L306 688 L306 700 L19 700 L19 681 L19 681 Z " />
<glyph glyph-name="bracketleft" unicode="&#x5b;" horiz-adv-x="159" d="M56 689 L149 689 L149 700 L43 700 L43 -73 L149 -73 L149 -62 L56 -62 L56 689 L56 689 Z " />
<glyph glyph-name="backslash" unicode="&#x5c;" horiz-adv-x="130" d="M110 -90 L120 -90 L20 700 L10 700 L110 -90 L110 -90 Z " />
<glyph glyph-name="bracketright" unicode="&#x5d;" horiz-adv-x="147" d="M94 689 L94 -62 L10 -62 L10 -73 L107 -73 L107 700 L10 700 L10 689 L94 689 L94 689 Z " />
<glyph glyph-name="asciicircum" unicode="&#x5e;" horiz-adv-x="574" d="M277 700 L201 640 L214 640 L287 692 L360 640 L374 640 L298 700 L277 700 L277 700 Z " />
<glyph glyph-name="underscore" unicode="&#x5f;" horiz-adv-x="354" d="M10 -64 L10 -75 L344 -75 L344 -64 L10 -64 L10 -64 Z " />
<glyph glyph-name="grave" unicode="&#x60;" horiz-adv-x="574" d="M281 640 L294 640 L240 700 L218 700 L281 640 L281 640 Z " />
<glyph glyph-name="a" unicode="a" horiz-adv-x="340" d="M305 0 L305 507 C305 598 303 610 171 610 C54 610 38 598 38 507 L38 398 L58 398 L58 510 C58 583 72 593 171 593 C283 593 285 583 285 510 L285 388 C285 300 270 320 160 310 C46 300 30 289 30 217 L30 97 C30 3 46 -10 160 -10 C246 -10 276 -3 285 43 L285 0 L305 0 L305 0 Z M285 321 L285 101 C285 18 271 7 168 7 C64 7 50 18 50 101 L50 217 C50 277 63 286 162 295 C241 302 273 293 285 322 L285 321 L285 321 Z " />
<glyph glyph-name="b" unicode="b" horiz-adv-x="350" d="M55 0 L55 39 C66 -3 97 -10 178 -10 C299 -10 315 3 315 98 L315 503 C315 597 299 610 178 610 C97 610 66 603 55 562 L55 700 L35 700 L35 0 L55 0 L55 0 Z M55 490 C55 580 69 592 172 592 C280 592 295 581 295 499 L295 103 C295 19 280 7 172 7 C69 7 55 19 55 111 L55 490 L55 490 Z " />
<glyph glyph-name="c" unicode="c" horiz-adv-x="350" d="M315 223 L295 223 L295 97 C295 18 281 7 175 7 C69 7 55 18 55 97 L55 503 C55 582 69 593 175 593 C281 593 295 582 295 502 L295 371 L315 371 L315 502 C315 527 314 546 310 561 L310 561 C299 603 266 610 175 610 C52 610 35 597 35 502 L35 98 C35 3 52 -10 175 -10 C298 -10 315 3 315 98 L315 223 L315 223 Z " />
<glyph glyph-name="d" unicode="d" horiz-adv-x="350" d="M315 0 L315 700 L295 700 L295 560 C286 603 256 610 171 610 C51 610 35 597 35 502 L35 97 C35 3 51 -10 171 -10 C256 -10 286 -2 295 45 L295 0 L315 0 L315 0 Z M295 101 C295 19 281 8 178 8 C70 8 55 19 55 101 L55 503 C55 582 70 593 178 593 C281 593 295 582 295 503 L295 101 L295 101 Z " />
<glyph glyph-name="e" unicode="e" horiz-adv-x="350" d="M315 223 L295 223 L295 97 C295 18 281 7 175 7 C69 7 55 18 55 97 L55 313 L315 313 L315 502 C315 597 298 610 175 610 C52 610 35 597 35 502 L35 98 C35 3 52 -10 175 -10 C298 -10 315 3 315 98 L315 223 L315 223 Z M295 330 L55 330 L55 503 C55 582 69 593 175 593 C281 593 295 582 295 502 L295 330 L295 330 Z " />
<glyph glyph-name="f" unicode="f" horiz-adv-x="285" d="M121 0 L121 581 L270 581 L270 600 L121 600 C121 663 131 673 207 682 C207 682 222 683 275 683 L275 700 L205 700 C115 689 102 676 102 600 L9 600 L9 581 L102 581 L102 0 L121 0 L121 0 Z " />
<glyph glyph-name="g" unicode="g" horiz-adv-x="350" d="M295 600 L295 559 C286 602 256 609 171 609 C51 609 35 596 35 501 L35 154 C35 64 51 52 171 52 C256 52 286 59 295 103 L295 -31 C295 -79 281 -85 175 -85 C69 -85 55 -79 55 -32 L55 4 L35 4 L35 -29 C35 -93 52 -102 175 -102 C298 -102 315 -93 315 -28 L315 598 L295 600 L295 600 Z M295 157 C295 80 281 69 178 69 C70 69 55 80 55 157 L55 501 C55 580 70 591 178 591 C281 591 295 580 295 500 L295 157 L295 157 Z " />
<glyph glyph-name="h" unicode="h" horiz-adv-x="350" d="M315 0 L315 503 C315 597 299 610 179 610 C98 610 66 603 55 561 L55 700 L35 700 L35 0 L55 0 L55 490 C55 580 69 592 173 592 C280 592 295 581 295 499 L295 0 L315 0 L315 0 Z " />
<glyph glyph-name="i" unicode="i" horiz-adv-x="90" d="M34 633 L56 633 L56 654 L34 654 L34 633 L34 633 Z M55 0 L55 600 L35 600 L35 0 L55 0 L55 0 Z " />
<glyph glyph-name="j" unicode="j" horiz-adv-x="100" d="M44 633 L66 633 L66 654 L44 654 L44 633 L44 633 Z M45 600 L45 -16 C45 -52 40 -57 0 -63 L-41 -63 L-41 -80 C3 -80 2 -81 2 -81 C57 -73 65 -65 65 -13 L65 600 L45 600 L45 600 Z " />
<glyph glyph-name="k" unicode="k" horiz-adv-x="338" d="M35 700 L35 0 L55 0 L55 210 L139 327 L316 0 L338 0 C339 0 336 5 335 5 L152 344 L332 595 C333 595 335 599 336 600 L313 600 L55 240 L55 700 L35 700 L35 700 Z " />
<glyph glyph-name="l" unicode="l" horiz-adv-x="90" d="M55 0 L55 700 L35 700 L35 0 L55 0 L55 0 Z " />
<glyph glyph-name="m" unicode="m" horiz-adv-x="610" d="M575 0 L575 503 C575 597 559 610 439 610 C351 610 321 602 312 550 C304 602 275 610 178 610 C97 610 65 603 54 561 L54 600 L34 600 L34 0 L54 0 L54 490 C54 580 68 592 172 592 C279 592 294 581 294 499 L294 0 L314 0 L314 490 C314 580 328 592 432 592 C539 592 554 581 554 499 L554 0 L575 0 L575 0 Z " />
<glyph glyph-name="n" unicode="n" horiz-adv-x="350" d="M315 0 L315 503 C315 597 299 610 179 610 C98 610 66 603 55 561 L55 600 L35 600 L35 0 L55 0 L55 490 C55 580 69 592 173 592 C280 592 295 581 295 499 L295 0 L315 0 L315 0 Z " />
<glyph glyph-name="o" unicode="o" horiz-adv-x="350" d="M295 95 C295 18 281 7 175 7 C69 7 55 18 55 95 L55 505 C55 582 69 593 175 593 C281 593 295 582 295 505 L295 95 L295 95 Z M315 99 L315 501 C315 597 298 610 175 610 C52 610 35 597 35 501 L35 99 C35 3 52 -10 175 -10 C298 -10 315 3 315 99 L315 99 Z " />
<glyph glyph-name="p" unicode="p" horiz-adv-x="350" d="M55 -90 L55 39 C66 -3 97 -10 178 -10 C299 -10 315 3 315 98 L315 503 C315 597 299 610 178 610 C97 610 66 603 55 562 L55 600 L35 600 L35 -90 L55 -90 L55 -90 Z M55 490 C55 580 69 592 172 592 C280 592 295 581 295 499 L295 103 C295 19 280 7 172 7 C69 7 55 19 55 111 L55 490 L55 490 Z " />
<glyph glyph-name="q" unicode="q" horiz-adv-x="350" d="M315 -90 L315 600 L295 600 L295 558 C286 603 256 610 171 610 C51 610 35 597 35 502 L35 97 C35 3 51 -10 171 -10 C256 -10 286 -2 295 45 L295 -90 L315 -90 L315 -90 Z M295 101 C295 19 281 8 178 8 C70 8 55 19 55 101 L55 503 C55 582 70 593 178 593 C281 593 295 582 295 503 L295 101 L295 101 Z " />
<glyph glyph-name="r" unicode="r" horiz-adv-x="316" d="M35 600 L35 0 L55 0 L55 490 C55 580 69 592 168 592 C272 592 286 581 286 499 L286 407 L306 407 L306 503 C306 597 290 610 175 610 C97 610 66 603 55 562 L55 600 L35 600 L35 600 Z " />
<glyph glyph-name="s" unicode="s" horiz-adv-x="318" d="M20 195 L20 93 C20 2 37 -10 159 -10 C281 -10 298 5 298 118 C298 189 294 203 165 308 C45 406 41 412 41 489 C41 581 55 593 160 593 C264 593 278 583 278 507 L278 414 L298 414 L298 507 C298 598 281 610 160 610 C38 610 21 595 21 486 C21 403 25 397 153 292 C274 193 278 181 278 114 C278 20 264 7 159 7 C54 7 40 17 40 93 L40 195 L20 195 L20 195 Z " />
<glyph glyph-name="t" unicode="t" horiz-adv-x="372" d="M362 213 L342 213 L342 97 C342 18 328 7 227 7 C126 7 112 18 112 97 L112 581 L330 581 L330 600 L112 600 L112 676 L106 676 C106 644 104 640 92 640 L92 600 L5 600 L5 581 L92 581 L92 98 C92 3 108 -10 227 -10 C346 -10 362 3 362 98 L362 213 L362 213 Z " />
<glyph glyph-name="u" unicode="u" horiz-adv-x="350" d="M315 0 L315 600 L295 600 L295 101 C295 19 281 8 178 8 C70 8 55 19 55 101 L55 600 L35 600 L35 97 C35 3 51 -10 171 -10 C256 -10 286 -2 295 45 L295 0 L315 0 L315 0 Z " />
<glyph glyph-name="v" unicode="v" horiz-adv-x="333" d="M17 600 L18 596 L18 595 L18 595 L152 0 L182 0 C226 198 270 397 315 595 L315 596 L316 600 L296 600 L295 597 L295 595 L167 11 L38 595 L38 597 L37 600 L17 600 L17 600 Z " />
<glyph glyph-name="w" unicode="w" horiz-adv-x="461" d="M431 600 L411 600 L376 14 L242 600 L219 600 L85 14 L50 600 L30 600 L30 595 L30 595 L70 0 L98 0 L230 582 L363 0 L391 0 C404 198 417 397 431 595 L431 600 L431 600 Z " />
<glyph glyph-name="x" unicode="x" horiz-adv-x="322" d="M314 600 L294 600 L168 317 L31 600 L9 600 L10 597 L11 595 L11 595 L154 300 L18 5 C17 5 16 1 16 0 L36 0 L163 282 L299 0 L321 0 L320 3 L319 5 L319 5 L176 300 L312 595 C313 595 314 599 314 600 L314 600 Z " />
<glyph glyph-name="y" unicode="y" horiz-adv-x="350" d="M295 600 L295 159 C295 82 281 71 178 71 C70 71 55 82 55 159 L55 600 L35 600 L35 155 C35 65 51 53 171 53 C256 53 286 60 295 104 L295 -30 C295 -78 281 -84 175 -84 C69 -84 55 -78 55 -31 L55 5 L35 5 L35 -28 C35 -92 52 -101 175 -101 C298 -101 315 -92 315 -27 L315 599 L295 600 L295 600 Z " />
<glyph glyph-name="z" unicode="z" horiz-adv-x="313" d="M11 583 L273 583 L13 17 L11 13 L11 0 L298 0 L298 17 L34 17 L294 583 L297 589 L297 600 L11 600 L11 583 L11 583 Z " />
<glyph glyph-name="braceleft" unicode="&#x7b;" horiz-adv-x="178" d="M5 304 L53 304 C79 304 82 300 82 268 L82 -27 C82 -75 88 -82 134 -82 L169 -82 L169 -71 L136 -71 C100 -71 95 -66 95 -29 L95 272 C95 306 91 310 57 310 C90 310 94 315 94 354 L94 642 C94 683 99 689 135 689 L168 689 L168 700 L133 700 C87 700 81 693 81 645 L81 350 C81 320 78 316 53 316 L5 316 L5 304 L5 304 Z " />
<glyph glyph-name="bar" unicode="&#x7c;" horiz-adv-x="125" d="M55 -90 L65 -90 L65 700 L55 700 L55 -90 L55 -90 Z " />
<glyph glyph-name="braceright" unicode="&#x7d;" horiz-adv-x="178" d="M168 316 L120 316 C95 316 92 320 92 350 L92 645 C92 693 86 700 40 700 L5 700 L5 689 L38 689 C74 689 79 683 79 642 L79 354 C79 315 83 310 116 310 C82 310 78 306 78 272 L78 -29 C78 -66 73 -71 37 -71 L4 -71 L4 -82 L39 -82 C85 -82 91 -75 91 -27 L91 268 C91 300 94 304 120 304 L168 304 L168 316 L168 316 Z " />
<glyph glyph-name="asciitilde" unicode="&#x7e;" horiz-adv-x="574" d="M188 290 L198 290 C190 334 195 340 236 340 C233 340 244 335 284 317 C331 296 344 290 341 290 C391 290 396 297 387 350 L377 350 C385 306 380 300 339 300 C342 300 331 305 291 323 C244 344 231 350 234 350 C184 350 179 343 188 290 L188 290 Z " />
<glyph glyph-name="exclamdown" unicode="&#xa1;" horiz-adv-x="81" d="M29 600 L29 578 L51 578 L51 600 L29 600 L29 600 Z M30 -100 L51 -100 L51 136 L45 464 L35 464 L30 136 L30 -100 L30 -100 Z " />
<glyph glyph-name="cent" unicode="&#xa2;" horiz-adv-x="349" d="M314 223 L297 223 L297 97 C297 17 282 5 180 5 L180 595 C282 595 297 583 297 502 L297 371 L314 371 L314 502 C314 596 297 610 180 610 L180 645 L170 645 L170 610 C52 610 35 596 35 502 L35 98 C35 4 52 -10 170 -10 L170 -50 L180 -50 L180 -10 C297 -10 314 4 314 98 L314 223 L314 223 Z M170 5 C67 5 52 17 52 97 L52 502 C52 583 67 595 170 595 L170 5 L170 5 Z " />
<glyph glyph-name="brokenbar" unicode="&#xa6;" horiz-adv-x="130" d="M60 405 L70 405 L70 700 L60 700 L60 405 L60 405 Z M60 -90 L70 -90 L70 205 L60 205 L60 -90 L60 -90 Z " />
<glyph glyph-name="section" unicode="&#xa7;" horiz-adv-x="265" d="M5 640 L6 637 L6 636 L123 320 C87 214 51 108 15 2 L14 -1 L31 -1 C31 0 32 4 32 4 L131 299 C167 201 204 103 240 5 L241 4 L242 0 L261 0 L260 3 L260 4 L143 320 C179 426 215 532 251 638 L252 641 L235 641 C235 640 233 636 233 636 L135 340 C99 439 62 538 26 636 L25 637 L24 641 L5 640 L5 640 Z " />
<glyph glyph-name="ordfeminine" unicode="&#xaa;" horiz-adv-x="330" d="M32 596 L46 596 L46 653 C46 687 53 692 100 692 C153 692 154 687 154 653 L154 592 L153 592 C153 549 145 559 92 554 C35 548 27 542 27 505 L27 443 C27 396 35 389 92 389 C134 389 149 393 154 417 L154 395 L160 395 L160 394 L167 394 L167 395 L168 395 L168 651 C168 697 167 703 100 703 C40 703 32 697 32 651 L32 596 L32 596 Z M23 355 L176 355 L176 364 L23 364 L23 355 L23 355 Z M154 557 L154 447 C154 408 147 402 98 402 C48 402 41 408 41 448 L41 505 C41 534 47 539 93 544 C131 548 147 543 153 556 L154 557 L154 557 Z " />
<glyph glyph-name="guillemotleft" unicode="&#xab;" horiz-adv-x="427" d="M407 535 L385 535 L210 393 L385 251 L407 251 L231 393 L407 535 L407 535 Z M215 535 L193 535 L18 393 L193 251 L215 251 L40 393 L215 535 L215 535 Z " />
<glyph glyph-name="twosuperior" unicode="&#xb2;" horiz-adv-x="177" d="M40 621 L40 664 C40 694 46 698 89 698 C132 698 138 693 138 655 C138 625 131 621 82 548 C33 473 26 470 26 435 L26 410 L27 410 L27 400 L155 400 L155 411 L39 411 L39 435 C39 464 46 468 94 541 C144 617 151 621 151 654 C151 703 144 710 89 710 C34 710 27 704 27 664 L27 621 L40 621 L40 621 Z " />
<glyph glyph-name="threesuperior" unicode="&#xb3;" horiz-adv-x="179" d="M66 558 L66 547 L89 547 C133 547 139 544 139 523 L139 425 C139 404 133 401 89 401 C45 401 39 404 39 425 L39 440 L27 440 L27 427 C27 395 35 391 91 391 C147 391 155 395 155 427 L155 522 C155 541 152 550 139 554 C151 559 153 569 153 588 L153 663 C153 704 145 710 89 710 C34 710 26 704 26 663 L26 649 L28 648 L40 648 L40 664 C40 694 46 698 90 698 C134 698 140 694 140 664 L140 586 C140 565 136 558 112 556 C106 556 99 556 91 556 L66 558 L66 558 Z M30 427 L30 427 L30 427 Z " />
<glyph glyph-name="acute" unicode="&#xb4;" horiz-adv-x="574" d="M281 640 L294 640 L357 700 L335 700 L281 640 L281 640 Z " />
<glyph glyph-name="periodcentered" unicode="&#xb7;" horiz-adv-x="170" d="M78 280 L93 280 L93 295 L78 295 L78 280 L78 280 Z " />
<glyph glyph-name="onesuperior" unicode="&#xb9;" horiz-adv-x="174" d="M86 400 L99 400 L99 700 L85 700 L85 668 C85 626 78 615 27 615 L28 614 C62 614 79 618 87 630 L87 402 L86 402 L86 400 L86 400 Z " />
<glyph glyph-name="ordmasculine" unicode="&#xba;" horiz-adv-x="335" d="M25 356 L179 356 L179 365 L25 365 L25 356 L25 356 Z M170 445 L170 648 C170 696 161 703 99 703 C37 703 28 696 28 648 L28 446 C28 398 37 391 99 391 C162 391 171 398 171 446 L170 445 L170 445 Z M158 444 C158 409 151 404 101 404 C50 404 43 409 43 444 L43 652 C43 687 50 692 101 692 C151 692 158 687 158 651 L158 444 L158 444 Z " />
<glyph glyph-name="guillemotright" unicode="&#xbb;" horiz-adv-x="404" d="M204 535 L375 393 L204 251 L226 251 L396 393 L226 535 L204 535 L204 535 Z M12 535 L183 393 L12 251 L34 251 L204 393 L33 535 L12 535 L12 535 Z " />
<glyph glyph-name="onequarter" unicode="&#xbc;" horiz-adv-x="435" d="M450 110 L451 109 L398 109 L398 270 L395 270 C395 270 383 224 383 188 L383 109 L302 109 C397 329 411 363 411 363 L398 363 C398 363 385 332 288 108 L288 96 L384 96 L384 -2 L399 -2 L399 96 L457 96 L457 109 L455 109 L455 110 L450 110 L450 110 Z M99 328 L99 690 L84 690 L84 689 L83 689 L83 650 C83 600 75 586 12 586 L12 585 C53 585 74 590 84 604 L84 326 L85 326 L85 325 L101 325 L101 328 L99 328 L99 328 Z M11 0 L21 0 L426 700 L416 700 L11 0 L11 0 Z " />
<glyph glyph-name="onehalf" unicode="&#xbd;" horiz-adv-x="435" d="M287 262 L302 262 L302 314 C302 351 309 356 360 356 C412 356 419 350 419 305 C419 269 411 264 353 177 C293 88 285 84 285 43 L285 12 L300 12 C300 26 299 43 299 43 C299 77 307 82 364 168 C424 258 432 263 432 302 C432 360 423 368 357 368 C292 368 283 361 283 313 L283 261 L287 262 L287 262 Z M98 328 L98 690 L83 690 L83 689 L82 689 L82 650 C82 600 74 586 11 586 L11 585 C52 585 73 590 83 604 L83 326 L84 326 L84 325 L100 325 L100 328 L98 328 L98 328 Z M10 0 L20 0 L425 700 L415 700 L10 0 L10 0 Z M435 4 L436 4 L436 11 L284 11 L284 -2 L435 -2 L435 4 L435 4 Z " />
<glyph glyph-name="threequarters" unicode="&#xbe;" horiz-adv-x="435" d="M447 111 L448 110 L395 110 L395 271 L392 271 C392 271 380 225 380 189 L380 110 L299 110 C394 330 408 364 408 364 L395 364 C395 364 382 333 285 109 L285 97 L381 97 L381 -1 L396 -1 L396 97 L454 97 L454 110 L452 110 L452 111 L447 111 L447 111 Z M12 341 L13 341 L13 341 L12 341 L12 341 Z M14 670 L14 669 L12 670 L14 670 L14 670 Z M13 364 L13 364 L11 364 C11 322 22 320 85 320 C150 320 159 325 159 362 L159 474 C159 496 156 507 140 512 C157 518 160 530 160 555 L160 642 C160 689 151 696 85 696 C37 696 20 692 14 670 L13 670 C13 661 11 653 11 641 L13 641 L13 640 L11 640 L11 624 L25 624 C25 624 26 634 26 642 C26 678 33 683 84 683 C136 683 143 678 143 643 C143 643 144 636 144 551 C144 520 137 516 84 516 L56 516 L57 515 L57 502 L84 502 C137 502 144 499 144 475 L144 360 C144 336 137 333 85 333 C33 333 26 336 26 360 L25 378 L10 378 L10 364 L13 364 L13 364 Z M10 624 L11 624 L11 623 L10 624 L10 624 Z M10 0 L20 0 L425 700 L415 700 L10 0 L10 0 Z M10 364 L10 364 L10 364 Z M11 641 L11 641 L11 641 Z " />
<glyph glyph-name="questiondown" unicode="&#xbf;" horiz-adv-x="376" d="M206 600 L184 600 L184 578 L206 578 L206 600 L206 600 Z M336 86 L316 86 C316 86 315 32 315 -11 C315 -81 301 -91 195 -91 C90 -91 76 -79 76 12 C76 83 34 47 208 235 C208 235 198 245 198 430 L188 430 C188 260 193 245 193 245 C11 49 55 87 55 15 C55 -95 72 -110 195 -110 C319 -110 336 -98 336 -11 L336 86 L336 86 Z " />
<glyph glyph-name="Agrave" unicode="&#xc0;" horiz-adv-x="331" d="M159 740 L172 740 L118 800 L96 800 L159 740 L159 740 Z M152 700 C152 700 151 697 151 695 L16 5 C16 5 15 2 15 0 L36 0 C36 0 37 3 37 5 L37 5 L79 227 L251 227 L294 0 L315 0 C315 2 316 5 315 5 L179 700 L152 700 L152 700 Z M248 246 L83 246 L166 679 L248 246 L248 246 Z " />
<glyph glyph-name="Aacute" unicode="&#xc1;" horiz-adv-x="331" d="M159 740 L172 740 L235 800 L213 800 L159 740 L159 740 Z M152 700 C152 700 151 697 151 695 L16 5 C16 5 15 2 15 0 L36 0 C36 0 37 3 37 5 L37 5 L79 227 L251 227 L294 0 L315 0 C315 2 316 5 315 5 L179 700 L152 700 L152 700 Z M248 246 L83 246 L166 679 L248 246 L248 246 Z " />
<glyph glyph-name="Acircumflex" unicode="&#xc2;" horiz-adv-x="331" d="M152 700 C152 700 151 697 151 695 L16 5 C16 5 15 2 15 0 L36 0 C36 0 37 3 37 5 L37 5 L79 227 L251 227 L294 0 L315 0 C315 2 316 5 315 5 L179 700 L152 700 L152 700 Z M155 800 L79 740 L92 740 L166 793 L240 741 L253 741 L177 801 L155 800 L155 800 Z M249 247 L84 247 L167 680 L249 247 L249 247 Z " />
<glyph glyph-name="Atilde" unicode="&#xc3;" horiz-adv-x="331" d="M66 729 L76 729 C68 773 73 779 114 779 C111 779 122 774 162 756 C209 735 222 729 219 729 C269 729 274 736 265 789 L255 789 C263 745 258 739 217 739 C220 739 209 744 169 762 C122 783 109 789 112 789 C62 789 57 782 66 729 L66 729 Z M152 700 C152 700 151 697 151 695 L16 5 C16 5 15 2 15 0 L36 0 C36 0 37 3 37 5 L37 5 L79 227 L251 227 L294 0 L315 0 C315 2 316 5 315 5 L179 700 L152 700 L152 700 Z M248 246 L83 246 L166 679 L248 246 L248 246 Z " />
<glyph glyph-name="Adieresis" unicode="&#xc4;" horiz-adv-x="331" d="M189 740 L207 740 L207 759 L189 759 L189 740 L189 740 Z M124 740 L142 740 L142 759 L124 759 L124 740 L124 740 Z M152 700 C152 700 151 697 151 695 L16 5 C16 5 15 2 15 0 L36 0 C36 0 37 3 37 5 L37 5 L79 227 L251 227 L294 0 L315 0 C315 2 316 5 315 5 L179 700 L152 700 L152 700 Z M248 246 L83 246 L166 679 L248 246 L248 246 Z " />
<glyph glyph-name="Aring" unicode="&#xc5;" horiz-adv-x="331" d="M139 776 C139 800 142 803 166 803 C189 803 192 800 192 775 C192 751 189 748 166 748 C142 748 139 751 139 776 L139 776 Z M130 775 C130 745 134 741 166 741 C197 741 201 745 201 775 C201 806 197 810 166 810 C134 810 130 806 130 775 L130 775 Z M152 700 C152 700 151 697 151 695 L16 5 C16 5 15 2 15 0 L36 0 C36 0 37 3 37 5 L37 5 L79 227 L251 227 L294 0 L315 0 C315 2 316 5 315 5 L179 700 L152 700 L152 700 Z M248 246 L83 246 L166 679 L248 246 L248 246 Z " />
<glyph glyph-name="Ccedilla" unicode="&#xc7;" horiz-adv-x="341" d="M316 603 L316 604 L321 603 C321 697 304 710 181 710 C57 710 40 697 40 604 L40 96 C40 4 56 -10 175 -10 L149 -45 L158 -45 C164 -41 182 -40 201 -40 C233 -40 237 -43 237 -64 C237 -90 237 -94 201 -94 C161 -94 155 -91 155 -69 L145 -69 C145 -97 152 -101 201 -101 C241 -101 246 -97 246 -71 C246 -39 245 -33 204 -33 C189 -33 174 -34 165 -36 L185 -10 C304 -10 321 4 321 97 L321 128 L300 128 L300 94 C300 19 286 9 181 9 C75 9 61 19 61 92 L61 607 C61 681 75 691 181 691 C286 691 300 681 300 607 L300 571 L321 571 L321 603 L316 603 L316 603 Z " />
<glyph glyph-name="Egrave" unicode="&#xc8;" horiz-adv-x="319" d="M163 740 L176 740 L122 800 L100 800 L163 740 L163 740 Z M299 20 L61 20 L61 355 L244 355 L244 375 L61 375 L61 680 L294 680 L294 700 L40 700 L40 0 L299 0 L299 20 L299 20 Z " />
<glyph glyph-name="Eacute" unicode="&#xc9;" horiz-adv-x="319" d="M163 740 L176 740 L239 800 L217 800 L163 740 L163 740 Z M299 20 L61 20 L61 355 L244 355 L244 375 L61 375 L61 680 L294 680 L294 700 L40 700 L40 0 L299 0 L299 20 L299 20 Z " />
<glyph glyph-name="Ecircumflex" unicode="&#xca;" horiz-adv-x="319" d="M159 800 L83 740 L96 740 L170 793 L244 741 L257 741 L181 801 L159 800 L159 800 Z M300 21 L62 21 L62 356 L245 356 L245 376 L62 376 L62 681 L295 681 L295 701 L41 701 L41 1 L300 1 L300 21 L300 21 Z " />
<glyph glyph-name="Edieresis" unicode="&#xcb;" horiz-adv-x="319" d="M193 740 L211 740 L211 759 L193 759 L193 740 L193 740 Z M128 740 L146 740 L146 759 L128 759 L128 740 L128 740 Z M299 20 L61 20 L61 355 L244 355 L244 375 L61 375 L61 680 L294 680 L294 700 L40 700 L40 0 L299 0 L299 20 L299 20 Z " />
<glyph glyph-name="Igrave" unicode="&#xcc;" horiz-adv-x="101" d="M61 0 L61 700 L40 700 L40 682 L2 720 L-20 720 L40 669 L40 0 L61 0 L61 0 Z " />
<glyph glyph-name="Icircumflex" unicode="&#xce;" horiz-adv-x="101" d="M39 720 L-36 666 L-23 666 L50 713 L123 666 L136 666 L61 720 L39 720 L39 720 Z M61 0 L61 700 L40 700 L40 0 L61 0 L61 0 Z " />
<glyph glyph-name="Idieresis" unicode="&#xcf;" horiz-adv-x="101" d="M73 740 L92 740 L92 759 L73 759 L73 740 L73 740 Z M8 740 L27 740 L27 759 L8 759 L8 740 L8 740 Z M61 0 L61 700 L40 700 L40 0 L61 0 L61 0 Z " />
<glyph glyph-name="Eth" unicode="&#xd0;" horiz-adv-x="370" d="M-15 353 L40 353 L40 0 L176 0 C312 0 330 13 330 105 L330 595 C330 687 312 700 176 700 L40 700 L40 365 L-15 365 L-15 353 L-15 353 Z M61 19 L61 353 L238 353 L238 365 L61 365 L61 681 L176 681 C293 681 309 671 309 594 L309 105 C309 29 293 19 176 19 L61 19 L61 19 Z " />
<glyph glyph-name="Ntilde" unicode="&#xd1;" horiz-adv-x="372" d="M87 729 L97 729 C89 773 94 779 135 779 C132 779 143 774 183 756 C230 735 243 729 240 729 C290 729 295 736 286 789 L276 789 C284 745 279 739 238 739 C241 739 230 744 190 762 C143 783 130 789 133 789 C83 789 78 782 87 729 L87 729 Z M314 700 L314 22 L69 700 L41 700 L41 0 L59 0 L59 678 L304 0 L332 0 L332 700 L314 700 L314 700 Z " />
<glyph glyph-name="Ograve" unicode="&#xd2;" horiz-adv-x="360" d="M174 740 L186 740 L132 800 L110 800 L174 740 L174 740 Z M299 92 C299 19 285 9 180 9 C75 9 61 19 61 92 L61 608 C61 681 75 691 180 691 C285 691 299 681 299 608 L299 92 L299 92 Z M320 96 L320 604 C320 697 303 710 180 710 C57 710 40 697 40 604 L40 96 C40 3 57 -10 180 -10 C303 -10 320 3 320 96 L320 96 Z " />
<glyph glyph-name="Oacute" unicode="&#xd3;" horiz-adv-x="360" d="M174 740 L186 740 L250 800 L228 800 L174 740 L174 740 Z M299 92 C299 19 285 9 180 9 C75 9 61 19 61 92 L61 608 C61 681 75 691 180 691 C285 691 299 681 299 608 L299 92 L299 92 Z M320 96 L320 604 C320 697 303 710 180 710 C57 710 40 697 40 604 L40 96 C40 3 57 -10 180 -10 C303 -10 320 3 320 96 L320 96 Z " />
<glyph glyph-name="Ocircumflex" unicode="&#xd4;" horiz-adv-x="360" d="M299 92 C299 19 285 9 180 9 C75 9 61 19 61 92 L61 608 C61 681 75 691 180 691 C285 691 299 681 299 608 L299 92 L299 92 Z M320 96 L320 604 C320 697 303 710 180 710 C57 710 40 697 40 604 L40 96 C40 3 57 -10 180 -10 C303 -10 320 3 320 96 L320 96 Z M169 800 L94 740 L107 740 L180 792 L253 740 L266 740 L191 800 L169 800 L169 800 Z " />
<glyph glyph-name="Otilde" unicode="&#xd5;" horiz-adv-x="360" d="M80 729 L90 729 C82 773 87 779 128 779 C125 779 136 774 176 756 C223 735 236 729 234 729 C284 729 289 736 280 789 L270 789 C278 745 273 739 232 739 C235 739 224 744 184 762 C137 783 124 789 126 789 C76 789 71 782 80 729 L80 729 Z M299 92 C299 19 285 9 180 9 C75 9 61 19 61 92 L61 608 C61 681 75 691 180 691 C285 691 299 681 299 608 L299 92 L299 92 Z M320 96 L320 604 C320 697 303 710 180 710 C57 710 40 697 40 604 L40 96 C40 3 57 -10 180 -10 C303 -10 320 3 320 96 L320 96 Z " />
<glyph glyph-name="Odieresis" unicode="&#xd6;" horiz-adv-x="360" d="M203 740 L222 740 L222 759 L203 759 L203 740 L203 740 Z M138 740 L157 740 L157 759 L138 759 L138 740 L138 740 Z M299 92 C299 19 285 9 180 9 C75 9 61 19 61 92 L61 608 C61 681 75 691 180 691 C285 691 299 681 299 608 L299 92 L299 92 Z M320 96 L320 604 C320 697 303 710 180 710 C57 710 40 697 40 604 L40 96 C40 3 57 -10 180 -10 C303 -10 320 3 320 96 L320 96 Z " />
<glyph glyph-name="Oslash" unicode="&#xd8;" horiz-adv-x="360" d="M299 92 C299 19 285 9 180 9 C105 9 77 14 67 44 L298 639 C299 630 299 620 299 608 L299 92 L299 92 Z M320 96 L320 604 C320 635 318 657 311 673 L325 710 L315 710 L305 683 C288 705 252 709 180 709 C57 709 40 696 40 603 L40 95 C40 64 42 42 49 26 L35 -11 L45 -11 L55 16 C72 -6 108 -10 180 -10 C303 -10 320 3 320 96 L320 96 Z M62 61 C61 70 61 80 61 92 L61 608 C61 681 75 691 180 691 C255 691 283 686 293 656 L62 61 L62 61 Z " />
<glyph glyph-name="Ugrave" unicode="&#xd9;" horiz-adv-x="360" d="M174 740 L186 740 L132 800 L110 800 L174 740 L174 740 Z M299 700 L299 92 C299 19 285 9 180 9 C75 9 61 19 61 92 L61 700 L40 700 L40 96 C40 3 57 -10 180 -10 C303 -10 320 3 320 96 L320 700 L299 700 L299 700 Z " />
<glyph glyph-name="Uacute" unicode="&#xda;" horiz-adv-x="360" d="M174 740 L186 740 L250 800 L228 800 L174 740 L174 740 Z M299 700 L299 92 C299 19 285 9 180 9 C75 9 61 19 61 92 L61 700 L40 700 L40 96 C40 3 57 -10 180 -10 C303 -10 320 3 320 96 L320 700 L299 700 L299 700 Z " />
<glyph glyph-name="Ucircumflex" unicode="&#xdb;" horiz-adv-x="360" d="M169 800 L94 740 L107 740 L180 792 L253 740 L266 740 L191 800 L169 800 L169 800 Z M299 700 L299 92 C299 19 285 9 180 9 C75 9 61 19 61 92 L61 700 L40 700 L40 96 C40 3 57 -10 180 -10 C303 -10 320 3 320 96 L320 700 L299 700 L299 700 Z " />
<glyph glyph-name="Udieresis" unicode="&#xdc;" horiz-adv-x="360" d="M203 740 L222 740 L222 759 L203 759 L203 740 L203 740 Z M138 740 L157 740 L157 759 L138 759 L138 740 L138 740 Z M299 700 L299 92 C299 19 285 9 180 9 C75 9 61 19 61 92 L61 700 L40 700 L40 96 C40 3 57 -10 180 -10 C303 -10 320 3 320 96 L320 700 L299 700 L299 700 Z " />
<glyph glyph-name="Yacute" unicode="&#xdd;" horiz-adv-x="383" d="M185 740 L197 740 L261 800 L239 800 L185 740 L185 740 Z M202 0 L202 348 L346 695 C347 695 348 699 348 700 L325 700 L323 695 L192 361 C148 472 104 583 60 694 L60 694 L58 699 L35 699 L36 696 C37 694 37 694 37 694 L182 347 L182 -1 L202 0 L202 0 Z " />
<glyph glyph-name="agrave" unicode="&#xe0;" horiz-adv-x="340" d="M161 640 L174 640 L120 700 L98 700 L161 640 L161 640 Z M305 0 L305 507 C305 598 303 610 171 610 C54 610 38 598 38 507 L38 398 L58 398 L58 510 C58 583 72 593 171 593 C283 593 285 583 285 510 L285 388 C285 300 270 320 160 310 C46 300 30 289 30 217 L30 97 C30 3 46 -10 160 -10 C246 -10 276 -3 285 43 L285 0 L305 0 L305 0 Z M285 321 L285 101 C285 18 271 7 168 7 C64 7 50 18 50 101 L50 217 C50 277 63 286 162 295 C241 302 273 293 285 322 L285 321 L285 321 Z " />
<glyph glyph-name="aacute" unicode="&#xe1;" horiz-adv-x="340" d="M161 640 L174 640 L237 700 L215 700 L161 640 L161 640 Z M305 0 L305 507 C305 598 303 610 171 610 C54 610 38 598 38 507 L38 398 L58 398 L58 510 C58 583 72 593 171 593 C283 593 285 583 285 510 L285 388 C285 300 270 320 160 310 C46 300 30 289 30 217 L30 97 C30 3 46 -10 160 -10 C246 -10 276 -3 285 43 L285 0 L305 0 L305 0 Z M285 321 L285 101 C285 18 271 7 168 7 C64 7 50 18 50 101 L50 217 C50 277 63 286 162 295 C241 302 273 293 285 322 L285 321 L285 321 Z " />
<glyph glyph-name="acircumflex" unicode="&#xe2;" horiz-adv-x="340" d="M305 0 L305 507 C305 598 303 610 171 610 C54 610 38 598 38 507 L38 398 L58 398 L58 510 C58 583 72 593 171 593 C283 593 285 583 285 510 L285 388 C285 300 270 320 160 310 C46 300 30 289 30 217 L30 97 C30 3 46 -10 160 -10 C246 -10 276 -3 285 43 L285 0 L305 0 L305 0 Z M157 700 L81 640 L94 640 L168 693 L242 641 L255 641 L179 701 L157 700 L157 700 Z M286 322 L286 102 C286 19 272 8 169 8 C65 8 51 19 51 102 L51 218 C51 278 64 287 163 296 C242 303 274 294 286 323 L286 322 L286 322 Z " />
<glyph glyph-name="atilde" unicode="&#xe3;" horiz-adv-x="340" d="M68 633 L78 633 C70 677 75 683 116 683 C113 683 124 678 164 660 C211 639 224 633 221 633 C271 633 276 640 267 693 L257 693 C265 649 260 643 219 643 C222 643 211 648 171 666 C124 687 111 693 114 693 C64 693 59 686 68 633 L68 633 Z M305 0 L305 507 C305 598 303 610 171 610 C54 610 38 598 38 507 L38 398 L58 398 L58 510 C58 583 72 593 171 593 C283 593 285 583 285 510 L285 388 C285 300 270 320 160 310 C46 300 30 289 30 217 L30 97 C30 3 46 -10 160 -10 C246 -10 276 -3 285 43 L285 0 L305 0 L305 0 Z M285 321 L285 101 C285 18 271 7 168 7 C64 7 50 18 50 101 L50 217 C50 277 63 286 162 295 C241 302 273 293 285 322 L285 321 L285 321 Z " />
<glyph glyph-name="adieresis" unicode="&#xe4;" horiz-adv-x="340" d="M191 640 L209 640 L209 659 L191 659 L191 640 L191 640 Z M126 640 L144 640 L144 659 L126 659 L126 640 L126 640 Z M305 0 L305 507 C305 598 303 610 171 610 C54 610 38 598 38 507 L38 398 L58 398 L58 510 C58 583 72 593 171 593 C283 593 285 583 285 510 L285 388 C285 300 270 320 160 310 C46 300 30 289 30 217 L30 97 C30 3 46 -10 160 -10 C246 -10 276 -3 285 43 L285 0 L305 0 L305 0 Z M285 321 L285 101 C285 18 271 7 168 7 C64 7 50 18 50 101 L50 217 C50 277 63 286 162 295 C241 302 273 293 285 322 L285 321 L285 321 Z " />
<glyph glyph-name="aring" unicode="&#xe5;" horiz-adv-x="340" d="M141 675 C141 699 144 702 168 702 C191 702 194 699 194 674 C194 650 191 647 168 647 C144 647 141 650 141 675 L141 675 Z M132 674 C132 644 136 640 168 640 C199 640 203 644 203 674 C203 705 199 709 168 709 C136 709 132 705 132 674 L132 674 Z M305 0 L305 507 C305 598 303 610 171 610 C54 610 38 598 38 507 L38 398 L58 398 L58 510 C58 583 72 593 171 593 C283 593 285 583 285 510 L285 388 C285 300 270 320 160 310 C46 300 30 289 30 217 L30 97 C30 3 46 -10 160 -10 C246 -10 276 -3 285 43 L285 0 L305 0 L305 0 Z M285 321 L285 101 C285 18 271 7 168 7 C64 7 50 18 50 101 L50 217 C50 277 63 286 162 295 C241 302 273 293 285 322 L285 321 L285 321 Z " />
<glyph glyph-name="ccedilla" unicode="&#xe7;" horiz-adv-x="350" d="M315 223 L295 223 L295 97 C295 18 281 7 175 7 C69 7 55 18 55 97 L55 503 C55 582 69 593 175 593 C281 593 295 582 295 502 L295 371 L315 371 L315 502 C315 527 314 546 310 561 L310 561 C299 603 266 610 175 610 C52 610 35 597 35 502 L35 98 C35 4 51 -10 169 -10 L143 -45 L152 -45 C158 -41 176 -40 195 -40 C227 -40 231 -43 231 -64 C231 -90 231 -94 195 -94 C155 -94 149 -91 149 -69 L139 -69 C139 -97 146 -101 195 -101 C235 -101 240 -97 240 -71 C240 -39 239 -33 198 -33 C183 -33 168 -34 159 -36 L179 -10 C298 -10 315 4 315 98 L315 223 L315 223 Z " />
<glyph glyph-name="egrave" unicode="&#xe8;" horiz-adv-x="350" d="M169 640 L181 640 L127 700 L105 700 L169 640 L169 640 Z M315 223 L295 223 L295 97 C295 18 281 7 175 7 C69 7 55 18 55 97 L55 313 L315 313 L315 502 C315 597 298 610 175 610 C52 610 35 597 35 502 L35 98 C35 3 52 -10 175 -10 C298 -10 315 3 315 98 L315 223 L315 223 Z M295 330 L55 330 L55 503 C55 582 69 593 175 593 C281 593 295 582 295 502 L295 330 L295 330 Z " />
<glyph glyph-name="eacute" unicode="&#xe9;" horiz-adv-x="350" d="M169 640 L181 640 L245 700 L223 700 L169 640 L169 640 Z M315 223 L295 223 L295 97 C295 18 281 7 175 7 C69 7 55 18 55 97 L55 313 L315 313 L315 502 C315 597 298 610 175 610 C52 610 35 597 35 502 L35 98 C35 3 52 -10 175 -10 C298 -10 315 3 315 98 L315 223 L315 223 Z M295 330 L55 330 L55 503 C55 582 69 593 175 593 C281 593 295 582 295 502 L295 330 L295 330 Z " />
<glyph glyph-name="ecircumflex" unicode="&#xea;" horiz-adv-x="350" d="M315 223 L295 223 L295 97 C295 18 281 7 175 7 C69 7 55 18 55 97 L55 313 L315 313 L315 502 C315 597 298 610 175 610 C52 610 35 597 35 502 L35 98 C35 3 52 -10 175 -10 C298 -10 315 3 315 98 L315 223 L315 223 Z M164 700 L89 640 L102 640 L175 692 L248 640 L261 640 L186 700 L164 700 L164 700 Z M295 330 L55 330 L55 503 C55 582 69 593 175 593 C281 593 295 582 295 502 L295 330 L295 330 Z " />
<glyph glyph-name="edieresis" unicode="&#xeb;" horiz-adv-x="350" d="M198 640 L217 640 L217 659 L198 659 L198 640 L198 640 Z M133 640 L152 640 L152 659 L133 659 L133 640 L133 640 Z M315 223 L295 223 L295 97 C295 18 281 7 175 7 C69 7 55 18 55 97 L55 313 L315 313 L315 502 C315 597 298 610 175 610 C52 610 35 597 35 502 L35 98 C35 3 52 -10 175 -10 C298 -10 315 3 315 98 L315 223 L315 223 Z M295 330 L55 330 L55 503 C55 582 69 593 175 593 C281 593 295 582 295 502 L295 330 L295 330 Z " />
<glyph glyph-name="igrave" unicode="&#xec;" horiz-adv-x="90" d="M39 640 L51 640 L-3 700 L-25 700 L39 640 L39 640 Z M55 0 L55 600 L35 600 L35 0 L55 0 L55 0 Z " />
<glyph glyph-name="iacute" unicode="&#xed;" horiz-adv-x="90" d="M39 640 L51 640 L115 700 L93 700 L39 640 L39 640 Z M55 0 L55 600 L35 600 L35 0 L55 0 L55 0 Z " />
<glyph glyph-name="icircumflex" unicode="&#xee;" horiz-adv-x="90" d="M34 700 L-41 640 L-28 640 L45 692 L118 640 L131 640 L56 700 L34 700 L34 700 Z M55 0 L55 600 L35 600 L35 0 L55 0 L55 0 Z " />
<glyph glyph-name="idieresis" unicode="&#xef;" horiz-adv-x="90" d="M68 640 L87 640 L87 659 L68 659 L68 640 L68 640 Z M3 640 L22 640 L22 659 L3 659 L3 640 L3 640 Z M55 0 L55 600 L35 600 L35 0 L55 0 L55 0 Z " />
<glyph glyph-name="ntilde" unicode="&#xf1;" horiz-adv-x="350" d="M75 634 L85 634 C77 678 82 684 123 684 C120 684 131 679 171 661 C218 640 231 634 229 634 C279 634 284 641 275 694 L265 694 C273 650 268 644 227 644 C230 644 219 649 179 667 C132 688 119 694 121 694 C71 694 66 687 75 634 L75 634 Z M315 0 L315 503 C315 597 299 610 179 610 C98 610 66 603 55 561 L55 600 L35 600 L35 0 L55 0 L55 490 C55 580 69 592 173 592 C280 592 295 581 295 499 L295 0 L315 0 L315 0 Z " />
<glyph glyph-name="ograve" unicode="&#xf2;" horiz-adv-x="350" d="M169 640 L181 640 L127 700 L105 700 L169 640 L169 640 Z M295 95 C295 18 281 7 175 7 C69 7 55 18 55 95 L55 505 C55 582 69 593 175 593 C281 593 295 582 295 505 L295 95 L295 95 Z M315 99 L315 501 C315 597 298 610 175 610 C52 610 35 597 35 501 L35 99 C35 3 52 -10 175 -10 C298 -10 315 3 315 99 L315 99 Z " />
<glyph glyph-name="oacute" unicode="&#xf3;" horiz-adv-x="350" d="M169 640 L181 640 L245 700 L223 700 L169 640 L169 640 Z M295 95 C295 18 281 7 175 7 C69 7 55 18 55 95 L55 505 C55 582 69 593 175 593 C281 593 295 582 295 505 L295 95 L295 95 Z M315 99 L315 501 C315 597 298 610 175 610 C52 610 35 597 35 501 L35 99 C35 3 52 -10 175 -10 C298 -10 315 3 315 99 L315 99 Z " />
<glyph glyph-name="ocircumflex" unicode="&#xf4;" horiz-adv-x="350" d="M295 95 C295 18 281 7 175 7 C69 7 55 18 55 95 L55 505 C55 582 69 593 175 593 C281 593 295 582 295 505 L295 95 L295 95 Z M315 99 L315 501 C315 597 298 610 175 610 C52 610 35 597 35 501 L35 99 C35 3 52 -10 175 -10 C298 -10 315 3 315 99 L315 99 Z M164 700 L89 640 L102 640 L175 692 L248 640 L261 640 L186 700 L164 700 L164 700 Z " />
<glyph glyph-name="otilde" unicode="&#xf5;" horiz-adv-x="350" d="M75 634 L85 634 C77 678 82 684 123 684 C120 684 131 679 171 661 C218 640 231 634 229 634 C279 634 284 641 275 694 L265 694 C273 650 268 644 227 644 C230 644 219 649 179 667 C132 688 119 694 121 694 C71 694 66 687 75 634 L75 634 Z M295 95 C295 18 281 7 175 7 C69 7 55 18 55 95 L55 505 C55 582 69 593 175 593 C281 593 295 582 295 505 L295 95 L295 95 Z M315 99 L315 501 C315 597 298 610 175 610 C52 610 35 597 35 501 L35 99 C35 3 52 -10 175 -10 C298 -10 315 3 315 99 L315 99 Z " />
<glyph glyph-name="odieresis" unicode="&#xf6;" horiz-adv-x="350" d="M198 640 L217 640 L217 659 L198 659 L198 640 L198 640 Z M133 640 L152 640 L152 659 L133 659 L133 640 L133 640 Z M295 95 C295 18 281 7 175 7 C69 7 55 18 55 95 L55 505 C55 582 69 593 175 593 C281 593 295 582 295 505 L295 95 L295 95 Z M315 99 L315 501 C315 597 298 610 175 610 C52 610 35 597 35 501 L35 99 C35 3 52 -10 175 -10 C298 -10 315 3 315 99 L315 99 Z " />
<glyph glyph-name="oslash" unicode="&#xf8;" horiz-adv-x="350" d="M295 95 C295 18 281 7 175 7 C103 7 73 12 61 39 L291 548 C293 537 294 523 294 506 L295 95 L295 95 Z M314 100 L314 502 C314 536 312 560 304 576 L320 611 L310 611 L298 585 C280 606 244 610 174 610 C51 610 34 597 34 501 L34 99 C34 65 36 41 44 25 L28 -10 L38 -10 L50 16 C68 -5 104 -9 174 -9 C297 -9 314 4 314 100 L314 100 Z M57 53 C55 64 54 78 54 95 L54 505 C54 582 68 593 174 593 C246 593 276 588 288 561 L57 53 L57 53 Z " />
<glyph glyph-name="ugrave" unicode="&#xf9;" horiz-adv-x="350" d="M169 640 L181 640 L127 700 L105 700 L169 640 L169 640 Z M315 0 L315 600 L295 600 L295 101 C295 19 281 8 178 8 C70 8 55 19 55 101 L55 600 L35 600 L35 97 C35 3 51 -10 171 -10 C256 -10 286 -2 295 45 L295 0 L315 0 L315 0 Z " />
<glyph glyph-name="uacute" unicode="&#xfa;" horiz-adv-x="350" d="M169 640 L181 640 L245 700 L223 700 L169 640 L169 640 Z M315 0 L315 600 L295 600 L295 101 C295 19 281 8 178 8 C70 8 55 19 55 101 L55 600 L35 600 L35 97 C35 3 51 -10 171 -10 C256 -10 286 -2 295 45 L295 0 L315 0 L315 0 Z " />
<glyph glyph-name="ucircumflex" unicode="&#xfb;" horiz-adv-x="350" d="M164 700 L89 640 L102 640 L175 692 L248 640 L261 640 L186 700 L164 700 L164 700 Z M315 0 L315 600 L295 600 L295 101 C295 19 281 8 178 8 C70 8 55 19 55 101 L55 600 L35 600 L35 97 C35 3 51 -10 171 -10 C256 -10 286 -2 295 45 L295 0 L315 0 L315 0 Z " />
<glyph glyph-name="udieresis" unicode="&#xfc;" horiz-adv-x="350" d="M198 640 L217 640 L217 659 L198 659 L198 640 L198 640 Z M133 640 L152 640 L152 659 L133 659 L133 640 L133 640 Z M315 0 L315 600 L295 600 L295 101 C295 19 281 8 178 8 C70 8 55 19 55 101 L55 600 L35 600 L35 97 C35 3 51 -10 171 -10 C256 -10 286 -2 295 45 L295 0 L315 0 L315 0 Z " />
<glyph glyph-name="yacute" unicode="&#xfd;" horiz-adv-x="350" d="M169 640 L181 640 L245 700 L223 700 L169 640 L169 640 Z M295 600 L295 159 C295 82 281 71 178 71 C70 71 55 82 55 159 L55 600 L35 600 L35 155 C35 65 51 53 171 53 C256 53 286 60 295 104 L295 -30 C295 -78 281 -84 175 -84 C69 -84 55 -78 55 -31 L55 5 L35 5 L35 -28 C35 -92 52 -101 175 -101 C298 -101 315 -92 315 -27 L315 599 L295 600 L295 600 Z " />
<glyph glyph-name="ydieresis" unicode="&#xff;" horiz-adv-x="350" d="M198 640 L217 640 L217 659 L198 659 L198 640 L198 640 Z M133 640 L152 640 L152 659 L133 659 L133 640 L133 640 Z M295 600 L295 159 C295 82 281 71 178 71 C70 71 55 82 55 159 L55 600 L35 600 L35 155 C35 65 51 53 171 53 C256 53 286 60 295 104 L295 -30 C295 -78 281 -84 175 -84 C69 -84 55 -78 55 -31 L55 5 L35 5 L35 -28 C35 -92 52 -101 175 -101 C298 -101 315 -92 315 -27 L315 599 L295 600 L295 600 Z " />
<glyph glyph-name="Amacron" unicode="&#x100;" horiz-adv-x="331" d="M39 746 L292 746 L292 759 L39 759 L39 746 L39 746 Z M152 700 C152 700 151 697 151 695 L16 5 C16 5 15 2 15 0 L36 0 C36 0 37 3 37 5 L37 5 L79 227 L251 227 L294 0 L315 0 C315 2 316 5 315 5 L179 700 L152 700 L152 700 Z M248 246 L83 246 L166 679 L248 246 L248 246 Z " />
<glyph glyph-name="amacron" unicode="&#x101;" horiz-adv-x="340" d="M41 646 L294 646 L294 659 L41 659 L41 646 L41 646 Z M305 0 L305 507 C305 598 303 610 171 610 C54 610 38 598 38 507 L38 398 L58 398 L58 510 C58 583 72 593 171 593 C283 593 285 583 285 510 L285 388 C285 300 270 320 160 310 C46 300 30 289 30 217 L30 97 C30 3 46 -10 160 -10 C246 -10 276 -3 285 43 L285 0 L305 0 L305 0 Z M285 321 L285 101 C285 18 271 7 168 7 C64 7 50 18 50 101 L50 217 C50 277 63 286 162 295 C241 302 273 293 285 322 L285 321 L285 321 Z " />
<glyph glyph-name="Abreve" unicode="&#x102;" horiz-adv-x="331" d="M81 794 L68 794 C68 737 63 740 166 740 C265 740 260 737 260 794 L247 794 C247 749 252 751 166 751 C76 751 81 749 81 794 L81 794 Z M152 700 C152 700 151 697 151 695 L16 5 C16 5 15 2 15 0 L36 0 C36 0 37 3 37 5 L37 5 L79 227 L251 227 L294 0 L315 0 C315 2 316 5 315 5 L179 700 L152 700 L152 700 Z M248 246 L83 246 L166 679 L248 246 L248 246 Z " />
<glyph glyph-name="abreve" unicode="&#x103;" horiz-adv-x="340" d="M89 694 L77 694 C77 637 72 640 174 640 C274 640 269 637 269 694 L256 694 C256 649 261 651 174 651 C84 651 89 649 89 694 L89 694 Z M305 0 L305 507 C305 598 303 610 171 610 C54 610 38 598 38 507 L38 398 L58 398 L58 510 C58 583 72 593 171 593 C283 593 285 583 285 510 L285 388 C285 300 270 320 160 310 C46 300 30 289 30 217 L30 97 C30 3 46 -10 160 -10 C246 -10 276 -3 285 43 L285 0 L305 0 L305 0 Z M285 321 L285 101 C285 18 271 7 168 7 C64 7 50 18 50 101 L50 217 C50 277 63 286 162 295 C241 302 273 293 285 322 L285 321 L285 321 Z " />
<glyph glyph-name="Aogonek" unicode="&#x104;" horiz-adv-x="331" d="M316 0 C316 2 317 5 316 5 L314 13 C316 14 318 14 321 14 L313 14 L179 700 L152 700 C152 700 151 697 151 695 L16 5 C16 5 15 2 15 0 L36 0 C36 0 37 3 37 5 L37 5 L79 227 L251 227 L293 6 C281 -7 279 -34 279 -54 C279 -80 280 -84 310 -84 C343 -84 341 -81 341 -57 L330 -57 C330 -75 331 -77 310 -77 C291 -77 290 -74 290 -55 C290 -36 292 -14 299 0 L316 0 L316 0 Z M247 246 L82 246 L165 679 L247 246 L247 246 Z " />
<glyph glyph-name="aogonek" unicode="&#x105;" horiz-adv-x="340" d="M305 0 L305 13 C307 14 309 14 311 14 L305 14 L305 507 C305 598 303 610 171 610 C54 610 38 598 38 507 L38 398 L58 398 L58 510 C58 583 72 593 171 593 C283 593 285 583 285 510 L285 388 C285 300 270 320 160 310 C46 300 30 289 30 217 L30 97 C30 3 46 -10 160 -10 C246 -10 276 -3 285 43 L285 8 C272 -4 270 -32 270 -53 C270 -79 271 -83 301 -83 C334 -83 332 -80 332 -56 L321 -56 C321 -74 322 -76 301 -76 C282 -76 281 -73 281 -54 C281 -35 283 -13 290 1 L305 0 L305 0 Z M285 322 L285 102 C285 19 271 8 168 8 C64 8 50 19 50 102 L50 218 C50 278 63 287 162 296 C241 303 273 294 285 323 L285 322 L285 322 Z " />
<glyph glyph-name="Cacute" unicode="&#x106;" horiz-adv-x="341" d="M174 740 L187 740 L250 800 L228 800 L174 740 L174 740 Z M316 603 L316 604 L321 603 C321 697 304 710 181 710 C57 710 40 697 40 604 L40 96 C40 3 57 -10 181 -10 C304 -10 321 3 321 97 L321 128 L300 128 L300 94 C300 19 286 9 181 9 C75 9 61 19 61 92 L61 607 C61 681 75 691 181 691 C286 691 300 681 300 607 L300 571 L321 571 L321 603 L316 603 L316 603 Z " />
<glyph glyph-name="cacute" unicode="&#x107;" horiz-adv-x="350" d="M169 640 L181 640 L245 700 L223 700 L169 640 L169 640 Z M315 223 L295 223 L295 97 C295 18 281 7 175 7 C69 7 55 18 55 97 L55 503 C55 582 69 593 175 593 C281 593 295 582 295 502 L295 371 L315 371 L315 502 C315 527 314 546 310 561 L310 561 C299 603 266 610 175 610 C52 610 35 597 35 502 L35 98 C35 3 52 -10 175 -10 C298 -10 315 3 315 98 L315 223 L315 223 Z " />
<glyph glyph-name="Ccircumflex" unicode="&#x108;" horiz-adv-x="341" d="M316 603 L316 604 L321 603 C321 697 304 710 181 710 C57 710 40 697 40 604 L40 96 C40 3 57 -10 181 -10 C304 -10 321 3 321 97 L321 128 L300 128 L300 94 C300 19 286 9 181 9 C75 9 61 19 61 92 L61 607 C61 681 75 691 181 691 C286 691 300 681 300 607 L300 571 L321 571 L321 603 L316 603 L316 603 Z M170 800 L94 740 L107 740 L181 793 L255 741 L268 741 L192 801 L170 800 L170 800 Z " />
<glyph glyph-name="ccircumflex" unicode="&#x109;" horiz-adv-x="350" d="M315 223 L295 223 L295 97 C295 18 281 7 175 7 C69 7 55 18 55 97 L55 503 C55 582 69 593 175 593 C281 593 295 582 295 502 L295 371 L315 371 L315 502 C315 527 314 546 310 561 L310 561 C299 603 266 610 175 610 C52 610 35 597 35 502 L35 98 C35 3 52 -10 175 -10 C298 -10 315 3 315 98 L315 223 L315 223 Z M164 700 L89 640 L102 640 L175 692 L248 640 L261 640 L186 700 L164 700 L164 700 Z " />
<glyph glyph-name="Cdot" unicode="&#x10a;" horiz-adv-x="341" d="M170 729 L191 729 L191 750 L170 750 L170 729 L170 729 Z M316 603 L316 604 L321 603 C321 697 304 710 181 710 C57 710 40 697 40 604 L40 96 C40 3 57 -10 181 -10 C304 -10 321 3 321 97 L321 128 L300 128 L300 94 C300 19 286 9 181 9 C75 9 61 19 61 92 L61 607 C61 681 75 691 181 691 C286 691 300 681 300 607 L300 571 L321 571 L321 603 L316 603 L316 603 Z " />
<glyph glyph-name="cdot" unicode="&#x10b;" horiz-adv-x="350" d="M164 629 L186 629 L186 650 L164 650 L164 629 L164 629 Z M315 223 L295 223 L295 97 C295 18 281 7 175 7 C69 7 55 18 55 97 L55 503 C55 582 69 593 175 593 C281 593 295 582 295 502 L295 371 L315 371 L315 502 C315 527 314 546 310 561 L310 561 C299 603 266 610 175 610 C52 610 35 597 35 502 L35 98 C35 3 52 -10 175 -10 C298 -10 315 3 315 98 L315 223 L315 223 Z " />
<glyph glyph-name="Ccaron" unicode="&#x10c;" horiz-adv-x="341" d="M254 794 L181 747 L108 794 L95 794 L171 740 L192 740 L268 794 L254 794 L254 794 Z M317 603 L317 604 L322 603 C322 697 305 710 182 710 C58 710 41 697 41 604 L41 96 C41 3 58 -10 182 -10 C305 -10 322 3 322 97 L322 128 L301 128 L301 94 C301 19 287 9 182 9 C76 9 62 19 62 92 L62 607 C62 681 76 691 182 691 C287 691 301 681 301 607 L301 571 L322 571 L322 603 L317 603 L317 603 Z " />
<glyph glyph-name="ccaron" unicode="&#x10d;" horiz-adv-x="350" d="M248 700 L175 648 L102 700 L89 700 L164 640 L186 640 L261 700 L248 700 L248 700 Z M315 223 L295 223 L295 97 C295 18 281 7 175 7 C69 7 55 18 55 97 L55 503 C55 582 69 593 175 593 C281 593 295 582 295 502 L295 371 L315 371 L315 502 C315 527 314 546 310 561 L310 561 C299 603 266 610 175 610 C52 610 35 597 35 502 L35 98 C35 3 52 -10 175 -10 C298 -10 315 3 315 98 L315 223 L315 223 Z " />
<glyph glyph-name="Dcaron" unicode="&#x10e;" horiz-adv-x="370" d="M258 794 L185 747 L112 794 L99 794 L174 740 L196 740 L271 794 L258 794 L258 794 Z M176 0 C312 0 330 13 330 105 L330 595 C330 687 312 700 176 700 L40 700 L40 0 L176 0 L176 0 Z M61 19 L61 681 L176 681 C293 681 309 671 309 594 L309 105 C309 29 293 19 176 19 L61 19 L61 19 Z " />
<glyph glyph-name="dcaron" unicode="&#x10f;" horiz-adv-x="350" d="M365 603 L394 700 L375 700 L355 603 L365 603 L365 603 Z M315 0 L315 700 L295 700 L295 560 C286 603 256 610 171 610 C51 610 35 597 35 502 L35 97 C35 3 51 -10 171 -10 C256 -10 286 -2 295 45 L295 0 L315 0 L315 0 Z M295 101 C295 19 281 8 178 8 C70 8 55 19 55 101 L55 503 C55 582 70 593 178 593 C281 593 295 582 295 503 L295 101 L295 101 Z " />
<glyph glyph-name="Dcroat" unicode="&#x110;" horiz-adv-x="370" d="M-15 353 L40 353 L40 0 L176 0 C312 0 330 13 330 105 L330 595 C330 687 312 700 176 700 L40 700 L40 365 L-15 365 L-15 353 L-15 353 Z M61 19 L61 353 L238 353 L238 365 L61 365 L61 681 L176 681 C293 681 309 671 309 594 L309 105 C309 29 293 19 176 19 L61 19 L61 19 Z " />
<glyph glyph-name="dcroat" unicode="&#x111;" horiz-adv-x="350" d="M315 0 L315 640 L437 640 L437 652 L315 652 L315 700 L295 700 L295 652 L184 652 L184 640 L295 640 L295 560 C286 603 256 610 171 610 C51 610 35 597 35 502 L35 97 C35 3 51 -10 171 -10 C256 -10 286 -2 295 45 L295 0 L315 0 L315 0 Z M295 101 C295 19 281 8 178 8 C70 8 55 19 55 101 L55 503 C55 582 70 593 178 593 C281 593 295 582 295 503 L295 101 L295 101 Z " />
<glyph glyph-name="Emacron" unicode="&#x112;" horiz-adv-x="319" d="M43 746 L296 746 L296 759 L43 759 L43 746 L43 746 Z M299 20 L61 20 L61 355 L244 355 L244 375 L61 375 L61 680 L294 680 L294 700 L40 700 L40 0 L299 0 L299 20 L299 20 Z " />
<glyph glyph-name="emacron" unicode="&#x113;" horiz-adv-x="350" d="M48 646 L302 646 L302 659 L48 659 L48 646 L48 646 Z M315 223 L295 223 L295 97 C295 18 281 7 175 7 C69 7 55 18 55 97 L55 313 L315 313 L315 502 C315 597 298 610 175 610 C52 610 35 597 35 502 L35 98 C35 3 52 -10 175 -10 C298 -10 315 3 315 98 L315 223 L315 223 Z M295 330 L55 330 L55 503 C55 582 69 593 175 593 C281 593 295 582 295 502 L295 330 L295 330 Z " />
<glyph glyph-name="Ebreve" unicode="&#x114;" horiz-adv-x="319" d="M85 794 L72 794 C72 737 67 740 170 740 C269 740 264 737 264 794 L251 794 C251 749 256 751 170 751 C80 751 85 749 85 794 L85 794 Z M299 20 L61 20 L61 355 L244 355 L244 375 L61 375 L61 680 L294 680 L294 700 L40 700 L40 0 L299 0 L299 20 L299 20 Z " />
<glyph glyph-name="ebreve" unicode="&#x115;" horiz-adv-x="350" d="M90 694 L77 694 C77 637 72 640 175 640 C275 640 270 637 270 694 L257 694 C257 649 262 651 175 651 C85 651 90 649 90 694 L90 694 Z M315 223 L295 223 L295 97 C295 18 281 7 175 7 C69 7 55 18 55 97 L55 313 L315 313 L315 502 C315 597 298 610 175 610 C52 610 35 597 35 502 L35 98 C35 3 52 -10 175 -10 C298 -10 315 3 315 98 L315 223 L315 223 Z M295 330 L55 330 L55 503 C55 582 69 593 175 593 C281 593 295 582 295 502 L295 330 L295 330 Z " />
<glyph glyph-name="Edot" unicode="&#x116;" horiz-adv-x="319" d="M159 729 L180 729 L180 750 L159 750 L159 729 L159 729 Z M299 20 L61 20 L61 355 L244 355 L244 375 L61 375 L61 680 L294 680 L294 700 L40 700 L40 0 L299 0 L299 20 L299 20 Z " />
<glyph glyph-name="edot" unicode="&#x117;" horiz-adv-x="350" d="M164 629 L186 629 L186 650 L164 650 L164 629 L164 629 Z M315 223 L295 223 L295 97 C295 18 281 7 175 7 C69 7 55 18 55 97 L55 313 L315 313 L315 502 C315 597 298 610 175 610 C52 610 35 597 35 502 L35 98 C35 3 52 -10 175 -10 C298 -10 315 3 315 98 L315 223 L315 223 Z M295 330 L55 330 L55 503 C55 582 69 593 175 593 C281 593 295 582 295 502 L295 330 L295 330 Z " />
<glyph glyph-name="Eogonek" unicode="&#x118;" horiz-adv-x="319" d="M299 20 L61 20 L61 355 L244 355 L244 375 L61 375 L61 680 L294 680 L294 700 L40 700 L40 0 L231 0 C223 -14 221 -37 221 -54 C221 -80 222 -84 253 -84 C286 -84 284 -81 284 -57 L273 -57 C273 -75 274 -77 252 -77 C233 -77 232 -74 232 -55 C232 -36 234 -14 241 0 L299 0 L299 20 L299 20 Z " />
<glyph glyph-name="eogonek" unicode="&#x119;" horiz-adv-x="350" d="M315 223 L295 223 L295 97 C295 18 281 7 175 7 C69 7 55 18 55 97 L55 313 L315 313 L315 502 C315 597 298 610 175 610 C52 610 35 597 35 502 L35 98 C35 3 52 -10 175 -10 C208 -10 233 -9 252 -6 C240 -19 238 -46 238 -66 C238 -93 239 -97 269 -97 C302 -97 300 -94 300 -69 L289 -69 C289 -87 290 -89 269 -89 C249 -89 248 -86 248 -67 C248 -44 250 -15 263 -3 C306 8 314 35 314 99 L315 223 L315 223 Z M294 331 L54 331 L54 504 C54 583 68 594 174 594 C280 594 294 583 294 503 L294 331 L294 331 Z " />
<glyph glyph-name="Ecaron" unicode="&#x11a;" horiz-adv-x="319" d="M243 800 L170 748 L97 801 L84 801 L160 741 L181 741 L257 801 L243 800 L243 800 Z M300 21 L62 21 L62 356 L245 356 L245 376 L62 376 L62 681 L295 681 L295 701 L41 701 L41 1 L300 1 L300 21 L300 21 Z " />
<glyph glyph-name="ecaron" unicode="&#x11b;" horiz-adv-x="350" d="M248 700 L175 648 L102 700 L89 700 L164 640 L186 640 L261 700 L248 700 L248 700 Z M315 223 L295 223 L295 97 C295 18 281 7 175 7 C69 7 55 18 55 97 L55 313 L315 313 L315 502 C315 597 298 610 175 610 C52 610 35 597 35 502 L35 98 C35 3 52 -10 175 -10 C298 -10 315 3 315 98 L315 223 L315 223 Z M295 330 L55 330 L55 503 C55 582 69 593 175 593 C281 593 295 582 295 502 L295 330 L295 330 Z " />
<glyph glyph-name="Gcircumflex" unicode="&#x11c;" horiz-adv-x="361" d="M170 800 L94 740 L107 740 L181 793 L255 741 L268 741 L192 801 L170 800 L170 800 Z M317 605 L320 604 L317 604 L317 605 L317 605 Z M261 339 L261 320 L301 320 L301 95 C301 20 287 10 182 10 C76 10 62 20 62 93 L62 608 C62 682 76 692 182 692 C287 692 301 682 301 608 L301 572 L322 572 L322 604 C322 698 305 711 182 711 C58 711 41 698 41 605 L41 97 C41 4 58 -9 182 -9 C272 -9 305 -2 316 38 C320 27 327 14 336 -4 L337 -3 C323 24 321 36 321 98 L321 339 L261 339 L261 339 Z " />
<glyph glyph-name="gcircumflex" unicode="&#x11d;" horiz-adv-x="350" d="M164 700 L89 640 L102 640 L175 692 L248 640 L261 640 L186 700 L164 700 L164 700 Z M295 600 L295 559 C286 602 256 609 171 609 C51 609 35 596 35 501 L35 154 C35 64 51 52 171 52 C256 52 286 59 295 103 L295 -31 C295 -79 281 -85 175 -85 C69 -85 55 -79 55 -32 L55 4 L35 4 L35 -29 C35 -93 52 -102 175 -102 C298 -102 315 -93 315 -28 L315 598 L295 600 L295 600 Z M295 157 C295 80 281 69 178 69 C70 69 55 80 55 157 L55 501 C55 580 70 591 178 591 C281 591 295 580 295 500 L295 157 L295 157 Z " />
<glyph glyph-name="Gbreve" unicode="&#x11e;" horiz-adv-x="361" d="M96 794 L83 794 C83 737 78 740 181 740 C280 740 275 737 275 794 L262 794 C262 749 267 751 181 751 C91 751 96 749 96 794 L96 794 Z M316 604 L319 603 L316 603 L316 604 L316 604 Z M260 338 L260 319 L300 319 L300 94 C300 19 286 9 181 9 C75 9 61 19 61 92 L61 607 C61 681 75 691 181 691 C286 691 300 681 300 607 L300 571 L321 571 L321 603 C321 697 304 710 181 710 C57 710 40 697 40 604 L40 96 C40 3 57 -10 181 -10 C271 -10 304 -3 315 37 C319 26 326 13 335 -5 L336 -4 C322 23 320 35 320 97 L320 338 L260 338 L260 338 Z " />
<glyph glyph-name="gbreve" unicode="&#x11f;" horiz-adv-x="350" d="M90 694 L77 694 C77 637 72 640 175 640 C275 640 270 637 270 694 L257 694 C257 649 262 651 175 651 C85 651 90 649 90 694 L90 694 Z M295 600 L295 559 C286 602 256 609 171 609 C51 609 35 596 35 501 L35 154 C35 64 51 52 171 52 C256 52 286 59 295 103 L295 -31 C295 -79 281 -85 175 -85 C69 -85 55 -79 55 -32 L55 4 L35 4 L35 -29 C35 -93 52 -102 175 -102 C298 -102 315 -93 315 -28 L315 598 L295 600 L295 600 Z M295 157 C295 80 281 69 178 69 C70 69 55 80 55 157 L55 501 C55 580 70 591 178 591 C281 591 295 580 295 500 L295 157 L295 157 Z " />
<glyph glyph-name="Gdot" unicode="&#x120;" horiz-adv-x="361" d="M170 729 L191 729 L191 750 L170 750 L170 729 L170 729 Z M316 604 L319 603 L316 603 L316 604 L316 604 Z M260 338 L260 319 L300 319 L300 94 C300 19 286 9 181 9 C75 9 61 19 61 92 L61 607 C61 681 75 691 181 691 C286 691 300 681 300 607 L300 571 L321 571 L321 603 C321 697 304 710 181 710 C57 710 40 697 40 604 L40 96 C40 3 57 -10 181 -10 C271 -10 304 -3 315 37 C319 26 326 13 335 -5 L336 -4 C322 23 320 35 320 97 L320 338 L260 338 L260 338 Z " />
<glyph glyph-name="gdot" unicode="&#x121;" horiz-adv-x="350" d="M164 629 L186 629 L186 650 L164 650 L164 629 L164 629 Z M295 600 L295 559 C286 602 256 609 171 609 C51 609 35 596 35 501 L35 154 C35 64 51 52 171 52 C256 52 286 59 295 103 L295 -31 C295 -79 281 -85 175 -85 C69 -85 55 -79 55 -32 L55 4 L35 4 L35 -29 C35 -93 52 -102 175 -102 C298 -102 315 -93 315 -28 L315 598 L295 600 L295 600 Z M295 157 C295 80 281 69 178 69 C70 69 55 80 55 157 L55 501 C55 580 70 591 178 591 C281 591 295 580 295 500 L295 157 L295 157 Z " />
<glyph glyph-name="Hcircumflex" unicode="&#x124;" horiz-adv-x="370" d="M174 800 L99 740 L112 740 L185 792 L258 740 L271 740 L196 800 L174 800 L174 800 Z M330 0 L330 700 L309 700 L309 373 L61 373 L61 700 L40 700 L40 0 L61 0 L61 355 L309 355 L309 0 L330 0 L330 0 Z " />
<glyph glyph-name="hcircumflex" unicode="&#x125;" horiz-adv-x="350" d="M164 800 L89 740 L102 740 L175 792 L248 740 L261 740 L186 800 L164 800 L164 800 Z M315 0 L315 503 C315 597 299 610 179 610 C98 610 66 603 55 561 L55 700 L35 700 L35 0 L55 0 L55 490 C55 580 69 592 173 592 C280 592 295 581 295 499 L295 0 L315 0 L315 0 Z " />
<glyph glyph-name="Itilde" unicode="&#x128;" horiz-adv-x="101" d="M-50 729 L-40 729 C-48 773 -43 779 -2 779 C-5 779 6 774 46 756 C93 735 106 729 104 729 C154 729 159 736 150 789 L140 789 C148 745 143 739 102 739 C105 739 94 744 54 762 C7 783 -6 789 -4 789 C-54 789 -59 782 -50 729 L-50 729 Z M61 0 L61 700 L40 700 L40 0 L61 0 L61 0 Z " />
<glyph glyph-name="itilde" unicode="&#x129;" horiz-adv-x="90" d="M-55 629 L-45 629 C-53 673 -48 679 -7 679 C-10 679 1 674 41 656 C88 635 101 629 99 629 C149 629 154 636 145 689 L135 689 C143 645 138 639 97 639 C100 639 89 644 49 662 C2 683 -11 689 -9 689 C-59 689 -64 682 -55 629 L-55 629 Z M55 0 L55 600 L35 600 L35 0 L55 0 L55 0 Z " />
<glyph glyph-name="Imacron" unicode="&#x12a;" horiz-adv-x="101" d="M-77 746 L177 746 L177 759 L-77 759 L-77 746 L-77 746 Z M61 0 L61 700 L40 700 L40 0 L61 0 L61 0 Z " />
<glyph glyph-name="imacron" unicode="&#x12b;" horiz-adv-x="90" d="M-82 646 L172 646 L172 659 L-82 659 L-82 646 L-82 646 Z M55 0 L55 600 L35 600 L35 0 L55 0 L55 0 Z " />
<glyph glyph-name="Iogonek" unicode="&#x12e;" horiz-adv-x="101" d="M61 0 L61 13 C63 13 65 13 67 13 L62 13 L62 699 L41 699 L41 7 C28 -5 26 -33 26 -54 C26 -80 27 -84 57 -84 C90 -84 88 -81 88 -57 L77 -57 C77 -75 78 -77 57 -77 C38 -77 37 -74 37 -55 C37 -36 39 -14 46 0 L61 0 L61 0 Z " />
<glyph glyph-name="iogonek" unicode="&#x12f;" horiz-adv-x="90" d="M34 633 L56 633 L56 654 L34 654 L34 633 L34 633 Z M55 0 L55 13 C57 14 59 14 61 14 L55 14 L55 600 L35 600 L35 8 C22 -4 20 -32 20 -53 C20 -79 21 -83 51 -83 C84 -83 82 -80 82 -56 L71 -56 C71 -74 72 -76 51 -76 C32 -76 31 -73 31 -54 C31 -35 33 -13 40 1 L55 0 L55 0 Z " />
<glyph glyph-name="Idot" unicode="&#x130;" horiz-adv-x="101" d="M39 729 L61 729 L61 750 L39 750 L39 729 L39 729 Z M61 0 L61 700 L40 700 L40 0 L61 0 L61 0 Z " />
<glyph glyph-name="dotlessi" unicode="&#x131;" horiz-adv-x="90" d="M55 0 L55 600 L35 600 L35 0 L55 0 L55 0 Z " />
<glyph glyph-name="Jcircumflex" unicode="&#x134;" horiz-adv-x="329" d="M268 800 L193 740 L206 740 L279 792 L352 740 L365 740 L290 800 L268 800 L268 800 Z M269 700 L269 92 C269 19 255 9 150 9 C45 9 31 19 31 90 L31 141 L10 141 C10 106 9 93 9 93 C7 2 26 -10 149 -10 C272 -10 289 2 289 93 L289 700 L269 700 L269 700 Z " />
<glyph glyph-name="Lacute" unicode="&#x139;" horiz-adv-x="299" d="M284 20 L61 20 L61 669 L120 720 L98 720 L61 683 L61 700 L40 700 L40 0 L284 0 L284 20 L284 20 Z " />
<glyph glyph-name="lacute" unicode="&#x13a;" horiz-adv-x="90" d="M39 740 L51 740 L115 800 L93 800 L39 740 L39 740 Z M55 0 L55 700 L35 700 L35 0 L55 0 L55 0 Z " />
<glyph glyph-name="Lcaron" unicode="&#x13d;" horiz-adv-x="299" d="M111 603 L140 700 L121 700 L101 603 L111 603 L111 603 Z M284 20 L61 20 L61 700 L40 700 L40 0 L284 0 L284 20 L284 20 Z " />
<glyph glyph-name="lcaron" unicode="&#x13e;" horiz-adv-x="90" d="M113 603 L142 700 L123 700 L103 603 L113 603 L113 603 Z M55 0 L55 700 L35 700 L35 0 L55 0 L55 0 Z " />
<glyph glyph-name="Nacute" unicode="&#x143;" horiz-adv-x="372" d="M180 740 L193 740 L256 800 L234 800 L180 740 L180 740 Z M314 700 L314 22 L69 700 L41 700 L41 0 L59 0 L59 678 L304 0 L332 0 L332 700 L314 700 L314 700 Z " />
<glyph glyph-name="nacute" unicode="&#x144;" horiz-adv-x="350" d="M169 640 L181 640 L245 700 L223 700 L169 640 L169 640 Z M315 0 L315 503 C315 597 299 610 179 610 C98 610 66 603 55 561 L55 600 L35 600 L35 0 L55 0 L55 490 C55 580 69 592 173 592 C280 592 295 581 295 499 L295 0 L315 0 L315 0 Z " />
<glyph glyph-name="Ncaron" unicode="&#x147;" horiz-adv-x="372" d="M260 800 L187 748 L114 801 L101 801 L177 741 L198 741 L274 801 L260 800 L260 800 Z M315 701 L315 23 L70 701 L42 701 L42 1 L60 1 L60 679 L305 1 L333 1 L333 701 L315 701 L315 701 Z " />
<glyph glyph-name="ncaron" unicode="&#x148;" horiz-adv-x="350" d="M248 700 L175 648 L102 700 L89 700 L164 640 L186 640 L261 700 L248 700 L248 700 Z M315 0 L315 503 C315 597 299 610 179 610 C98 610 66 603 55 561 L55 600 L35 600 L35 0 L55 0 L55 490 C55 580 69 592 173 592 C280 592 295 581 295 499 L295 0 L315 0 L315 0 Z " />
<glyph glyph-name="Omacron" unicode="&#x14c;" horiz-adv-x="360" d="M53 746 L307 746 L307 759 L53 759 L53 746 L53 746 Z M299 92 C299 19 285 9 180 9 C75 9 61 19 61 92 L61 608 C61 681 75 691 180 691 C285 691 299 681 299 608 L299 92 L299 92 Z M320 96 L320 604 C320 697 303 710 180 710 C57 710 40 697 40 604 L40 96 C40 3 57 -10 180 -10 C303 -10 320 3 320 96 L320 96 Z " />
<glyph glyph-name="omacron" unicode="&#x14d;" horiz-adv-x="350" d="M48 646 L302 646 L302 659 L48 659 L48 646 L48 646 Z M295 95 C295 18 281 7 175 7 C69 7 55 18 55 95 L55 505 C55 582 69 593 175 593 C281 593 295 582 295 505 L295 95 L295 95 Z M315 99 L315 501 C315 597 298 610 175 610 C52 610 35 597 35 501 L35 99 C35 3 52 -10 175 -10 C298 -10 315 3 315 99 L315 99 Z " />
<glyph glyph-name="Obreve" unicode="&#x14e;" horiz-adv-x="360" d="M95 794 L82 794 C82 737 77 740 180 740 C280 740 275 737 275 794 L262 794 C262 749 267 751 180 751 C90 751 95 749 95 794 L95 794 Z M299 92 C299 19 285 9 180 9 C75 9 61 19 61 92 L61 608 C61 681 75 691 180 691 C285 691 299 681 299 608 L299 92 L299 92 Z M320 96 L320 604 C320 697 303 710 180 710 C57 710 40 697 40 604 L40 96 C40 3 57 -10 180 -10 C303 -10 320 3 320 96 L320 96 Z " />
<glyph glyph-name="obreve" unicode="&#x14f;" horiz-adv-x="350" d="M90 694 L77 694 C77 637 72 640 175 640 C275 640 270 637 270 694 L257 694 C257 649 262 651 175 651 C85 651 90 649 90 694 L90 694 Z M295 95 C295 18 281 7 175 7 C69 7 55 18 55 95 L55 505 C55 582 69 593 175 593 C281 593 295 582 295 505 L295 95 L295 95 Z M315 99 L315 501 C315 597 298 610 175 610 C52 610 35 597 35 501 L35 99 C35 3 52 -10 175 -10 C298 -10 315 3 315 99 L315 99 Z " />
<glyph glyph-name="Racute" unicode="&#x154;" horiz-adv-x="370" d="M179 740 L191 740 L255 800 L233 800 L179 740 L179 740 Z M61 0 L61 341 L195 341 C295 341 309 332 309 261 L309 0 L330 0 L330 262 C330 315 324 340 291 351 C324 365 330 395 330 460 L330 595 C330 687 314 700 195 700 L40 700 L40 0 L61 0 L61 0 Z M195 360 L61 360 L61 681 L195 681 C295 681 309 671 309 594 L309 460 C309 372 295 360 195 360 L195 360 Z " />
<glyph glyph-name="racute" unicode="&#x155;" horiz-adv-x="316" d="M164 640 L177 640 L240 700 L218 700 L164 640 L164 640 Z M35 600 L35 0 L55 0 L55 490 C55 580 69 592 168 592 C272 592 286 581 286 499 L286 407 L306 407 L306 503 C306 597 290 610 175 610 C97 610 66 603 55 562 L55 600 L35 600 L35 600 Z " />
<glyph glyph-name="Rcaron" unicode="&#x158;" horiz-adv-x="370" d="M258 800 L185 748 L112 800 L99 800 L174 740 L196 740 L271 800 L258 800 L258 800 Z M61 0 L61 341 L195 341 C295 341 309 332 309 261 L309 0 L330 0 L330 262 C330 315 324 340 291 351 C324 365 330 395 330 460 L330 595 C330 687 314 700 195 700 L40 700 L40 0 L61 0 L61 0 Z M195 360 L61 360 L61 681 L195 681 C295 681 309 671 309 594 L309 460 C309 372 295 360 195 360 L195 360 Z " />
<glyph glyph-name="rcaron" unicode="&#x159;" horiz-adv-x="316" d="M244 700 L171 648 L98 701 L85 701 L161 641 L182 641 L258 701 L244 700 L244 700 Z M36 601 L36 1 L56 1 L56 491 C56 581 70 593 169 593 C273 593 287 582 287 500 L287 408 L307 408 L307 504 C307 598 291 611 176 611 C98 611 67 604 56 563 L56 601 L36 601 L36 601 Z " />
<glyph glyph-name="Sacute" unicode="&#x15a;" horiz-adv-x="328" d="M158 740 L170 740 L234 800 L212 800 L158 740 L158 740 Z M25 133 L25 89 C25 66 26 48 30 34 L30 34 C41 -4 74 -11 164 -11 C286 -11 303 4 303 111 C303 203 299 221 172 361 C50 496 46 503 46 592 C46 678 60 690 165 690 C268 690 282 680 282 610 L282 572 L303 572 L303 610 C303 633 302 651 298 665 L298 665 C287 703 254 710 165 710 C43 710 26 696 26 590 C26 493 30 485 156 346 C278 211 282 195 282 108 C282 21 268 9 164 9 C60 9 46 19 46 89 L46 133 L25 133 L25 133 Z " />
<glyph glyph-name="sacute" unicode="&#x15b;" horiz-adv-x="318" d="M154 640 L166 640 L230 700 L208 700 L154 640 L154 640 Z M20 195 L20 93 C20 2 37 -10 159 -10 C281 -10 298 5 298 118 C298 189 294 203 165 308 C45 406 41 412 41 489 C41 581 55 593 160 593 C264 593 278 583 278 507 L278 414 L298 414 L298 507 C298 598 281 610 160 610 C38 610 21 595 21 486 C21 403 25 397 153 292 C274 193 278 181 278 114 C278 20 264 7 159 7 C54 7 40 17 40 93 L40 195 L20 195 L20 195 Z " />
<glyph glyph-name="Scircumflex" unicode="&#x15c;" horiz-adv-x="328" d="M25 133 L25 89 C25 66 26 48 30 34 L30 34 C41 -4 74 -11 164 -11 C286 -11 303 4 303 111 C303 203 299 221 172 361 C50 496 46 503 46 592 C46 678 60 690 165 690 C268 690 282 680 282 610 L282 572 L303 572 L303 610 C303 633 302 651 298 665 L298 665 C287 703 254 710 165 710 C43 710 26 696 26 590 C26 493 30 485 156 346 C278 211 282 195 282 108 C282 21 268 9 164 9 C60 9 46 19 46 89 L46 133 L25 133 L25 133 Z M153 800 L78 740 L91 740 L164 792 L237 740 L250 740 L175 800 L153 800 L153 800 Z " />
<glyph glyph-name="scircumflex" unicode="&#x15d;" horiz-adv-x="318" d="M20 195 L20 93 C20 2 37 -10 159 -10 C281 -10 298 5 298 118 C298 189 294 203 165 308 C45 406 41 412 41 489 C41 581 55 593 160 593 C264 593 278 583 278 507 L278 414 L298 414 L298 507 C298 598 281 610 160 610 C38 610 21 595 21 486 C21 403 25 397 153 292 C274 193 278 181 278 114 C278 20 264 7 159 7 C54 7 40 17 40 93 L40 195 L20 195 L20 195 Z M149 700 L74 640 L87 640 L160 692 L233 640 L246 640 L171 700 L149 700 L149 700 Z " />
<glyph glyph-name="Scedilla" unicode="&#x15e;" horiz-adv-x="328" d="M25 133 L25 89 C25 66 26 48 30 34 L30 34 C41 -4 73 -11 159 -11 L133 -46 L142 -46 C148 -42 166 -41 185 -41 C217 -41 221 -44 221 -65 C221 -91 221 -95 185 -95 C145 -95 139 -92 139 -70 L129 -70 C129 -98 136 -102 185 -102 C225 -102 230 -98 230 -72 C230 -40 229 -34 188 -34 C173 -34 158 -35 149 -37 L169 -11 C287 -11 304 5 304 111 C304 203 300 221 173 361 C51 496 47 503 47 592 C47 678 61 690 166 690 C269 690 283 680 283 610 L283 572 L304 572 L304 610 C304 633 303 651 299 665 L299 665 C288 703 255 710 166 710 C44 710 27 696 27 590 C27 493 31 485 157 346 C279 211 283 195 283 108 C283 21 269 9 165 9 C61 9 47 19 47 89 L47 133 L25 133 L25 133 Z " />
<glyph glyph-name="scedilla" unicode="&#x15f;" horiz-adv-x="318" d="M20 195 L20 93 C20 3 36 -10 153 -10 L127 -45 L136 -45 C142 -41 160 -40 179 -40 C211 -40 215 -43 215 -64 C215 -90 215 -94 179 -94 C139 -94 133 -91 133 -69 L123 -69 C123 -97 130 -101 179 -101 C219 -101 224 -97 224 -71 C224 -39 223 -33 182 -33 C167 -33 152 -34 143 -36 L163 -10 C281 -10 298 6 298 118 C298 189 294 203 165 308 C45 406 41 412 41 489 C41 581 55 593 160 593 C264 593 278 583 278 507 L278 414 L298 414 L298 507 C298 598 281 610 160 610 C38 610 21 595 21 486 C21 403 25 397 153 292 C274 193 278 181 278 114 C278 20 264 7 159 7 C54 7 40 17 40 93 L40 195 L20 195 L20 195 Z " />
<glyph glyph-name="Scaron" unicode="&#x160;" horiz-adv-x="328" d="M237 800 L164 748 L91 800 L78 800 L153 740 L175 740 L250 800 L237 800 L237 800 Z M25 133 L25 89 C25 66 26 48 30 34 L30 34 C41 -4 74 -11 164 -11 C286 -11 303 4 303 111 C303 203 299 221 172 361 C50 496 46 503 46 592 C46 678 60 690 165 690 C268 690 282 680 282 610 L282 572 L303 572 L303 610 C303 633 302 651 298 665 L298 665 C287 703 254 710 165 710 C43 710 26 696 26 590 C26 493 30 485 156 346 C278 211 282 195 282 108 C282 21 268 9 164 9 C60 9 46 19 46 89 L46 133 L25 133 L25 133 Z " />
<glyph glyph-name="scaron" unicode="&#x161;" horiz-adv-x="318" d="M233 700 L160 648 L87 700 L74 700 L149 640 L171 640 L246 700 L233 700 L233 700 Z M20 195 L20 93 C20 2 37 -10 159 -10 C281 -10 298 5 298 118 C298 189 294 203 165 308 C45 406 41 412 41 489 C41 581 55 593 160 593 C264 593 278 583 278 507 L278 414 L298 414 L298 507 C298 598 281 610 160 610 C38 610 21 595 21 486 C21 403 25 397 153 292 C274 193 278 181 278 114 C278 20 264 7 159 7 C54 7 40 17 40 93 L40 195 L20 195 L20 195 Z " />
<glyph glyph-name="Tcaron" unicode="&#x164;" horiz-adv-x="329" d="M238 794 L165 747 L92 794 L79 794 L155 740 L176 740 L252 794 L238 794 L238 794 Z M176 0 L176 681 L325 681 L325 700 L6 700 L6 681 L155 681 L155 0 L176 0 L176 0 Z " />
<glyph glyph-name="tcaron" unicode="&#x165;" horiz-adv-x="372" d="M154 619 L183 716 L164 716 L144 619 L154 619 L154 619 Z M362 213 L342 213 L342 97 C342 18 328 7 227 7 C126 7 112 18 112 97 L112 581 L330 581 L330 600 L112 600 L112 676 L106 676 C106 644 104 640 92 640 L92 600 L5 600 L5 581 L92 581 L92 98 C92 3 108 -10 227 -10 C346 -10 362 3 362 98 L362 213 L362 213 Z " />
<glyph glyph-name="Utilde" unicode="&#x168;" horiz-adv-x="360" d="M80 729 L90 729 C82 773 87 779 128 779 C125 779 136 774 176 756 C223 735 236 729 234 729 C284 729 289 736 280 789 L270 789 C278 745 273 739 232 739 C235 739 224 744 184 762 C137 783 124 789 126 789 C76 789 71 782 80 729 L80 729 Z M299 700 L299 92 C299 19 285 9 180 9 C75 9 61 19 61 92 L61 700 L40 700 L40 96 C40 3 57 -10 180 -10 C303 -10 320 3 320 96 L320 700 L299 700 L299 700 Z " />
<glyph glyph-name="utilde" unicode="&#x169;" horiz-adv-x="350" d="M75 629 L85 629 C77 673 82 679 123 679 C120 679 131 674 171 656 C218 635 231 629 229 629 C279 629 284 636 275 689 L265 689 C273 645 268 639 227 639 C230 639 219 644 179 662 C132 683 119 689 121 689 C71 689 66 682 75 629 L75 629 Z M315 0 L315 600 L295 600 L295 101 C295 19 281 8 178 8 C70 8 55 19 55 101 L55 600 L35 600 L35 97 C35 3 51 -10 171 -10 C256 -10 286 -2 295 45 L295 0 L315 0 L315 0 Z " />
<glyph glyph-name="Umacron" unicode="&#x16a;" horiz-adv-x="360" d="M53 746 L307 746 L307 759 L53 759 L53 746 L53 746 Z M299 700 L299 92 C299 19 285 9 180 9 C75 9 61 19 61 92 L61 700 L40 700 L40 96 C40 3 57 -10 180 -10 C303 -10 320 3 320 96 L320 700 L299 700 L299 700 Z " />
<glyph glyph-name="umacron" unicode="&#x16b;" horiz-adv-x="350" d="M48 646 L302 646 L302 659 L48 659 L48 646 L48 646 Z M315 0 L315 600 L295 600 L295 101 C295 19 281 8 178 8 C70 8 55 19 55 101 L55 600 L35 600 L35 97 C35 3 51 -10 171 -10 C256 -10 286 -2 295 45 L295 0 L315 0 L315 0 Z " />
<glyph glyph-name="Uring" unicode="&#x16e;" horiz-adv-x="360" d="M154 776 C154 800 157 803 180 803 C203 803 206 800 206 775 C206 751 203 748 180 748 C157 748 154 751 154 776 L154 776 Z M145 775 C145 745 149 741 180 741 C211 741 215 745 215 775 C215 806 211 810 180 810 C149 810 145 806 145 775 L145 775 Z M299 700 L299 92 C299 19 285 9 180 9 C75 9 61 19 61 92 L61 700 L40 700 L40 96 C40 3 57 -10 180 -10 C303 -10 320 3 320 96 L320 700 L299 700 L299 700 Z " />
<glyph glyph-name="uring" unicode="&#x16f;" horiz-adv-x="350" d="M149 675 C149 699 152 702 175 702 C198 702 201 699 201 674 C201 650 198 647 175 647 C152 647 149 650 149 675 L149 675 Z M140 674 C140 644 144 640 175 640 C206 640 210 644 210 674 C210 705 206 709 175 709 C144 709 140 705 140 674 L140 674 Z M315 0 L315 600 L295 600 L295 101 C295 19 281 8 178 8 C70 8 55 19 55 101 L55 600 L35 600 L35 97 C35 3 51 -10 171 -10 C256 -10 286 -2 295 45 L295 0 L315 0 L315 0 Z " />
<glyph glyph-name="Uogonek" unicode="&#x172;" horiz-adv-x="360" d="M299 700 L299 92 C299 19 285 9 180 9 C75 9 61 19 61 92 L61 700 L40 700 L40 96 C40 9 55 -8 159 -10 C151 -24 149 -47 149 -64 C149 -90 150 -94 181 -94 C214 -94 212 -91 212 -67 L200 -67 C200 -85 201 -87 180 -87 C161 -87 160 -84 160 -65 C160 -46 162 -24 170 -10 C174 -10 178 -10 182 -10 C305 -10 322 3 322 96 L322 700 L299 700 L299 700 Z " />
<glyph glyph-name="uogonek" unicode="&#x173;" horiz-adv-x="350" d="M315 0 L315 600 L295 600 L295 101 C295 19 281 8 178 8 C70 8 55 19 55 101 L55 600 L35 600 L35 97 C35 3 51 -10 171 -10 C256 -10 286 -2 295 45 L295 12 C278 3 275 -29 275 -53 C275 -79 276 -83 306 -83 C339 -83 337 -80 337 -56 L326 -56 C326 -74 327 -76 306 -76 C286 -76 285 -73 285 -54 C285 -35 287 -12 295 2 L295 0 L315 0 L315 0 Z " />
<glyph glyph-name="Wcircumflex" unicode="&#x174;" horiz-adv-x="440" d="M412 700 L392 700 L357 17 L234 700 L206 700 L83 17 L48 700 L28 700 L28 695 L28 695 L68 0 L96 0 L220 675 L344 0 L372 0 C385 232 398 464 412 695 L412 700 L412 700 Z M209 800 L134 740 L147 740 L220 792 L293 740 L306 740 L231 800 L209 800 L209 800 Z " />
<glyph glyph-name="wcircumflex" unicode="&#x175;" horiz-adv-x="461" d="M431 600 L411 600 L376 14 L242 600 L219 600 L85 14 L50 600 L30 600 L30 595 L30 595 L70 0 L98 0 L230 582 L363 0 L391 0 C404 198 417 397 431 595 L431 600 L431 600 Z M220 700 L144 640 L157 640 L231 693 L305 641 L318 641 L242 701 L220 700 L220 700 Z " />
<glyph glyph-name="Ycircumflex" unicode="&#x176;" horiz-adv-x="383" d="M202 0 L202 348 L346 695 C347 695 348 699 348 700 L325 700 L323 695 L192 361 C148 472 104 583 60 694 L60 694 L58 699 L35 699 L36 696 C37 694 37 694 37 694 L182 347 L182 -1 L202 0 L202 0 Z M181 799 L106 739 L119 739 L192 791 L265 739 L278 739 L203 799 L181 799 L181 799 Z " />
<glyph glyph-name="ycircumflex" unicode="&#x177;" horiz-adv-x="350" d="M295 600 L295 159 C295 82 281 71 178 71 C70 71 55 82 55 159 L55 600 L35 600 L35 155 C35 65 51 53 171 53 C256 53 286 60 295 104 L295 -30 C295 -78 281 -84 175 -84 C69 -84 55 -78 55 -31 L55 5 L35 5 L35 -28 C35 -92 52 -101 175 -101 C298 -101 315 -92 315 -27 L315 599 L295 600 L295 600 Z M164 699 L89 639 L102 639 L175 691 L248 639 L261 639 L186 699 L164 699 L164 699 Z " />
<glyph glyph-name="Ydieresis" unicode="&#x178;" horiz-adv-x="383" d="M214 740 L233 740 L233 759 L214 759 L214 740 L214 740 Z M149 740 L168 740 L168 759 L149 759 L149 740 L149 740 Z M202 0 L202 348 L346 695 C347 695 348 699 348 700 L325 700 L323 695 L192 361 C148 472 104 583 60 694 L60 694 L58 699 L35 699 L36 696 C37 694 37 694 37 694 L182 347 L182 -1 L202 0 L202 0 Z " />
<glyph glyph-name="Zacute" unicode="&#x179;" horiz-adv-x="329" d="M158 740 L170 740 L234 794 L212 794 L158 740 L158 740 Z M19 681 L281 681 L21 19 L19 13 L19 0 L307 0 L307 19 L43 19 L303 681 L306 688 L306 700 L19 700 L19 681 L19 681 Z " />
<glyph glyph-name="zacute" unicode="&#x17a;" horiz-adv-x="313" d="M148 640 L160 640 L224 700 L202 700 L148 640 L148 640 Z M11 583 L273 583 L13 17 L11 13 L11 0 L298 0 L298 17 L34 17 L294 583 L297 589 L297 600 L11 600 L11 583 L11 583 Z " />
<glyph glyph-name="Zdot" unicode="&#x17b;" horiz-adv-x="329" d="M153 729 L175 729 L175 750 L153 750 L153 729 L153 729 Z M19 681 L281 681 L21 19 L19 13 L19 0 L307 0 L307 19 L43 19 L303 681 L306 688 L306 700 L19 700 L19 681 L19 681 Z " />
<glyph glyph-name="zdot" unicode="&#x17c;" horiz-adv-x="313" d="M143 629 L165 629 L165 650 L143 650 L143 629 L143 629 Z M11 583 L273 583 L13 17 L11 13 L11 0 L298 0 L298 17 L34 17 L294 583 L297 589 L297 600 L11 600 L11 583 L11 583 Z " />
<glyph glyph-name="Zcaron" unicode="&#x17d;" horiz-adv-x="329" d="M252 794 L179 747 L106 794 L93 794 L168 740 L190 740 L265 794 L252 794 L252 794 Z M19 681 L281 681 L21 19 L19 13 L19 0 L307 0 L307 19 L43 19 L303 681 L306 688 L306 700 L19 700 L19 681 L19 681 Z " />
<glyph glyph-name="zcaron" unicode="&#x17e;" horiz-adv-x="313" d="M227 700 L154 648 L81 700 L68 700 L143 640 L165 640 L240 700 L227 700 L227 700 Z M11 583 L273 583 L13 17 L11 13 L11 0 L298 0 L298 17 L34 17 L294 583 L297 589 L297 600 L11 600 L11 583 L11 583 Z " />
<glyph glyph-name="oogonek" unicode="&#x1eb;" horiz-adv-x="309" d="M242 92 C242 17 231 7 151 7 C70 7 59 17 59 92 L59 548 C59 623 70 633 151 633 C231 633 242 623 242 548 L242 92 L242 92 Z M288 -17 L289 -16 C265 20 262 33 262 96 L262 544 C262 637 249 650 151 650 C53 650 40 637 40 544 L40 96 C40 3 53 -10 151 -10 C213 -10 241 -5 253 22 C259 9 270 -2 288 -18 L288 -17 L288 -17 Z " />
<glyph glyph-name="Oslashacute" unicode="&#x1fe;" horiz-adv-x="360" d="M174 740 L186 740 L250 800 L228 800 L174 740 L174 740 Z M299 92 C299 19 285 9 180 9 C105 9 77 14 67 44 L298 639 C299 630 299 620 299 608 L299 92 L299 92 Z M320 96 L320 604 C320 635 318 657 311 673 L325 710 L315 710 L305 683 C288 705 252 709 180 709 C57 709 40 696 40 603 L40 95 C40 64 42 42 49 26 L35 -11 L45 -11 L55 16 C72 -6 108 -10 180 -10 C303 -10 320 3 320 96 L320 96 Z M62 61 C61 70 61 80 61 92 L61 608 C61 681 75 691 180 691 C255 691 283 686 293 656 L62 61 L62 61 Z " />
<glyph glyph-name="oslashacute" unicode="&#x1ff;" horiz-adv-x="350" d="M169 640 L181 640 L245 700 L223 700 L169 640 L169 640 Z M295 95 C295 18 281 7 175 7 C103 7 73 12 61 39 L291 548 C293 537 294 523 294 506 L295 95 L295 95 Z M314 100 L314 502 C314 536 312 560 304 576 L320 611 L310 611 L298 585 C280 606 244 610 174 610 C51 610 34 597 34 501 L34 99 C34 65 36 41 44 25 L28 -10 L38 -10 L50 16 C68 -5 104 -9 174 -9 C297 -9 314 4 314 100 L314 100 Z M57 53 C55 64 54 78 54 95 L54 505 C54 582 68 593 174 593 C246 593 276 588 288 561 L57 53 L57 53 Z " />
<glyph glyph-name="G_sc" unicode="&#x262;" horiz-adv-x="302" d="M258 544 L261 543 L258 543 L258 544 L258 544 Z M203 309 L203 292 L243 292 C243 256 244 168 244 95 C244 18 233 8 151 8 C70 8 59 18 59 94 L59 548 C59 624 70 634 151 634 C232 634 243 624 243 547 L243 512 L262 512 C262 542 263 586 258 607 L258 607 C248 644 221 651 151 651 C53 651 40 638 40 545 L40 97 C40 4 53 -9 151 -9 C223 -9 249 -2 258 39 C262 28 268 15 277 -4 L278 -3 C264 26 262 39 262 98 L262 310 L203 309 L203 309 Z " />
<glyph glyph-name="I_sc" unicode="&#x26a;" horiz-adv-x="99" d="M59 0 L59 640 L40 640 L40 0 L59 0 L59 0 Z " />
<glyph glyph-name="N_sc" unicode="&#x274;" horiz-adv-x="314" d="M257 640 L257 23 L66 640 L41 640 L41 0 L57 0 L57 617 L248 0 L274 0 L274 640 L257 640 L257 640 Z " />
<glyph glyph-name="R_sc" unicode="&#x280;" horiz-adv-x="311" d="M252 0 L271 0 L271 242 C271 291 266 314 240 324 C266 336 271 364 271 424 L271 545 C271 629 258 641 163 641 L40 641 L40 1 L59 1 L59 315 L163 315 C241 315 253 307 253 242 C253 242 252 229 252 1 L252 0 L252 0 Z M163 332 L59 332 L59 624 L163 624 C242 624 254 615 253 545 C253 545 252 556 252 424 C252 343 241 332 163 332 L163 332 Z " />
<glyph glyph-name="Y_sc" unicode="&#x28f;" horiz-adv-x="324" d="M172 0 L172 325 C211 429 249 533 288 637 L289 640 L269 640 C269 639 268 635 268 635 L163 338 C128 437 92 536 57 635 L56 636 L55 640 L35 640 L36 637 L37 636 L154 325 L154 0 L172 0 L172 0 Z " />
<glyph glyph-name="B_sc" unicode="&#x299;" horiz-adv-x="311" d="M146 344 L59 344 L59 623 L146 623 C234 623 247 614 246 544 C246 544 245 553 245 412 C245 352 233 344 146 344 L146 344 Z M230 339 C259 349 264 371 264 417 L264 544 C264 628 250 640 146 640 L40 640 L40 0 L166 0 C258 0 271 12 271 96 L271 255 C271 309 265 331 230 339 L230 339 Z M59 17 L59 327 L166 327 C243 327 253 318 253 254 C253 254 252 260 252 96 C252 26 242 17 166 17 L59 17 L59 17 Z " />
<glyph glyph-name="H_sc" unicode="&#x29c;" horiz-adv-x="311" d="M271 0 L271 640 L252 640 L252 341 L59 341 L59 640 L40 640 L40 0 L59 0 L59 324 L252 324 L252 0 L271 0 L271 0 Z " />
<glyph glyph-name="L_sc" unicode="&#x29f;" horiz-adv-x="241" d="M226 18 L59 18 L59 640 L40 640 L40 0 L226 0 L226 18 L226 18 Z " />
<glyph glyph-name="circumflex" unicode="&#x2c6;" horiz-adv-x="574" d="M277 700 L201 640 L214 640 L287 692 L360 640 L374 640 L298 700 L277 700 L277 700 Z " />
<glyph glyph-name="caron" unicode="&#x2c7;" horiz-adv-x="574" d="M360 700 L287 648 L214 700 L201 700 L277 640 L298 640 L374 700 L360 700 L360 700 Z " />
<glyph glyph-name="firsttonechinese" unicode="&#x2c9;" horiz-adv-x="574" d="M161 643 L414 643 L414 656 L161 656 L161 643 L161 643 Z " />
<glyph glyph-name="breve" unicode="&#x2d8;" horiz-adv-x="574" d="M202 694 L190 694 C190 637 185 640 287 640 C387 640 382 637 382 694 L369 694 C369 649 374 651 287 651 C197 651 202 649 202 694 L202 694 Z " />
<glyph glyph-name="dotaccent" unicode="&#x2d9;" horiz-adv-x="574" d="M277 640 L297 640 L297 660 L277 660 L277 640 L277 640 Z " />
<glyph glyph-name="ring" unicode="&#x2da;" horiz-adv-x="574" d="M261 675 C261 699 264 702 287 702 C310 702 313 699 313 674 C313 650 310 647 287 647 C264 647 261 650 261 675 L261 675 Z M252 674 C252 644 256 640 287 640 C319 640 323 644 323 674 C323 705 319 709 287 709 C256 709 252 705 252 674 L252 674 Z " />
<glyph glyph-name="A_sc" unicode="&#x1d00;" horiz-adv-x="272" d="M257 0 C257 2 257 5 256 5 L148 640 L124 640 L16 5 C16 5 15 2 15 0 L34 0 L72 229 L200 229 L238 0 L257 0 L257 0 Z M197 246 L74 246 L135 616 L197 246 L197 246 Z " />
<glyph glyph-name="C_sc" unicode="&#x1d04;" horiz-adv-x="282" d="M258 543 L258 544 L263 543 C263 570 262 590 258 605 L258 605 C248 642 221 649 151 649 C53 649 40 636 40 543 L40 95 C40 2 53 -11 151 -11 C249 -11 262 2 262 96 L262 127 L243 127 C243 127 244 108 244 93 C244 16 233 6 151 6 C70 6 59 16 59 92 L59 546 C59 622 70 632 151 632 C232 632 243 622 243 545 L243 510 L262 510 C262 524 263 528 263 542 L258 543 L258 543 Z " />
<glyph glyph-name="D_sc" unicode="&#x1d05;" horiz-adv-x="311" d="M149 0 C256 0 271 12 271 96 L271 544 C271 628 256 640 149 640 L40 640 L40 0 L149 0 L149 0 Z M59 17 L59 623 L149 623 C241 623 253 614 253 544 C253 544 252 515 252 96 C252 26 240 17 149 17 L59 17 L59 17 Z " />
<glyph glyph-name="E_sc" unicode="&#x1d07;" horiz-adv-x="261" d="M241 18 L59 18 L59 325 L201 325 L201 343 L59 343 L59 622 L236 622 L236 640 L40 640 L40 0 L241 0 L241 18 L241 18 Z " />
<glyph glyph-name="J_sc" unicode="&#x1d0a;" horiz-adv-x="271" d="M213 640 L213 92 C213 17 202 7 121 7 C40 7 29 17 29 90 L29 141 L10 141 L10 93 C10 2 23 -10 121 -10 C218 -10 231 2 231 93 L231 640 L213 640 L213 640 Z " />
<glyph glyph-name="K_sc" unicode="&#x1d0b;" horiz-adv-x="306" d="M59 640 L40 640 L40 0 L59 0 L59 217 L139 357 L133 346 L280 0 L301 0 L300 3 L299 5 L299 5 L144 367 L297 635 C298 635 302 640 301 640 L280 640 L60 247 L59 640 L59 640 Z " />
<glyph glyph-name="M_sc" unicode="&#x1d0d;" horiz-adv-x="386" d="M346 0 L346 640 L316 640 L193 77 L70 640 L40 640 L40 0 L59 0 L59 631 L185 47 L189 48 C188 47 187 46 186 46 L194 7 L199 28 L328 630 L328 -1 L346 0 L346 0 Z " />
<glyph glyph-name="O_sc" unicode="&#x1d0f;" horiz-adv-x="302" d="M242 92 C242 17 231 7 151 7 C70 7 59 17 59 92 L59 548 C59 623 70 633 151 633 C231 633 242 623 242 548 L242 92 L242 92 Z M262 96 L262 544 C262 637 249 650 151 650 C53 650 40 637 40 544 L40 96 C40 3 53 -10 151 -10 C249 -10 262 3 262 96 L262 96 Z " />
<glyph glyph-name="P_sc" unicode="&#x1d18;" horiz-adv-x="296" d="M59 0 L59 258 L163 258 C258 258 271 270 271 359 L271 544 C271 628 258 640 163 640 L40 640 L40 0 L59 0 L59 0 Z M59 275 L59 623 L163 623 C242 623 253 614 253 544 C253 544 252 547 252 359 C252 285 241 275 163 275 L59 275 L59 275 Z " />
<glyph glyph-name="T_sc" unicode="&#x1d1b;" horiz-adv-x="271" d="M145 0 L145 623 L266 623 L266 640 L5 640 L5 623 L126 623 L126 0 L145 0 L145 0 Z " />
<glyph glyph-name="U_sc" unicode="&#x1d1c;" horiz-adv-x="301" d="M242 640 L242 92 C242 17 231 7 151 7 C70 7 59 17 59 92 L59 640 L40 640 L40 96 C40 3 53 -10 151 -10 C249 -10 262 3 262 96 C262 335 261 640 261 640 L242 640 L242 640 Z " />
<glyph glyph-name="V_sc" unicode="&#x1d20;" horiz-adv-x="273" d="M15 640 C15 638 15 635 16 635 L124 0 L149 0 L257 635 C257 635 258 638 258 640 L239 640 L137 21 L35 640 L15 640 L15 640 Z " />
<glyph glyph-name="W_sc" unicode="&#x1d21;" horiz-adv-x="379" d="M351 640 L333 640 L297 19 L202 640 L177 640 L82 19 L46 640 L28 640 L28 635 L28 635 L68 0 L94 0 L190 614 L285 0 L311 0 C324 212 337 424 351 635 L351 640 L351 640 Z " />
<glyph glyph-name="Z_sc" unicode="&#x1d22;" horiz-adv-x="271" d="M19 623 L225 623 L21 17 L19 12 L19 0 L249 0 L249 17 L41 17 L245 623 L248 631 L248 640 L19 640 L19 623 L19 623 Z " />
<glyph glyph-name="Wgrave" unicode="&#x1e80;" horiz-adv-x="440" d="M214 740 L226 740 L172 800 L150 800 L214 740 L214 740 Z M412 700 L392 700 L357 17 L234 700 L206 700 L83 17 L48 700 L28 700 L28 695 L28 695 L68 0 L96 0 L220 675 L344 0 L372 0 C385 232 398 464 412 695 L412 700 L412 700 Z " />
<glyph glyph-name="wgrave" unicode="&#x1e81;" horiz-adv-x="461" d="M224 640 L237 640 L183 700 L161 700 L224 640 L224 640 Z M431 600 L411 600 L376 14 L242 600 L219 600 L85 14 L50 600 L30 600 L30 595 L30 595 L70 0 L98 0 L230 582 L363 0 L391 0 C404 198 417 397 431 595 L431 600 L431 600 Z " />
<glyph glyph-name="Wacute" unicode="&#x1e82;" horiz-adv-x="440" d="M214 740 L226 740 L290 800 L268 800 L214 740 L214 740 Z M412 700 L392 700 L357 17 L234 700 L206 700 L83 17 L48 700 L28 700 L28 695 L28 695 L68 0 L96 0 L220 675 L344 0 L372 0 C385 232 398 464 412 695 L412 700 L412 700 Z " />
<glyph glyph-name="wacute" unicode="&#x1e83;" horiz-adv-x="461" d="M224 640 L237 640 L300 700 L278 700 L224 640 L224 640 Z M431 600 L411 600 L376 14 L242 600 L219 600 L85 14 L50 600 L30 600 L30 595 L30 595 L70 0 L98 0 L230 582 L363 0 L391 0 C404 198 417 397 431 595 L431 600 L431 600 Z " />
<glyph glyph-name="Wdieresis" unicode="&#x1e84;" horiz-adv-x="440" d="M243 740 L262 740 L262 759 L243 759 L243 740 L243 740 Z M178 740 L197 740 L197 759 L178 759 L178 740 L178 740 Z M412 700 L392 700 L357 17 L234 700 L206 700 L83 17 L48 700 L28 700 L28 695 L28 695 L68 0 L96 0 L220 675 L344 0 L372 0 C385 232 398 464 412 695 L412 700 L412 700 Z " />
<glyph glyph-name="wdieresis" unicode="&#x1e85;" horiz-adv-x="461" d="M254 640 L272 640 L272 659 L254 659 L254 640 L254 640 Z M189 640 L207 640 L207 659 L189 659 L189 640 L189 640 Z M431 600 L411 600 L376 14 L242 600 L219 600 L85 14 L50 600 L30 600 L30 595 L30 595 L70 0 L98 0 L230 582 L363 0 L391 0 C404 198 417 397 431 595 L431 600 L431 600 Z " />
<glyph glyph-name="Ygrave" unicode="&#x1ef2;" horiz-adv-x="383" d="M185 740 L197 740 L143 800 L121 800 L185 740 L185 740 Z M202 0 L202 348 L346 695 C347 695 348 699 348 700 L325 700 L323 695 L192 361 C148 472 104 583 60 694 L60 694 L58 699 L35 699 L36 696 C37 694 37 694 37 694 L182 347 L182 -1 L202 0 L202 0 Z " />
<glyph glyph-name="ygrave" unicode="&#x1ef3;" horiz-adv-x="350" d="M169 640 L181 640 L127 700 L105 700 L169 640 L169 640 Z M295 600 L295 159 C295 82 281 71 178 71 C70 71 55 82 55 159 L55 600 L35 600 L35 155 C35 65 51 53 171 53 C256 53 286 60 295 104 L295 -30 C295 -78 281 -84 175 -84 C69 -84 55 -78 55 -31 L55 5 L35 5 L35 -28 C35 -92 52 -101 175 -101 C298 -101 315 -92 315 -27 L315 599 L295 600 L295 600 Z " />
<glyph glyph-name="endash" unicode="&#x2013;" horiz-adv-x="354" d="M10 415 L344 415 L344 427 L10 427 L10 415 L10 415 Z " />
<glyph glyph-name="emdash" unicode="&#x2014;" horiz-adv-x="454" d="M10 415 L444 415 L444 427 L10 427 L10 415 L10 415 Z " />
<glyph glyph-name="quoteleft" unicode="&#x2018;" horiz-adv-x="58" d="M13 530 L43 530 L43 603 L26 603 L26 617 C26 684 28 694 45 702 L39 710 C16 699 13 688 13 613 L13 530 L13 530 Z " />
<glyph glyph-name="quoteright" unicode="&#x2019;" horiz-adv-x="58" d="M45 700 L15 700 L15 627 L32 627 L32 613 C32 546 30 536 13 528 L19 520 C42 531 45 542 45 617 L45 700 L45 700 Z " />
<glyph glyph-name="quotedblleft" unicode="&#x201c;" horiz-adv-x="128" d="M83 530 L113 530 L113 603 L96 603 L96 617 C96 684 98 694 115 702 L109 710 C86 699 83 688 83 613 L83 530 L83 530 Z M13 530 L43 530 L43 603 L26 603 L26 617 C26 684 28 694 45 702 L39 710 C16 699 13 688 13 613 L13 530 L13 530 Z " />
<glyph glyph-name="quotedblright" unicode="&#x201d;" horiz-adv-x="128" d="M115 700 L85 700 L85 627 L102 627 L102 613 C102 546 100 536 83 528 L89 520 C112 531 115 542 115 617 L115 700 L115 700 Z M45 700 L15 700 L15 627 L32 627 L32 613 C32 546 30 536 13 528 L19 520 C42 531 45 542 45 617 L45 700 L45 700 Z " />
<glyph glyph-name="bullet" unicode="&#x2022;" horiz-adv-x="70" d="M52 251 L52 385 C52 400 50 402 35 402 C20 402 18 400 18 385 L18 251 C18 236 20 234 35 234 C50 234 52 236 52 251 L52 251 Z " />
<glyph glyph-name="ellipsis" unicode="&#x2026;" horiz-adv-x="490" d="M395 -10 L415 -10 L415 10 L395 10 L395 -10 L395 -10 Z M235 -10 L255 -10 L255 10 L235 10 L235 -10 L235 -10 Z M75 -10 L95 -10 L95 10 L75 10 L75 -10 L75 -10 Z " />
<glyph glyph-name="perthousand" unicode="&#x2030;" horiz-adv-x="435" d="M589 49 C589 13 582 8 529 8 C477 8 470 13 470 49 L470 314 C470 351 477 356 529 356 C582 356 589 351 589 314 L589 49 L589 49 Z M604 50 L604 314 C604 362 595 369 529 369 C464 369 455 362 455 314 L455 50 C455 2 464 -5 529 -5 C595 -5 604 2 604 50 L604 50 Z M419 49 C419 13 412 8 359 8 C307 8 300 13 300 49 L300 314 C300 351 307 356 359 356 C412 356 419 351 419 314 L419 49 L419 49 Z M433 50 L433 314 C433 362 424 369 358 369 C293 369 284 362 284 314 L284 50 C284 2 293 -5 358 -5 C424 -5 433 2 433 50 L433 50 Z M144 379 C144 343 137 338 84 338 C32 338 25 343 25 379 L25 644 C25 681 32 686 84 686 C137 686 144 681 144 644 L144 379 L144 379 Z M159 380 L159 644 C159 692 150 699 84 699 C19 699 10 692 10 644 L10 380 C10 332 19 325 84 325 C150 325 159 332 159 380 L159 380 Z M10 0 L20 0 L425 700 L415 700 L10 0 L10 0 Z " />
<glyph glyph-name="guilsinglleft" unicode="&#x2039;" horiz-adv-x="211" d="M203 535 L181 535 L6 393 L181 251 L203 251 L28 393 L203 535 L203 535 Z " />
<glyph glyph-name="guilsinglright" unicode="&#x203a;" horiz-adv-x="212" d="M12 535 L183 393 L12 251 L34 251 L204 393 L33 535 L12 535 L12 535 Z " />
<glyph glyph-name="fraction" unicode="&#x2044;" horiz-adv-x="435" d="M10 0 L20 0 L425 700 L415 700 L10 0 L10 0 Z " />
<glyph glyph-name="zerosuperior" unicode="&#x2070;" horiz-adv-x="179" d="M144 438 C144 407 138 403 93 403 C49 403 43 407 43 438 L43 664 C43 696 49 700 93 700 C138 700 144 696 144 664 L144 438 L144 438 Z M155 437 L155 663 C155 704 147 710 91 710 C36 710 28 704 28 663 L28 438 C28 397 36 391 92 391 C148 391 156 397 156 438 L155 437 L155 437 Z " />
<glyph glyph-name="foursuperior" unicode="&#x2074;" horiz-adv-x="174" d="M119 402 L119 480 L165 480 L165 479 L166 480 L167 480 L167 491 L119 491 L119 624 L117 624 C117 624 107 586 107 556 L107 491 L39 491 C120 672 131 700 131 700 L121 700 C121 700 110 675 27 490 C26 490 26 490 26 490 L26 480 L107 480 L107 399 L119 399 L119 400 L122 400 L122 402 L119 402 L119 402 Z " />
<glyph glyph-name="Euro" unicode="&#x20ac;" horiz-adv-x="380" d="M360 136 L339 136 L339 94 C339 19 325 9 219 9 C113 9 98 19 98 92 L98 297 L349 297 L349 309 L98 309 L98 407 L349 407 L349 419 L98 419 L98 607 C98 681 113 691 219 691 C325 691 339 681 339 607 L339 561 L360 561 L360 603 C360 697 343 710 219 710 C94 710 77 697 77 604 L77 419 L5 419 L5 407 L77 407 L77 309 L5 309 L5 297 L77 297 L77 96 C77 3 94 -10 219 -10 C343 -10 360 3 360 97 L360 136 L360 136 Z " />
<glyph glyph-name="minus" unicode="&#x2212;" horiz-adv-x="458" d="M12 294 L446 294 L446 306 L12 306 L12 294 L12 294 Z " />
<glyph glyph-name="F_sc" unicode="&#xa730;" horiz-adv-x="246" d="M204 324 L59 324 L59 622 L226 622 L226 640 L40 640 L40 0 L59 0 L59 307 L204 307 L204 324 L204 324 Z " />
<glyph glyph-name="S_sc" unicode="&#xa731;" horiz-adv-x="270" d="M25 122 L25 81 C25 58 26 41 30 28 L30 28 L30 28 C40 -4 67 -10 136 -10 C233 -10 246 3 246 102 C246 190 243 206 144 330 C48 450 45 457 45 543 C45 622 56 633 137 633 C216 633 227 624 227 559 L227 524 L246 524 L246 559 C246 582 245 599 241 612 L241 612 L241 612 C231 644 205 650 137 650 C40 650 27 637 27 540 C27 447 30 440 128 317 C223 198 226 182 226 99 C226 18 215 7 136 7 C56 7 45 16 45 81 L45 122 L25 122 L25 122 Z " />
</font>
</svg>
