<?xml version="1.0" standalone="no"?>
<!DOCTYPE svg PUBLIC "-//W3C//DTD SVG 20010904//EN"
 "http://www.w3.org/TR/2001/REC-SVG-20010904/DTD/svg10.dtd">
<svg version="1.0" xmlns="http://www.w3.org/2000/svg"
 width="254.000000pt" height="254.000000pt" viewBox="0 0 254.000000 254.000000"
 preserveAspectRatio="xMidYMid meet">
<metadata>
Created by potrace 1.14, written by Peter Selinger 2001-2017
</metadata>
<g transform="translate(0.000000,254.000000) scale(0.100000,-0.100000)"
fill="#000000" stroke="none">
<path d="M1171 2429 c-28 -11 -49 -46 -43 -75 3 -19 20 -33 64 -55 53 -27 59
-33 56 -57 -3 -23 -8 -27 -41 -30 -35 -3 -38 -1 -43 28 -9 40 -32 23 -30 -23
1 -31 3 -32 46 -35 123 -7 148 99 35 148 -23 10 -45 24 -48 32 -7 22 12 48 37
48 25 0 51 -22 39 -33 -3 -4 1 -7 11 -7 13 0 17 7 14 32 -3 29 -6 32 -40 33
-21 0 -46 -3 -57 -6z"/>
<path d="M1520 2385 c-5 -14 -10 -31 -10 -36 0 -15 20 -10 26 6 6 15 49 21 57
8 5 -9 -34 -138 -52 -171 -7 -13 -17 -19 -26 -16 -8 4 -15 2 -15 -4 0 -12 98
-47 107 -38 4 3 -1 12 -11 19 -17 13 -17 18 10 105 15 51 32 92 37 92 18 0 46
-31 40 -46 -3 -8 1 -14 11 -14 9 0 16 6 16 14 0 8 3 21 6 29 4 11 -15 22 -78
42 -46 16 -89 30 -95 32 -7 3 -17 -7 -23 -22z"/>
<path d="M820 2340 c-30 -17 -33 -25 -8 -21 20 3 82 -161 74 -194 l-6 -24 37
15 c49 20 63 34 36 34 -17 0 -28 16 -53 77 -38 90 -41 104 -27 121 14 18 -12
15 -53 -8z"/>
<path d="M1873 2195 c-34 -15 -73 -77 -73 -117 0 -30 33 -84 60 -98 82 -44
185 8 197 99 13 93 -90 157 -184 116z m90 -16 c55 -30 73 -92 40 -139 -25 -36
-45 -49 -75 -50 -32 0 -88 52 -88 82 0 33 31 88 59 103 32 18 37 18 64 4z"/>
<path d="M530 2162 c-22 -7 -100 -73 -100 -84 0 -5 7 -8 16 -6 10 2 42 -26 81
-70 52 -60 62 -76 52 -88 -22 -27 14 -15 49 16 36 34 44 57 12 40 -16 -8 -26
-4 -55 21 -50 44 -28 54 51 24 l62 -23 24 25 23 26 -23 -6 c-13 -3 -43 3 -68
13 -24 11 -46 20 -49 20 -3 0 -7 0 -10 0 -4 0 -2 8 3 17 20 34 -29 88 -68 75z
m28 -44 c16 -16 15 -43 -3 -58 -27 -23 -73 38 -48 63 10 11 38 8 51 -5z"/>
<path d="M1104 2030 c-482 -109 -741 -629 -540 -1083 68 -154 203 -296 356
-371 59 -30 99 -44 212 -74 38 -10 228 -9 287 1 92 17 241 83 316 140 152 116
275 313 301 482 43 276 -34 516 -227 704 -101 99 -248 178 -384 206 -75 16
-241 13 -321 -5z"/>
<path d="M2258 1879 c-4 -30 -153 -115 -173 -99 -28 23 -21 -8 17 -77 l39 -72
35 16 c40 20 45 37 8 30 -26 -5 -64 24 -64 49 0 15 134 94 159 94 9 0 22 -5
29 -12 18 -18 15 -3 -8 42 -24 48 -38 57 -42 29z"/>
<path d="M245 1834 c-14 -14 -55 -86 -55 -97 0 -2 13 -4 29 -4 43 0 164 -73
171 -103 5 -22 9 -18 38 39 38 75 39 94 11 122 -17 17 -29 20 -60 16 -22 -3
-39 -1 -39 3 0 17 -32 40 -55 40 -13 0 -31 -7 -40 -16z m67 -38 c6 -9 2 -44
-7 -54 -5 -6 -65 34 -65 44 0 31 53 39 72 10z m118 -59 c0 -45 -14 -53 -59
-32 -46 20 -51 37 -20 59 29 20 79 3 79 -27z"/>
<path d="M181 1481 c-19 -12 -6 -61 17 -61 31 0 45 16 38 44 -7 27 -29 33 -55
17z"/>
<path d="M2302 1478 c-20 -20 -14 -47 12 -54 32 -8 46 2 46 31 0 32 -35 46
-58 23z"/>
<path d="M158 1198 c-49 -13 -88 -59 -88 -103 0 -46 19 -85 42 -85 16 0 17 3
8 20 -13 24 -16 82 -5 99 11 18 69 41 105 41 39 0 70 -31 70 -70 0 -27 -9 -35
-33 -31 -5 1 -7 -4 -5 -11 4 -12 52 -13 71 -1 10 6 -1 59 -20 96 -21 43 -84
62 -145 45z"/>
<path d="M2385 1171 c-2 -5 7 -13 21 -19 20 -10 24 -17 20 -39 -2 -16 -5 -32
-5 -36 -1 -5 -5 -6 -9 -3 -5 3 -31 8 -58 11 -86 11 -122 24 -129 46 -9 27 -13
21 -24 -34 -8 -44 -1 -61 15 -36 6 10 56 8 119 -5 11 -3 28 -5 38 -5 9 -1 26
-10 37 -21 15 -15 22 -17 25 -8 7 22 26 140 23 143 -8 8 -68 12 -73 6z"/>
<path d="M2146 938 c-20 -48 -20 -51 3 -43 31 10 189 -63 193 -89 3 -17 7 -14
21 18 12 27 14 43 7 50 -7 7 -10 6 -10 -3 0 -16 -23 -9 -114 32 -40 18 -71 39
-76 51 -7 19 -10 17 -24 -16z"/>
<path d="M344 951 c9 -13 -14 -28 -94 -61 -40 -17 -82 -28 -92 -24 -22 7 -22
3 -2 -44 14 -34 17 -35 24 -16 5 11 25 29 47 39 113 52 143 61 143 44 0 -9 3
-10 10 -3 12 12 -15 74 -31 74 -6 0 -8 -4 -5 -9z"/>
<path d="M402 784 c-27 -19 -21 -33 11 -27 13 3 29 -2 36 -10 10 -13 -1 -24
-68 -72 -68 -48 -83 -54 -101 -45 -27 14 -25 6 8 -41 31 -44 42 -49 42 -16 0
17 17 36 64 70 35 26 70 49 78 52 21 8 30 -31 12 -49 -22 -23 7 -27 34 -5 l23
18 -46 62 c-25 33 -45 65 -45 70 0 14 -23 11 -48 -7z"/>
<path d="M2051 771 c-31 -43 -36 -83 -16 -125 31 -65 112 -100 170 -74 24 11
65 68 65 91 0 26 -19 30 -29 5 -5 -13 -20 -34 -35 -47 -34 -32 -86 -24 -127
18 -34 36 -37 69 -10 102 17 21 22 22 40 11 32 -19 28 11 -4 32 -31 21 -30 21
-54 -13z"/>
<path d="M585 536 c-1 -61 -5 -79 -25 -110 -17 -25 -33 -36 -50 -36 -24 -1
-24 -1 10 -30 35 -29 60 -38 60 -21 0 5 -5 11 -12 13 -18 6 40 92 71 106 14 6
46 20 71 30 45 20 45 20 17 27 -21 6 -37 1 -66 -18 -21 -14 -41 -24 -44 -21
-2 3 -1 19 3 37 5 25 11 32 28 30 12 -2 22 1 22 5 0 6 -73 62 -82 62 -1 0 -3
-33 -3 -74z"/>
<path d="M1893 581 c-36 -30 -46 -58 -15 -43 9 5 22 7 29 5 15 -5 87 -93 81
-98 -3 -3 -47 8 -98 24 -68 22 -99 27 -112 20 -10 -5 -18 -14 -18 -20 0 -6 5
-7 10 -4 11 7 65 -44 108 -100 21 -28 26 -45 23 -74 -2 -14 6 -11 52 23 33 24
35 38 3 30 -25 -6 -46 10 -89 70 l-21 29 30 -8 c16 -4 34 -8 39 -10 6 -1 17
-5 25 -8 50 -22 109 -34 113 -24 2 6 -25 48 -60 92 -40 50 -62 87 -59 97 7 29
-7 28 -41 -1z"/>
<path d="M1663 428 c-18 -6 -33 -17 -33 -24 0 -7 6 -11 14 -8 14 5 45 -56 64
-129 9 -33 8 -41 -9 -58 -41 -41 -71 -15 -105 88 l-23 68 22 18 22 19 -27 -6
c-15 -4 -39 -11 -54 -16 -27 -11 -27 -11 -7 -29 11 -11 31 -49 43 -85 27 -76
48 -99 90 -99 36 0 80 37 80 67 0 12 -11 53 -25 91 -15 39 -23 80 -20 93 3 12
4 22 3 21 -2 -1 -18 -6 -35 -11z"/>
<path d="M1003 374 c-57 -29 -84 -132 -49 -187 28 -41 129 -70 140 -40 9 22 8
23 -24 23 -66 0 -99 35 -94 99 4 54 34 86 80 86 35 0 39 -3 42 -27 4 -38 27
-26 30 16 2 30 -1 34 -29 40 -46 9 -60 7 -96 -10z"/>
<path d="M1266 325 c-71 -71 -44 -194 46 -214 79 -18 143 50 133 144 -6 66
-37 97 -100 101 -40 2 -50 -1 -79 -31z m121 -18 c8 -8 18 -30 23 -50 17 -79
-17 -124 -85 -111 -30 5 -40 13 -51 40 -25 61 -14 121 26 137 23 9 71 0 87
-16z"/>
</g>
</svg>
